<?xml version="1.0" encoding="UTF-8"?>
<svg width="270px" height="80px" viewBox="0 0 270 80" version="1.1" xmlns="http://www.w3.org/2000/svg" xmlns:xlink="http://www.w3.org/1999/xlink">
    <!-- Generator: sketchtool 61 (101010) - https://sketch.com -->
    <title>10533298-E9ED-49EC-A169-BD5670C74CED@1.00x</title>
    <desc>Created with sketchtool.</desc>
    <defs>
        <linearGradient x1="50%" y1="0%" x2="50%" y2="100%" id="linearGradient-1">
            <stop stop-color="#00C3FF" offset="0%"></stop>
            <stop stop-color="#00E3FF" offset="100%"></stop>
        </linearGradient>
        <linearGradient x1="50%" y1="0%" x2="50%" y2="100%" id="linearGradient-2">
            <stop stop-color="#FFC800" offset="0%"></stop>
            <stop stop-color="#FFC900" offset="100%"></stop>
        </linearGradient>
        <linearGradient x1="86.7245433%" y1="30.5156513%" x2="-50.4810997%" y2="137.756613%" id="linearGradient-3">
            <stop stop-color="#FF3944" offset="0%"></stop>
            <stop stop-color="#C31161" offset="100%"></stop>
        </linearGradient>
        <linearGradient x1="50%" y1="0%" x2="50%" y2="100%" id="linearGradient-4">
            <stop stop-color="#11D574" offset="0%"></stop>
            <stop stop-color="#00F076" offset="100%"></stop>
        </linearGradient>
    </defs>
    <g id="Landing-page" stroke="none" stroke-width="1" fill="none" fill-rule="evenodd">
        <g id="Desktop" transform="translate(-122.000000, -764.000000)">
            <g id="Android_betaButton" transform="translate(122.000000, 764.000000)">
                <path d="M17.9471964,1 C12.4084447,1 10.0618315,1.45315192 7.63367893,2.75174212 C5.52646593,3.87869197 3.87869197,5.52646593 2.75174212,7.63367893 C1.45315192,10.0618315 1,12.4084447 1,17.9471964 L1,62.0528036 C1,67.5915553 1.45315192,69.9381685 2.75174212,72.3663211 C3.87869197,74.4735341 5.52646593,76.121308 7.63367893,77.2482579 C10.0618315,78.5468481 12.4084447,79 17.9471964,79 L252.052804,79 C257.591555,79 259.938168,78.5468481 262.366321,77.2482579 C264.473534,76.121308 266.121308,74.4735341 267.248258,72.3663211 C268.546848,69.9381685 269,67.5915553 269,62.0528036 L269,17.9471964 C269,12.4084447 268.546848,10.0618315 267.248258,7.63367893 C266.121308,5.52646593 264.473534,3.87869197 262.366321,2.75174212 C259.938168,1.45315192 257.591555,1 252.052804,1 L17.9471964,1 Z" id="Rectangle" stroke="#202124" stroke-width="2" fill="#FFFFFF" fill-rule="evenodd"></path>
                <path d="M89.157,28.272 C91.0156667,28.272 92.5173333,27.6656667 93.662,26.453 C94.1833333,25.9316667 94.563,25.3168333 94.801,24.6085 C95.039,23.9001667 95.158,23.1606667 95.158,22.39 C95.158,22.05 95.1296667,21.7213333 95.073,21.404 L95.073,21.404 L89.14,21.404 L89.14,23.104 L93.271,23.104 C93.2143333,23.546 93.0981667,23.954 92.9225,24.328 C92.7468333,24.702 92.5343333,25.0136667 92.285,25.263 C91.8996667,25.6256667 91.4633333,25.9146667 90.976,26.13 C90.4886667,26.3453333 89.8823333,26.453 89.157,26.453 C88.3636667,26.453 87.627,26.266 86.947,25.892 C86.267,25.518 85.723,24.9853333 85.315,24.294 C84.907,23.6026667 84.703,22.8093333 84.703,21.914 C84.703,21.0186667 84.907,20.2253333 85.315,19.534 C85.723,18.8426667 86.267,18.31 86.947,17.936 C87.627,17.562 88.358,17.375 89.14,17.375 C89.8086667,17.375 90.4178333,17.494 90.9675,17.732 C91.5171667,17.97 91.9903333,18.31 92.387,18.752 L92.387,18.752 L93.713,17.426 C93.1803333,16.8366667 92.5173333,16.3776667 91.724,16.049 C90.9306667,15.7203333 90.075,15.556 89.157,15.556 C88.001,15.556 86.9356667,15.8336667 85.961,16.389 C84.9863333,16.9443333 84.2128333,17.7065 83.6405,18.6755 C83.0681667,19.6445 82.782,20.724 82.782,21.914 C82.782,23.104 83.0681667,24.1835 83.6405,25.1525 C84.2128333,26.1215 84.9863333,26.8836667 85.961,27.439 C86.9356667,27.9943333 88.001,28.272 89.157,28.272 Z M105.049571,28 L105.049571,26.181 L99.5585714,26.181 L99.5585714,22.815 L104.505571,22.815 L104.505571,21.013 L99.5585714,21.013 L99.5585714,17.647 L105.049571,17.647 L105.049571,15.828 L97.6545714,15.828 L97.6545714,28 L105.049571,28 Z M112.085143,28 L112.085143,17.647 L115.485143,17.647 L115.485143,15.828 L106.781143,15.828 L106.781143,17.647 L110.181143,17.647 L110.181143,28 L112.085143,28 Z M126.683286,28 C127.374619,28 128.012119,27.8555 128.595786,27.5665 C129.179452,27.2775 129.644119,26.8723333 129.989786,26.351 C130.335452,25.8296667 130.508286,25.2346667 130.508286,24.566 C130.508286,23.8973333 130.318452,23.3136667 129.938786,22.815 C129.559119,22.3163333 129.063286,21.9593333 128.451286,21.744 L128.451286,21.744 L128.451286,21.642 C128.938619,21.4153333 129.332452,21.081 129.632786,20.639 C129.933119,20.197 130.083286,19.6756667 130.083286,19.075 C130.083286,18.4743333 129.918952,17.9246667 129.590286,17.426 C129.261619,16.9273333 128.822452,16.5363333 128.272786,16.253 C127.723119,15.9696667 127.125286,15.828 126.479286,15.828 L126.479286,15.828 L121.906286,15.828 L121.906286,28 L126.683286,28 Z M126.394286,20.928 L123.810286,20.928 L123.810286,17.579 L126.462286,17.579 C126.983619,17.579 127.405786,17.7461667 127.728786,18.0805 C128.051786,18.4148333 128.213286,18.803 128.213286,19.245 C128.213286,19.687 128.046119,20.078 127.711786,20.418 C127.377452,20.758 126.938286,20.928 126.394286,20.928 L126.394286,20.928 Z M126.683286,26.232 L123.810286,26.232 L123.810286,22.628 L126.615286,22.628 C127.215952,22.628 127.694786,22.8065 128.051786,23.1635 C128.408786,23.5205 128.587286,23.9426667 128.587286,24.43 C128.587286,24.906 128.414452,25.3253333 128.068786,25.688 C127.723119,26.0506667 127.261286,26.232 126.683286,26.232 L126.683286,26.232 Z M140.280857,28 L140.280857,26.181 L134.789857,26.181 L134.789857,22.815 L139.736857,22.815 L139.736857,21.013 L134.789857,21.013 L134.789857,17.647 L140.280857,17.647 L140.280857,15.828 L132.885857,15.828 L132.885857,28 L140.280857,28 Z M147.316429,28 L147.316429,17.647 L150.716429,17.647 L150.716429,15.828 L142.012429,15.828 L142.012429,17.647 L145.412429,17.647 L145.412429,28 L147.316429,28 Z M152.72,28 L153.825,24.889 L158.738,24.889 L159.826,28 L161.934,28 L157.361,15.828 L155.185,15.828 L150.612,28 L152.72,28 Z M158.092,23.121 L154.454,23.121 L155.746,19.5 L156.222,18.089 L156.324,18.089 L156.8,19.5 L158.092,23.121 Z M173.523143,28.272 C174.70181,28.272 175.77281,27.9915 176.736143,27.4305 C177.699476,26.8695 178.455976,26.1016667 179.005643,25.127 C179.55531,24.1523333 179.830143,23.0813333 179.830143,21.914 C179.830143,20.7466667 179.552476,19.6785 178.997143,18.7095 C178.44181,17.7405 177.68531,16.9726667 176.727643,16.406 C175.769976,15.8393333 174.70181,15.556 173.523143,15.556 C172.344476,15.556 171.273476,15.8393333 170.310143,16.406 C169.34681,16.9726667 168.59031,17.7405 168.040643,18.7095 C167.490976,19.6785 167.216143,20.7466667 167.216143,21.914 C167.216143,23.0813333 167.490976,24.1523333 168.040643,25.127 C168.59031,26.1016667 169.34681,26.8695 170.310143,27.4305 C171.273476,27.9915 172.344476,28.272 173.523143,28.272 Z M173.523143,26.453 C172.718476,26.453 171.98181,26.2603333 171.313143,25.875 C170.644476,25.4896667 170.114643,24.9541667 169.723643,24.2685 C169.332643,23.5828333 169.137143,22.798 169.137143,21.914 C169.137143,21.03 169.332643,20.2451667 169.723643,19.5595 C170.114643,18.8738333 170.644476,18.3383333 171.313143,17.953 C171.98181,17.5676667 172.718476,17.375 173.523143,17.375 C174.32781,17.375 175.064476,17.5676667 175.733143,17.953 C176.40181,18.3383333 176.92881,18.8738333 177.314143,19.5595 C177.699476,20.2451667 177.892143,21.03 177.892143,21.914 C177.892143,22.798 177.699476,23.5828333 177.314143,24.2685 C176.92881,24.9541667 176.40181,25.4896667 175.733143,25.875 C175.064476,26.2603333 174.32781,26.453 173.523143,26.453 Z M184.196714,28 L184.196714,21.03 L184.094714,18.684 L184.196714,18.684 L189.908714,28 L191.897714,28 L191.897714,15.828 L190.010714,15.828 L190.010714,22.339 L190.112714,24.685 L190.010714,24.685 L184.570714,15.828 L182.309714,15.828 L182.309714,28 L184.196714,28 Z" id="GETBETAON" fill="#202124" fill-rule="nonzero"></path>
                <path d="M213.788,61.906 L217.52,61.906 L217.52,36.904 L213.788,36.904 L213.788,61.906 Z M247.402,45.91 L243.124,56.75 L242.996,56.75 L238.556,45.91 L234.536,45.91 L241.194,61.06 L237.398,69.488 L241.292,69.488 L251.552,45.91 L247.402,45.91 Z M226.238,59.066 C225.014,59.066 223.31,58.456 223.31,56.944 C223.31,55.014 225.434,54.274 227.266,54.274 C228.908,54.274 229.678,54.628 230.676,55.11 C230.386,57.426 228.392,59.066 226.238,59.066 Z M226.688,45.364 C223.986,45.364 221.188,46.554 220.03,49.192 L223.342,50.574 C224.05,49.192 225.368,48.74 226.752,48.74 C228.682,48.74 230.644,49.898 230.676,51.958 L230.676,52.214 C230,51.828 228.554,51.25 226.784,51.25 C223.214,51.25 219.578,53.212 219.578,56.878 C219.578,60.224 222.506,62.38 225.786,62.38 C228.296,62.38 229.678,61.254 230.548,59.934 L230.676,59.934 L230.676,61.864 L234.278,61.864 L234.278,52.28 C234.278,47.84 230.966,45.364 226.688,45.364 Z M203.624,48.954 L198.316,48.954 L198.316,40.384 L203.624,40.384 C206.414,40.384 207.998,42.694 207.998,44.668 C207.998,46.606 206.414,48.954 203.624,48.954 Z M203.528,36.904 L194.586,36.904 L194.586,61.906 L198.316,61.906 L198.316,52.434 L203.528,52.434 C207.664,52.434 211.73,49.438 211.73,44.668 C211.73,39.898 207.664,36.904 203.528,36.904 Z M154.766,59.07 C152.188,59.07 150.03,56.912 150.03,53.948 C150.03,50.952 152.188,48.76 154.766,48.76 C157.312,48.76 159.308,50.952 159.308,53.948 C159.308,56.912 157.312,59.07 154.766,59.07 Z M159.05,47.31 L158.922,47.31 C158.084,46.312 156.474,45.41 154.444,45.41 C150.19,45.41 146.292,49.146 146.292,53.948 C146.292,58.716 150.19,62.422 154.444,62.422 C156.474,62.422 158.084,61.52 158.922,60.488 L159.05,60.488 L159.05,61.712 C159.05,64.968 157.312,66.708 154.508,66.708 C152.22,66.708 150.802,65.064 150.222,63.678 L146.968,65.032 C147.902,67.288 150.384,70.058 154.508,70.058 C158.89,70.058 162.596,67.48 162.596,61.198 L162.596,45.924 L159.05,45.924 L159.05,47.31 Z M165.174,61.906 L168.912,61.906 L168.912,36.902 L165.174,36.902 L165.174,61.906 Z M174.42,53.658 C174.324,50.372 176.966,48.696 178.866,48.696 C180.35,48.696 181.606,49.436 182.024,50.5 L174.42,53.658 Z M186.02,50.822 C185.312,48.922 183.152,45.41 178.738,45.41 C174.356,45.41 170.716,48.856 170.716,53.916 C170.716,58.684 174.324,62.422 179.156,62.422 C183.056,62.422 185.312,60.038 186.246,58.652 L183.346,56.718 C182.38,58.136 181.058,59.07 179.156,59.07 C177.256,59.07 175.902,58.2 175.032,56.494 L186.406,51.79 L186.02,50.822 Z M95.404,48.02 L95.404,51.628 L104.038,51.628 C103.78,53.658 103.104,55.14 102.074,56.172 C100.816,57.428 98.85,58.812 95.404,58.812 C90.088,58.812 85.93,54.528 85.93,49.212 C85.93,43.894 90.088,39.61 95.404,39.61 C98.272,39.61 100.366,40.738 101.912,42.188 L104.458,39.642 C102.298,37.58 99.432,36 95.404,36 C88.122,36 82,41.93 82,49.212 C82,56.494 88.122,62.422 95.404,62.422 C99.334,62.422 102.298,61.134 104.618,58.716 C107.002,56.332 107.744,52.982 107.744,50.274 C107.744,49.436 107.68,48.664 107.55,48.02 L95.404,48.02 Z M117.562,59.07 C114.984,59.07 112.76,56.944 112.76,53.916 C112.76,50.854 114.984,48.76 117.562,48.76 C120.138,48.76 122.362,50.854 122.362,53.916 C122.362,56.944 120.138,59.07 117.562,59.07 Z M117.562,45.41 C112.856,45.41 109.022,48.986 109.022,53.916 C109.022,58.812 112.856,62.422 117.562,62.422 C122.266,62.422 126.1,58.812 126.1,53.916 C126.1,48.986 122.266,45.41 117.562,45.41 Z M136.188,59.07 C133.61,59.07 131.386,56.944 131.386,53.916 C131.386,50.854 133.61,48.76 136.188,48.76 C138.766,48.76 140.988,50.854 140.988,53.916 C140.988,56.944 138.766,59.07 136.188,59.07 Z M136.188,45.41 C131.484,45.41 127.65,48.986 127.65,53.916 C127.65,58.812 131.484,62.422 136.188,62.422 C140.892,62.422 144.726,58.812 144.726,53.916 C144.726,48.986 140.892,45.41 136.188,45.41 L136.188,45.41 Z" id="Fill-20" fill="#202124" fill-rule="evenodd"></path>
                <g id="Group" stroke-width="1" fill-rule="evenodd" transform="translate(19.946000, 14.282000)">
                    <path d="M1.074,50.498 L0.924,50.354 C0.344,49.738 -1.77635684e-14,48.784 -1.77635684e-14,47.544 L-1.77635684e-14,47.836 L-1.77635684e-14,3.604 C-1.77635684e-14,3.6 -1.77635684e-14,3.598 -1.77635684e-14,3.594 C-1.77635684e-14,3.598 -1.77635684e-14,3.602 -1.77635684e-14,3.604 L-1.77635684e-14,3.898 C-1.77635684e-14,2.556 0.4,1.546 1.072,0.94 L25.85,25.72 L1.074,50.498 M-1.76525461e-14,3.592 C-1.76525461e-14,3.482 0.002,3.374 0.008,3.268 C0.002,3.374 -1.76525461e-14,3.482 -1.76525461e-14,3.592" id="Clip-22" fill="url(#linearGradient-1)"></path>
                    <path d="M34.11,34.274 L34.11,34.274 L34.298,34.168 L44.084,28.608 C45.016,28.078 45.638,27.434 45.948,26.754 C45.638,27.434 45.018,28.078 44.084,28.608 L34.298,34.168 L34.11,34.274 M34.112,33.982 L25.85,25.72 L34.112,17.458 L44.084,23.124 C45.35,23.844 46.062,24.772 46.18,25.718 C46.18,25.72 46.18,25.72 46.18,25.722 C46.062,26.668 45.35,27.596 44.084,28.316 L34.112,33.982" id="Clip-25" fill="url(#linearGradient-2)"></path>
                    <path d="M2.84,51.44 C2.148,51.44 1.544,51.216 1.072,50.79 L1.074,50.79 C1.544,51.214 2.15,51.44 2.842,51.44 C2.902,51.44 2.962,51.44 3.024,51.436 C2.962,51.44 2.9,51.44 2.84,51.44 M2.84,51.148 C2.148,51.148 1.544,50.922 1.074,50.498 L25.85,25.72 L34.112,33.982 L5.082,50.476 C4.278,50.932 3.518,51.148 2.84,51.148" id="Fill-27" fill="url(#linearGradient-3)"></path>
                    <path d="M25.85,25.72 L25.85,25.72 L1.072,0.94 C1.542,0.516 2.146,0.292 2.838,0.292 C3.514,0.292 4.276,0.508 5.082,0.964 L34.112,17.458 L25.85,25.72 M34.298,17.272 L5.082,0.672 C4.278,0.216 3.514,1.24344979e-14 2.838,1.24344979e-14 C2.834,1.24344979e-14 2.832,1.24344979e-14 2.828,1.24344979e-14 C2.832,1.24344979e-14 2.836,1.24344979e-14 2.84,1.24344979e-14 C3.516,1.24344979e-14 4.278,0.214 5.082,0.672 L34.298,17.272" id="Clip-31" fill="url(#linearGradient-4)"></path>
                </g>
            </g>
        </g>
    </g>
</svg>