<?xml version="1.0" encoding="UTF-8"?>
<svg width="192px" height="64px" viewBox="0 0 192 64" version="1.1" xmlns="http://www.w3.org/2000/svg" xmlns:xlink="http://www.w3.org/1999/xlink">
    <!-- Generator: Sketch 61.2 (89653) - https://sketch.com -->
    <title>App Store Badge</title>
    <desc>Created with Sketch.</desc>
    <g id="Home" stroke="none" stroke-width="1" fill="none" fill-rule="evenodd">
        <g id="Desktop" transform="translate(-122.000000, -7799.000000)">
            <g id="Get-the-app" transform="translate(0.000000, 7353.000000)">
                <g id="store_bages" transform="translate(122.000000, 446.000000)">
                    <g id="app_store_badge_white">
                        <g id="Group" stroke-width="1" fill-rule="evenodd" fill="#FFFFFF">
                            <path d="M176.215632,-0.000208 L15.255488,-0.000208 C14.668768,-0.000208 14.089088,-0.000208 13.50392,0.0032 C13.01408,0.0064 12.528144,0.015696 12.0336,0.02352 C10.9592219,0.0361628858 9.88737035,0.130682016 8.82736,0.306256 C7.76883853,0.485652205 6.74347603,0.823865184 5.785952,1.309456 C4.82959906,1.79915474 3.95575203,2.43546805 3.196112,3.195312 C2.432484,3.95301919 1.79594109,4.8288262 1.31096,5.789056 C0.824640387,6.74737459 0.487424797,7.77430127 0.31096,8.834368 C0.132817506,9.89309585 0.036957409,10.9640329 0.02424,12.037568 C0.009392,12.528128 0.007824,13.02032 0,13.510944 L0,50.49376 C0.007824,50.99056 0.009392,51.47184 0.02424,51.9688 C0.0369613089,53.0422819 0.132821407,54.1131654 0.31096,55.17184 C0.486937525,56.2325264 0.824173053,57.2600426 1.31096,58.21872 C1.79572088,59.1758446 2.4323533,60.0481059 3.196112,60.8016 C3.95287172,61.5648225 4.82728358,62.2015687 5.785952,62.68752 C6.74346876,63.1744105 7.76872071,63.5146365 8.82736,63.6968 C9.88755055,63.8709676 10.9592919,63.9655251 12.0336,63.97968 C12.528144,63.99056 13.01408,63.9968 13.50392,63.9968 C14.089072,64 14.6688,64 15.255488,64 L176.215632,64 C176.790672,64 177.374992,64 177.950032,63.9968 C178.437552,63.9968 178.937552,63.99056 179.425072,63.97968 C180.497349,63.9662779 181.567073,63.8717144 182.625072,63.6968 C183.687127,63.5133542 184.716054,63.1732182 185.678192,62.68752 C186.635996,62.2012874 187.509601,61.5645585 188.265712,60.8016 C189.0275,60.0451549 189.665492,59.1735316 190.156272,58.21872 C190.639406,57.2593452 190.973432,56.2319112 191.146832,55.17184 C191.325256,54.1130202 191.424517,53.0423748 191.443792,51.9688 C191.450032,51.47184 191.450032,50.99056 191.450032,50.49376 C191.462512,49.91248 191.462512,49.3344 191.462512,48.74368 L191.462512,15.257808 C191.462512,14.671872 191.462512,14.090624 191.450032,13.510944 C191.450032,13.02032 191.450032,12.528128 191.443792,12.037504 C191.424521,10.9638759 191.32526,9.89317707 191.146832,8.834304 C190.972948,7.77485056 190.638942,6.74800524 190.156272,5.788992 C189.168631,3.86431373 187.602517,2.29764064 185.678192,1.309312 C184.716051,0.824907808 183.687014,0.486784656 182.625072,0.306112 C181.567256,0.129764453 180.497421,0.0352124238 179.425072,0.023296 C178.937552,0.015488 178.437552,0.006112 177.950032,0.002992 C177.374992,-0.000208 176.790672,-0.000208 176.215632,-0.000208 L176.215632,-0.000208 Z" id="Path" fill-rule="nonzero"></path>
                        </g>
                        <path d="M30.354208,23.993232 C31.723344,23.993232 34.328064,22.103488 37.014848,22.385504 C39.5686273,22.4654054 41.9352202,23.7448204 43.400704,25.837792 C41.0881967,27.2594978 39.6651792,29.7667346 39.630208,32.481088 C39.6335092,35.5520549 41.4726025,38.32349 44.300992,39.51976 C43.7570299,41.2868415 42.9370818,42.9567995 41.87152,44.467776 C40.440512,46.608416 38.940112,48.699744 36.558704,48.7384 C34.244768,48.791808 33.46712,47.37664 30.813104,47.37664 C28.134224,47.37664 27.30536,48.69976 25.086064,48.791808 C22.818144,48.875808 21.084896,46.507088 19.601856,44.386528 C16.63768,40.055952 14.329536,32.182272 17.423936,26.8248 C18.8770195,24.2136408 21.593922,22.5567015 24.580608,22.460208 C26.850576,22.413504 28.958576,23.993232 30.354208,23.993232 Z M37.042832,13.952432 C37.1977359,15.9752039 36.5580426,17.978691 35.2596,19.537424 C33.9998657,21.1042451 32.0910989,22.0067308 30.080768,21.986032 C29.9529194,20.0214923 30.61123,18.0867024 31.910704,16.607808 C33.2266883,15.1088795 35.0591005,14.1607848 37.042832,13.952432 Z" id="Apple" fill="#000000" fill-rule="nonzero"></path>
                        <path d="M82.155504,34.15624 C85.832,34.156256 88.255504,37.062496 88.255504,41.551568 C88.255504,46.053136 85.846128,48.945312 82.210192,48.945312 C80.3308084,49.0436234 78.5605318,48.0592491 77.652384,46.410912 L77.583584,46.410912 L77.583584,53.58592 L74.610144,53.58592 L74.610144,34.307808 L77.48832,34.307808 L77.48832,36.717184 L77.543008,36.717184 C78.4915013,35.0791807 80.2636868,34.0952301 82.155504,34.15624 Z M98.0992,34.156256 C101.775808,34.156256 104.199248,37.062496 104.199248,41.551568 C104.199248,46.053136 101.789872,48.945312 98.153936,48.945312 C96.2745524,49.0436234 94.5042758,48.0592491 93.596128,46.410912 L93.527328,46.410912 L93.527328,53.58592 L90.553888,53.58592 L90.553888,34.307808 L93.432,34.307808 L93.432,36.717184 L93.486688,36.717184 C94.4351882,35.0791817 96.2073805,34.0952369 98.0992,34.156256 Z M119.446128,28.593664 C123.644528,28.593664 126.522688,30.948352 126.619568,34.37648 L123.617968,34.37648 C123.438288,32.393664 121.799216,31.1968 119.403904,31.1968 C117.008592,31.1968 115.369536,32.407744 115.369536,34.17024 C115.369536,35.574928 116.416416,36.401488 118.977344,37.03424 L121.1664,37.571744 C125.24296,38.535808 126.93672,40.173344 126.93672,43.079552 C126.93672,46.796736 123.975776,49.124864 119.2664,49.124864 C114.860144,49.124864 111.885152,46.851424 111.69296,43.257664 L114.736752,43.257808 C114.957072,45.228128 116.871152,46.521808 119.486752,46.521808 C121.993008,46.521808 123.796128,45.228064 123.796128,43.451488 C123.796128,41.909296 122.708624,40.985888 120.133632,40.353056 L117.55864,39.732736 C113.910208,38.851488 112.216448,37.145232 112.216448,34.37648 C112.216448,30.948352 115.203952,28.593664 119.446128,28.593664 Z M144.57432,34.129696 C148.77432,34.129696 151.446192,36.993696 151.446192,41.551568 C151.446192,46.121888 148.788384,48.97344 144.57432,48.97344 C140.361744,48.97344 137.704,46.121872 137.704,41.551568 C137.704,36.99376 140.388368,34.129696 144.57432,34.129696 Z M168.652384,34.12968 C172.660192,34.12968 175.180512,36.8828 175.180512,41.274992 L175.180512,42.293744 L164.949264,42.293744 L164.949264,42.473424 C164.85374,43.5518746 165.226131,44.6193911 165.971712,45.4044319 C166.717293,46.1894727 167.764204,46.6163733 168.846144,46.576544 C170.289092,46.7117434 171.649509,45.8831643 172.191456,44.53904 L175.01488,44.539056 C174.61488,47.168736 172.053936,48.973424 168.777376,48.973424 C164.563312,48.973424 161.947696,46.149984 161.947696,41.620304 C161.947696,37.07656 164.577376,34.12968 168.652384,34.12968 Z M133.353936,30.87968 L133.353936,34.307808 L136.108624,34.307808 L136.108624,36.662496 L133.353936,36.662496 L133.353936,44.648432 C133.353936,45.889056 133.905504,46.467184 135.116432,46.467184 C135.443458,46.4614815 135.769955,46.4385162 136.09456,46.398384 L136.09456,48.739008 C135.550125,48.8407353 134.996753,48.8868072 134.442992,48.876512 C131.510192,48.876512 130.366432,47.774944 130.366432,44.965568 L130.366432,36.662496 L128.260192,36.662496 L128.260192,34.307808 L130.3664,34.307808 L130.3664,30.87968 L133.353936,30.87968 Z M65.589872,28.92496 L72.763312,48.79376 L69.5008,48.79376 L67.683632,43.42344 L60.110192,43.42344 L58.29144,48.79376 L55.083632,48.79376 L62.257072,28.92496 L65.589872,28.92496 Z M160.2868,34.156224 C160.629462,34.1550276 160.971179,34.1922412 161.305552,34.267168 L161.305552,37.048416 C160.872962,36.9162293 160.421695,36.8555381 159.969552,36.868736 C159.095389,36.8332727 158.249393,37.1816556 157.653698,37.8224096 C157.058003,38.4631635 156.772123,39.3322732 156.87112,40.201536 L156.87112,48.793728 L153.89768,48.793728 L153.89768,34.307808 L156.733632,34.307808 L156.733632,36.773408 L156.802432,36.773408 C157.197914,35.1861894 158.652244,34.0938105 160.2868,34.156224 Z M144.574304,36.579696 C142.164928,36.579696 140.73368,38.439072 140.73368,41.551568 C140.73368,44.690624 142.164928,46.521888 144.574304,46.521888 C146.98368,46.521888 148.416496,44.690624 148.416496,41.551568 C148.416496,38.425008 146.98368,36.579696 144.574304,36.579696 Z M81.37112,36.690624 C79.099248,36.690624 77.57112,38.659376 77.57112,41.551568 C77.57112,44.47032 79.099248,46.425008 81.37112,46.425008 C83.683632,46.425008 85.199248,44.510944 85.199248,41.551568 C85.199248,38.618768 83.683616,36.690624 81.37112,36.690624 Z M97.314864,36.690624 C95.042992,36.690624 93.514864,38.659376 93.514864,41.551568 C93.514864,44.47032 95.042992,46.425008 97.314864,46.425008 C99.627376,46.425008 101.143008,44.510944 101.143008,41.551568 C101.143008,38.618768 99.62736,36.690624 97.314864,36.690624 Z M63.938384,32.22968 L63.855568,32.22968 L60.89456,40.945312 L66.89776,40.945312 L63.938384,32.22968 Z M168.652384,36.539056 C167.674371,36.5332196 166.734545,36.9182954 166.041801,37.6086932 C165.349057,38.299091 164.960794,39.2376047 164.9633,40.215632 L172.205504,40.215632 C172.259465,39.246556 171.906714,38.2989169 171.23224,37.6010105 C170.557766,36.903104 169.622721,36.5182087 168.652384,36.539056 Z" id="AppStore" fill="#000000" fill-rule="nonzero"></path>
                        <path d="M164.489872,16.172656 C166.49456,16.172656 167.703936,17.542256 167.703936,19.804656 L167.703936,20.3008 L162.616432,20.3008 L162.616432,20.38048 C162.571411,20.9151042 162.754001,21.4439164 163.119297,21.8368651 C163.484593,22.2298138 163.998701,22.4504383 164.535184,22.44448 C165.230819,22.5279915 165.907972,22.1829329 166.249248,21.57104 L167.618,21.571088 C167.219291,22.9300952 165.904158,23.8081649 164.496128,23.655456 C163.53543,23.6808163 162.612146,23.2826091 161.971245,22.5664883 C161.330344,21.8503674 161.036618,20.8887295 161.168,19.93672 C161.040108,18.9820648 161.332733,18.018886 161.970065,17.2967151 C162.607398,16.5745443 163.526723,16.1644428 164.489872,16.172656 Z M71.8864225,16.6857558 C72.9887141,17.3697791 73.6079406,18.6195601 73.4844,19.910944 C73.6102911,21.2037156 72.9916298,22.4559206 71.8883609,23.1414165 C70.7850919,23.8269124 69.3883961,23.8269124 68.2851271,23.1414165 C67.1818582,22.4559206 66.5631969,21.2037156 66.689088,19.910944 C66.5655474,18.6195601 67.1847739,17.3697791 68.2870655,16.6857558 C69.3893571,16.0017325 70.7841309,16.0017325 71.8864225,16.6857558 Z M103.146308,16.6856291 C104.248682,17.369663 104.868006,18.6194756 104.74456,19.910944 C104.870291,21.2037619 104.251517,22.4559315 103.148193,23.1413972 C102.044869,23.8268629 100.648155,23.8268629 99.5448311,23.1413972 C98.4415074,22.4559315 97.8227328,21.2037619 97.948464,19.910944 C97.8250183,18.6194756 98.4443424,17.369663 99.5467158,16.6856291 C100.649089,16.0015953 102.043935,16.0015953 103.146308,16.6856291 Z M131.965335,16.6857558 C133.067626,17.3697791 133.686853,18.6195601 133.563312,19.910944 C133.689203,21.2037156 133.070542,22.4559206 131.967273,23.1414165 C130.864004,23.8269124 129.467308,23.8269124 128.364039,23.1414165 C127.26077,22.4559206 126.642109,21.2037156 126.768,19.910944 C126.644459,18.6195601 127.263686,17.3697791 128.365977,16.6857558 C129.468269,16.0017325 130.863043,16.0017325 131.965335,16.6857558 Z M109.463312,16.172672 C111.269568,16.172672 112.28832,17.071872 112.28832,18.59376 L112.28832,23.516416 L110.919568,23.516416 L110.919568,22.50392 L110.807072,22.50392 C110.34219,23.2433221 109.515478,23.6754612 108.643008,23.63512 C108.031386,23.6987389 107.421394,23.5006571 106.963833,23.0898439 C106.506273,22.6790308 106.24385,22.0938293 106.24144,21.478912 C106.24144,20.182032 107.207072,19.434384 108.92112,19.328128 L110.872688,19.215632 L110.872688,18.59376 C110.872688,17.832816 110.369568,17.403136 109.397696,17.403136 C108.603952,17.403136 108.053952,17.694544 107.896128,18.20392 L106.519568,18.20392 C106.66488,16.966416 107.828944,16.172672 109.463312,16.172672 Z M120.885184,13.4992 L120.885184,23.516384 L119.522688,23.516384 L119.522688,22.378096 L119.410192,22.378096 C118.948407,23.1851792 118.076919,23.6693704 117.147696,23.63512 C115.31488,23.6352 114.157056,22.192976 114.157056,19.910944 C114.157056,17.634384 115.327376,16.192192 117.14768,16.192192 C118.066843,16.1498402 118.927724,16.6423566 119.357056,17.456192 L119.463312,17.456192 L119.463312,13.4992 L120.885184,13.4992 Z M149.624256,14.517968 L149.624256,16.344528 L151.1852,16.344528 L151.1852,17.542192 L149.624256,17.542192 L149.624256,21.24688 C149.624256,22.001568 149.9352,22.332032 150.643008,22.332032 C150.824217,22.3314521 151.005244,22.3204955 151.1852,22.299216 L151.1852,23.483584 C150.929855,23.5292651 150.671145,23.5535681 150.41176,23.55624 C148.830512,23.55624 148.200816,22.999984 148.200816,21.610928 L148.200816,17.542128 L147.057072,17.542128 L147.057072,16.344464 L148.200816,16.344464 L148.200816,14.517968 L149.624256,14.517968 Z M63.8908181,15.2781949 C64.7610085,16.1971139 65.1732574,17.4578317 65.014096,18.713344 C65.014096,21.763344 63.365664,23.516544 60.521904,23.516544 L57.073472,23.516544 L57.073472,13.9696 L60.521904,13.9696 C61.7842185,13.8790147 63.0206276,14.3592759 63.8908181,15.2781949 Z M75.953168,16.311712 L77.243792,21.809312 L77.350048,21.809312 L78.831296,16.311712 L80.19536,16.311712 L81.676608,21.809312 L81.789104,21.809312 L83.073472,16.311712 L84.495344,16.311712 L82.517216,23.5164 L81.042224,23.5164 L79.553168,18.210144 L79.440672,18.210144 L77.957856,23.5164 L76.496912,23.5164 L74.510976,16.311712 L75.953168,16.311712 Z M91.6817452,16.9129633 C92.1668731,17.4342628 92.3886289,18.147878 92.2844,18.85232 L92.2844,23.51632 L90.862528,23.51632 L90.862528,19.209376 C90.862528,18.051568 90.359408,17.475776 89.30784,17.475776 C88.8261853,17.4533426 88.3587523,17.6423721 88.0280874,17.9933069 C87.6974225,18.3442416 87.5365041,18.8220816 87.58752,19.301552 L87.58752,23.5164 L86.165648,23.5164 L86.165648,16.311712 L87.5344,16.311712 L87.5344,17.45624 L87.640656,17.45624 C88.0101518,16.6135647 88.8735566,16.098092 89.790656,16.17264 C90.5007629,16.1192508 91.1966174,16.3916638 91.6817452,16.9129633 Z M95.971904,13.4992 L95.971904,23.516384 L94.550032,23.516384 L94.550032,13.4992 L95.971904,13.4992 Z M140.987217,16.9129633 C141.472345,17.4342628 141.694101,18.147878 141.589872,18.85232 L141.589872,23.51632 L140.168,23.51632 L140.168,19.209376 C140.168,18.051568 139.66488,17.475776 138.613312,17.475776 C138.131657,17.4533426 137.664224,17.6423721 137.333559,17.9933069 C137.002894,18.3442416 136.841976,18.8220816 136.892992,19.301552 L136.892992,23.5164 L135.47112,23.5164 L135.47112,16.311712 L136.839872,16.311712 L136.839872,17.45624 L136.946128,17.45624 C137.315624,16.6135647 138.179029,16.098092 139.096128,16.17264 C139.806235,16.1192508 140.502089,16.3916638 140.987217,16.9129633 Z M154.536752,13.4992 L154.536752,17.46952 L154.649248,17.46952 C155.036492,16.6194697 155.915008,16.1033401 156.846048,16.178896 C157.552123,16.1404757 158.238557,16.4188859 158.718383,16.9382942 C159.198208,17.4577024 159.421448,18.164009 159.327296,18.864832 L159.327296,23.5164 L157.904,23.5164 L157.904,19.2156 C157.904,18.064816 157.368,17.482 156.363376,17.482 C155.868702,17.4414299 155.381343,17.6212655 155.031588,17.9734296 C154.681833,18.3255937 154.505347,18.8141765 154.549312,19.30856 L154.549312,23.5164 L153.12744,23.5164 L153.127376,13.4992 L154.536752,13.4992 Z M110.872688,20.260944 L109.113312,20.37344 C108.12112,20.43984 107.67112,20.777344 107.67112,21.412496 C107.67112,22.060928 108.233616,22.438272 109.00712,22.438272 C109.465018,22.4846238 109.922122,22.3431601 110.273793,22.0462649 C110.625463,21.7493698 110.841587,21.3224657 110.872688,20.86328 L110.872688,20.260944 Z M130.168,17.435952 C128.932064,17.435952 128.2368,18.349232 128.2368,19.91096 C128.2368,21.485184 128.932112,22.391424 130.168,22.391424 C131.399248,22.391424 132.1008,21.478912 132.1008,19.910944 C132.1008,18.349232 131.399232,17.435952 130.168,17.435952 Z M101.348464,17.435952 C100.112528,17.435952 99.417264,18.349232 99.417264,19.91096 C99.417264,21.485184 100.112576,22.391424 101.348464,22.391424 C102.579712,22.391424 103.28128,21.478912 103.28128,19.910944 C103.28128,18.349232 102.579696,17.435952 101.348464,17.435952 Z M70.089088,17.435952 C68.853152,17.435952 68.157888,18.349232 68.157888,19.91096 C68.157888,21.485184 68.8532,22.391424 70.089088,22.391424 C71.320352,22.391424 72.021904,21.478912 72.021904,19.910944 C72.021904,18.349232 71.32032,17.435952 70.089088,17.435952 Z M117.550864,17.469536 C116.353936,17.469536 115.625808,18.395312 115.625808,19.910944 C115.625856,21.439072 116.346176,22.358608 117.550864,22.358608 C118.749264,22.358608 119.48992,21.425808 119.48992,19.9172 C119.48992,18.415632 118.741488,17.469536 117.550864,17.469536 Z M60.356272,15.318736 L58.556272,15.318736 L58.556272,22.1664 L60.356272,22.1664 C61.2583871,22.2203232 62.1367784,21.8648944 62.7475496,21.1988029 C63.3583208,20.5327113 63.6364474,19.6268711 63.504704,18.7328 C63.6268624,17.8424393 63.3447305,16.9440739 62.7354737,16.2834144 C62.1262169,15.6227548 61.2535931,15.2689381 60.356272,15.318736 Z M164.482016,17.382816 C163.985203,17.3765743 163.506925,17.571234 163.155674,17.9226382 C162.804424,18.2740424 162.609973,18.752406 162.616432,19.249216 L166.255456,19.249216 C166.291701,18.7602567 166.119774,18.2787281 165.782043,17.9232945 C165.444313,17.567861 164.972188,17.371578 164.482016,17.382816 Z" id="Download" fill="#000000" fill-rule="nonzero"></path>
                    </g>
                </g>
            </g>
        </g>
    </g>
</svg>