<?xml version="1.0" encoding="UTF-8"?>
<svg width="220px" height="80px" viewBox="0 0 220 80" version="1.1" xmlns="http://www.w3.org/2000/svg" xmlns:xlink="http://www.w3.org/1999/xlink">
    <!-- Generator: sketchtool 62 (101010) - https://sketch.com -->
    <title>474e20de-3f46-40e1-ac39-1725fed9b298@1.00x</title>
    <desc>Created with sketchtool.</desc>
    <g id="Symbols" stroke="none" stroke-width="1" fill="none" fill-rule="evenodd">
        <g id="iOS_betaButton">
            <g id="betaButton">
                <path d="M202.052804,79 L17.9471964,79 C11.9897624,79 9.81539848,78.4150543 7.63367893,77.2482579 C5.52904358,76.1226866 3.87731343,74.4709564 2.75174212,72.3663211 C1.58494574,70.1846015 1,68.0102376 1,62.0528036 L1,17.9471964 C1,11.9897624 1.58494574,9.81539848 2.75174212,7.63367893 C3.87731343,5.52904358 5.52904358,3.87731343 7.63367893,2.75174212 C9.81539848,1.58494574 11.9897624,1 17.9471964,1 L202.052804,1 C208.010238,1 210.184602,1.58494574 212.366321,2.75174212 C214.470956,3.87731343 216.122687,5.52904358 217.248258,7.63367893 C218.415054,9.81539848 219,11.9897624 219,17.9471964 L219,62.0528036 C219,68.0102376 218.415054,70.1846015 217.248258,72.3663211 C216.122687,74.4709564 214.470956,76.1226866 212.366321,77.2482579 C210.184602,78.4150543 208.010238,79 202.052804,79 Z" id="Rectangle" stroke="#202124" stroke-width="2" fill="#FFFFFF"></path>
                <path d="M37.9358,27.7456 C39.71554,27.7456 43.10132,25.28916 46.5938,25.65576 C49.9133791,25.759621 52.9896408,27.422692 54.89458,30.14328 C51.88862,31.9913118 50.0388804,35.250393 49.99342,38.7787 C49.9976987,42.7705739 52.3882863,46.3730989 56.06484,47.9281 C55.3577604,50.2250776 54.2919337,52.3958069 52.90684,54.35988 C51.04668,57.14244 49.09638,59.8609 46.00084,59.91114 C42.993,59.98056 41.98218,58.14102 38.5323,58.14102 C35.05012,58.14102 33.9727,59.8609 31.0879,59.98056 C28.13988,60.08974 25.8869,57.01072 23.95914,54.25426 C20.10612,48.62504 17.1059,38.39026 21.12812,31.42626 C23.0169399,28.0320946 26.5485583,25.8782901 30.43086,25.75286 C33.38154,25.69216 36.12166,27.7456 37.9358,27.7456 Z M46.63022,14.69384 C46.8315715,17.3231902 46.0000419,19.9274704 44.31222,21.95362 C42.6747322,23.9902704 40.1935966,25.1633787 37.58044,25.13648 C37.4142513,22.5828309 38.26997,20.0678522 39.95912,18.14548 C41.669729,16.1970685 44.051627,14.9646699 46.63022,14.69384 Z" id="Combined-Shape" fill="#202124"></path>
                <path d="M81.7045898,38.4394531 C86.4042969,38.4394531 89.4072266,35.5219727 89.4072266,30.96875 L89.4072266,28.7714844 L82.0952148,28.7714844 L82.0952148,31.1762695 L86.3310547,31.1762695 L86.3188477,31.5424805 C86.2700195,34.0327148 84.4389648,35.7050781 81.753418,35.7050781 C78.6162109,35.7050781 76.6508789,33.2148438 76.6508789,29.1621094 C76.6508789,25.1704102 78.5795898,22.6801758 81.6557617,22.6801758 C83.9140625,22.6801758 85.4887695,23.8032227 86.1235352,25.8417969 L89.2607422,25.8417969 C88.6992188,22.2529297 85.7207031,19.9458008 81.6557617,19.9458008 C76.6386719,19.9458008 73.4282227,23.546875 73.4282227,29.1865234 C73.4282227,34.887207 76.6020508,38.4394531 81.7045898,38.4394531 Z M98.2293945,38.2685547 C101.378809,38.2685547 103.612695,36.7548828 104.162012,34.3500977 L101.293359,34.3500977 C100.853906,35.3510742 99.8163086,35.9125977 98.3148437,35.9125977 C96.3250977,35.9125977 95.0433594,34.496582 94.9701172,32.2382812 L94.9701172,32.0795898 L104.296289,32.0795898 L104.296289,31.1152344 C104.296289,26.9282227 102.013574,24.4013672 98.2049805,24.4013672 C94.3353516,24.4013672 91.9305664,27.0991211 91.9305664,31.3837891 C91.9305664,35.65625 94.2987305,38.2685547 98.2293945,38.2685547 Z M101.268945,30.0654297 L94.9823242,30.0654297 C95.1166016,28.0634766 96.3861328,26.7573242 98.1927734,26.7573242 C100.011621,26.7573242 101.20791,28.0390625 101.268945,30.0654297 Z M112.434863,38.0610352 C113.020801,38.0610352 113.582324,38.012207 114.021777,37.9267578 L114.021777,35.6074219 C113.655566,35.644043 113.423633,35.668457 112.996387,35.668457 C111.726855,35.668457 111.165332,35.0703125 111.165332,33.7397461 L111.165332,27.0991211 L114.021777,27.0991211 L114.021777,24.7431641 L111.165332,24.7431641 L111.165332,21.3862305 L108.150195,21.3862305 L108.150195,24.7431641 L106.038379,24.7431641 L106.038379,27.0991211 L108.150195,27.0991211 L108.150195,34.4599609 C108.150195,37.0356445 109.370898,38.0610352 112.434863,38.0610352 Z M130.836035,38.2197266 C134.205176,38.2197266 136.316992,35.5708008 136.316992,31.3349609 C136.316992,27.074707 134.217383,24.4379883 130.836035,24.4379883 C129.00498,24.4379883 127.466895,25.3291016 126.771094,26.7817383 L126.563574,26.7817383 L126.563574,19.4941406 L123.53623,19.4941406 L123.53623,38 L126.453711,38 L126.453711,35.8881836 L126.66123,35.8881836 C127.418066,37.3530273 128.968359,38.2197266 130.836035,38.2197266 Z M129.883887,35.7050781 C127.808691,35.7050781 126.514746,34.0327148 126.514746,31.3349609 C126.514746,28.637207 127.820898,26.9648438 129.883887,26.9648438 C131.946875,26.9648438 133.204199,28.612793 133.204199,31.3349609 C133.204199,34.0571289 131.959082,35.7050781 129.883887,35.7050781 Z M144.846191,38.2685547 C147.995605,38.2685547 150.229492,36.7548828 150.778809,34.3500977 L147.910156,34.3500977 C147.470703,35.3510742 146.433105,35.9125977 144.931641,35.9125977 C142.941895,35.9125977 141.660156,34.496582 141.586914,32.2382812 L141.586914,32.0795898 L150.913086,32.0795898 L150.913086,31.1152344 C150.913086,26.9282227 148.630371,24.4013672 144.821777,24.4013672 C140.952148,24.4013672 138.547363,27.0991211 138.547363,31.3837891 C138.547363,35.65625 140.915527,38.2685547 144.846191,38.2685547 Z M147.885742,30.0654297 L141.599121,30.0654297 C141.733398,28.0634766 143.00293,26.7573242 144.80957,26.7573242 C146.628418,26.7573242 147.824707,28.0390625 147.885742,30.0654297 Z M159.05166,38.0610352 C159.637598,38.0610352 160.199121,38.012207 160.638574,37.9267578 L160.638574,35.6074219 C160.272363,35.644043 160.04043,35.668457 159.613184,35.668457 C158.343652,35.668457 157.782129,35.0703125 157.782129,33.7397461 L157.782129,27.0991211 L160.638574,27.0991211 L160.638574,24.7431641 L157.782129,24.7431641 L157.782129,21.3862305 L154.766992,21.3862305 L154.766992,24.7431641 L152.655176,24.7431641 L152.655176,27.0991211 L154.766992,27.0991211 L154.766992,34.4599609 C154.766992,37.0356445 155.987695,38.0610352 159.05166,38.0610352 Z M167.190234,38.2197266 C168.93584,38.2197266 170.400684,37.4628906 171.145312,36.1689453 L171.352832,36.1689453 L171.352832,38 L174.270312,38 L174.270312,28.8813477 C174.270312,26.0615234 172.341602,24.4013672 168.911426,24.4013672 C165.737598,24.4013672 163.528125,25.890625 163.283984,28.222168 L166.14043,28.222168 C166.421191,27.3066406 167.37334,26.8061523 168.764941,26.8061523 C170.400684,26.8061523 171.27959,27.5507812 171.27959,28.8813477 L171.27959,30.0288086 L167.837207,30.2363281 C164.590137,30.4194336 162.771289,31.8232422 162.771289,34.2158203 C162.771289,36.6572266 164.614551,38.2197266 167.190234,38.2197266 Z M168.081348,35.8881836 C166.738574,35.8881836 165.774219,35.2167969 165.774219,34.0693359 C165.774219,32.9584961 166.567676,32.3359375 168.264453,32.2260742 L171.27959,32.0185547 L171.27959,33.1049805 C171.27959,34.6918945 169.912402,35.8881836 168.081348,35.8881836 Z" id="Getbeta" fill="#202124" fill-rule="nonzero"></path>
                <path d="M73.8457031,52.5810547 C74.3291016,52.5810547 74.7246094,52.1855469 74.7246094,51.7021484 C74.7246094,51.21875 74.3291016,50.8232422 73.8457031,50.8232422 C73.3623047,50.8232422 72.9667969,51.21875 72.9667969,51.7021484 C72.9667969,52.1855469 73.3623047,52.5810547 73.8457031,52.5810547 Z M74.4755859,62 L74.4755859,54.1044922 L73.2158203,54.1044922 L73.2158203,62 L74.4755859,62 Z M81.3875391,62.2490234 C84.4051172,62.2490234 86.2361719,60.0883789 86.2361719,56.7119141 C86.2361719,53.3208008 84.3904687,51.1821289 81.3875391,51.1821289 C78.3992578,51.1821289 76.5389062,53.3134766 76.5389062,56.7119141 C76.5389062,60.0957031 78.3553125,62.2490234 81.3875391,62.2490234 Z M81.3875391,61.0332031 C79.1902734,61.0332031 77.8938867,59.3339844 77.8938867,56.7119141 C77.8938867,54.0678711 79.2342187,52.3979492 81.3875391,52.3979492 C83.5481836,52.3979492 84.8811914,54.0678711 84.8811914,56.7119141 C84.8811914,59.3339844 83.5555078,61.0332031 81.3875391,61.0332031 Z M91.8517383,62.2490234 C94.2687305,62.2490234 95.7994922,61.0112305 95.7994922,59.0703125 C95.7994922,57.5175781 94.9205859,56.6679688 92.7306445,56.1186523 L91.6246875,55.8256836 C90.167168,55.4521484 89.5885547,54.9760742 89.5885547,54.1484375 C89.5885547,53.0791016 90.5187305,52.3759766 91.9249805,52.3759766 C93.2433398,52.3759766 94.1368945,53.0205078 94.32,54.1044922 L95.6456836,54.1044922 C95.5358203,52.3979492 94.0123828,51.1821289 91.9689258,51.1821289 C89.7350391,51.1821289 88.2335742,52.3979492 88.2335742,54.1923828 C88.2335742,55.6938477 89.0612109,56.5581055 90.972832,57.0415039 L92.3278125,57.3930664 C93.785332,57.7592773 94.4445117,58.3305664 94.4445117,59.2314453 C94.4445117,60.2788086 93.3971484,61.0478516 91.97625,61.0478516 C90.4747852,61.0478516 89.4200977,60.3447266 89.2589648,59.2387695 L87.925957,59.2387695 C88.0651172,61.0625 89.6105273,62.2490234 91.8517383,62.2490234 Z M105.71959,62 L105.71959,51.4311523 L104.408555,51.4311523 L101.596055,53.4526367 L101.596055,54.8442383 L104.284043,52.8959961 L104.40123,52.8959961 L104.40123,62 L105.71959,62 Z M112.624219,62 L112.624219,51.4311523 L111.313184,51.4311523 L108.500684,53.4526367 L108.500684,54.8442383 L111.188672,52.8959961 L111.305859,52.8959961 L111.305859,62 L112.624219,62 Z M119.960977,61.5166016 L119.960977,58.4257812 L122.905312,58.4257812 L122.905312,57.2392578 L119.960977,57.2392578 L119.960977,54.1484375 L118.774453,54.1484375 L118.774453,57.2392578 L115.830117,57.2392578 L115.830117,58.4257812 L118.774453,58.4257812 L118.774453,61.5166016 L119.960977,61.5166016 Z M130.730684,62 L130.730684,57.1074219 C130.730684,55.9941406 131.602266,55.1884766 132.803437,55.1884766 C133.052461,55.1884766 133.506562,55.2324219 133.609102,55.2617188 L133.609102,54.0019531 C133.447969,53.9799805 133.184297,53.965332 132.979219,53.965332 C131.931855,53.965332 131.023652,54.5073242 130.789277,55.2763672 L130.67209,55.2763672 L130.67209,54.1044922 L129.470918,54.1044922 L129.470918,62 L130.730684,62 Z M138.038145,62.1391602 C139.76666,62.1391602 140.997129,61.3041992 141.36334,59.956543 L140.103574,59.956543 C139.773984,60.6523438 139.085508,61.0258789 138.067441,61.0258789 C136.727109,61.0258789 135.855527,60.0371094 135.789609,58.4770508 L135.789609,58.418457 L141.465879,58.418457 L141.465879,57.9350586 C141.465879,55.4814453 140.169492,53.965332 138.038145,53.965332 C135.870176,53.965332 134.478574,55.5766602 134.478574,58.0595703 C134.478574,60.5571289 135.848203,62.1391602 138.038145,62.1391602 Z M140.140195,57.4003906 L135.789609,57.4003906 C135.884824,56.0014648 136.76373,55.0786133 138.023496,55.0786133 C139.275937,55.0786133 140.110898,56.0014648 140.140195,57.4003906 Z M150.120996,64.6367188 L150.120996,54.1044922 L148.905176,54.1044922 L148.905176,55.4228516 L148.787988,55.4228516 C148.319238,54.5366211 147.337793,53.965332 146.261133,53.965332 C144.261621,53.965332 142.95791,55.5766602 142.95791,58.0522461 C142.95791,60.5424805 144.246973,62.1391602 146.261133,62.1391602 C147.374414,62.1391602 148.224023,61.6777344 148.729395,60.8134766 L148.846582,60.8134766 L148.846582,64.6367188 L150.120996,64.6367188 Z M146.546777,61.0039062 C145.11123,61.0039062 144.261621,59.9052734 144.261621,58.0522461 C144.261621,56.206543 145.118555,55.1005859 146.554102,55.1005859 C147.982324,55.1005859 148.883203,56.2431641 148.883203,58.0522461 C148.883203,59.8686523 147.989648,61.0039062 146.546777,61.0039062 Z M155.026113,62.1391602 C156.234609,62.1391602 157.076895,61.6411133 157.472402,60.762207 L157.58959,60.762207 L157.58959,62 L158.790762,62 L158.790762,54.1044922 L157.530996,54.1044922 L157.530996,58.7773438 C157.530996,60.1616211 156.769277,60.9892578 155.377676,60.9892578 C154.11791,60.9892578 153.590566,60.3300781 153.590566,58.9091797 L153.590566,54.1044922 L152.330801,54.1044922 L152.330801,59.2167969 C152.330801,61.0844727 153.253652,62.1391602 155.026113,62.1391602 Z M161.732988,52.5810547 C162.216387,52.5810547 162.611895,52.1855469 162.611895,51.7021484 C162.611895,51.21875 162.216387,50.8232422 161.732988,50.8232422 C161.24959,50.8232422 160.854082,51.21875 160.854082,51.7021484 C160.854082,52.1855469 161.24959,52.5810547 161.732988,52.5810547 Z M162.362871,62 L162.362871,54.1044922 L161.103105,54.1044922 L161.103105,62 L162.362871,62 Z M165.93498,62 L165.93498,57.1074219 C165.93498,55.9941406 166.806562,55.1884766 168.007734,55.1884766 C168.256758,55.1884766 168.710859,55.2324219 168.813398,55.2617188 L168.813398,54.0019531 C168.652266,53.9799805 168.388594,53.965332 168.183516,53.965332 C167.136152,53.965332 166.227949,54.5073242 165.993574,55.2763672 L165.876387,55.2763672 L165.876387,54.1044922 L164.675215,54.1044922 L164.675215,62 L165.93498,62 Z M173.242441,62.1391602 C174.970957,62.1391602 176.201426,61.3041992 176.567637,59.956543 L175.307871,59.956543 C174.978281,60.6523438 174.289805,61.0258789 173.271738,61.0258789 C171.931406,61.0258789 171.059824,60.0371094 170.993906,58.4770508 L170.993906,58.418457 L176.670176,58.418457 L176.670176,57.9350586 C176.670176,55.4814453 175.373789,53.965332 173.242441,53.965332 C171.074473,53.965332 169.682871,55.5766602 169.682871,58.0595703 C169.682871,60.5571289 171.0525,62.1391602 173.242441,62.1391602 Z M175.344492,57.4003906 L170.993906,57.4003906 C171.089121,56.0014648 171.968027,55.0786133 173.227793,55.0786133 C174.480234,55.0786133 175.315195,56.0014648 175.344492,57.4003906 Z M181.480078,62.1391602 C182.571387,62.1391602 183.508887,61.6191406 184.006934,60.7402344 L184.124121,60.7402344 L184.124121,62 L185.325293,62 L185.325293,50.9697266 L184.065527,50.9697266 L184.065527,55.3496094 L183.955664,55.3496094 C183.508887,54.4853516 182.578711,53.965332 181.480078,53.965332 C179.473242,53.965332 178.162207,55.5766602 178.162207,58.0522461 C178.162207,60.5351562 179.458594,62.1391602 181.480078,62.1391602 Z M181.773047,61.0039062 C180.330176,61.0039062 179.465918,59.8979492 179.465918,58.0522461 C179.465918,56.2138672 180.3375,55.1005859 181.773047,55.1005859 C183.20127,55.1005859 184.094824,56.2431641 184.094824,58.0522461 C184.094824,59.8759766 183.208594,61.0039062 181.773047,61.0039062 Z" id="iOS11+required" fill="#202124" fill-rule="nonzero"></path>
            </g>
        </g>
    </g>
</svg>