<?xml version="1.0" encoding="UTF-8"?>
<svg width="292px" height="80px" viewBox="0 0 292 80" version="1.1" xmlns="http://www.w3.org/2000/svg" xmlns:xlink="http://www.w3.org/1999/xlink">
    <!-- Generator: Sketch 54.1 (76490) - https://sketchapp.com -->
    <title>betaButton</title>
    <desc>Created with Sketch.</desc>
    <g id="Landing-page" stroke="none" stroke-width="1" fill="none" fill-rule="evenodd">
        <g id="Desktop" transform="translate(-122.000000, -660.000000)">
            <g id="betaButton" transform="translate(122.000000, 660.000000)">
                <g>
                    <path d="M17.9471964,1 C12.4084447,1 10.0618315,1.45315192 7.63367893,2.75174212 C5.52646593,3.87869197 3.87869197,5.52646593 2.75174212,7.63367893 C1.45315192,10.0618315 1,12.4084447 1,17.9471964 L1,62.0528036 C1,67.5915553 1.45315192,69.9381685 2.75174212,72.3663211 C3.87869197,74.4735341 5.52646593,76.121308 7.63367893,77.2482579 C10.0618315,78.5468481 12.4084447,79 17.9471964,79 L274.052804,79 C279.591555,79 281.938168,78.5468481 284.366321,77.2482579 C286.473534,76.121308 288.121308,74.4735341 289.248258,72.3663211 C290.546848,69.9381685 291,67.5915553 291,62.0528036 L291,17.9471964 C291,12.4084447 290.546848,10.0618315 289.248258,7.63367893 C288.121308,5.52646593 286.473534,3.87869197 284.366321,2.75174212 C281.938168,1.45315192 279.591555,1 274.052804,1 L17.9471964,1 Z" id="Rectangle" stroke="#202124" stroke-width="2" fill="#FFFFFF"></path>
                    <path d="M49.99342,38.7787 C49.9976987,42.7705739 52.3882863,46.3730989 56.06484,47.9281 C55.3577604,50.2250776 54.2919337,52.3958069 52.90684,54.35988 C51.04668,57.14244 49.09638,59.8609 46.00084,59.91114 C42.993,59.98056 41.98218,58.14102 38.5323,58.14102 C35.05012,58.14102 33.9727,59.8609 31.0879,59.98056 C28.13988,60.08974 25.8869,57.01072 23.95914,54.25426 C20.10612,48.62504 17.1059,38.39026 21.12812,31.42626 C23.0169399,28.0320946 26.5485583,25.8782901 30.43086,25.75286 C33.38154,25.69216 36.12166,27.7456 37.9358,27.7456 C39.71554,27.7456 43.10132,25.28916 46.5938,25.65576 C49.9133791,25.759621 52.9896408,27.422692 54.89458,30.14328 C51.88862,31.9913118 50.0388804,35.250393 49.99342,38.7787 Z M44.31222,21.95362 C42.6747322,23.9902704 40.1935966,25.1633787 37.58044,25.13648 C37.4142513,22.5828309 38.26997,20.0678522 39.95912,18.14548 C41.669729,16.1970685 44.051627,14.9646699 46.63022,14.69384 C46.8315715,17.3231902 46.0000419,19.9274704 44.31222,21.95362 Z" id="Combined-Shape" fill="#202124"></path>
                    <path d="M89.4072266,30.96875 L89.4072266,28.7714844 L82.0952148,28.7714844 L82.0952148,31.1762695 L86.3310547,31.1762695 L86.3188477,31.5424805 C86.2700195,34.0327148 84.4389648,35.7050781 81.753418,35.7050781 C78.6162109,35.7050781 76.6508789,33.2148438 76.6508789,29.1621094 C76.6508789,25.1704102 78.5795898,22.6801758 81.6557617,22.6801758 C83.9140625,22.6801758 85.4887695,23.8032227 86.1235352,25.8417969 L89.2607422,25.8417969 C88.6992188,22.2529297 85.7207031,19.9458008 81.6557617,19.9458008 C76.6386719,19.9458008 73.4282227,23.546875 73.4282227,29.1865234 C73.4282227,34.887207 76.6020508,38.4394531 81.7045898,38.4394531 C86.4042969,38.4394531 89.4072266,35.5219727 89.4072266,30.96875 Z M101.293359,34.3500977 C100.853906,35.3510742 99.8163086,35.9125977 98.3148437,35.9125977 C96.3250977,35.9125977 95.0433594,34.496582 94.9701172,32.2382812 L94.9701172,32.0795898 L104.296289,32.0795898 L104.296289,31.1152344 C104.296289,26.9282227 102.013574,24.4013672 98.2049805,24.4013672 C94.3353516,24.4013672 91.9305664,27.0991211 91.9305664,31.3837891 C91.9305664,35.65625 94.2987305,38.2685547 98.2293945,38.2685547 C101.378809,38.2685547 103.612695,36.7548828 104.162012,34.3500977 L101.293359,34.3500977 Z M98.1927734,26.7573242 C100.011621,26.7573242 101.20791,28.0390625 101.268945,30.0654297 L94.9823242,30.0654297 C95.1166016,28.0634766 96.3861328,26.7573242 98.1927734,26.7573242 Z M108.150195,21.3862305 L108.150195,24.7431641 L106.038379,24.7431641 L106.038379,27.0991211 L108.150195,27.0991211 L108.150195,34.4599609 C108.150195,37.0356445 109.370898,38.0610352 112.434863,38.0610352 C113.020801,38.0610352 113.582324,38.012207 114.021777,37.9267578 L114.021777,35.6074219 L113.625684,35.6447266 C113.43877,35.659668 113.252734,35.668457 112.996387,35.668457 C111.726855,35.668457 111.165332,35.0703125 111.165332,33.7397461 L111.165332,27.0991211 L114.021777,27.0991211 L114.021777,24.7431641 L111.165332,24.7431641 L111.165332,21.3862305 L108.150195,21.3862305 Z M130.689551,24.4379883 C128.858496,24.4379883 127.308203,25.3535156 126.53916,26.8671875 L126.331641,26.8671875 L126.331641,24.6577148 L123.41416,24.6577148 L123.41416,42.4311523 L126.441504,42.4311523 L126.441504,35.9736328 L126.649023,35.9736328 C127.332617,37.3896484 128.809668,38.2197266 130.726172,38.2197266 C134.095313,38.2197266 136.194922,35.5708008 136.194922,31.3349609 C136.194922,27.0625 134.070898,24.4379883 130.689551,24.4379883 Z M129.737402,35.7050781 C127.674414,35.7050781 126.392676,34.0327148 126.380469,31.3349609 C126.392676,28.637207 127.686621,26.9648438 129.749609,26.9648438 C131.824805,26.9648438 133.082129,28.6005859 133.082129,31.3349609 C133.082129,34.0693359 131.837012,35.7050781 129.737402,35.7050781 Z M139.084473,38 L142.111816,38 L142.111816,30.2485352 C142.111816,28.3686523 143.479004,27.1479492 145.444336,27.1479492 L145.747833,27.1559099 C146.231034,27.1790217 146.804865,27.2489347 146.994629,27.3188477 L146.994629,24.5600586 C146.713867,24.4868164 146.176758,24.4379883 145.737305,24.4379883 C144.016113,24.4379883 142.575684,25.4145508 142.209473,26.7329102 L142.001953,26.7329102 L142.001953,24.6577148 L139.084473,24.6577148 L139.084473,38 Z M150.860742,22.4238281 C151.861719,22.4238281 152.67959,21.6303711 152.67959,20.6293945 C152.67959,19.640625 151.861719,18.8349609 150.860742,18.8349609 C149.871973,18.8349609 149.054102,19.640625 149.054102,20.6293945 C149.054102,21.6303711 149.871973,22.4238281 150.860742,22.4238281 Z M149.359277,38 L152.374414,38 L152.374414,24.6577148 L149.359277,24.6577148 L149.359277,38 Z M167.61748,24.6577148 L164.419238,24.6577148 L161.355273,35.0336914 L161.147754,35.0336914 L158.059375,24.6577148 L154.812305,24.6577148 L159.56084,38 L162.893359,38 L167.61748,24.6577148 Z M173.241406,38.2197266 C174.987012,38.2197266 176.451855,37.4628906 177.196484,36.1689453 L177.404004,36.1689453 L177.404004,38 L180.321484,38 L180.321484,28.8813477 C180.321484,26.0615234 178.392773,24.4013672 174.962598,24.4013672 C171.78877,24.4013672 169.579297,25.890625 169.335156,28.222168 L172.191602,28.222168 C172.472363,27.3066406 173.424512,26.8061523 174.816113,26.8061523 C176.451855,26.8061523 177.330762,27.5507812 177.330762,28.8813477 L177.330762,30.0288086 L173.888379,30.2363281 C170.641309,30.4194336 168.822461,31.8232422 168.822461,34.2158203 C168.822461,36.6572266 170.665723,38.2197266 173.241406,38.2197266 Z M174.13252,35.8881836 C172.789746,35.8881836 171.825391,35.2167969 171.825391,34.0693359 C171.825391,32.9584961 172.618848,32.3359375 174.315625,32.2260742 L177.330762,32.0185547 L177.330762,33.1049805 C177.330762,34.6918945 175.963574,35.8881836 174.13252,35.8881836 Z M184.773535,21.3862305 L184.773535,24.7431641 L182.661719,24.7431641 L182.661719,27.0991211 L184.773535,27.0991211 L184.773535,34.4599609 C184.773535,37.0356445 185.994238,38.0610352 189.058203,38.0610352 C189.644141,38.0610352 190.205664,38.012207 190.645117,37.9267578 L190.645117,35.6074219 L190.249023,35.6447266 C190.062109,35.659668 189.876074,35.668457 189.619727,35.668457 C188.350195,35.668457 187.788672,35.0703125 187.788672,33.7397461 L187.788672,27.0991211 L190.645117,27.0991211 L190.645117,24.7431641 L187.788672,24.7431641 L187.788672,21.3862305 L184.773535,21.3862305 Z M202.104004,34.3500977 C201.664551,35.3510742 200.626953,35.9125977 199.125488,35.9125977 C197.135742,35.9125977 195.854004,34.496582 195.780762,32.2382812 L195.780762,32.0795898 L205.106934,32.0795898 L205.106934,31.1152344 C205.106934,26.9282227 202.824219,24.4013672 199.015625,24.4013672 C195.145996,24.4013672 192.741211,27.0991211 192.741211,31.3837891 C192.741211,35.65625 195.109375,38.2685547 199.040039,38.2685547 C202.189453,38.2685547 204.42334,36.7548828 204.972656,34.3500977 L202.104004,34.3500977 Z M199.003418,26.7573242 C200.822266,26.7573242 202.018555,28.0390625 202.07959,30.0654297 L195.792969,30.0654297 C195.927246,28.0634766 197.196777,26.7573242 199.003418,26.7573242 Z M221.933398,38.2197266 C225.302539,38.2197266 227.414355,35.5708008 227.414355,31.3349609 C227.414355,27.074707 225.314746,24.4379883 221.933398,24.4379883 C220.102344,24.4379883 218.564258,25.3291016 217.868457,26.7817383 L217.660937,26.7817383 L217.660937,19.4941406 L214.633594,19.4941406 L214.633594,38 L217.551074,38 L217.551074,35.8881836 L217.758594,35.8881836 C218.51543,37.3530273 220.065723,38.2197266 221.933398,38.2197266 Z M220.98125,26.9648438 C223.044238,26.9648438 224.301562,28.612793 224.301562,31.3349609 C224.301562,34.0571289 223.056445,35.7050781 220.98125,35.7050781 C218.906055,35.7050781 217.612109,34.0327148 217.612109,31.3349609 C217.612109,28.637207 218.918262,26.9648438 220.98125,26.9648438 Z M239.00752,34.3500977 C238.568066,35.3510742 237.530469,35.9125977 236.029004,35.9125977 C234.039258,35.9125977 232.75752,34.496582 232.684277,32.2382812 L232.684277,32.0795898 L242.010449,32.0795898 L242.010449,31.1152344 C242.010449,26.9282227 239.727734,24.4013672 235.919141,24.4013672 C232.049512,24.4013672 229.644727,27.0991211 229.644727,31.3837891 C229.644727,35.65625 232.012891,38.2685547 235.943555,38.2685547 C239.092969,38.2685547 241.326855,36.7548828 241.876172,34.3500977 L239.00752,34.3500977 Z M235.906934,26.7573242 C237.725781,26.7573242 238.92207,28.0390625 238.983105,30.0654297 L232.696484,30.0654297 C232.830762,28.0634766 234.100293,26.7573242 235.906934,26.7573242 Z M245.864355,21.3862305 L245.864355,24.7431641 L243.752539,24.7431641 L243.752539,27.0991211 L245.864355,27.0991211 L245.864355,34.4599609 C245.864355,37.0356445 247.085059,38.0610352 250.149023,38.0610352 C250.734961,38.0610352 251.296484,38.012207 251.735937,37.9267578 L251.735937,35.6074219 L251.339844,35.6447266 C251.15293,35.659668 250.966895,35.668457 250.710547,35.668457 C249.441016,35.668457 248.879492,35.0703125 248.879492,33.7397461 L248.879492,27.0991211 L251.735937,27.0991211 L251.735937,24.7431641 L248.879492,24.7431641 L248.879492,21.3862305 L245.864355,21.3862305 Z M258.287598,38.2197266 C260.033203,38.2197266 261.498047,37.4628906 262.242676,36.1689453 L262.450195,36.1689453 L262.450195,38 L265.367676,38 L265.367676,28.8813477 C265.367676,26.0615234 263.438965,24.4013672 260.008789,24.4013672 C256.834961,24.4013672 254.625488,25.890625 254.381348,28.222168 L257.237793,28.222168 C257.518555,27.3066406 258.470703,26.8061523 259.862305,26.8061523 C261.498047,26.8061523 262.376953,27.5507812 262.376953,28.8813477 L262.376953,30.0288086 L258.93457,30.2363281 C255.6875,30.4194336 253.868652,31.8232422 253.868652,34.2158203 C253.868652,36.6572266 255.711914,38.2197266 258.287598,38.2197266 Z M259.178711,35.8881836 C257.835937,35.8881836 256.871582,35.2167969 256.871582,34.0693359 C256.871582,32.9584961 257.665039,32.3359375 259.361816,32.2260742 L262.376953,32.0185547 L262.376953,33.1049805 C262.376953,34.6918945 261.009766,35.8881836 259.178711,35.8881836 Z" id="Getprivatebeta" fill="#202124" fill-rule="nonzero"></path>
                    <path d="M73.8457031,52.5810547 C74.3291016,52.5810547 74.7246094,52.1855469 74.7246094,51.7021484 C74.7246094,51.21875 74.3291016,50.8232422 73.8457031,50.8232422 C73.3623047,50.8232422 72.9667969,51.21875 72.9667969,51.7021484 C72.9667969,52.1855469 73.3623047,52.5810547 73.8457031,52.5810547 Z M73.2158203,62 L74.4755859,62 L74.4755859,54.1044922 L73.2158203,54.1044922 L73.2158203,62 Z M81.3875391,51.1821289 C78.3992578,51.1821289 76.5389062,53.3134766 76.5389062,56.7119141 C76.5389062,60.0957031 78.3553125,62.2490234 81.3875391,62.2490234 C84.4051172,62.2490234 86.2361719,60.0883789 86.2361719,56.7119141 C86.2361719,53.3208008 84.3904687,51.1821289 81.3875391,51.1821289 Z M81.3875391,52.3979492 C83.5481836,52.3979492 84.8811914,54.0678711 84.8811914,56.7119141 C84.8811914,59.3339844 83.5555078,61.0332031 81.3875391,61.0332031 C79.1902734,61.0332031 77.8938867,59.3339844 77.8938867,56.7119141 C77.8938867,54.0678711 79.2342187,52.3979492 81.3875391,52.3979492 Z M87.925957,59.2387695 C88.0651172,61.0625 89.6105273,62.2490234 91.8517383,62.2490234 C94.2687305,62.2490234 95.7994922,61.0112305 95.7994922,59.0703125 C95.7994922,57.5750868 94.9844845,56.7318673 92.9685981,56.1809437 L91.6246875,55.8256836 C90.167168,55.4521484 89.5885547,54.9760742 89.5885547,54.1484375 C89.5885547,53.0791016 90.5187305,52.3759766 91.9249805,52.3759766 C93.2433398,52.3759766 94.1368945,53.0205078 94.32,54.1044922 L95.6456836,54.1044922 C95.5358203,52.3979492 94.0123828,51.1821289 91.9689258,51.1821289 C89.7350391,51.1821289 88.2335742,52.3979492 88.2335742,54.1923828 C88.2335742,55.6938477 89.0612109,56.5581055 90.972832,57.0415039 L92.3278125,57.3930664 C93.785332,57.7592773 94.4445117,58.3305664 94.4445117,59.2314453 C94.4445117,60.2788086 93.3971484,61.0478516 91.97625,61.0478516 C90.4747852,61.0478516 89.4200977,60.3447266 89.2589648,59.2387695 L87.925957,59.2387695 Z M104.40123,62 L105.71959,62 L105.71959,51.4311523 L104.408555,51.4311523 L101.596055,53.4526367 L101.596055,54.8442383 L104.284043,52.8959961 L104.40123,52.8959961 L104.40123,62 Z M111.305859,62 L112.624219,62 L112.624219,51.4311523 L111.313184,51.4311523 L108.500684,53.4526367 L108.500684,54.8442383 L111.188672,52.8959961 L111.305859,52.8959961 L111.305859,62 Z M119.960977,58.4257812 L122.905312,58.4257812 L122.905312,57.2392578 L119.960977,57.2392578 L119.960977,54.1484375 L118.774453,54.1484375 L118.774453,57.2392578 L115.830117,57.2392578 L115.830117,58.4257812 L118.774453,58.4257812 L118.774453,61.5166016 L119.960977,61.5166016 L119.960977,58.4257812 Z M129.470918,62 L130.730684,62 L130.730684,57.1074219 C130.730684,55.9941406 131.602266,55.1884766 132.803437,55.1884766 L133.01996,55.1958008 C133.257539,55.2095337 133.532197,55.2397461 133.609102,55.2617188 L133.609102,54.0019531 C133.447969,53.9799805 133.184297,53.965332 132.979219,53.965332 C131.931855,53.965332 131.023652,54.5073242 130.789277,55.2763672 L130.67209,55.2763672 L130.67209,54.1044922 L129.470918,54.1044922 L129.470918,62 Z M140.103574,59.956543 C139.773984,60.6523438 139.085508,61.0258789 138.067441,61.0258789 C136.727109,61.0258789 135.855527,60.0371094 135.789609,58.4770508 L135.789609,58.418457 L141.465879,58.418457 L141.465879,57.9350586 C141.465879,55.4814453 140.169492,53.965332 138.038145,53.965332 C135.870176,53.965332 134.478574,55.5766602 134.478574,58.0595703 C134.478574,60.5571289 135.848203,62.1391602 138.038145,62.1391602 C139.76666,62.1391602 140.997129,61.3041992 141.36334,59.956543 L140.103574,59.956543 Z M138.023496,55.0786133 C139.275937,55.0786133 140.110898,56.0014648 140.140195,57.4003906 L135.789609,57.4003906 C135.884824,56.0014648 136.76373,55.0786133 138.023496,55.0786133 Z M146.261133,53.965332 C144.261621,53.965332 142.95791,55.5766602 142.95791,58.0522461 C142.95791,60.5424805 144.246973,62.1391602 146.261133,62.1391602 C147.374414,62.1391602 148.224023,61.6777344 148.729395,60.8134766 L148.846582,60.8134766 L148.846582,64.6367188 L150.120996,64.6367188 L150.120996,54.1044922 L148.905176,54.1044922 L148.905176,55.4228516 L148.787988,55.4228516 C148.319238,54.5366211 147.337793,53.965332 146.261133,53.965332 Z M146.546777,61.0039062 C145.11123,61.0039062 144.261621,59.9052734 144.261621,58.0522461 C144.261621,56.206543 145.118555,55.1005859 146.554102,55.1005859 C147.982324,55.1005859 148.883203,56.2431641 148.883203,58.0522461 C148.883203,59.8686523 147.989648,61.0039062 146.546777,61.0039062 Z M158.790762,54.1044922 L157.530996,54.1044922 L157.530996,58.7773438 C157.530996,60.1616211 156.769277,60.9892578 155.377676,60.9892578 C154.11791,60.9892578 153.590566,60.3300781 153.590566,58.9091797 L153.590566,54.1044922 L152.330801,54.1044922 L152.330801,59.2167969 C152.330801,61.0844727 153.253652,62.1391602 155.026113,62.1391602 C156.234609,62.1391602 157.076895,61.6411133 157.472402,60.762207 L157.58959,60.762207 L157.58959,62 L158.790762,62 L158.790762,54.1044922 Z M161.732988,52.5810547 C162.216387,52.5810547 162.611895,52.1855469 162.611895,51.7021484 C162.611895,51.21875 162.216387,50.8232422 161.732988,50.8232422 C161.24959,50.8232422 160.854082,51.21875 160.854082,51.7021484 C160.854082,52.1855469 161.24959,52.5810547 161.732988,52.5810547 Z M161.103105,62 L162.362871,62 L162.362871,54.1044922 L161.103105,54.1044922 L161.103105,62 Z M164.675215,62 L165.93498,62 L165.93498,57.1074219 C165.93498,55.9941406 166.806562,55.1884766 168.007734,55.1884766 L168.224257,55.1958008 C168.461836,55.2095337 168.736494,55.2397461 168.813398,55.2617188 L168.813398,54.0019531 C168.652266,53.9799805 168.388594,53.965332 168.183516,53.965332 C167.136152,53.965332 166.227949,54.5073242 165.993574,55.2763672 L165.876387,55.2763672 L165.876387,54.1044922 L164.675215,54.1044922 L164.675215,62 Z M175.307871,59.956543 C174.978281,60.6523438 174.289805,61.0258789 173.271738,61.0258789 C171.931406,61.0258789 171.059824,60.0371094 170.993906,58.4770508 L170.993906,58.418457 L176.670176,58.418457 L176.670176,57.9350586 C176.670176,55.4814453 175.373789,53.965332 173.242441,53.965332 C171.074473,53.965332 169.682871,55.5766602 169.682871,58.0595703 C169.682871,60.5571289 171.0525,62.1391602 173.242441,62.1391602 C174.970957,62.1391602 176.201426,61.3041992 176.567637,59.956543 L175.307871,59.956543 Z M173.227793,55.0786133 C174.480234,55.0786133 175.315195,56.0014648 175.344492,57.4003906 L170.993906,57.4003906 C171.089121,56.0014648 171.968027,55.0786133 173.227793,55.0786133 Z M181.480078,62.1391602 C182.571387,62.1391602 183.508887,61.6191406 184.006934,60.7402344 L184.124121,60.7402344 L184.124121,62 L185.325293,62 L185.325293,50.9697266 L184.065527,50.9697266 L184.065527,55.3496094 L183.955664,55.3496094 C183.508887,54.4853516 182.578711,53.965332 181.480078,53.965332 C179.473242,53.965332 178.162207,55.5766602 178.162207,58.0522461 C178.162207,60.5351562 179.458594,62.1391602 181.480078,62.1391602 Z M181.773047,55.1005859 C183.20127,55.1005859 184.094824,56.2431641 184.094824,58.0522461 C184.094824,59.8759766 183.208594,61.0039062 181.773047,61.0039062 C180.330176,61.0039062 179.465918,59.8979492 179.465918,58.0522461 C179.465918,56.2138672 180.3375,55.1005859 181.773047,55.1005859 Z" id="iOS11+required" fill="#202124" fill-rule="nonzero"></path>
                </g>
            </g>
        </g>
    </g>
</svg>