<?xml version="1.0" encoding="UTF-8"?>
<svg width="60px" height="60px" viewBox="0 0 60 60" version="1.1" xmlns="http://www.w3.org/2000/svg" xmlns:xlink="http://www.w3.org/1999/xlink">
    <!-- Generator: Sketch 61.2 (89653) - https://sketch.com -->
    <title>Icon</title>
    <desc>Created with Sketch.</desc>
    <g id="Home" stroke="none" stroke-width="1" fill="none" fill-rule="evenodd">
        <g id="Desktop" transform="translate(-202.000000, -7167.000000)">
            <g id="Web" transform="translate(0.000000, 5827.000000)">
                <g id="Features" transform="translate(122.000000, 1011.000000)">
                    <g id="Group-5" transform="translate(0.000000, 143.000000)">
                        <g id="Feature" transform="translate(0.000000, 186.000000)">
                            <g id="icon_defi" transform="translate(50.000000, 0.000000)">
                                <path d="M81.8523733,8.15733641 C78.6374404,5.15293575 74.110169,3.251961 68.6818435,2.53286728 C65.2770098,2.08187413 62.4007763,1.95713097 60.3373204,2.00882234 C60.2112531,2.01198043 60.1299862,2.01496573 60.0957022,2.01660814 L59.9043164,2.01660903 C59.870019,2.0149663 59.7887317,2.01198077 59.6626391,2.00882253 C57.5988553,1.95713087 54.7225402,2.08187394 51.3181509,2.53286802 C45.8927298,3.25148599 41.367921,5.1505258 38.1523618,8.15226306 C35.1504695,11.3672762 33.251091,15.8928895 32.5323428,21.3184831 C32.0815431,24.7213285 31.9569875,27.596872 32.0089074,29.6610753 C32.0120964,29.7878581 32.0151112,29.8696043 32.0167707,29.9041112 L32.0167698,30.0962776 C32.0151106,30.130771 32.012096,30.2124967 32.0089073,30.3392541 C31.9569876,32.4031296 32.0815433,35.2785917 32.5323438,38.6818941 C33.2514569,44.1102427 35.1524686,48.6373323 38.1574198,51.8528162 C41.3731618,54.8516183 45.8965558,56.7493908 51.3184491,57.4675416 C54.7201318,57.9186282 57.5950561,58.0431607 59.659521,57.9910202 C59.7868107,57.9878054 59.8688892,57.984766 59.9035403,57.9830928 L60.0964785,57.9830937 C60.131116,57.9847665 60.2131739,57.9878057 60.3404382,57.9910204 C62.4045754,58.0431606 65.2794185,57.918628 68.6818164,57.4675064 C74.1248973,56.746458 78.6631495,54.8361998 81.8362349,51.8596024 C84.8448554,48.6437032 86.7480371,44.1140626 87.4676526,38.6819212 C87.9184567,35.2785917 88.0430124,32.4031296 87.9910927,30.3392541 C87.987904,30.2124967 87.9848894,30.130771 87.9832302,30.0962776 L87.9832293,29.9041112 C87.9848888,29.8696043 87.9879036,29.7878581 87.9910926,29.6610753 C88.0430125,27.596872 87.9184569,24.7213285 87.4676572,21.3184831 C86.749287,15.8957428 84.8515279,11.3720364 81.8523733,8.15733641 Z" id="Path" stroke="#000000" stroke-width="4"></path>
                                <path d="M46.4361148,23 C47.3276335,23 47.6509198,23.0928256 47.9768457,23.2671327 C48.3027716,23.4414398 48.5585602,23.6972284 48.7328673,24.0231543 C48.9071744,24.3490802 49,24.6723665 49,25.5638852 L49,34.4361148 C49,35.3276335 48.9071744,35.6509198 48.7328673,35.9768457 C48.5585602,36.3027716 48.3027716,36.5585602 47.9768457,36.7328673 C47.6509198,36.9071744 47.3276335,37 46.4361148,37 L39,37 L39,23 L46.4361148,23 Z M75,23 L75,26 L68,26 L68,29 L72,29 L72,32 L68,32 L68,37 L65,37 L65,23 L75,23 Z M81,29 L81,37 L78,37 L78,29 L81,29 Z M60,24 C61.1045695,24 62,24.8954305 62,26 L62,32 L55,32 L55,34 L59,34 L59,37 L54,37 C52.8954305,37 52,36.1045695 52,35 L52,26 C52,24.8954305 52.8954305,24 54,24 L60,24 Z M46,26 L42,26 L42,34 L46,34 L46,26 Z M59,27 L55,27 L55,29 L59,29 L59,27 Z M79.5,24 C80.3284271,24 81,24.6715729 81,25.5 C81,26.3284271 80.3284271,27 79.5,27 C78.6715729,27 78,26.3284271 78,25.5 C78,24.6715729 78.6715729,24 79.5,24 Z" id="Combined-Shape" fill="#07A6B3" fill-rule="nonzero"></path>
                            </g>
                        </g>
                    </g>
                </g>
            </g>
        </g>
    </g>
</svg>