<?xml version="1.0" encoding="UTF-8"?>
<svg width="128px" height="150px" viewBox="0 0 128 150" version="1.1" xmlns="http://www.w3.org/2000/svg" xmlns:xlink="http://www.w3.org/1999/xlink">
    <!-- Generator: Sketch 61.2 (89653) - https://sketch.com -->
    <title>Elements/Cosmonaut/cosmonaut_3_logo</title>
    <desc>Created with Sketch.</desc>
    <g id="Home" stroke="none" stroke-width="1" fill="none" fill-rule="evenodd">
        <g id="Desktop" transform="translate(-112.000000, -2540.000000)">
            <g id="Own-funds" transform="translate(0.000000, 2451.000000)">
                <g id="Elements/Cosmonaut/cosmonaut_3_logo" transform="translate(80.000000, 69.000000)">
                    <g id="Group-66" transform="translate(34.500000, 24.375000)">
                        <g id="Group-5" transform="translate(10.125000, 73.500000)">
                            <path d="M28.2635296,0.153760969 C26.3293167,5.32156028 26.6040417,11.272699 31.5750789,21.3409987 C20.0514788,29.2486237 24.5139038,35.7454992 29.4997914,43.5491735 C7.06515367,55.9897623 4.84136614,56.0268865 4.84136614,56.0268865 C-8.87446599,23.3947538 12.5596538,1.07446209 28.2635296,0.153760969 Z" id="Fill-2" fill="#FFFFFF"></path>
                            <path d="M21.9760384,1.97288673 C22.5236322,4.26498388 21.300735,3.42410151 21.7956117,5.63749477 C8.75990993,11.5151252 2.53144936,31.7519625 5.94917653,37.6162276 C-0.33608678,43.0710043 4.60673614,53.3754197 4.60673614,53.3754197 C-7.94634098,30.2632501 7.61237617,3.18798614 21.9760384,1.97288673 Z" id="Fill-3" fill="#D8D8D8"></path>
                            <path d="M28.2635296,0.153760969 C26.3293167,5.32156028 26.6040417,11.272699 31.5750789,21.3409987 C20.0514788,29.2486237 24.5139038,35.7454992 29.4997914,43.5491735 C7.06515367,55.9897623 4.84136614,56.0268865 4.84136614,56.0268865 C-8.87446599,23.3947538 12.5596538,1.07446209 28.2635296,0.153760969 Z" id="Stroke-4" stroke="#000000" stroke-width="4.125" stroke-linejoin="round"></path>
                        </g>
                        <g id="Group-8" transform="translate(82.875000, 73.500000)">
                            <path d="M3.43188288,0.153760969 C5.36609577,5.32156028 5.09137077,11.272699 0.120333587,21.3409987 C11.6439337,29.2486237 7.18150866,35.7454992 2.19562111,43.5491735 C24.6302588,55.9897623 26.8540464,56.0268865 26.8540464,56.0268865 C40.5698785,23.3947538 19.1357587,1.07446209 3.43188288,0.153760969 Z" id="Fill-6" fill="#FFFFFF"></path>
                            <path d="M3.43188288,0.153760969 C5.36609577,5.32156028 5.09137077,11.272699 0.120333587,21.3409987 C11.6439337,29.2486237 7.18150866,35.7454992 2.19562111,43.5491735 C24.6302588,55.9897623 26.8540464,56.0268865 26.8540464,56.0268865 C40.5698785,23.3947538 19.1357587,1.07446209 3.43188288,0.153760969 Z" id="Stroke-7" stroke="#000000" stroke-width="4.125" stroke-linejoin="round"></path>
                        </g>
                        <g id="Group-12" transform="translate(16.125000, 0.000000)">
                            <path d="M42.9989586,0.146260792 C42.9989586,0.146260792 49.1765589,0.146260792 49.1765589,0.146260792 C59.3710835,0.146260792 66.692134,1.92083544 72.9254208,5.25466159 C79.1549951,8.58477449 84.0480705,13.4778499 87.3781834,19.7074242 C90.7120096,25.9407111 92.4865842,33.2617615 92.4865842,43.4562862 C92.4865842,43.4562862 92.4865842,47.4212363 92.4865842,47.4212363 C92.4865842,57.615761 90.7120096,64.9368114 87.3781834,71.1700983 C84.0480705,77.3996726 79.1549951,82.292748 72.9254208,85.6228609 C66.692134,88.9566871 59.3710835,90.7312617 49.1765589,90.7312617 C49.1765589,90.7312617 43.3553586,90.7312617 43.3553586,90.7312617 C33.160834,90.7312617 25.8397835,88.9566871 19.6064967,85.6228609 C13.3769224,82.292748 8.48384698,77.3996726 5.15373408,71.1700983 C1.81990793,64.9368114 0.0453332831,57.615761 0.0453332831,47.4212363 C0.0453332831,47.4212363 0.0453332831,43.4562862 0.0453332831,43.4562862 C0.0453332831,33.2617615 1.81990793,25.9407111 5.15373408,19.7074242 C8.48384698,13.4778499 13.3769224,8.58477449 19.6064967,5.25466159 C25.7655332,1.96167294 32.9900594,0.187098664 42.9989586,0.146260792 Z" id="Stroke-10" stroke="#000000" stroke-width="8.25"></path>
                            <path d="M42.9989586,0.146260792 C42.9989586,0.146260792 49.1765589,0.146260792 49.1765589,0.146260792 C59.3710835,0.146260792 66.692134,1.92083544 72.9254208,5.25466159 C79.1549951,8.58477449 84.0480705,13.4778499 87.3781834,19.7074242 C90.7120096,25.9407111 92.4865842,33.2617615 92.4865842,43.4562862 C92.4865842,43.4562862 92.4865842,47.4212363 92.4865842,47.4212363 C92.4865842,57.615761 90.7120096,64.9368114 87.3781834,71.1700983 C84.0480705,77.3996726 79.1549951,82.292748 72.9254208,85.6228609 C66.692134,88.9566871 59.3710835,90.7312617 49.1765589,90.7312617 C49.1765589,90.7312617 43.3553586,90.7312617 43.3553586,90.7312617 C33.160834,90.7312617 25.8397835,88.9566871 19.6064967,85.6228609 C13.3769224,82.292748 8.48384698,77.3996726 5.15373408,71.1700983 C1.81990793,64.9368114 0.0453332831,57.615761 0.0453332831,47.4212363 C0.0453332831,47.4212363 0.0453332831,43.4562862 0.0453332831,43.4562862 C0.0453332831,33.2617615 1.81990793,25.9407111 5.15373408,19.7074242 C8.48384698,13.4778499 13.3769224,8.58477449 19.6064967,5.25466159 C25.7655332,1.96167294 32.9900594,0.187098664 42.9989586,0.146260792 Z" id="Fill-9" fill="#FFFFFF"></path>
                            <path d="M28.6950677,89.1189222 C25.3478769,88.2724726 22.370453,87.1011792 19.6064967,85.6228609 C13.3769224,82.292748 8.48384698,77.3996726 5.15373408,71.1700983 C1.81990793,64.9368114 0.0453332831,57.615761 0.0453332831,47.4212363 C0.0453332831,47.4212363 0.0453332831,43.4562862 0.0453332831,43.4562862 C0.0453332831,33.2617615 1.81990793,25.9407111 5.15373408,19.7074242 C8.48384698,13.4778499 13.3769224,8.58477449 19.6064967,5.25466159 C22.3181071,3.80493069 25.2357602,2.64959808 28.5068439,1.80686206 C-1.32420612,20.6032486 4.24454096,80.002878 28.6950677,89.1189222 Z" id="Fill-11" fill="#D8D8D8"></path>
                        </g>
                        <g id="Group-15" transform="translate(85.500000, 10.875000)">
                            <path d="M0.0940799494,0.0375115819 C4.07387999,2.1870491 7.44111752,5.05681163 10.1178301,8.57626167" id="Fill-13" fill="#FFFFFF"></path>
                            <path d="M0.0940799494,0.0375115819 C4.07387999,2.1870491 7.44111752,5.05681163 10.1178301,8.57626167" id="Stroke-14" stroke="#000000" stroke-width="4.125" stroke-linecap="round"></path>
                        </g>
                        <g id="Group-18" transform="translate(0.000000, 21.000000)">
                            <path d="M17.1882966,1.29094863 C19.2450211,2.16338651 20.8785218,3.39222365 22.0442465,4.86979867 C23.2062586,6.34737331 23.9042094,8.07368616 24.0935461,9.94849876 C24.2828844,11.8195987 23.9598965,13.8391988 23.087459,15.8959238 C23.087459,15.8959238 21.8363468,18.8399363 21.8363468,18.8399363 C20.963909,20.9003738 19.7350711,22.530161 18.2574963,23.6958867 C16.7799214,24.8616114 15.0536089,25.559561 13.1787964,25.7488992 C11.3076964,25.9382364 9.29180881,25.6152492 7.23137121,24.7428114 C5.1746463,23.8666614 3.54114629,22.6415367 2.3791334,21.163961 C1.21340876,19.6863863 0.515459128,17.9563612 0.326120512,16.0852612 C0.136783753,14.2141613 0.459771628,12.1945612 1.33220839,10.1378361 C1.33220839,10.1378361 2.58332128,7.19011112 2.58332128,7.19011112 C3.45575916,5.13338654 4.6845963,3.49988578 6.16217117,2.33787364 C7.63974637,1.172149 9.36605892,0.474198623 11.2408713,0.284861493 C13.1119713,0.0955232482 15.127859,0.418511865 17.1882966,1.29094863 Z" id="Fill-16" fill="#D8D8D8"></path>
                            <path d="M17.1882966,1.29094863 C19.2450211,2.16338651 20.8785218,3.39222365 22.0442465,4.86979867 C23.2062586,6.34737331 23.9042094,8.07368616 24.0935461,9.94849876 C24.2828844,11.8195987 23.9598965,13.8391988 23.087459,15.8959238 C23.087459,15.8959238 21.8363468,18.8399363 21.8363468,18.8399363 C20.963909,20.9003738 19.7350711,22.530161 18.2574963,23.6958867 C16.7799214,24.8616114 15.0536089,25.559561 13.1787964,25.7488992 C11.3076964,25.9382364 9.29180881,25.6152492 7.23137121,24.7428114 C5.1746463,23.8666614 3.54114629,22.6415367 2.3791334,21.163961 C1.21340876,19.6863863 0.515459128,17.9563612 0.326120512,16.0852612 C0.136783753,14.2141613 0.459771628,12.1945612 1.33220839,10.1378361 C1.33220839,10.1378361 2.58332128,7.19011112 2.58332128,7.19011112 C3.45575916,5.13338654 4.6845963,3.49988578 6.16217117,2.33787364 C7.63974637,1.172149 9.36605892,0.474198623 11.2408713,0.284861493 C13.1119713,0.0955232482 15.127859,0.418511865 17.1882966,1.29094863 Z" id="Stroke-17" stroke="#000000" stroke-width="4.125"></path>
                        </g>
                        <line x1="12.1466357" y1="28.5780849" x2="8.20973617" y2="37.8528389" id="Stroke-19" stroke="#FFFFFF" stroke-width="4.125" stroke-linecap="round" stroke-linejoin="round"></line>
                        <g id="Group-22" transform="translate(98.625000, 21.000000)">
                            <path d="M7.24304234,1.29094863 C5.18631743,2.16338651 3.55281741,3.39222365 2.39080453,4.86979867 C1.22507989,6.34737331 0.527130253,8.07368616 0.337791637,9.94849876 C0.148454878,11.8195987 0.471442753,13.8391988 1.34387952,15.8959238 C1.34387952,15.8959238 2.5949924,18.8399363 2.5949924,18.8399363 C3.46743028,20.9003738 4.69626742,22.530161 6.17384229,23.6958867 C7.65141749,24.8616114 9.37773005,25.559561 11.2525425,25.7488992 C13.1236425,25.9382364 15.1395301,25.6152492 17.1999677,24.7428114 C19.2566922,23.8666614 20.890193,22.6415367 22.0559176,21.163961 C23.2179297,19.6863863 23.9158805,17.9563612 24.1052172,16.0852612 C24.2945555,14.2141613 23.9715676,12.1945612 23.0991301,10.1378361 C23.0991301,10.1378361 21.848018,7.19011112 21.848018,7.19011112 C20.9755801,5.13338654 19.7467422,3.49988578 18.2691674,2.33787364 C16.7915925,1.172149 15.06528,0.474198623 13.1904675,0.284861493 C11.3193675,0.0955232482 9.30347993,0.418511865 7.24304234,1.29094863 Z" id="Fill-20" fill="#FFFFFF"></path>
                            <path d="M7.24304234,1.29094863 C5.18631743,2.16338651 3.55281741,3.39222365 2.39080453,4.86979867 C1.22507989,6.34737331 0.527130253,8.07368616 0.337791637,9.94849876 C0.148454878,11.8195987 0.471442753,13.8391988 1.34387952,15.8959238 C1.34387952,15.8959238 2.5949924,18.8399363 2.5949924,18.8399363 C3.46743028,20.9003738 4.69626742,22.530161 6.17384229,23.6958867 C7.65141749,24.8616114 9.37773005,25.559561 11.2525425,25.7488992 C13.1236425,25.9382364 15.1395301,25.6152492 17.1999677,24.7428114 C19.2566922,23.8666614 20.890193,22.6415367 22.0559176,21.163961 C23.2179297,19.6863863 23.9158805,17.9563612 24.1052172,16.0852612 C24.2945555,14.2141613 23.9715676,12.1945612 23.0991301,10.1378361 C23.0991301,10.1378361 21.848018,7.19011112 21.848018,7.19011112 C20.9755801,5.13338654 19.7467422,3.49988578 18.2691674,2.33787364 C16.7915925,1.172149 15.06528,0.474198623 13.1904675,0.284861493 C11.3193675,0.0955232482 9.30347993,0.418511865 7.24304234,1.29094863 Z" id="Stroke-21" stroke="#000000" stroke-width="4.125"></path>
                        </g>
                        <line x1="110.495766" y1="27.9139224" x2="114.432666" y2="37.1886764" id="Stroke-23" stroke="#D8D8D8" stroke-width="4.125" stroke-linecap="round" stroke-linejoin="round"></line>
                        <g id="Group-26" transform="translate(31.875000, 23.250000)">
                            <path d="M25.1922299,0.285007241 C25.1922299,0.285007241 36.2109301,0.285007241 36.2109301,0.285007241 C41.7945297,0.285007241 46.1195923,1.31708188 49.7504181,3.25871903 C53.377531,5.20035803 56.228731,8.05155658 58.170367,11.6786695 C60.1120057,15.3094945 61.1440803,19.6345578 61.1440803,25.2181575 C61.1440803,25.2181575 61.1440803,26.5843575 61.1440803,26.5843575 C61.1440803,32.1679572 60.1120057,36.4930205 58.170367,40.1238455 C56.228731,43.7509584 53.377531,46.602157 49.7504181,48.543796 C46.1195923,50.4854331 41.7945297,51.5175078 36.2109301,51.5175078 C36.2109301,51.5175078 25.1922299,51.5175078 25.1922299,51.5175078 C19.6086303,51.5175078 15.2835677,50.4854331 11.6527419,48.543796 C8.02562903,46.602157 5.174429,43.7509584 3.23279297,40.1238455 C1.29115433,36.4930205 0.259079692,32.1679572 0.259079692,26.5843575 C0.259079692,26.5843575 0.259079692,25.2181575 0.259079692,25.2181575 C0.259079692,19.6345578 1.29115433,15.3094945 3.23279297,11.6786695 C5.174429,8.05155658 8.02562903,5.20035803 11.6527419,3.25871903 C15.2835677,1.31708188 19.6086303,0.285007241 25.1922299,0.285007241 Z" id="Fill-24" fill="#FFFFFF"></path>
                            <path d="M25.1922299,0.285007241 C25.1922299,0.285007241 36.2109301,0.285007241 36.2109301,0.285007241 C41.7945297,0.285007241 46.1195923,1.31708188 49.7504181,3.25871903 C53.377531,5.20035803 56.228731,8.05155658 58.170367,11.6786695 C60.1120057,15.3094945 61.1440803,19.6345578 61.1440803,25.2181575 C61.1440803,25.2181575 61.1440803,26.5843575 61.1440803,26.5843575 C61.1440803,32.1679572 60.1120057,36.4930205 58.170367,40.1238455 C56.228731,43.7509584 53.377531,46.602157 49.7504181,48.543796 C46.1195923,50.4854331 41.7945297,51.5175078 36.2109301,51.5175078 C36.2109301,51.5175078 25.1922299,51.5175078 25.1922299,51.5175078 C19.6086303,51.5175078 15.2835677,50.4854331 11.6527419,48.543796 C8.02562903,46.602157 5.174429,43.7509584 3.23279297,40.1238455 C1.29115433,36.4930205 0.259079692,32.1679572 0.259079692,26.5843575 C0.259079692,26.5843575 0.259079692,25.2181575 0.259079692,25.2181575 C0.259079692,19.6345578 1.29115433,15.3094945 3.23279297,11.6786695 C5.174429,8.05155658 8.02562903,5.20035803 11.6527419,3.25871903 C15.2835677,1.31708188 19.6086303,0.285007241 25.1922299,0.285007241 Z" id="Stroke-25" stroke="#000000" stroke-width="4.125"></path>
                        </g>
                        <path d="M44.01408,54.3487576 C47.5001176,54.3487576 50.3253301,51.5235451 50.3253301,48.0375075 C50.3253301,44.5514699 47.5001176,41.7262574 44.01408,41.7262574 C40.5280424,41.7262574 37.7028299,44.5514699 37.7028299,48.0375075 C37.7028299,51.5235451 40.5280424,54.3487576 44.01408,54.3487576 Z" id="Fill-27" fill="#000000"></path>
                        <path d="M42.15783,49.1512613 C43.18248,49.1512613 44.01408,48.3196613 44.01408,47.2950113 C44.01408,46.2703612 43.18248,45.4387612 42.15783,45.4387612 C41.13318,45.4387612 40.30158,46.2703612 40.30158,47.2950113 C40.30158,48.3196613 41.13318,49.1512613 42.15783,49.1512613 Z" id="Fill-28" fill="#FFFFFF"></path>
                        <line x1="39.93033" y1="39.6843863" x2="46.98408" y2="37.2712612" id="Stroke-29" stroke="#000000" stroke-width="3.75" stroke-linecap="round"></line>
                        <path d="M80.7678337,54.3487538 C77.2817961,54.3487538 74.4565837,51.5235414 74.4565837,48.0375038 C74.4565837,44.5514661 77.2817961,41.7262537 80.7678337,41.7262537 C84.2538714,41.7262537 87.0790838,44.5514661 87.0790838,48.0375038 C87.0790838,51.5235414 84.2538714,54.3487538 80.7678337,54.3487538 Z" id="Fill-30" fill="#000000"></path>
                        <path d="M79.2828375,49.1512538 C78.2581875,49.1512538 77.4265875,48.3196538 77.4265875,47.2950037 C77.4265875,46.2703537 78.2581875,45.4387537 79.2828375,45.4387537 C80.3074875,45.4387537 81.1390875,46.2703537 81.1390875,47.2950037 C81.1390875,48.3196538 80.3074875,49.1512538 79.2828375,49.1512538 Z" id="Fill-31" fill="#FFFFFF"></path>
                        <line x1="84.85158" y1="39.6843788" x2="77.79783" y2="37.2712537" id="Stroke-32" stroke="#000000" stroke-width="3.75" stroke-linecap="round"></line>
                        <g id="Group-35" transform="translate(55.875000, 45.750000)">
                            <path d="M0.390329936,0.338444958 C0.390329936,0.338444958 0.362857807,5.01990751 6.70120875,5.16469501 C12.4325664,5.29537501 13.0128301,0.338444958 13.0128301,0.338444958 C13.0128301,0.338444958 12.9901834,0.245632457 12.9901834,0.245632457 C13.0354767,2.60381255 10.2511012,5.22595126 6.72534,5.16469501 C3.23967379,5.10418126 0.598601485,3.53193749 0.367683315,0.245632457 C0.367683315,0.245632457 0.390329936,0.338444958 0.390329936,0.338444958 Z" id="Fill-33" fill="#000000"></path>
                            <path d="M0.390329936,0.338444958 C0.390329936,0.338444958 0.362857807,5.01990751 6.70120875,5.16469501 C12.4325664,5.29537501 13.0128301,0.338444958 13.0128301,0.338444958 C13.0128301,0.338444958 12.9901834,0.245632457 12.9901834,0.245632457 C13.0354767,2.60381255 10.2511012,5.22595126 6.72534,5.16469501 C3.23967379,5.10418126 0.598601485,3.53193749 0.367683315,0.245632457 C0.367683315,0.245632457 0.390329936,0.338444958 0.390329936,0.338444958 Z" id="Stroke-34" stroke="#000000" stroke-width="3.375" stroke-linecap="round" stroke-linejoin="round"></path>
                        </g>
                        <g id="Group-40" transform="translate(24.375000, 66.000000)" stroke="#000000" stroke-width="4.125">
                            <path d="M37.9976736,75.0279447 C57.9162027,75.2563568 74.2573609,59.1220702 74.4883374,38.9799115 C74.7193139,18.8377528 58.752438,2.33297984 38.8339089,2.10456778 C18.9153798,1.87615572 2.57422158,18.0104423 2.3432451,38.152601 C2.11226863,58.2947597 18.0791445,74.7995327 37.9976736,75.0279447 Z" id="Stroke-39"></path>
                        </g>
                        <g id="Group-43" transform="translate(24.375000, 66.000000)" stroke="#000000" stroke-width="4.125">
                            <path d="M38.5728263,76.8918829 C59.6932386,76.8918829 76.8115766,59.6881577 76.8115766,38.4675075 C76.8115766,17.2468573 59.6932386,0.0431321119 38.5728263,0.0431321119 C17.4524139,0.0431321119 0.334075864,17.2468573 0.334075864,38.4675075 C0.334075864,59.6881577 17.4524139,76.8918829 38.5728263,76.8918829 Z" id="Stroke-42"></path>
                        </g>
                        <path d="M63.2133248,68.1018616 C42.9373311,68.1018616 26.5023508,84.5653975 26.5023508,104.86995 C26.5023508,125.174503 42.9409001,141.638038 63.2133248,141.638038 C83.4893192,141.638038 99.9242967,125.174503 99.9242967,104.86995 C99.9242967,84.5653975 83.4928886,68.1018616 63.2133248,68.1018616 Z" id="Fill-44" fill="#0098A6"></path>
                        <g id="Group-47" transform="translate(40.125000, 81.750000)" fill="#FFFFFF">
                            <path d="M44.3652738,32.2641275 C44.3652738,32.2641275 19.2237551,21.5978121 19.2237551,21.5978121 C19.2237551,21.5978121 35.3481686,21.5264178 35.3481686,21.5264178 C34.7698733,15.6685117 28.75847,10.9065091 23.0897589,10.9065091 C21.8046607,10.9065091 20.5267019,11.1206918 19.312998,11.538348 C19.312998,11.538348 13.7335298,2.05360908 13.7335298,2.05360908 C16.6678371,0.704256642 19.8627345,0.0117318384 23.0897589,0.0152885338 C35.5016664,0.0152885338 46.1072962,10.2782382 46.1072962,22.7079942 C46.1072962,26.0599589 45.6753608,29.4047836 44.3617048,32.2641275 C44.3617048,32.2641275 44.3652738,32.2641275 44.3652738,32.2641275 Z" id="Fill-45"></path>
                            <path d="M23.0904729,46.2270933 C10.6785654,46.2270933 0.037239094,36.1497655 0.037239094,23.7200091 C0.037239094,20.7999804 0.590544922,17.4301672 1.60077421,14.8706795 C1.60077421,14.8706795 11.5031708,19.0936554 11.5031708,19.0936554 C11.4710433,19.2328746 11.4317761,19.4149299 11.3853694,19.618404 C11.0890836,20.589367 10.9141667,21.5888878 10.86776,22.5991178 C10.8463428,22.799022 10.839203,23.0024959 10.842772,23.2024001 C10.842772,23.2488064 10.8499118,23.2952127 10.8534822,23.3416191 C10.8963185,27.0362765 12.6133522,30.5096118 15.5155327,32.7870911 C18.4212826,35.0645711 22.2016133,35.899885 25.7927489,35.0574313 C25.7927489,35.0574313 31.4221931,44.6314132 31.4221931,44.6314132 C28.769893,45.6880492 25.9426769,46.2306465 23.0904729,46.2270933 Z" id="Fill-46"></path>
                        </g>
                        <g id="Group-50" transform="translate(11.625000, 108.000000)">
                            <path d="M3.35139366,22.3744576 C3.35139366,22.3744576 0.83803113,14.80467 0.83803113,14.80467 C-1.07761889,9.03915744 2.04459364,2.81700812 7.80639381,0.901358098 C7.80639381,0.901358098 7.93633109,0.860520226 7.93633109,0.860520226 C13.8169313,-1.01058016 20.1096188,2.19330774 22.0549685,8.04791993 C22.0549685,8.04791993 24.5683314,15.6177075 24.5683314,15.6177075 C26.4802689,21.3832201 23.3617689,27.6053694 17.5962564,29.5210194 C17.5962564,29.5210194 17.4700313,29.5618573 17.4700313,29.5618573 C11.5894313,31.4329577 5.29674368,28.2290698 3.35139366,22.3744576 Z" id="Fill-48" fill="#FFFFFF"></path>
                            <path d="M3.35139366,22.3744576 C3.35139366,22.3744576 0.83803113,14.80467 0.83803113,14.80467 C-1.07761889,9.03915744 2.04459364,2.81700812 7.80639381,0.901358098 C7.80639381,0.901358098 7.93633109,0.860520226 7.93633109,0.860520226 C13.8169313,-1.01058016 20.1096188,2.19330774 22.0549685,8.04791993 C22.0549685,8.04791993 24.5683314,15.6177075 24.5683314,15.6177075 C26.4802689,21.3832201 23.3617689,27.6053694 17.5962564,29.5210194 C17.5962564,29.5210194 17.4700313,29.5618573 17.4700313,29.5618573 C11.5894313,31.4329577 5.29674368,28.2290698 3.35139366,22.3744576 Z" id="Stroke-49" stroke="#000000" stroke-width="4.125"></path>
                        </g>
                        <g id="Group-53" transform="translate(22.125000, 117.000000)" stroke="#000000" stroke-linecap="round" stroke-width="4.125">
                            <line x1="9.89129912" y1="0.133303509" x2="0.129848379" y2="2.52818399" id="Stroke-52"></line>
                        </g>
                        <g id="Group-56" transform="translate(24.750000, 124.500000)" stroke="#000000" stroke-linecap="round" stroke-width="4.125">
                            <line x1="9.67216076" y1="0.085408157" x2="0.12418286" y2="3.12527741" id="Stroke-55"></line>
                        </g>
                        <g id="Group-59" transform="translate(87.750000, 108.000000)">
                            <path d="M21.970511,22.3740788 C21.970511,22.3740788 24.4838739,14.8042912 24.4838739,14.8042912 C26.3958114,9.03877869 23.2773114,2.81662937 17.5117989,0.900979348 C17.5117989,0.900979348 17.3855738,0.860141476 17.3855738,0.860141476 C11.5049738,-1.01095891 5.21228618,2.19292899 3.26693616,8.04754118 C3.26693616,8.04754118 0.75357363,15.6173288 0.75357363,15.6173288 C-1.16207639,21.3828413 1.96013614,27.6049906 7.72193631,29.5206407 C7.72193631,29.5206407 7.85187359,29.5614785 7.85187359,29.5614785 C13.7324738,31.4325789 20.0251613,28.228691 21.970511,22.3740788 Z" id="Fill-57" fill="#FFFFFF"></path>
                            <path d="M21.970511,22.3740788 C21.970511,22.3740788 24.4838739,14.8042912 24.4838739,14.8042912 C26.3958114,9.03877869 23.2773114,2.81662937 17.5117989,0.900979348 C17.5117989,0.900979348 17.3855738,0.860141476 17.3855738,0.860141476 C11.5049738,-1.01095891 5.21228618,2.19292899 3.26693616,8.04754118 C3.26693616,8.04754118 0.75357363,15.6173288 0.75357363,15.6173288 C-1.16207639,21.3828413 1.96013614,27.6049906 7.72193631,29.5206407 C7.72193631,29.5206407 7.85187359,29.5614785 7.85187359,29.5614785 C13.7324738,31.4325789 20.0251613,28.228691 21.970511,22.3740788 Z" id="Stroke-58" stroke="#000000" stroke-width="4.125"></path>
                        </g>
                        <g id="Group-62" transform="translate(92.625000, 117.000000)" stroke="#000000" stroke-linecap="round" stroke-width="4.125">
                            <line x1="0.0541171291" y1="0.132924759" x2="9.81556787" y2="2.52780524" id="Stroke-61"></line>
                        </g>
                        <g id="Group-65" transform="translate(90.000000, 124.500000)" stroke="#000000" stroke-linecap="round" stroke-width="4.125">
                            <line x1="0.273259236" y1="0.085029407" x2="9.82123714" y2="3.12489866" id="Stroke-64"></line>
                        </g>
                    </g>
                </g>
            </g>
        </g>
    </g>
</svg>