<?xml version="1.0" encoding="UTF-8"?>
<svg width="145px" height="148px" viewBox="0 0 145 148" version="1.1" xmlns="http://www.w3.org/2000/svg" xmlns:xlink="http://www.w3.org/1999/xlink">
    <!-- Generator: Sketch 61.2 (89653) - https://sketch.com -->
    <title>Elements/Cosmonaut/cosmonaut_5_deal</title>
    <desc>Created with Sketch.</desc>
    <g id="Home" stroke="none" stroke-width="1" fill="none" fill-rule="evenodd">
        <g id="Desktop" transform="translate(-124.000000, -3801.000000)">
            <g id="Stay-safe" transform="translate(0.000000, 3711.000000)">
                <g id="Elements/Cosmonaut/cosmonaut_5_deal" transform="translate(108.000000, 64.000000)">
                    <g id="Group-84" transform="translate(12.750000, 12.750000)">
                        <polygon id="Fill-1" fill-opacity="0" fill="#000000" points="0 0 166.125 0 166.125 163.5 0 163.5"></polygon>
                        <g id="Group-4" transform="translate(34.125000, 80.250000)">
                            <path d="M32.6786438,0.27788124 C32.6786438,0.27788124 47.6348439,0.27368334 47.6348439,0.27368334 C47.6348439,0.27368334 48.3278437,0.27788124 48.3278437,0.27788124 C58.6136438,0.34928334 64.3130433,1.84868334 69.4706429,4.6038825 C74.737445,7.42628292 78.8744442,11.5590812 81.696845,16.8300825 C81.696845,16.8300825 81.8816425,17.1744825 81.8816425,17.1744825 C84.5864438,22.3530833 86.0270438,28.1700825 86.0396433,38.6616825 C86.0396433,38.6616825 86.048045,68.7084812 86.048045,68.7084812 C71.768045,75.0084812 57.4880433,78.1584812 43.2080438,78.1584812 C28.9280433,78.1584812 14.648045,75.0084812 0.36804501,68.7084812 C0.36804501,68.7084812 0.351221298,32.6178826 0.351221298,32.6178826 C0.33024333,14.9358833 14.513645,0.56348124 32.1284438,0.2694825 C32.1284438,0.2694825 32.6618442,0.26528166 32.6618442,0.26528166 C32.6702433,0.26528166 32.6744433,0.26528166 32.6786438,0.27788124 Z" id="Fill-2" fill="#FFFFFF"></path>
                            <path d="M32.6786438,0.27788124 C32.6786438,0.27788124 47.6348439,0.27368334 47.6348439,0.27368334 C47.6348439,0.27368334 48.3278437,0.27788124 48.3278437,0.27788124 C58.6136438,0.34928334 64.3130433,1.84868334 69.4706429,4.6038825 C74.737445,7.42628292 78.8744442,11.5590812 81.696845,16.8300825 C81.696845,16.8300825 81.8816425,17.1744825 81.8816425,17.1744825 C84.5864438,22.3530833 86.0270438,28.1700825 86.0396433,38.6616825 C86.0396433,38.6616825 86.048045,68.7084812 86.048045,68.7084812 C71.768045,75.0084812 57.4880433,78.1584812 43.2080438,78.1584812 C28.9280433,78.1584812 14.648045,75.0084812 0.36804501,68.7084812 C0.36804501,68.7084812 0.351221298,32.6178826 0.351221298,32.6178826 C0.33024333,14.9358833 14.513645,0.56348124 32.1284438,0.2694825 C32.1284438,0.2694825 32.6618442,0.26528166 32.6618442,0.26528166 C32.6702433,0.26528166 32.6744433,0.26528166 32.6786438,0.27788124 Z" id="Stroke-3" stroke="#000000" stroke-width="4.125" stroke-linejoin="round"></path>
                        </g>
                        <g id="Group-8" transform="translate(10.500000, 106.875000)">
                            <path d="M25.2320423,0.27457917 C25.2320423,0.27457917 25.1505623,41.6680992 25.1505623,41.6680992 C11.9583619,43.4656988 5.248862,40.8142388 0.336541455,36.2580792 C1.12362187,27.6892388 1.88928187,19.1552588 4.9859423,12.5822589 C8.99862179,4.06423875 16.8736218,-0.06058083 25.2320423,0.27457917 Z" id="Fill-5" fill="#FFFFFF"></path>
                            <path d="M25.2320423,0.27457917 C25.2320423,0.27457917 8.99862179,4.81393875 8.69244175,41.0826188 C5.22618162,40.0401796 2.59194188,38.3496788 0.336541455,36.2580792 C1.12362187,27.6892388 1.88928187,19.1552588 4.9859423,12.5822589 C8.99862179,4.06423875 16.8736218,-0.06058083 25.2320423,0.27457917 Z" id="Fill-6" fill="#D8D8D8"></path>
                            <path d="M25.2320423,0.27457917 C25.2320423,0.27457917 25.1505623,41.6680992 25.1505623,41.6680992 C11.9583619,43.4656988 5.248862,40.8142388 0.336541455,36.2580792 C1.12362187,27.6892388 1.88928187,19.1552588 4.9859423,12.5822589 C8.99862179,4.06423875 16.8736218,-0.06058083 25.2320423,0.27457917 Z" id="Stroke-7" stroke="#000000" stroke-width="4.125"></path>
                        </g>
                        <g id="Group-11" transform="translate(119.625000, 106.875000)">
                            <path d="M0.25404333,0.27457917 C0.25404333,0.27457917 0.33552333,41.6680992 0.33552333,41.6680992 C13.5277238,43.4656988 20.2372236,40.8142388 25.1495442,36.2580792 C24.3624638,27.6892388 23.5968038,19.1552588 20.5001433,12.5822589 C16.4874638,4.06423875 8.61246383,-0.06058083 0.25404333,0.27457917 Z" id="Fill-9" fill="#FFFFFF"></path>
                            <path d="M0.25404333,0.27457917 C0.25404333,0.27457917 0.33552333,41.6680992 0.33552333,41.6680992 C13.5277238,43.4656988 20.2372236,40.8142388 25.1495442,36.2580792 C24.3624638,27.6892388 23.5968038,19.1552588 20.5001433,12.5822589 C16.4874638,4.06423875 8.61246383,-0.06058083 0.25404333,0.27457917 Z" id="Stroke-10" stroke="#000000" stroke-width="4.125"></path>
                        </g>
                        <g id="Group-14" transform="translate(24.750000, 18.000000)">
                            <path d="M47.8152036,0.2200425 C47.8152036,0.2200425 56.0766036,0.2200425 56.0766036,0.2200425 C67.9668029,0.2200425 75.8964033,2.16884208 82.7382021,5.83124292 C89.5842033,9.4894425 94.9560038,14.8612429 98.6142033,21.7072442 C102.276604,28.5490429 104.225404,36.4786433 104.225404,48.3688425 C104.225404,48.3688425 104.225404,54.5512425 104.225404,54.5512425 C104.225404,66.4414417 102.276604,74.3710421 98.6142033,81.2128408 C94.9560038,88.0588421 89.5842033,93.4306425 82.7382021,97.0888421 C75.8964033,100.751243 67.9668029,102.700043 56.0766036,102.700043 C56.0766036,102.700043 48.2142039,102.700043 48.2142039,102.700043 C36.3240046,102.700043 28.3944042,100.751243 21.5526054,97.0888421 C14.7066042,93.4306425 9.33480375,88.0588421 5.67660417,81.2128408 C5.67660417,81.2128408 5.43300333,80.7508417 5.43300333,80.7508417 C1.93020459,74.0098421 0.06540375,66.1726421 0.06540375,54.5512425 C0.06540375,54.5512425 0.06540375,48.3688425 0.06540375,48.3688425 C0.06540375,36.4786433 2.01420333,28.5490429 5.67660417,21.7072442 C9.33480375,14.8612429 14.7066042,9.4894425 21.5526054,5.83124292 C28.3188038,2.21084166 36.1476038,0.26204166 47.8152036,0.2200425 Z" id="Fill-12" fill="#FFFFFF"></path>
                            <path d="M47.8152036,0.2200425 C47.8152036,0.2200425 56.0766036,0.2200425 56.0766036,0.2200425 C67.9668029,0.2200425 75.8964033,2.16884208 82.7382021,5.83124292 C89.5842033,9.4894425 94.9560038,14.8612429 98.6142033,21.7072442 C102.276604,28.5490429 104.225404,36.4786433 104.225404,48.3688425 C104.225404,48.3688425 104.225404,54.5512425 104.225404,54.5512425 C104.225404,66.4414417 102.276604,74.3710421 98.6142033,81.2128408 C94.9560038,88.0588421 89.5842033,93.4306425 82.7382021,97.0888421 C75.8964033,100.751243 67.9668029,102.700043 56.0766036,102.700043 C56.0766036,102.700043 48.2142039,102.700043 48.2142039,102.700043 C36.3240046,102.700043 28.3944042,100.751243 21.5526054,97.0888421 C14.7066042,93.4306425 9.33480375,88.0588421 5.67660417,81.2128408 C5.67660417,81.2128408 5.43300333,80.7508417 5.43300333,80.7508417 C1.93020459,74.0098421 0.06540375,66.1726421 0.06540375,54.5512425 C0.06540375,54.5512425 0.06540375,48.3688425 0.06540375,48.3688425 C0.06540375,36.4786433 2.01420333,28.5490429 5.67660417,21.7072442 C9.33480375,14.8612429 14.7066042,9.4894425 21.5526054,5.83124292 C28.3188038,2.21084166 36.1476038,0.26204166 47.8152036,0.2200425 Z" id="Stroke-13" stroke="#000000" stroke-width="4.125"></path>
                        </g>
                        <g id="Group-28" transform="translate(24.750000, 18.000000)">
                            <path d="M47.8152036,0.2200425 C47.8152036,0.2200425 56.0766036,0.2200425 56.0766036,0.2200425 C67.9668029,0.2200425 75.8964033,2.16884208 82.7382021,5.83124292 C89.5842033,9.4894425 94.9560038,14.8612429 98.6142033,21.7072442 C102.276604,28.5490429 104.225404,36.4786433 104.225404,48.3688425 C104.225404,48.3688425 104.225404,54.5512425 104.225404,54.5512425 C104.225404,66.4414417 102.276604,74.3710421 98.6142033,81.2128408 C94.9560038,88.0588421 89.5842033,93.4306425 82.7382021,97.0888421 C75.8964033,100.751243 67.9668029,102.700043 56.0766036,102.700043 C56.0766036,102.700043 48.2142039,102.700043 48.2142039,102.700043 C36.3240046,102.700043 28.3944042,100.751243 21.5526054,97.0888421 C14.7066042,93.4306425 9.33480375,88.0588421 5.67660417,81.2128408 C5.67660417,81.2128408 5.43300333,80.7508417 5.43300333,80.7508417 C1.93020459,74.0098421 0.06540375,66.1726421 0.06540375,54.5512425 C0.06540375,54.5512425 0.06540375,48.3688425 0.06540375,48.3688425 C0.06540375,36.4786433 2.01420333,28.5490429 5.67660417,21.7072442 C9.33480375,14.8612429 14.7066042,9.4894425 21.5526054,5.83124292 C28.3188038,2.21084166 36.1476038,0.26204166 47.8152036,0.2200425 Z" id="Stroke-26" stroke="#000000" stroke-width="8.25"></path>
                            <path d="M47.8152036,0.2200425 C47.8152036,0.2200425 56.0766036,0.2200425 56.0766036,0.2200425 C67.9668029,0.2200425 75.8964033,2.16884208 82.7382021,5.83124292 C89.5842033,9.4894425 94.9560038,14.8612429 98.6142033,21.7072442 C102.276604,28.5490429 104.225404,36.4786433 104.225404,48.3688425 C104.225404,48.3688425 104.225404,54.5512425 104.225404,54.5512425 C104.225404,66.4414417 102.276604,74.3710421 98.6142033,81.2128408 C94.9560038,88.0588421 89.5842033,93.4306425 82.7382021,97.0888421 C75.8964033,100.751243 67.9668029,102.700043 56.0766036,102.700043 C56.0766036,102.700043 48.2142039,102.700043 48.2142039,102.700043 C36.3240046,102.700043 28.3944042,100.751243 21.5526054,97.0888421 C14.7066042,93.4306425 9.33480375,88.0588421 5.67660417,81.2128408 C5.67660417,81.2128408 5.43300333,80.7508417 5.43300333,80.7508417 C1.93020459,74.0098421 0.06540375,66.1726421 0.06540375,54.5512425 C0.06540375,54.5512425 0.06540375,48.3688425 0.06540375,48.3688425 C0.06540375,36.4786433 2.01420333,28.5490429 5.67660417,21.7072442 C9.33480375,14.8612429 14.7066042,9.4894425 21.5526054,5.83124292 C28.3188038,2.21084166 36.1476038,0.26204166 47.8152036,0.2200425 Z" id="Fill-25" fill="#FFFFFF"></path>
                            <path d="M59.2182038,27.5200425 C59.2182038,27.5200425 45.9126037,27.5200425 45.9126037,27.5200425 C39.1758042,27.5200425 33.9552033,28.7926421 29.5704038,31.1782421 C25.1898037,33.5638421 21.7500025,37.0708433 19.406405,41.5312429 C17.1048037,45.9160426 15.8616042,51.1240425 15.8154038,57.8146425 C15.8154038,57.8146425 15.8154038,58.1800425 15.8154038,58.1800425 C15.8154038,58.1800425 15.8154038,59.8600425 15.8154038,59.8600425 C15.8154038,66.7270417 17.0628042,72.0442417 19.406405,76.5088421 C21.7500025,80.9692433 25.1898037,84.4762429 29.5704038,86.8618429 C33.8754038,89.2054438 38.9910038,90.4738421 45.5556039,90.5200425 C45.5556039,90.5200425 45.9126037,90.5200425 45.9126037,90.5200425 C45.9126037,90.5200425 59.2182038,90.5200425 59.2182038,90.5200425 C65.9550042,90.5200425 71.1756042,89.2474429 75.5604038,86.8618429 C79.9410037,84.4762429 83.380805,80.9692433 85.7244025,76.5088421 C88.0260038,72.1240429 89.2692033,66.9160421 89.3154038,60.2254429 C89.3154038,60.2254429 89.3154038,59.8600425 89.3154038,59.8600425 C89.3154038,59.8600425 89.3154038,58.1800425 89.3154038,58.1800425 C89.3154038,51.3130425 88.0680033,45.9958424 85.7244025,41.5312429 C83.380805,37.0708433 79.9410037,33.5638421 75.5604038,31.1782421 C71.2554037,28.8346429 66.1398037,27.5662429 59.5752042,27.5200425 C59.5752042,27.5200425 59.2182038,27.5200425 59.2182038,27.5200425 Z" id="Stroke-24" stroke="#000000" stroke-width="8.25"></path>
                            <path d="M59.2182038,27.5200425 C59.2182038,27.5200425 45.9126037,27.5200425 45.9126037,27.5200425 C39.1758042,27.5200425 33.9552033,28.7926421 29.5704038,31.1782421 C25.1898037,33.5638421 21.7500025,37.0708433 19.406405,41.5312429 C17.1048037,45.9160426 15.8616042,51.1240425 15.8154038,57.8146425 C15.8154038,57.8146425 15.8154038,58.1800425 15.8154038,58.1800425 C15.8154038,58.1800425 15.8154038,59.8600425 15.8154038,59.8600425 C15.8154038,66.7270417 17.0628042,72.0442417 19.406405,76.5088421 C21.7500025,80.9692433 25.1898037,84.4762429 29.5704038,86.8618429 C33.8754038,89.2054438 38.9910038,90.4738421 45.5556039,90.5200425 C45.5556039,90.5200425 45.9126037,90.5200425 45.9126037,90.5200425 C45.9126037,90.5200425 59.2182038,90.5200425 59.2182038,90.5200425 C65.9550042,90.5200425 71.1756042,89.2474429 75.5604038,86.8618429 C79.9410037,84.4762429 83.380805,80.9692433 85.7244025,76.5088421 C88.0260038,72.1240429 89.2692033,66.9160421 89.3154038,60.2254429 C89.3154038,60.2254429 89.3154038,59.8600425 89.3154038,59.8600425 C89.3154038,59.8600425 89.3154038,58.1800425 89.3154038,58.1800425 C89.3154038,51.3130425 88.0680033,45.9958424 85.7244025,41.5312429 C83.380805,37.0708433 79.9410037,33.5638421 75.5604038,31.1782421 C71.2554037,28.8346429 66.1398037,27.5662429 59.5752042,27.5200425 C59.5752042,27.5200425 59.2182038,27.5200425 59.2182038,27.5200425 Z" id="Fill-23" fill="#FFFFFF"></path>
                            <path d="M29.3935833,100.335444 C26.5560646,99.4769608 23.985665,98.3912612 21.5526054,97.0888421 C14.7066042,93.4306425 9.33480375,88.0588421 5.67660417,81.2128408 C5.67660417,81.2128408 5.43300333,80.7508417 5.43300333,80.7508417 C1.93020459,74.0098421 0.06540375,66.1726421 0.06540375,54.5512425 C0.06540375,54.5512425 0.06540375,48.3688425 0.06540375,48.3688425 C0.06540375,36.4786433 2.01420333,28.5490429 5.67660417,21.7072442 C9.33480375,14.8612429 14.7066042,9.4894425 21.5526054,5.83124292 C24.4900833,4.25960082 27.6274842,3.00296208 31.1924438,2.0806425 C5.24862501,9.68936166 0.37368417,82.8143025 29.3935833,100.335444 Z" id="Fill-27" fill="#D8D8D8"></path>
                        </g>
                        <g id="Group-31" transform="translate(103.125000, 30.375000)">
                            <path d="M0.02040375,0.025041375 C4.52280375,2.45684138 8.33220375,5.70344138 11.3604038,9.68504137" id="Fill-29" fill="#FFFFFF"></path>
                            <path d="M0.02040375,0.025041375 C4.52280375,2.45684138 8.33220375,5.70344138 11.3604038,9.68504137" id="Stroke-30" stroke="#000000" stroke-width="4.125" stroke-linecap="round"></path>
                        </g>
                        <g id="Group-34" transform="translate(6.000000, 49.875000)">
                            <path d="M12.5761574,0.321980292 C15.161245,0.141213415 17.5329456,0.581645732 19.5660344,1.53835479 C21.5949336,2.49535723 23.2894121,3.96834418 24.5194697,5.8443104 C25.7498189,7.72446522 26.5160414,10.0117884 26.6968082,12.5968758 C26.6968082,12.5968758 26.8614613,14.951526 26.8614613,14.951526 C27.0422282,17.5366134 26.6017963,19.908314 25.6450877,21.9414027 C24.6880849,23.9703031 23.215097,25.6647808 21.3391319,26.8948378 C19.458977,28.1251875 17.171654,28.8914103 14.5865664,29.0721772 C12.0014787,29.2529441 9.62977814,28.8125118 7.59668932,27.8558027 C5.56779011,26.8988003 3.87331162,25.4258133 2.64325406,23.5498471 C1.41290486,21.6696923 0.646682399,19.3823691 0.465915537,16.7972817 C0.465915537,16.7972817 0.30126241,14.4426315 0.30126241,14.4426315 C0.120495548,11.8575441 0.560927443,9.48584352 1.51763608,7.45275477 C2.47463887,5.42385444 3.94762672,3.72937673 5.82359188,2.49931967 C7.70374671,1.26897005 9.99106978,0.502747168 12.5761574,0.321980292 Z" id="Fill-32" fill="#D8D8D8"></path>
                            <path d="M12.5761574,0.321980292 C15.161245,0.141213415 17.5329456,0.581645732 19.5660344,1.53835479 C21.5949336,2.49535723 23.2894121,3.96834418 24.5194697,5.8443104 C25.7498189,7.72446522 26.5160414,10.0117884 26.6968082,12.5968758 C26.6968082,12.5968758 26.8614613,14.951526 26.8614613,14.951526 C27.0422282,17.5366134 26.6017963,19.908314 25.6450877,21.9414027 C24.6880849,23.9703031 23.215097,25.6647808 21.3391319,26.8948378 C19.458977,28.1251875 17.171654,28.8914103 14.5865664,29.0721772 C12.0014787,29.2529441 9.62977814,28.8125118 7.59668932,27.8558027 C5.56779011,26.8988003 3.87331162,25.4258133 2.64325406,23.5498471 C1.41290486,21.6696923 0.646682399,19.3823691 0.465915537,16.7972817 C0.465915537,16.7972817 0.30126241,14.4426315 0.30126241,14.4426315 C0.120495548,11.8575441 0.560927443,9.48584352 1.51763608,7.45275477 C2.47463887,5.42385444 3.94762672,3.72937673 5.82359188,2.49931967 C7.70374671,1.26897005 9.99106978,0.502747168 12.5761574,0.321980292 Z" id="Stroke-33" stroke="#000000" stroke-width="4.125"></path>
                        </g>
                        <g id="Group" transform="translate(49.385400, 68.000026)">
                            <path d="M6.3,19.0101294 C9.77759987,19.0101294 12.6,16.1877292 12.6,12.7101294 C12.6,9.23252948 9.77759987,6.41012935 6.3,6.41012935 C2.82240013,6.41012935 0,9.23252948 0,12.7101294 C0,16.1877292 2.82240013,19.0101294 6.3,19.0101294 Z" id="Fill-15" fill="#000000"></path>
                            <line x1="2.37862366" y1="1.0658141e-14" x2="11.0613838" y2="3.1602662" id="Stroke-16" stroke="#000000" stroke-width="3.75" stroke-linecap="round"></line>
                            <path d="M47.4599963,19.0101294 C50.9375961,19.0101294 53.7599963,16.1877292 53.7599963,12.7101294 C53.7599963,9.23252948 50.9375961,6.41012935 47.4599963,6.41012935 C43.9823964,6.41012935 41.1599962,9.23252948 41.1599962,12.7101294 C41.1599962,16.1877292 43.9823964,19.0101294 47.4599963,19.0101294 Z" id="Fill-17" fill="#000000"></path>
                            <line x1="43.5386162" y1="3.1602662" x2="52.2213763" y2="1.0658141e-14" id="Stroke-18" stroke="#000000" stroke-width="3.75" stroke-linecap="round"></line>
                            <path d="M22.2600038,12.7101294 C22.2600038,15.4947294 24.6120037,17.7501294 27.5100038,17.7501294 C30.4080038,17.7501294 32.7600038,15.4947294 32.7600038,12.7101294" id="Stroke-19" stroke="#000000" stroke-width="3.75" stroke-linecap="round"></path>
                        </g>
                        <line x1="18.2918002" y1="59.0713241" x2="19.0869401" y2="70.4423577" id="Stroke-35" stroke="#FFFFFF" stroke-width="4.125" stroke-linecap="round" stroke-linejoin="round"></line>
                        <g id="Group-38" transform="translate(119.625000, 49.875000)">
                            <path d="M13.9508082,0.380780292 C11.4411366,0.205287012 9.14631681,0.630044498 7.1787108,1.55343983 C5.21081208,2.48102537 3.57461005,3.90335534 2.38217244,5.72300693 C1.19392452,7.54295263 0.453925335,9.7563247 0.27843204,12.2659966 C0.27843204,12.2659966 0.0551834922,15.4586006 0.0551834922,15.4586006 C-0.120309803,17.9682725 0.304446008,20.2630921 1.22784259,22.2306983 C2.15542901,24.1985964 3.57775764,25.8347996 5.39741001,27.0272364 C7.21735567,28.2154831 9.43072762,28.9554839 11.9403993,29.1309772 C14.4500709,29.3064705 16.7448907,28.881713 18.7124967,27.9583177 C20.6803954,27.0307321 22.3165974,25.6084022 23.5090351,23.7887506 C24.697283,21.9688049 25.4372822,19.7554328 25.6127755,17.2457609 C25.6127755,17.2457609 25.836024,14.0531569 25.836024,14.0531569 C26.0115173,11.543485 25.5867615,9.2486654 24.6633649,7.28105918 C23.7357785,5.31316111 22.3134499,3.67695791 20.4937975,2.48452109 C18.6738518,1.29627443 16.4604799,0.556273572 13.9508082,0.380780292 Z" id="Fill-36" fill="#FFFFFF"></path>
                            <path d="M13.9508082,0.380780292 C11.4411366,0.205287012 9.14631681,0.630044498 7.1787108,1.55343983 C5.21081208,2.48102537 3.57461005,3.90335534 2.38217244,5.72300693 C1.19392452,7.54295263 0.453925335,9.7563247 0.27843204,12.2659966 C0.27843204,12.2659966 0.0551834922,15.4586006 0.0551834922,15.4586006 C-0.120309803,17.9682725 0.304446008,20.2630921 1.22784259,22.2306983 C2.15542901,24.1985964 3.57775764,25.8347996 5.39741001,27.0272364 C7.21735567,28.2154831 9.43072762,28.9554839 11.9403993,29.1309772 C14.4500709,29.3064705 16.7448907,28.881713 18.7124967,27.9583177 C20.6803954,27.0307321 22.3165974,25.6084022 23.5090351,23.7887506 C24.697283,21.9688049 25.4372822,19.7554328 25.6127755,17.2457609 C25.6127755,17.2457609 25.836024,14.0531569 25.836024,14.0531569 C26.0115173,11.543485 25.5867615,9.2486654 24.6633649,7.28105918 C23.7357785,5.31316111 22.3134499,3.67695791 20.4937975,2.48452109 C18.6738518,1.29627443 16.4604799,0.556273572 13.9508082,0.380780292 Z" id="Stroke-37" stroke="#000000" stroke-width="4.125"></path>
                        </g>
                        <g id="Group-41" transform="translate(133.875000, 58.875000)">
                            <line x1="0.902857186" y1="0.0122178061" x2="0.107717314" y2="11.3832515" id="Fill-39" fill="#FFFFFF"></line>
                            <line x1="0.902857186" y1="0.0122178061" x2="0.107717314" y2="11.3832515" id="Stroke-40" stroke="#BABABA" stroke-width="4.5" stroke-linecap="round" stroke-linejoin="round"></line>
                        </g>
                    </g>
                </g>
            </g>
        </g>
    </g>
</svg>