<?xml version="1.0" encoding="UTF-8"?>
<svg width="237px" height="64px" viewBox="0 0 237 64" version="1.1" xmlns="http://www.w3.org/2000/svg" xmlns:xlink="http://www.w3.org/1999/xlink">
    <!-- Generator: Sketch 61.2 (89653) - https://sketch.com -->
    <title>galaxy_store_bage</title>
    <desc>Created with Sketch.</desc>
    <defs>
        <linearGradient x1="0%" y1="0.0843525788%" x2="100%" y2="99.9156474%" id="linearGradient-1">
            <stop stop-color="#F003E4" offset="10.1377745%"></stop>
            <stop stop-color="#FC408F" offset="50%"></stop>
            <stop stop-color="#FE6649" offset="89.3158784%"></stop>
        </linearGradient>
    </defs>
    <g id="Home" stroke="none" stroke-width="1" fill="none" fill-rule="evenodd">
        <g id="Desktop" transform="translate(-590.000000, -7799.000000)">
            <g id="Get-the-app" transform="translate(0.000000, 7353.000000)">
                <g id="store_bages" transform="translate(122.000000, 446.000000)">
                    <g id="galaxy_store_bage" transform="translate(468.000000, 0.000000)">
                        <path d="M12.3080547,0.00198622633 L224.22677,0 C228.6683,0 230.278907,0.519823422 231.902664,1.49594314 C233.526421,2.47206286 234.800755,3.90447887 235.66915,5.72966406 L235.849,6.12171396 C236.60125,7.82971345 237,9.72185967 237,14.3577571 L237,49.6422429 L236.992942,50.6645248 C236.931864,54.8934522 236.475516,56.5755211 235.66915,58.2703359 C234.800755,60.0955211 233.526421,61.5279371 231.902664,62.5040569 L231.553881,62.7062181 C230.034377,63.5517849 228.351048,64 224.22677,64 L12.7732299,64 L11.8637674,63.9920667 C8.10154587,63.9234115 6.60511071,63.4104537 5.09733627,62.5040569 C3.47357918,61.5279371 2.19924511,60.0955211 1.33085032,58.2703359 L1.15099967,57.878286 C0.398749915,56.1702866 0,54.2781403 0,49.6422429 L0,14.3577571 C0,9.36525218 0.462455522,7.55484925 1.33085032,5.72966406 C2.19924511,3.90447887 3.47357918,2.47206286 5.09733627,1.49594314 L5.4461194,1.29378191 C6.90718099,0.480736894 8.51970729,0.0350658825 12.3080547,0.00198622633 Z" id="Rectangle" fill="#FFFFFF" fill-rule="evenodd"></path>
                        <path d="M55.6655114,25.7984211 C55.1522793,21.9351983 53.7849901,18.4350936 51.3717358,15.871568 L51.3717358,15.8706823 C48.8051323,13.4612605 45.301149,12.0938107 41.43551,11.5814598 C37.7431644,11.0930217 35.2288592,11.2130278 35.2288592,11.2130278 C35.2288592,11.2130278 32.714554,11.0930217 29.0222084,11.5819027 C25.1561262,12.0933679 21.6539157,13.4608177 19.0873123,15.8711251 L19.0873123,15.8720108 C16.6745011,18.4355364 15.3049959,21.9356411 14.7930935,25.798864 C14.3051241,29.4880558 14.4252328,32.0006563 14.4252328,32.0006563 C14.4252328,32.0006563 14.3051241,34.5123711 14.7930935,38.2011202 C15.3049959,42.0647859 16.6745011,45.5648906 19.0873123,48.1284162 C21.6539157,50.5387236 25.1561262,51.9061734 29.0222084,52.4189671 C32.714554,52.9069625 35.2288592,52.7869564 35.2288592,52.7869564 C35.2288592,52.7869564 37.7431644,52.9069625 41.43551,52.4189671 C45.301149,51.9061734 48.8051323,50.5387236 51.3717358,48.1284162 C53.7845469,45.5648906 55.1522793,42.0647859 55.6655114,38.2011202 C56.1543671,34.5123711 56.0342584,32.0006563 56.0342584,32.0006563 C56.0342584,32.0006563 56.1539239,29.487613 55.6655114,25.7984211" id="SVGID_1_" fill="url(#linearGradient-1)" fill-rule="evenodd"></path>
                        <path d="M35.2297297,20.8 C38.5969806,20.8 41.3361593,23.3996336 41.3361593,26.5953427 L41.3361593,26.5953427 L41.3361593,26.7577933 L46.4391892,26.7577933 L45.0863157,38.9212865 C44.815741,41.3538159 42.6542637,43.2 40.0768949,43.2 L40.0768949,43.2 L30.3825646,43.2 C27.8051957,43.2 25.6437184,41.3538159 25.3731438,38.9212865 L25.3731438,38.9212865 L24.0202703,26.7577933 L29.1233001,26.7577933 L29.1233001,26.5953427 C29.1233001,23.3996336 31.8624789,20.8 35.2297297,20.8 Z M35.2297297,23.3294075 C33.3321408,23.3294075 31.7889289,24.7944248 31.7889289,26.5953427 L31.7889289,26.5953427 L31.7889289,26.7577933 L38.6709763,26.7577933 L38.6709763,26.5953427 C38.6709763,24.7944248 37.1273187,23.3294075 35.2297297,23.3294075 Z" id="Combined-Shape" fill="#FFFFFF" fill-rule="nonzero"></path>
                        <path d="M142.221505,36.4935568 L146.116583,46.2189255 L149.795897,36.4935568 L153.188408,36.4935568 L144.849965,57.6 L141.57686,57.6 L144.51555,50.2182301 L138.781005,36.4935568 L142.221505,36.4935568 Z M213.794499,36.1968493 C217.951818,36.1968493 220.986486,39.356784 220.986486,43.6274198 L220.986486,44.886865 L209.612996,44.886865 C210.043012,46.9115032 211.620238,48.2935354 213.913905,48.2935354 C215.705384,48.2935354 217.115593,47.2816068 217.784421,45.7512208 L220.437064,47.3311881 C219.218058,49.651753 217.019992,51.23133 213.913905,51.23133 C209.517773,51.2309396 206.530716,47.9226511 206.530716,43.7511781 C206.530716,39.5293429 209.708597,36.1968493 213.794499,36.1968493 Z M93.0104437,36.1964589 C94.8502897,36.1964589 96.4993116,36.9862474 97.5025548,38.2214875 L97.5025548,36.4935568 L100.728426,36.4935568 L100.728426,50.9350129 L97.5025548,50.9350129 L97.5025548,49.058338 C96.475128,50.3915697 94.8026781,51.2309396 92.9628322,51.2309396 C89.5937489,51.2309396 86.0814531,48.4414988 86.0814531,43.7258018 C86.0814531,38.9367087 89.4743422,36.1964589 93.0104437,36.1964589 Z M115.585494,36.1964589 C117.42534,36.1964589 119.074361,36.9862474 120.077605,38.2214875 L120.077605,36.4935568 L123.303475,36.4935568 L123.303475,50.9350129 L120.077605,50.9350129 L120.077605,49.058338 C119.050178,50.3915697 117.377728,51.2309396 115.537882,51.2309396 C112.168799,51.2309396 108.656503,48.4414988 108.656503,43.7258018 C108.656503,38.9367087 112.04977,36.1964589 115.585494,36.1964589 Z M188.519194,36.1964589 C192.533679,36.1964589 195.759172,39.5289525 195.759172,43.7258018 C195.759172,47.8980556 192.533679,51.2309396 188.519194,51.2309396 C184.481282,51.2309396 181.279595,47.8980556 181.279595,43.7258018 C181.279595,39.5289525 184.481282,36.1964589 188.519194,36.1964589 Z M76.1691837,32.666811 C79.7774584,32.666811 82.6205475,34.5673006 84.1021733,37.2833453 L81.2349005,39.0608574 C80.1594843,37.0116237 78.4870345,35.9251277 76.1933674,35.9251277 C72.9436908,35.9251277 70.4830054,38.6411724 70.4830054,41.9240846 C70.4830054,45.2565782 72.9195071,47.9230415 76.3127741,47.9230415 C78.9170498,47.9230415 80.73309,46.3922651 81.3543072,44.0225093 L75.7871578,44.0225093 L75.7871578,40.8133836 L84.8424194,40.8133836 L84.8424194,42.1462248 C84.8424194,47.0091044 81.5213255,51.1817486 76.3127741,51.1817486 C70.8650314,51.1817486 67.2567568,46.9111128 67.2567568,41.9240846 C67.2567568,36.7890931 71.0082439,32.666811 76.1691837,32.666811 Z M165.968706,32.666811 C168.787989,32.666811 170.413206,33.7782929 171.822658,35.283693 L169.14621,37.3821176 C168.405964,36.2460403 167.377781,35.6537965 165.992134,35.6537965 C164.415285,35.6537965 163.554877,36.5427478 163.554877,37.7030302 C163.554877,39.1350342 165.227704,39.6039101 167.115162,40.2453449 C169.481002,41.0355238 172.156695,42.1220197 172.156695,45.5778811 C172.156695,48.4165129 169.959007,51.1817486 166.135346,51.1817486 C162.981271,51.1813582 160.902611,49.7985451 159.325385,47.9472466 L162.289014,45.5282998 C163.172851,47.0832812 164.534692,47.9726229 166.111541,47.9726229 C167.83198,47.9726229 168.764184,46.8123404 168.764184,45.5532857 C168.764184,44.0228997 166.996133,43.5536334 165.132103,42.9613896 C162.790447,42.1958062 160.186171,41.257664 160.186171,37.8263981 C160.186171,34.9381849 162.623806,32.666811 165.968706,32.666811 Z M106.770179,32.6664206 L106.770179,50.9342321 L103.520502,50.9342321 L103.520502,32.6664206 L106.770179,32.6664206 Z M128.222579,36.4935568 L131.400838,41.0847147 L134.554914,36.4935568 L138.377818,36.4935568 L133.360091,43.6274198 L138.712233,50.9346225 L134.769544,50.9346225 L131.352471,46.1209339 L128.031755,50.9346225 L124.089066,50.9346225 L129.345607,43.5778384 L124.27989,36.4935568 L128.222579,36.4935568 Z M177.8168,32 L177.8168,36.4931664 L180.659889,36.4931664 L180.659889,39.4805423 L177.8168,39.4805423 L177.8168,44.8860842 C177.8168,47.4041938 178.152348,47.7988928 180.659889,47.7988928 L180.659889,50.9346225 L180.206068,50.9346225 C175.881353,50.9346225 174.566746,49.5026185 174.566746,44.9110701 L174.566746,39.4805423 L172.177478,39.4805423 L172.177478,36.4931664 L174.566746,36.4931664 L174.566746,34.2959694 L177.8168,32 Z M200.367666,36.4931664 L200.367666,38.6411724 C201.013445,37.208778 202.184462,36.4931664 203.951757,36.4931664 C204.955378,36.4931664 205.791225,36.7395117 206.413198,37.1100056 L205.19457,40.26955 C204.715809,39.9498086 204.167143,39.7022921 203.259123,39.7022921 C201.394715,39.7022921 200.39185,40.7388163 200.39185,43.2323304 L200.39185,50.9346225 L197.165979,50.9346225 L197.165979,36.4931664 L200.367666,36.4931664 Z M93.4888263,39.2330258 C91.0995583,39.2330258 89.2597123,41.1830967 89.2597123,43.6762204 C89.2597123,46.19433 91.0995583,48.1693868 93.4888263,48.1693868 C95.8780944,48.1693868 97.6703288,46.1705153 97.6703288,43.6762204 C97.6703288,41.2326781 95.8784722,39.2330258 93.4888263,39.2330258 Z M116.064254,39.2330258 C113.674986,39.2330258 111.83514,41.1830967 111.83514,43.6762204 C111.83514,46.19433 113.674986,48.1693868 116.064254,48.1693868 C118.453522,48.1693868 120.245379,46.1705153 120.245379,43.6762204 C120.245379,41.2326781 118.453522,39.2330258 116.064254,39.2330258 Z M188.519194,39.3317981 C186.202099,39.3317981 184.457854,41.306855 184.457854,43.7258018 C184.457854,46.1209339 186.202099,48.0952099 188.519194,48.0952099 C190.789434,48.0956003 192.58129,46.1209339 192.58129,43.7258018 C192.58129,41.306855 190.789434,39.3317981 188.519194,39.3317981 Z M213.794499,39.1346438 C211.85943,39.1346438 210.35362,40.3441172 209.780392,42.0970338 L217.713382,42.0970338 C217.234622,40.1715584 215.800985,39.1346438 213.794499,39.1346438 Z" id="Combined-Shape" fill="#000000" fill-rule="nonzero"></path>
                        <path d="M68.7415246,25.4422535 L69.8769353,22.6816901 L75.5539889,22.6816901 L76.6893996,25.4422535 L78.1741675,25.4422535 L73.5451853,14.4 L71.8857389,14.4 L67.2567568,25.4422535 L68.7415246,25.4422535 Z M75.0299532,21.4985915 L70.400971,21.4985915 L72.6717925,15.8985915 L72.7591318,15.8985915 L75.0299532,21.4985915 Z M83.3271854,25.4422535 L86.9080961,17.2394366 L85.5106675,17.2394366 L82.6284711,23.943662 L82.5411318,23.943662 L79.6589354,17.2394366 L78.2615068,17.2394366 L81.8424175,25.4422535 L83.3271854,25.4422535 Z M91.7117568,25.6 C92.3755354,25.6 92.9607086,25.4895775 93.4672765,25.2687324 C93.9738443,25.0478873 94.3785163,24.7376526 94.6812925,24.3380282 L94.6812925,24.3380282 L94.7686318,24.3380282 L94.9433104,25.4422535 L95.9913818,25.4422535 L95.9913818,17.2394366 L94.9433104,17.2394366 L94.7686318,18.343662 L94.6812925,18.343662 C94.3785163,17.9440376 93.9738443,17.6338028 93.4672765,17.4129577 C92.9607086,17.1921127 92.3755354,17.0816901 91.7117568,17.0816901 C91.1411401,17.0816901 90.6171044,17.1737089 90.1396497,17.3577465 C89.6621949,17.541784 89.2487889,17.8152113 88.8994318,18.1780282 C88.5500747,18.5408451 88.2764116,18.9851643 88.0784425,19.5109859 C87.8804735,20.0368075 87.7814889,20.6467606 87.7814889,21.3408451 C87.7814889,22.0349296 87.8804735,22.6448826 88.0784425,23.1707042 C88.2764116,23.6965258 88.5500747,24.1408451 88.8994318,24.503662 C89.2487889,24.8664789 89.6621949,25.1399061 90.1396497,25.3239437 C90.6171044,25.5079812 91.1411401,25.6 91.7117568,25.6 Z M91.8864354,24.4957746 C91.0596235,24.4957746 90.387111,24.235493 89.8688979,23.7149296 C89.3506848,23.1943662 89.0915782,22.4030047 89.0915782,21.3408451 C89.0915782,20.2786854 89.3506848,19.4873239 89.8688979,18.9667606 C90.387111,18.4461972 91.0596235,18.1859155 91.8864354,18.1859155 C92.7132473,18.1859155 93.3857598,18.4461972 93.9039729,18.9667606 C94.422186,19.4873239 94.6812925,20.2786854 94.6812925,21.3408451 C94.6812925,22.4030047 94.422186,23.1943662 93.9039729,23.7149296 C93.3857598,24.235493 92.7132473,24.4957746 91.8864354,24.4957746 Z M99.1006604,16.056338 C99.3568556,16.056338 99.5722925,15.9748357 99.7469711,15.811831 C99.9216497,15.6488263 100.008989,15.4569014 100.008989,15.2360563 C100.008989,15.0046948 99.9216497,14.8075117 99.7469711,14.644507 C99.5722925,14.4815023 99.3568556,14.4 99.1006604,14.4 C98.8328199,14.4 98.6115604,14.4815023 98.4368818,14.644507 C98.2622033,14.8075117 98.174864,15.0046948 98.174864,15.2360563 C98.174864,15.4674178 98.2651146,15.6619718 98.4456158,15.8197183 C98.6261169,15.9774648 98.8444652,16.056338 99.1006604,16.056338 Z M99.7469711,25.4422535 L99.7469711,17.2394366 L98.4368818,17.2394366 L98.4368818,25.4422535 L99.7469711,25.4422535 Z M103.5899,25.4422535 L103.5899,14.4 L102.27981,14.4 L102.27981,25.4422535 L103.5899,25.4422535 Z M109.61631,25.6 C110.280089,25.6 110.865262,25.4895775 111.37183,25.2687324 C111.878398,25.0478873 112.28307,24.7376526 112.585846,24.3380282 L112.585846,24.3380282 L112.673185,24.3380282 L112.847864,25.4422535 L113.895935,25.4422535 L113.895935,17.2394366 L112.847864,17.2394366 L112.673185,18.343662 L112.585846,18.343662 C112.28307,17.9440376 111.878398,17.6338028 111.37183,17.4129577 C110.865262,17.1921127 110.280089,17.0816901 109.61631,17.0816901 C109.045694,17.0816901 108.521658,17.1737089 108.044203,17.3577465 C107.566749,17.541784 107.153343,17.8152113 106.803985,18.1780282 C106.454628,18.5408451 106.180965,18.9851643 105.982996,19.5109859 C105.785027,20.0368075 105.686043,20.6467606 105.686043,21.3408451 C105.686043,22.0349296 105.785027,22.6448826 105.982996,23.1707042 C106.180965,23.6965258 106.454628,24.1408451 106.803985,24.503662 C107.153343,24.8664789 107.566749,25.1399061 108.044203,25.3239437 C108.521658,25.5079812 109.045694,25.6 109.61631,25.6 Z M109.790989,24.4957746 C108.964177,24.4957746 108.291665,24.235493 107.773451,23.7149296 C107.255238,23.1943662 106.996132,22.4030047 106.996132,21.3408451 C106.996132,20.2786854 107.255238,19.4873239 107.773451,18.9667606 C108.291665,18.4461972 108.964177,18.1859155 109.790989,18.1859155 C110.617801,18.1859155 111.290313,18.4461972 111.808527,18.9667606 C112.32674,19.4873239 112.585846,20.2786854 112.585846,21.3408451 C112.585846,22.4030047 112.32674,23.1943662 111.808527,23.7149296 C111.290313,24.235493 110.617801,24.4957746 109.790989,24.4957746 Z M120.7084,25.6 C121.279016,25.6 121.803052,25.5079812 122.280507,25.3239437 C122.757962,25.1399061 123.171368,24.8664789 123.520725,24.503662 C123.870082,24.1408451 124.143745,23.6965258 124.341714,23.1707042 C124.539683,22.6448826 124.638668,22.0349296 124.638668,21.3408451 C124.638668,20.6467606 124.539683,20.0368075 124.341714,19.5109859 C124.143745,18.9851643 123.870082,18.5408451 123.520725,18.1780282 C123.171368,17.8152113 122.757962,17.541784 122.280507,17.3577465 C121.803052,17.1737089 121.279016,17.0816901 120.7084,17.0816901 C120.044621,17.0816901 119.474004,17.1894836 118.99655,17.4050704 C118.519095,17.6206573 118.128979,17.90723 117.826203,18.2647887 L117.826203,18.2647887 L117.738864,18.2647887 L117.738864,14.4 L116.428775,14.4 L116.428775,25.4422535 L117.476846,25.4422535 L117.651525,24.3380282 L117.738864,24.3380282 C118.04164,24.7376526 118.446312,25.0478873 118.95288,25.2687324 C119.459448,25.4895775 120.044621,25.6 120.7084,25.6 Z M120.533721,24.4957746 C119.695264,24.4957746 119.01984,24.2276056 118.50745,23.6912676 C117.995059,23.1549296 117.738864,22.3714554 117.738864,21.3408451 C117.738864,20.3102347 117.995059,19.5267606 118.50745,18.9904225 C119.01984,18.4540845 119.695264,18.1859155 120.533721,18.1859155 C121.372178,18.1859155 122.047602,18.4540845 122.559993,18.9904225 C123.072383,19.5267606 123.328578,20.3102347 123.328578,21.3408451 C123.328578,22.3714554 123.072383,23.1549296 122.559993,23.6912676 C122.047602,24.2276056 121.372178,24.4957746 120.533721,24.4957746 Z M128.0449,25.4422535 L128.0449,14.4 L126.73481,14.4 L126.73481,25.4422535 L128.0449,25.4422535 Z M134.333328,25.6 C135.206721,25.6 135.975307,25.4080751 136.639085,25.0242254 C137.302864,24.6403756 137.786141,24.0698592 138.088918,23.3126761 L138.088918,23.3126761 L136.691489,23.3126761 C136.167453,24.1014085 135.3814,24.4957746 134.333328,24.4957746 C133.541452,24.4957746 132.874762,24.2591549 132.333259,23.7859155 C131.791755,23.3126761 131.497713,22.6028169 131.451132,21.656338 L131.451132,21.656338 L138.263596,21.656338 C138.275241,21.5932394 138.286887,21.5196244 138.298532,21.435493 L138.316,21.3171831 L138.316,21.3171831 L138.333468,21.1830986 C138.345113,21.0884507 138.350935,20.9832864 138.350935,20.8676056 C138.350935,20.4574648 138.269419,20.0289202 138.106385,19.5819718 C137.943352,19.1350235 137.690068,18.7248826 137.346534,18.3515493 C137.002999,17.978216 136.575037,17.6732394 136.062646,17.4366197 C135.550256,17.2 134.944703,17.0816901 134.245989,17.0816901 C133.652082,17.0816901 133.104756,17.1737089 132.60401,17.3577465 C132.103265,17.541784 131.66948,17.8152113 131.302655,18.1780282 C130.93583,18.5408451 130.650522,18.9851643 130.44673,19.5109859 C130.242938,20.0368075 130.141043,20.6467606 130.141043,21.3408451 C130.141043,22.0349296 130.24585,22.6448826 130.455464,23.1707042 C130.665078,23.6965258 130.953298,24.1408451 131.320123,24.503662 C131.686948,24.8664789 132.126556,25.1399061 132.638946,25.3239437 C133.151337,25.5079812 133.716131,25.6 134.333328,25.6 Z M137.040846,20.6309859 L131.451132,20.6309859 C131.544294,19.8422535 131.84707,19.2375587 132.35946,18.8169014 C132.871851,18.3962441 133.500694,18.1859155 134.245989,18.1859155 C134.991284,18.1859155 135.620127,18.3962441 136.132518,18.8169014 C136.644908,19.2375587 136.947684,19.8422535 137.040846,20.6309859 L137.040846,20.6309859 Z M147.958257,25.6 C148.563809,25.6 149.125692,25.5079812 149.643905,25.3239437 C150.162118,25.1399061 150.604637,24.8664789 150.971462,24.503662 C151.338287,24.1408451 151.626507,23.6965258 151.836121,23.1707042 C152.045736,22.6448826 152.150543,22.0349296 152.150543,21.3408451 C152.150543,20.6467606 152.045736,20.0368075 151.836121,19.5109859 C151.626507,18.9851643 151.338287,18.5408451 150.971462,18.1780282 C150.604637,17.8152113 150.162118,17.541784 149.643905,17.3577465 C149.125692,17.1737089 148.563809,17.0816901 147.958257,17.0816901 C147.341059,17.0816901 146.776265,17.1737089 146.263875,17.3577465 C145.751484,17.541784 145.311877,17.8152113 144.945052,18.1780282 C144.578227,18.5408451 144.290007,18.9851643 144.080393,19.5109859 C143.870778,20.0368075 143.765971,20.6467606 143.765971,21.3408451 C143.765971,22.0349296 143.870778,22.6448826 144.080393,23.1707042 C144.290007,23.6965258 144.578227,24.1408451 144.945052,24.503662 C145.311877,24.8664789 145.751484,25.1399061 146.263875,25.3239437 C146.776265,25.5079812 147.341059,25.6 147.958257,25.6 Z M147.958257,24.4957746 C147.539028,24.4957746 147.154736,24.4274178 146.805378,24.2907042 C146.456021,24.1539906 146.153245,23.9515493 145.89705,23.6833803 C145.640855,23.4152113 145.439974,23.0865728 145.294409,22.6974648 C145.148843,22.3083568 145.076061,21.8561502 145.076061,21.3408451 C145.076061,20.8255399 145.148843,20.3733333 145.294409,19.9842254 C145.439974,19.5951174 145.640855,19.2664789 145.89705,18.9983099 C146.153245,18.7301408 146.456021,18.5276995 146.805378,18.3909859 C147.154736,18.2542723 147.539028,18.1859155 147.958257,18.1859155 C148.377486,18.1859155 148.761778,18.2542723 149.111136,18.3909859 C149.460493,18.5276995 149.763269,18.7301408 150.019464,18.9983099 C150.275659,19.2664789 150.47654,19.5951174 150.622105,19.9842254 C150.767671,20.3733333 150.840453,20.8255399 150.840453,21.3408451 C150.840453,21.8561502 150.767671,22.3083568 150.622105,22.6974648 C150.47654,23.0865728 150.275659,23.4152113 150.019464,23.6833803 C149.763269,23.9515493 149.460493,24.1539906 149.111136,24.2907042 C148.761778,24.4274178 148.377486,24.4957746 147.958257,24.4957746 Z M155.469436,25.4422535 L155.469436,20.3943662 C155.469436,20.0999061 155.530573,19.8185915 155.652848,19.5504225 C155.775123,19.2822535 155.94689,19.0482629 156.16815,18.8484507 C156.389409,18.6486385 156.648516,18.4882629 156.945469,18.3673239 C157.242423,18.246385 157.565578,18.1859155 157.914936,18.1859155 C158.578714,18.1859155 159.123129,18.3752113 159.54818,18.7538028 C159.973231,19.1323944 160.185757,19.6792488 160.185757,20.3943662 L160.185757,20.3943662 L160.185757,25.4422535 L161.495846,25.4422535 L161.495846,20.3943662 C161.495846,19.879061 161.408507,19.416338 161.233828,19.0061972 C161.05915,18.5960563 160.817511,18.2490141 160.508912,17.9650704 C160.200314,17.6811268 159.839311,17.4629108 159.425905,17.3104225 C159.012499,17.1579343 158.567069,17.0816901 158.089614,17.0816901 C157.612159,17.0816901 157.131793,17.1737089 156.648516,17.3577465 C156.165239,17.541784 155.772212,17.8704225 155.469436,18.343662 L155.469436,18.343662 L155.382096,18.343662 L155.207418,17.2394366 L154.159346,17.2394366 L154.159346,25.4422535 L155.469436,25.4422535 Z" id="Availableon" fill="#000000" fill-rule="nonzero"></path>
                    </g>
                </g>
            </g>
        </g>
    </g>
</svg>