<?xml version="1.0" encoding="UTF-8"?>
<svg width="148px" height="40px" viewBox="0 0 148 40" version="1.1" xmlns="http://www.w3.org/2000/svg" xmlns:xlink="http://www.w3.org/1999/xlink">
    <!-- Generator: Sketch 61.2 (89653) - https://sketch.com -->
    <title>galaxy_store_bage</title>
    <desc>Created with Sketch.</desc>
    <defs>
        <linearGradient x1="0%" y1="0%" x2="100%" y2="100%" id="linearGradient-1">
            <stop stop-color="#F003E4" offset="10.1377745%"></stop>
            <stop stop-color="#FC408F" offset="50%"></stop>
            <stop stop-color="#FE6649" offset="89.3158784%"></stop>
        </linearGradient>
    </defs>
    <g id="Home" stroke="none" stroke-width="1" fill="none" fill-rule="evenodd">
        <g id="Mobile" transform="translate(-86.000000, -982.000000)">
            <g id="buttons" transform="translate(23.000000, 926.000000)">
                <g id="galaxy_store_bage" transform="translate(63.000000, 56.000000)">
                    <path d="M7.68604259,0.00124139146 L140.023468,0 C142.797082,0 143.802862,0.324889639 144.816853,0.934964463 C145.830845,1.54503929 146.626632,2.4402993 147.16892,3.58104004 L147.281232,3.82607122 C147.750992,4.89357091 148,6.0761623 148,8.9735982 L148,31.0264018 L147.995593,31.665328 C147.957451,34.3084076 147.672474,35.3597007 147.16892,36.41896 C146.626632,37.5597007 145.830845,38.4549607 144.816853,39.0650355 L144.599048,39.1913863 C143.650159,39.7198656 142.598967,40 140.023468,40 L7.97653173,40 L7.40859735,39.9950417 C5.0591932,39.9521322 4.12471049,39.6315336 3.1831467,39.0650355 C2.16915493,38.4549607 1.37336826,37.5597007 0.831079523,36.41896 L0.718767727,36.1739288 C0.249008385,35.1064291 0,33.9238377 0,31.0264018 L0,8.9735982 C0,5.85328261 0.28879079,4.72178078 0.831079523,3.58104004 C1.37336826,2.4402993 2.16915493,1.54503929 3.1831467,0.934964463 L3.4009522,0.808613693 C4.31334509,0.300460559 5.32032354,0.0219161766 7.68604259,0.00124139146 Z" id="Rectangle" fill="#000000" fill-rule="evenodd"></path>
                    <path d="M34.7615851,16.1240132 C34.4410858,13.7094989 33.5872512,11.5219335 32.0802401,9.91972998 L32.0802401,9.91917644 C30.4774666,8.41328783 28.2893251,7.55863169 25.8753396,7.23841241 C23.569571,6.93313853 21.9994564,7.00814236 21.9994564,7.00814236 C21.9994564,7.00814236 20.4293417,6.93313853 18.1235732,7.23868917 C15.7093108,7.55835492 13.5222765,8.41301106 11.919503,9.91945321 L11.919503,9.92000674 C10.4127686,11.5222102 9.55755018,13.7097757 9.23788115,16.12429 C8.93315768,18.4300349 9.00816228,20.0004102 9.00816228,20.0004102 C9.00816228,20.0004102 8.93315768,21.570232 9.23788115,23.8757001 C9.55755018,26.2904912 10.4127686,28.4780566 11.919503,30.0802601 C13.5222765,31.5867023 15.7093108,32.4413584 18.1235732,32.7618545 C20.4293417,33.0668516 21.9994564,32.9918477 21.9994564,32.9918477 C21.9994564,32.9918477 23.569571,33.0668516 25.8753396,32.7618545 C28.2893251,32.4413584 30.4774666,31.5867023 32.0802401,30.0802601 C33.5869744,28.4780566 34.4410858,26.2904912 34.7615851,23.8757001 C35.0668622,21.570232 34.9918576,20.0004102 34.9918576,20.0004102 C34.9918576,20.0004102 35.0665854,18.4297581 34.7615851,16.1240132" id="SVGID_1_" fill="url(#linearGradient-1)" fill-rule="evenodd"></path>
                    <path d="M22,13 C24.1027558,13 25.8132978,14.624771 25.8132978,16.6220892 L25.8132978,16.6220892 L25.8132978,16.7236208 L29,16.7236208 L28.1551676,24.3258041 C27.9862011,25.846135 26.6364179,27 25.0269217,27 L25.0269217,27 L18.9730783,27 C17.3635821,27 16.0137989,25.846135 15.8448324,24.3258041 L15.8448324,24.3258041 L15,16.7236208 L18.1867022,16.7236208 L18.1867022,16.6220892 C18.1867022,14.624771 19.8972442,13 22,13 Z M22,14.5808797 C20.8150078,14.5808797 19.8513143,15.4965155 19.8513143,16.6220892 L19.8513143,16.6220892 L19.8513143,16.7236208 L24.1489641,16.7236208 L24.1489641,16.6220892 C24.1489641,15.4965155 23.1849922,14.5808797 22,14.5808797 Z" id="Combined-Shape" fill="#FFFFFF" fill-rule="nonzero"></path>
                    <path d="M88.8134296,22.808473 L91.2457986,28.8868284 L93.5434294,22.808473 L95.6619596,22.808473 L90.4548304,36 L88.4108664,36 L90.2459977,31.3863938 L86.6649313,22.808473 L88.8134296,22.808473 Z M58.0824712,22.6227868 C59.2314045,22.6227868 60.2611735,23.1164046 60.8876714,23.8884297 L60.8876714,22.808473 L62.9021392,22.808473 L62.9021392,31.8343831 L60.8876714,31.8343831 L60.8876714,30.6614613 C60.2460715,31.4947311 59.2016724,32.0193372 58.0527391,32.0193372 C55.948839,32.0193372 53.7555066,30.2759367 53.7555066,27.3286261 C53.7555066,24.3354429 55.8742727,22.6227868 58.0824712,22.6227868 Z M72.1799707,22.6227868 C73.328904,22.6227868 74.358673,23.1164046 74.9851708,23.8884297 L74.9851708,22.808473 L76.9996387,22.808473 L76.9996387,31.8343831 L74.9851708,31.8343831 L74.9851708,30.6614613 C74.3435709,31.4947311 73.2991719,32.0193372 72.1502385,32.0193372 C70.0463384,32.0193372 67.853006,30.2759367 67.853006,27.3286261 C67.853006,24.3354429 69.9720082,22.6227868 72.1799707,22.6227868 Z M117.725067,22.6227868 C120.232002,22.6227868 122.246234,24.7055953 122.246234,27.3286261 C122.246234,29.9362848 120.232002,32.0193372 117.725067,32.0193372 C115.203501,32.0193372 113.204135,29.9362848 113.204135,27.3286261 C113.204135,24.7055953 115.203501,22.6227868 117.725067,22.6227868 Z M133.508801,22.6230308 C136.104932,22.6230308 138,24.59799 138,27.2671374 L138,28.0542906 L130.897567,28.0542906 C131.1661,29.3196895 132.151035,30.1834597 133.583367,30.1834597 C134.702096,30.1834597 135.582733,29.5510042 136.000398,28.594513 L137.656901,29.5819926 C136.895665,31.0323456 135.523033,32.0195812 133.583367,32.0195812 C130.838103,32.0193372 128.972768,29.9516569 128.972768,27.3444863 C128.972768,24.7058393 130.957267,22.6230308 133.508801,22.6230308 Z M47.5655662,20.4167569 C49.8188348,20.4167569 51.594266,21.6045629 52.5195006,23.3020908 L50.7289674,24.4130359 C50.0573995,23.1322648 49.0130004,22.4532048 47.5806682,22.4532048 C45.5513343,22.4532048 44.0147038,24.1507328 44.0147038,26.2025529 C44.0147038,28.2853614 45.5362323,29.9519009 47.6552345,29.9519009 C49.2815332,29.9519009 50.4156005,28.9951657 50.8035336,27.5140683 L47.3270015,27.5140683 L47.3270015,25.5083647 L52.981764,25.5083647 L52.981764,26.3413905 C52.981764,29.3806902 50.907832,31.9885929 47.6552345,31.9885929 C44.2532685,31.9885929 42,29.3194455 42,26.2025529 C42,22.9931832 44.3427008,20.4167569 47.5655662,20.4167569 Z M103.642905,20.4167569 C105.40347,20.4167569 106.418373,21.1114331 107.298538,22.0523081 L105.627169,23.3638235 C105.164906,22.6537752 104.522834,22.2836228 103.657535,22.2836228 C102.672836,22.2836228 102.135535,22.8392174 102.135535,23.5643939 C102.135535,24.4593964 103.18017,24.7524438 104.358835,25.1533406 C105.836237,25.6472024 107.507134,26.3262623 107.507134,28.4861757 C107.507134,30.2603206 106.134738,31.9885929 103.746967,31.9885929 C101.777334,31.9883489 100.479268,31.1240907 99.4943331,29.9670291 L101.345038,28.4551873 C101.89697,29.4270508 102.747402,29.9828893 103.732101,29.9828893 C104.806469,29.9828893 105.388604,29.2577128 105.388604,28.4708035 C105.388604,27.5143123 104.284505,27.2210208 103.12047,26.8508685 C101.658169,26.3723789 100.031871,25.78604 100.031871,23.6414988 C100.031871,21.8363656 101.554107,20.4167569 103.642905,20.4167569 Z M80.0714839,22.808473 L82.0562196,25.6779467 L84.0258534,22.808473 L86.4131523,22.808473 L83.2797192,27.2671374 L86.6219849,31.8341391 L84.1598838,31.8341391 L82.0260156,28.8255837 L79.9523195,31.8341391 L77.4902183,31.8341391 L80.7727839,27.236149 L77.6093827,22.808473 L80.0714839,22.808473 Z M111.041715,20 L111.041715,22.808229 L112.817146,22.808229 L112.817146,24.6753389 L111.041715,24.6753389 L111.041715,28.0538026 C111.041715,29.6276211 111.251255,29.874308 112.817146,29.874308 L112.817146,31.8341391 L112.533747,31.8341391 C109.833081,31.8341391 109.012145,30.9391365 109.012145,28.0694188 L109.012145,24.6753389 L107.520113,24.6753389 L107.520113,22.808229 L109.012145,22.808229 L109.012145,21.4349809 L111.041715,20 Z M125.124112,22.808229 L125.124112,24.1507328 C125.527383,23.2554863 126.258652,22.808229 127.362279,22.808229 C127.989013,22.808229 128.510976,22.9621948 128.899381,23.1937535 L128.138381,25.1684687 C127.839408,24.9686304 127.496781,24.8139326 126.929748,24.8139326 C125.765476,24.8139326 125.139214,25.4617602 125.139214,27.0202065 L125.139214,31.8341391 L123.124747,31.8341391 L123.124747,22.808229 L125.124112,22.808229 Z M66.6750485,20.4165129 L66.6750485,31.833895 L64.6457146,31.833895 L64.6457146,20.4165129 L66.6750485,20.4165129 Z M58.381208,24.5206411 C56.8891757,24.5206411 55.7402423,25.7394354 55.7402423,27.2976377 C55.7402423,28.8714562 56.8891757,30.1058667 58.381208,30.1058667 C59.8732404,30.1058667 60.9924416,28.8565721 60.9924416,27.2976377 C60.9924416,25.7704238 59.8734763,24.5206411 58.381208,24.5206411 Z M72.4789434,24.5206411 C70.9869111,24.5206411 69.8379777,25.7394354 69.8379777,27.2976377 C69.8379777,28.8714562 70.9869111,30.1058667 72.4789434,30.1058667 C73.9709758,30.1058667 75.0899411,28.8565721 75.0899411,27.2976377 C75.0899411,25.7704238 73.9709758,24.5206411 72.4789434,24.5206411 Z M117.725067,24.5823738 C116.278104,24.5823738 115.188871,25.8167843 115.188871,27.3286261 C115.188871,28.8255837 116.278104,30.0595062 117.725067,30.0595062 C119.142769,30.0597502 120.261734,28.8255837 120.261734,27.3286261 C120.261734,25.8167843 119.142769,24.5823738 117.725067,24.5823738 Z M133.508801,24.4591524 C132.300403,24.4591524 131.360067,25.2150733 131.002102,26.3106462 L135.956036,26.3106462 C135.657063,25.107224 134.761797,24.4591524 133.508801,24.4591524 Z" id="Combined-Shape" fill="#FFFFFF" fill-rule="nonzero"></path>
                    <path d="M42.9271968,15.9014085 L43.6362297,14.1760563 L47.1813939,14.1760563 L47.8904268,15.9014085 L48.8176236,15.9014085 L45.9269512,9 L44.8906724,9 L42,15.9014085 L42.9271968,15.9014085 Z M46.854148,13.4366197 L43.9634756,13.4366197 L45.3815413,9.93661972 L45.4360823,9.93661972 L46.854148,13.4366197 Z M52.0355419,15.9014085 L54.2717225,10.7746479 L53.3990666,10.7746479 L51.599214,14.9647887 L51.544673,14.9647887 L49.7448204,10.7746479 L48.8721646,10.7746479 L51.1083451,15.9014085 L52.0355419,15.9014085 Z M57.2714768,16 C57.6859883,16 58.051413,15.9309859 58.3677507,15.7929577 C58.6840884,15.6549296 58.936795,15.4610329 59.1258704,15.2112676 L59.1258704,15.2112676 L59.1804114,15.2112676 L59.2894934,15.9014085 L59.9439853,15.9014085 L59.9439853,10.7746479 L59.2894934,10.7746479 L59.1804114,11.4647887 L59.1258704,11.4647887 C58.936795,11.2150235 58.6840884,11.0211268 58.3677507,10.8830986 C58.051413,10.7450704 57.6859883,10.6760563 57.2714768,10.6760563 C56.9151424,10.6760563 56.5878964,10.7335681 56.289739,10.8485915 C55.9915816,10.963615 55.7334209,11.134507 55.515257,11.3612676 C55.297093,11.5880282 55.1261979,11.8657277 55.0025717,12.1943662 C54.8789455,12.5230047 54.8171323,12.9042254 54.8171323,13.3380282 C54.8171323,13.771831 54.8789455,14.1530516 55.0025717,14.4816901 C55.1261979,14.8103286 55.297093,15.0880282 55.515257,15.3147887 C55.7334209,15.5415493 55.9915816,15.7124413 56.289739,15.8274648 C56.5878964,15.9424883 56.9151424,16 57.2714768,16 Z M57.3805588,15.3098592 C56.8642374,15.3098592 56.4442718,15.1471831 56.120662,14.821831 C55.7970521,14.4964789 55.6352472,14.0018779 55.6352472,13.3380282 C55.6352472,12.6741784 55.7970521,12.1795775 56.120662,11.8542254 C56.4442718,11.5288732 56.8642374,11.3661972 57.3805588,11.3661972 C57.8968802,11.3661972 58.3168458,11.5288732 58.6404556,11.8542254 C58.9640655,12.1795775 59.1258704,12.6741784 59.1258704,13.3380282 C59.1258704,14.0018779 58.9640655,14.4964789 58.6404556,14.821831 C58.3168458,15.1471831 57.8968802,15.3098592 57.3805588,15.3098592 Z M61.8856445,10.0352113 C62.0456314,10.0352113 62.1801658,9.9842723 62.2892478,9.88239437 C62.3983298,9.78051643 62.4528708,9.66056338 62.4528708,9.52253521 C62.4528708,9.37793427 62.3983298,9.25469484 62.2892478,9.1528169 C62.1801658,9.05093897 62.0456314,9 61.8856445,9 C61.7183854,9 61.5802149,9.05093897 61.471133,9.1528169 C61.362051,9.25469484 61.30751,9.37793427 61.30751,9.52253521 C61.30751,9.66713615 61.363869,9.78873239 61.4765871,9.88732394 C61.5893051,9.98591549 61.7256576,10.0352113 61.8856445,10.0352113 Z M62.2892478,15.9014085 L62.2892478,10.7746479 L61.471133,10.7746479 L61.471133,15.9014085 L62.2892478,15.9014085 Z M64.6890513,15.9014085 L64.6890513,9 L63.8709365,9 L63.8709365,15.9014085 L64.6890513,15.9014085 Z M68.4523795,16 C68.866891,16 69.2323156,15.9309859 69.5486534,15.7929577 C69.8649911,15.6549296 70.1176977,15.4610329 70.3067731,15.2112676 L70.3067731,15.2112676 L70.3613141,15.2112676 L70.4703961,15.9014085 L71.124888,15.9014085 L71.124888,10.7746479 L70.4703961,10.7746479 L70.3613141,11.4647887 L70.3067731,11.4647887 C70.1176977,11.2150235 69.8649911,11.0211268 69.5486534,10.8830986 C69.2323156,10.7450704 68.866891,10.6760563 68.4523795,10.6760563 C68.096045,10.6760563 67.7687991,10.7335681 67.4706417,10.8485915 C67.1724843,10.963615 66.9143236,11.134507 66.6961597,11.3612676 C66.4779957,11.5880282 66.3071006,11.8657277 66.1834744,12.1943662 C66.0598481,12.5230047 65.998035,12.9042254 65.998035,13.3380282 C65.998035,13.771831 66.0598481,14.1530516 66.1834744,14.4816901 C66.3071006,14.8103286 66.4779957,15.0880282 66.6961597,15.3147887 C66.9143236,15.5415493 67.1724843,15.7124413 67.4706417,15.8274648 C67.7687991,15.9424883 68.096045,16 68.4523795,16 Z M68.5614615,15.3098592 C68.0451401,15.3098592 67.6251745,15.1471831 67.3015646,14.821831 C66.9779548,14.4964789 66.8161498,14.0018779 66.8161498,13.3380282 C66.8161498,12.6741784 66.9779548,12.1795775 67.3015646,11.8542254 C67.6251745,11.5288732 68.0451401,11.3661972 68.5614615,11.3661972 C69.0777828,11.3661972 69.4977485,11.5288732 69.8213583,11.8542254 C70.1449682,12.1795775 70.3067731,12.6741784 70.3067731,13.3380282 C70.3067731,14.0018779 70.1449682,14.4964789 69.8213583,14.821831 C69.4977485,15.1471831 69.0777828,15.3098592 68.5614615,15.3098592 Z M75.3790851,16 C75.7354195,16 76.0626655,15.9424883 76.3608229,15.8274648 C76.6589803,15.7124413 76.9171409,15.5415493 77.1353049,15.3147887 C77.3534689,15.0880282 77.524364,14.8103286 77.6479902,14.4816901 C77.7716164,14.1530516 77.8334296,13.771831 77.8334296,13.3380282 C77.8334296,12.9042254 77.7716164,12.5230047 77.6479902,12.1943662 C77.524364,11.8657277 77.3534689,11.5880282 77.1353049,11.3612676 C76.9171409,11.134507 76.6589803,10.963615 76.3608229,10.8485915 C76.0626655,10.7335681 75.7354195,10.6760563 75.3790851,10.6760563 C74.9645736,10.6760563 74.6082391,10.7434272 74.3100817,10.878169 C74.0119243,11.0129108 73.7683079,11.1920188 73.5792324,11.415493 L73.5792324,11.415493 L73.5246915,11.415493 L73.5246915,9 L72.7065766,9 L72.7065766,15.9014085 L73.3610685,15.9014085 L73.4701505,15.2112676 L73.5246915,15.2112676 C73.7137669,15.4610329 73.9664735,15.6549296 74.2828112,15.7929577 C74.5991489,15.9309859 74.9645736,16 75.3790851,16 Z M75.2700031,15.3098592 C74.7464096,15.3098592 74.324626,15.1422535 74.0046522,14.8070423 C73.6846784,14.471831 73.5246915,13.9821596 73.5246915,13.3380282 C73.5246915,12.6938967 73.6846784,12.2042254 74.0046522,11.8690141 C74.324626,11.5338028 74.7464096,11.3661972 75.2700031,11.3661972 C75.7935966,11.3661972 76.2153802,11.5338028 76.535354,11.8690141 C76.8553278,12.2042254 77.0153147,12.6938967 77.0153147,13.3380282 C77.0153147,13.9821596 76.8553278,14.471831 76.535354,14.8070423 C76.2153802,15.1422535 75.7935966,15.3098592 75.2700031,15.3098592 Z M79.9605281,15.9014085 L79.9605281,9 L79.1424133,9 L79.1424133,15.9014085 L79.9605281,15.9014085 Z M83.8874793,16 C84.4328892,16 84.9128499,15.8800469 85.3273614,15.6401408 C85.7418729,15.4002347 86.0436664,15.043662 86.2327418,14.5704225 L86.2327418,14.5704225 L85.360086,14.5704225 C85.0328401,15.0633803 84.5419712,15.3098592 83.8874793,15.3098592 C83.3929743,15.3098592 82.9766448,15.1619718 82.6384907,14.8661972 C82.3003365,14.5704225 82.1167152,14.1267606 82.0876267,13.5352113 L82.0876267,13.5352113 L86.3418238,13.5352113 C86.3490959,13.4957746 86.3563681,13.4497653 86.3636402,13.3971831 L86.3745484,13.3232394 L86.3745484,13.3232394 L86.3854566,13.2394366 C86.3927287,13.1802817 86.3963648,13.114554 86.3963648,13.0422535 C86.3963648,12.7859155 86.3454599,12.5180751 86.24365,12.2387324 C86.1418402,11.9593897 85.9836713,11.7030516 85.7691434,11.4697183 C85.5546155,11.236385 85.2873647,11.0457746 84.9673909,10.8978873 C84.6474171,10.75 84.2692662,10.6760563 83.8329383,10.6760563 C83.4620596,10.6760563 83.1202694,10.7335681 82.8075677,10.8485915 C82.4948661,10.963615 82.2239791,11.134507 81.994907,11.3612676 C81.7658348,11.5880282 81.5876676,11.8657277 81.4604053,12.1943662 C81.333143,12.5230047 81.2695118,12.9042254 81.2695118,13.3380282 C81.2695118,13.771831 81.334961,14.1530516 81.4658594,14.4816901 C81.5967578,14.8103286 81.776743,15.0880282 82.0058152,15.3147887 C82.2348873,15.5415493 82.5094103,15.7124413 82.8293841,15.8274648 C83.1493579,15.9424883 83.5020563,16 83.8874793,16 Z M85.5782499,12.8943662 L82.0876267,12.8943662 C82.1458037,12.4014085 82.3348792,12.0234742 82.654853,11.7605634 C82.9748268,11.4976526 83.3675219,11.3661972 83.8329383,11.3661972 C84.2983547,11.3661972 84.6910499,11.4976526 85.0110237,11.7605634 C85.3309975,12.0234742 85.5200729,12.4014085 85.5782499,12.8943662 L85.5782499,12.8943662 Z M92.3958735,16 C92.7740244,16 93.1249047,15.9424883 93.4485146,15.8274648 C93.7721245,15.7124413 94.0484655,15.5415493 94.2775376,15.3147887 C94.5066098,15.0880282 94.6865951,14.8103286 94.8174934,14.4816901 C94.9483918,14.1530516 95.013841,13.771831 95.013841,13.3380282 C95.013841,12.9042254 94.9483918,12.5230047 94.8174934,12.1943662 C94.6865951,11.8657277 94.5066098,11.5880282 94.2775376,11.3612676 C94.0484655,11.134507 93.7721245,10.963615 93.4485146,10.8485915 C93.1249047,10.7335681 92.7740244,10.6760563 92.3958735,10.6760563 C92.0104505,10.6760563 91.6577522,10.7335681 91.3377784,10.8485915 C91.0178046,10.963615 90.7432816,11.134507 90.5142094,11.3612676 C90.2851373,11.5880282 90.105152,11.8657277 89.9742536,12.1943662 C89.8433553,12.5230047 89.7779061,12.9042254 89.7779061,13.3380282 C89.7779061,13.771831 89.8433553,14.1530516 89.9742536,14.4816901 C90.105152,14.8103286 90.2851373,15.0880282 90.5142094,15.3147887 C90.7432816,15.5415493 91.0178046,15.7124413 91.3377784,15.8274648 C91.6577522,15.9424883 92.0104505,16 92.3958735,16 Z M92.3958735,15.3098592 C92.1340768,15.3098592 91.8940964,15.2671362 91.6759325,15.1816901 C91.4577685,15.0962441 91.2686931,14.9697183 91.1087062,14.8021127 C90.9487193,14.634507 90.823275,14.429108 90.7323734,14.1859155 C90.6414717,13.942723 90.5960209,13.6600939 90.5960209,13.3380282 C90.5960209,13.0159624 90.6414717,12.7333333 90.7323734,12.4901408 C90.823275,12.2469484 90.9487193,12.0415493 91.1087062,11.8739437 C91.2686931,11.706338 91.4577685,11.5798122 91.6759325,11.4943662 C91.8940964,11.4089202 92.1340768,11.3661972 92.3958735,11.3661972 C92.6576703,11.3661972 92.8976506,11.4089202 93.1158146,11.4943662 C93.3339785,11.5798122 93.523054,11.706338 93.6830409,11.8739437 C93.8430278,12.0415493 93.968472,12.2469484 94.0593737,12.4901408 C94.1502753,12.7333333 94.1957262,13.0159624 94.1957262,13.3380282 C94.1957262,13.6600939 94.1502753,13.942723 94.0593737,14.1859155 C93.968472,14.429108 93.8430278,14.634507 93.6830409,14.8021127 C93.523054,14.9697183 93.3339785,15.0962441 93.1158146,15.1816901 C92.8976506,15.2671362 92.6576703,15.3098592 92.3958735,15.3098592 Z M97.0863986,15.9014085 L97.0863986,12.7464789 C97.0863986,12.5624413 97.1245772,12.3866197 97.2009346,12.2190141 C97.277292,12.0514085 97.384556,11.9051643 97.5227265,11.7802817 C97.660897,11.6553991 97.8227019,11.5551643 98.0081413,11.4795775 C98.1935806,11.4039906 98.3953823,11.3661972 98.6135462,11.3661972 C99.0280578,11.3661972 99.3680299,11.484507 99.6334627,11.7211268 C99.8988955,11.9577465 100.031612,12.2995305 100.031612,12.7464789 L100.031612,12.7464789 L100.031612,15.9014085 L100.849727,15.9014085 L100.849727,12.7464789 C100.849727,12.4244131 100.795186,12.1352113 100.686104,11.8788732 C100.577022,11.6225352 100.426125,11.4056338 100.233414,11.228169 C100.040702,11.0507042 99.815266,10.9143192 99.5571053,10.8190141 C99.2989447,10.7237089 99.0207856,10.6760563 98.7226282,10.6760563 C98.4244708,10.6760563 98.1244954,10.7335681 97.8227019,10.8485915 C97.5209084,10.963615 97.275474,11.1690141 97.0863986,11.4647887 L97.0863986,11.4647887 L97.0318576,11.4647887 L96.9227756,10.7746479 L96.2682837,10.7746479 L96.2682837,15.9014085 L97.0863986,15.9014085 Z" id="Availableon" fill="#FFFFFF" fill-rule="nonzero"></path>
                </g>
            </g>
        </g>
    </g>
</svg>