<?xml version="1.0" encoding="UTF-8"?>
<svg width="30px" height="30px" viewBox="0 0 30 30" version="1.1" xmlns="http://www.w3.org/2000/svg" xmlns:xlink="http://www.w3.org/1999/xlink">
    <!-- Generator: Sketch 54.1 (76490) - https://sketchapp.com -->
    <title>github</title>
    <desc>Created with Sketch.</desc>
    <g id="Landing-page" stroke="none" stroke-width="1" fill="none" fill-rule="evenodd">
        <g id="Desktop" transform="translate(-741.000000, -1150.000000)" fill="#202124">
            <g id="social" transform="translate(522.000000, 1150.000000)">
                <path d="M234,-6.03961325e-14 C225.7125,-6.03961325e-14 219,6.71625 219,15 C219,21.6288 223.2975,27.25005 229.257,29.23125 C230.007,29.37255 230.2815,28.90875 230.2815,28.51005 C230.2815,28.1538 230.2695,27.21 230.262,25.96005 C226.0905,26.865 225.21,23.9475 225.21,23.9475 C224.5275,22.2162 223.5405,21.75375 223.5405,21.75375 C222.183,20.82375 223.647,20.8425 223.647,20.8425 C225.153,20.9475 225.9435,22.3875 225.9435,22.3875 C227.2815,24.6813 229.455,24.01875 230.313,23.63505 C230.448,22.665 230.8335,22.0038 231.2625,21.6288 C227.931,21.2538 224.43,19.9638 224.43,14.21625 C224.43,12.5787 225.012,11.241255 225.9735,10.191255 C225.8055,9.812505 225.2985,8.2875 226.1055,6.22125 C226.1055,6.22125 227.361,5.818755 230.2305,7.75875 C231.4305,7.425 232.7055,7.26 233.9805,7.2525 C235.2555,7.26 236.5305,7.425 237.7305,7.75875 C240.5805,5.818755 241.836,6.22125 241.836,6.22125 C242.643,8.2875 242.136,9.812505 241.986,10.191255 C242.943,11.241255 243.5235,12.5787 243.5235,14.21625 C243.5235,19.9788 240.018,21.2475 236.6805,21.6162 C237.2055,22.0662 237.693,22.9863 237.693,24.3912 C237.693,26.3988 237.6735,28.0113 237.6735,28.4988 C237.6735,28.89255 237.936,29.3613 238.7055,29.2113 C244.707,27.24375 249,21.61875 249,15 C249,6.71625 242.2845,-6.03961325e-14 234,-6.03961325e-14 Z" id="github"></path>
            </g>
        </g>
    </g>
</svg>