<?xml version="1.0" encoding="UTF-8"?>
<svg width="217px" height="64px" viewBox="0 0 217 64" version="1.1" xmlns="http://www.w3.org/2000/svg" xmlns:xlink="http://www.w3.org/1999/xlink">
    <!-- Generator: Sketch 61.2 (89653) - https://sketch.com -->
    <title>Android_bage</title>
    <desc>Created with Sketch.</desc>
    <defs>
        <linearGradient x1="50%" y1="0%" x2="50%" y2="100%" id="linearGradient-1">
            <stop stop-color="#00C3FF" offset="0%"></stop>
            <stop stop-color="#00E3FF" offset="100%"></stop>
        </linearGradient>
        <linearGradient x1="50%" y1="0%" x2="50%" y2="100%" id="linearGradient-2">
            <stop stop-color="#FFC800" offset="0%"></stop>
            <stop stop-color="#FFC900" offset="100%"></stop>
        </linearGradient>
        <linearGradient x1="86.7245433%" y1="30.5732547%" x2="-50.4810997%" y2="137.49717%" id="linearGradient-3">
            <stop stop-color="#FF3944" offset="0%"></stop>
            <stop stop-color="#C31161" offset="100%"></stop>
        </linearGradient>
        <linearGradient x1="50%" y1="0%" x2="50%" y2="100%" id="linearGradient-4">
            <stop stop-color="#11D574" offset="0%"></stop>
            <stop stop-color="#00F076" offset="100%"></stop>
        </linearGradient>
    </defs>
    <g id="Home" stroke="none" stroke-width="1" fill="none" fill-rule="evenodd">
        <g id="Desktop" transform="translate(-344.000000, -7799.000000)">
            <g id="Get-the-app" transform="translate(0.000000, 7353.000000)">
                <g id="store_bages" transform="translate(122.000000, 446.000000)">
                    <g id="google_play_bage_white" transform="translate(222.000000, 0.000000)">
                        <path d="M13.8553728,0.00198622633 L201.940972,5.80070572e-16 C206.940873,5.80070572e-16 208.753958,0.519823422 210.581848,1.49594314 C212.409737,2.47206286 213.844275,3.90447887 214.821841,5.72966406 L215.024301,6.12171396 C215.871121,7.82971345 216.32,9.72185967 216.32,14.3577571 L216.32,49.6422429 L216.312055,50.6645248 C216.243298,54.8934522 215.72958,56.5755211 214.821841,58.2703359 C213.844275,60.0955211 212.409737,61.5279371 210.581848,62.5040569 L210.189217,62.7062181 C208.478687,63.5517849 206.583738,64 201.940972,64 L14.3790279,64 L13.3552315,63.9920667 C9.12003895,63.9234115 7.4354781,63.4104537 5.73815245,62.5040569 C3.91026329,61.5279371 2.47572518,60.0955211 1.49815935,58.2703359 L1.29569862,57.878286 C0.448879116,56.1702866 -3.87286624e-16,54.2781403 -3.87286624e-16,49.6422429 L-3.87286624e-16,14.3577571 C-3.87286624e-16,9.36525218 0.520593531,7.55484925 1.49815935,5.72966406 C2.47572518,3.90447887 3.91026329,2.47206286 5.73815245,1.49594314 L6.13078316,1.29378191 C7.77552342,0.480736894 9.5907699,0.0350658825 13.8553728,0.00198622633 Z" id="Rectangle" fill="#FFFFFF"></path>
                        <path d="M71.255808,10.8255962 C71.9656581,10.8255962 72.6466655,10.9648 73.2924207,11.24 C73.9365736,11.5168 74.4621511,11.888 74.8563342,12.3568 L74.8563342,12.3568 L74.9508741,12.4704 L74.84672,12.5728 L73.8772859,13.5408 L73.76512,13.408 C73.1578216,12.6864 72.3406127,12.328 71.255808,12.3264 C70.2815668,12.3264 69.4547437,12.6624 68.7416889,13.3456 C68.0350436,14.0288 67.6841244,14.8992 67.6825221,16 C67.6841244,17.1008 68.0350436,17.9712 68.7416889,18.6544 C69.4547437,19.3376 70.2815668,19.6736 71.255808,19.6752 C72.294144,19.6736 73.1385932,19.3344 73.8276124,18.6496 C74.2602524,18.216 74.5166317,17.6096 74.587136,16.8048 L74.5669749,16.9775924 L71.095571,16.9776 L71.095571,15.5056 L76.0484978,15.5056 L76.0725333,15.6368 C76.1190021,15.896 76.1430376,16.1456 76.1430376,16.3888 L76.1430376,16.3888 L76.1375449,16.6596584 C76.086271,17.9078329 75.6758933,18.9336533 74.9012006,19.7072 L74.9039749,19.7035924 L74.7874323,19.5936 L74.9012006,19.7072 L74.7257829,19.881898 C73.8154069,20.7428688 72.6468658,21.1759002 71.255808,21.1744039 C69.8313007,21.176 68.6022827,20.6768 67.6056083,19.688 C66.6041268,18.6992 66.0993801,17.4576 66.1009787,16 C66.0993801,14.5424 66.6041268,13.3008 67.6056083,12.3136 C68.6022827,11.3232 69.8313007,10.824 71.255808,10.8255962 Z M114.423666,10.8255962 C115.857787,10.824 117.081998,11.3312 118.057842,12.336 C119.033685,13.336 119.527215,14.5696 119.525617,16 C119.527215,17.4384 119.03689,18.6752 118.064251,19.6704 L118.064251,19.6704 L117.879188,19.8523668 C116.938949,20.733025 115.775666,21.1759002 114.423666,21.1744038 C112.981532,21.176 111.755719,20.672 110.784683,19.6704 L110.784683,19.6704 L110.596589,19.4681505 C109.748853,18.5093973 109.321825,17.3425067 109.323317,16 C109.321719,14.5616 109.812044,13.3264 110.784683,12.3296 C111.755719,11.3296 112.981532,10.824 114.423666,10.8255962 Z M83.5283627,11.04 L83.5283627,12.5392 L79.1490844,12.5392 L79.1490844,15.264 L83.097325,15.264 L83.097325,16.736 L79.1490844,16.736 L79.1490844,19.4608 L83.5283627,19.4608 L83.5283627,20.96 L77.5947852,20.96 L77.5947852,11.04 L83.5283627,11.04 Z M91.4232415,11.04 L91.4232415,12.5392 L88.7376687,12.5392 L88.7376687,20.96 L87.1801647,20.96 L87.1801647,12.5392 L84.494592,12.5392 L84.494592,11.04 L91.4232415,11.04 Z M97.4385399,11.04 L97.4385399,20.96 L95.8826382,20.96 L95.8826382,11.04 L97.4385399,11.04 Z M105.602617,11.04 L105.602617,12.5392 L102.917044,12.5392 L102.917044,20.96 L101.361143,20.96 L101.361143,12.5392 L98.6755698,12.5392 L98.6755698,11.04 L105.602617,11.04 Z M122.691897,11.04 L127.153975,18.1715924 L127.116041,16.8208 L127.116041,11.04 L128.671943,11.04 L128.671943,20.96 L127.133668,20.96 L122.454975,13.4645924 L122.494805,14.8176 L122.494805,20.96 L120.938904,20.96 L120.938904,11.04 L122.691897,11.04 Z M114.423666,12.3264 C113.431799,12.328 112.612987,12.6656 111.92557,13.3568 L111.92557,13.3568 C111.246165,14.0464 110.906463,14.9168 110.90486,16 C110.906463,17.0832 111.246165,17.9536 111.927173,18.6432 L111.927173,18.6432 L111.925975,18.6435924 L112.086556,18.7964395 C112.68553,19.3353664 113.380873,19.6221815 114.197826,19.6685167 L114.423666,19.6752 C115.417135,19.6736 116.237549,19.3344 116.921761,18.6432 C117.602769,17.952 117.942471,17.0832 117.944073,16 C117.942471,14.9168 117.602769,14.048 116.921761,13.3568 C116.237549,12.6656 115.417135,12.328 114.423666,12.3264 Z" id="Combined-Shape" fill="#000000"></path>
                        <path d="M171.351078,48 L174.341101,48 L174.341101,27.9984 L171.351078,27.9984 L171.351078,48 Z M198.282117,35.2032 L194.854647,43.8752 L194.752095,43.8752 L191.194833,35.2032 L187.974068,35.2032 L193.308359,47.3232 L190.26706,54.0656 L193.386875,54.0656 L201.607035,35.2032 L198.282117,35.2032 Z M181.325833,45.728 C180.345183,45.728 178.979963,45.24 178.979963,44.0304 C178.979963,42.4864 180.681681,41.8944 182.149452,41.8944 C183.464998,41.8944 184.081911,42.1776 184.881493,42.5632 C184.64915,44.416 183.051586,45.728 181.325833,45.728 Z M181.686367,34.7664 C179.521564,34.7664 177.279848,35.7184 176.352076,37.8288 L179.005601,38.9344 C179.57284,37.8288 180.628802,37.4672 181.737643,37.4672 C183.28393,37.4672 184.855855,38.3936 184.881493,40.0416 L184.881493,40.2464 C184.339892,39.9376 183.181378,39.4752 181.763281,39.4752 C178.903049,39.4752 175.98994,41.0448 175.98994,43.9776 C175.98994,46.6544 178.33581,48.3792 180.963698,48.3792 C182.974673,48.3792 184.081911,47.4784 184.778942,46.4224 L184.881493,46.4224 L184.881493,47.9664 L187.767362,47.9664 L187.767362,40.2992 C187.767362,36.7472 185.113837,34.7664 181.686367,34.7664 Z M163.207832,37.6384 L158.955141,37.6384 L158.955141,30.7824 L163.207832,30.7824 C165.443138,30.7824 166.712216,32.6304 166.712216,34.2096 C166.712216,35.76 165.443138,37.6384 163.207832,37.6384 Z M163.130918,27.9984 L155.96672,27.9984 L155.96672,48 L158.955141,48 L158.955141,40.4224 L163.130918,40.4224 C166.44462,40.4224 169.702239,38.0256 169.702239,34.2096 C169.702239,30.3936 166.44462,27.9984 163.130918,27.9984 Z M124.063526,45.7312 C121.998071,45.7312 120.269113,44.0048 120.269113,41.6336 C120.269113,39.2368 121.998071,37.4832 124.063526,37.4832 C126.103343,37.4832 127.702509,39.2368 127.702509,41.6336 C127.702509,44.0048 126.103343,45.7312 124.063526,45.7312 Z M127.495803,36.3232 L127.393252,36.3232 C126.721858,35.5248 125.43195,34.8032 123.805544,34.8032 C120.397303,34.8032 117.274283,37.792 117.274283,41.6336 C117.274283,45.448 120.397303,48.4128 123.805544,48.4128 C125.43195,48.4128 126.721858,47.6912 127.393252,46.8656 L127.495803,46.8656 L127.495803,47.8448 C127.495803,50.4496 126.103343,51.8416 123.85682,51.8416 C122.023708,51.8416 120.887628,50.5264 120.42294,49.4176 L117.815884,50.5008 C118.564191,52.3056 120.552732,54.5216 123.85682,54.5216 C127.367614,54.5216 130.336806,52.4592 130.336806,47.4336 L130.336806,35.2144 L127.495803,35.2144 L127.495803,36.3232 Z M132.402261,48 L135.397092,48 L135.397092,27.9968 L132.402261,27.9968 L132.402261,48 Z M139.81002,41.4016 C139.733106,38.7728 141.849837,37.432 143.372089,37.432 C144.561048,37.432 145.567336,38.024 145.902232,38.8752 L139.81002,41.4016 Z M149.103768,39.1328 C148.536529,37.6128 146.805969,34.8032 143.269537,34.8032 C139.758744,34.8032 136.84243,37.56 136.84243,41.608 C136.84243,45.4224 139.733106,48.4128 143.604433,48.4128 C146.729055,48.4128 148.536529,46.5056 149.284836,45.3968 L146.961399,43.8496 C146.187454,44.984 145.128287,45.7312 143.604433,45.7312 C142.082181,45.7312 140.997376,45.0352 140.300345,43.6704 L149.413025,39.9072 L149.103768,39.1328 Z M76.503571,36.8912 L76.503571,39.7776 L83.4210039,39.7776 C83.2142981,41.4016 82.6726969,42.5872 81.8474761,43.4128 C80.8395852,44.4176 79.2644551,45.5248 76.503571,45.5248 C72.2444705,45.5248 68.9131425,42.0976 68.9131425,37.8448 C68.9131425,33.5904 72.2444705,30.1632 76.503571,30.1632 C78.8013701,30.1632 80.4790519,31.0656 81.7176841,32.2256 L83.7575016,30.1888 C82.0269416,28.5392 79.7307449,27.2752 76.503571,27.2752 C70.6693404,27.2752 65.7644847,32.0192 65.7644847,37.8448 C65.7644847,43.6704 70.6693404,48.4128 76.503571,48.4128 C79.6522287,48.4128 82.0269416,47.3824 83.8856913,45.448 C85.7957167,43.5408 86.3901961,40.8608 86.3901961,38.6944 C86.3901961,38.024 86.3389203,37.4064 86.2347662,36.8912 L76.503571,36.8912 Z M94.2562323,45.7312 C92.1907769,45.7312 90.408941,44.0304 90.408941,41.608 C90.408941,39.1584 92.1907769,37.4832 94.2562323,37.4832 C96.3200853,37.4832 98.1019212,39.1584 98.1019212,41.608 C98.1019212,44.0304 96.3200853,45.7312 94.2562323,45.7312 Z M94.2562323,34.8032 C90.4858548,34.8032 87.4141108,37.664 87.4141108,41.608 C87.4141108,45.5248 90.4858548,48.4128 94.2562323,48.4128 C98.0250074,48.4128 101.096751,45.5248 101.096751,41.608 C101.096751,37.664 98.0250074,34.8032 94.2562323,34.8032 Z M109.179108,45.7312 C107.113652,45.7312 105.331816,44.0304 105.331816,41.608 C105.331816,39.1584 107.113652,37.4832 109.179108,37.4832 C111.244563,37.4832 113.024796,39.1584 113.024796,41.608 C113.024796,44.0304 111.244563,45.7312 109.179108,45.7312 Z M109.179108,34.8032 C105.410332,34.8032 102.338588,37.664 102.338588,41.608 C102.338588,45.5248 105.410332,48.4128 109.179108,48.4128 C112.947883,48.4128 116.019627,45.5248 116.019627,41.608 C116.019627,37.664 112.947883,34.8032 109.179108,34.8032 L109.179108,34.8032 Z" id="Fill-20" fill="#000000"></path>
                        <g id="Group" stroke-width="1" transform="translate(15.980440, 11.425600)">
                            <path d="M0.860472889,40.3984 L0.740295111,40.2832 C0.275607704,39.7904 -1.42319078e-14,39.0272 -1.42319078e-14,38.0352 L-1.42319078e-14,38.2688 L-1.42319078e-14,2.8832 C-1.42319078e-14,2.88 -1.42319078e-14,2.8784 -1.42319078e-14,2.8752 C-1.42319078e-14,2.8784 -1.42319078e-14,2.8816 -1.42319078e-14,2.8832 L-1.42319078e-14,3.1184 C-1.42319078e-14,2.0448 0.320474074,1.2368 0.858870519,0.752 L20.710637,20.576 L0.860472889,40.3984 M-1.41208855e-14,2.8736 C-1.41208855e-14,2.7856 0.00160237037,2.6992 0.00640948148,2.6144 C0.00160237037,2.6992 -1.41208855e-14,2.7856 -1.41208855e-14,2.8736" id="Clip-22" fill="url(#linearGradient-1)"></path>
                            <path d="M27.3284267,27.4192 L27.3284267,27.4192 L27.4790495,27.3344 L35.3194477,22.8864 C36.0661523,22.4624 36.5644895,21.9472 36.8128569,21.4032 C36.5644895,21.9472 36.0677547,22.4624 35.3194477,22.8864 L27.4790495,27.3344 L27.3284267,27.4192 M27.330029,27.1856 L20.710637,20.576 L27.330029,13.9664 L35.3194477,18.4992 C36.3337481,19.0752 36.904192,19.8176 36.9987319,20.5744 C36.9987319,20.576 36.9987319,20.576 36.9987319,20.5776 C36.904192,21.3344 36.3337481,22.0768 35.3194477,22.6528 L27.330029,27.1856" id="Clip-25" fill="url(#linearGradient-2)"></path>
                            <path d="M2.27536593,41.152 C1.72094578,41.152 1.23702993,40.9728 0.858870519,40.632 L0.860472889,40.632 C1.23702993,40.9712 1.72254815,41.152 2.2769683,41.152 C2.32503941,41.152 2.37311052,41.152 2.422784,41.1488 C2.37311052,41.152 2.32343704,41.152 2.27536593,41.152 M2.27536593,40.9184 C1.72094578,40.9184 1.23702993,40.7376 0.860472889,40.3984 L20.710637,20.576 L27.330029,27.1856 L4.07162311,40.3808 C3.42747022,40.7456 2.81856948,40.9184 2.27536593,40.9184" id="Fill-27" fill="url(#linearGradient-3)"></path>
                            <path d="M20.710637,20.576 L20.710637,20.576 L0.858870519,0.752 C1.23542756,0.4128 1.71934341,0.2336 2.27376356,0.2336 C2.81536474,0.2336 3.42586785,0.4064 4.07162311,0.7712 L27.330029,13.9664 L20.710637,20.576 M27.4790495,13.8176 L4.07162311,0.5376 C3.42747022,0.1728 2.81536474,9.9475983e-15 2.27376356,9.9475983e-15 C2.27055881,9.9475983e-15 2.26895644,9.9475983e-15 2.2657517,9.9475983e-15 C2.26895644,9.9475983e-15 2.27216119,9.9475983e-15 2.27536593,9.9475983e-15 C2.81696711,9.9475983e-15 3.42747022,0.1712 4.07162311,0.5376 L27.4790495,13.8176" id="Clip-31" fill="url(#linearGradient-4)"></path>
                        </g>
                    </g>
                </g>
            </g>
        </g>
    </g>
</svg>