<?xml version="1.0" encoding="UTF-8"?>
<svg width="149px" height="44px" viewBox="0 0 149 44" version="1.1" xmlns="http://www.w3.org/2000/svg" xmlns:xlink="http://www.w3.org/1999/xlink">
    <!-- Generator: Sketch 64 (93537) - https://sketch.com -->
    <title>google_play_bage</title>
    <desc>Created with Sketch.</desc>
    <defs>
        <linearGradient x1="50%" y1="0%" x2="50%" y2="100%" id="linearGradient-1">
            <stop stop-color="#00C3FF" offset="0%"></stop>
            <stop stop-color="#00E3FF" offset="100%"></stop>
        </linearGradient>
        <linearGradient x1="50%" y1="0%" x2="50%" y2="100%" id="linearGradient-2">
            <stop stop-color="#FFC800" offset="0%"></stop>
            <stop stop-color="#FFC900" offset="100%"></stop>
        </linearGradient>
        <linearGradient x1="86.7245433%" y1="30.6461993%" x2="-50.4810997%" y2="137.168631%" id="linearGradient-3">
            <stop stop-color="#FF3944" offset="0%"></stop>
            <stop stop-color="#C31161" offset="100%"></stop>
        </linearGradient>
        <linearGradient x1="50%" y1="0%" x2="50%" y2="100%" id="linearGradient-4">
            <stop stop-color="#11D574" offset="0%"></stop>
            <stop stop-color="#00F076" offset="100%"></stop>
        </linearGradient>
    </defs>
    <g id="Comics-page" stroke="none" stroke-width="1" fill="none" fill-rule="evenodd">
        <g id="Desktop" transform="translate(-64.000000, -852.000000)">
            <g id="google_play_bage" transform="translate(64.000000, 852.000000)">
                <path d="M9.54350288,0.0013655306 L139.095806,3.98798518e-16 C142.53971,3.98798518e-16 143.788553,0.357378603 145.047593,1.02846091 C146.306633,1.69954322 147.294734,2.68432923 147.968076,3.93914404 L148.10753,4.20867835 C148.690815,5.382928 149,6.68377852 149,9.87095802 L149,34.129042 L148.994527,34.8318608 C148.947168,37.7392484 148.593322,38.8956708 147.968076,40.060856 C147.294734,41.3156708 146.306633,42.3004568 145.047593,42.9715391 L144.777151,43.1105249 C143.598948,43.6918521 142.293717,44 139.095806,44 L9.90419357,44 L9.19900838,43.9945458 C6.28183156,43.9473454 5.12151552,43.5946869 3.95240715,42.9715391 C2.69336737,42.3004568 1.70526558,41.3156708 1.03192374,40.060856 L0.892469927,39.7913217 C0.309185412,38.617072 -2.6676085e-16,37.3162215 -2.6676085e-16,34.129042 L-2.6676085e-16,9.87095802 C-2.6676085e-16,6.43861087 0.358581898,5.19395886 1.03192374,3.93914404 C1.70526558,2.68432923 2.69336737,1.69954322 3.95240715,1.02846091 L4.22284898,0.889475062 C5.35573682,0.330506615 6.60606839,0.0241077942 9.54350288,0.0013655306 Z" id="Rectangle" fill="#000000"></path>
                <path d="M52.3365259,11.2673 C52.3365259,12.1891 52.0617037,12.9239 51.513163,13.4706 C50.8906741,14.1218 50.0794519,14.4474 49.0806,14.4474 C48.1247926,14.4474 47.3124667,14.1174 46.6436222,13.4563 C45.9747778,12.7963 45.6403556,11.9768 45.6403556,11 C45.6403556,10.0221 45.9747778,9.2037 46.6436222,8.5437 C47.3124667,7.8826 48.1247926,7.5526 49.0806,7.5526 C49.5551926,7.5526 50.0088148,7.645 50.440363,7.8287 C50.8708074,8.0135 51.2173704,8.2588 51.475637,8.5668 L50.8939852,9.1465 C50.4547111,8.6251 49.8520889,8.3644 49.0806,8.3644 C48.3830593,8.3644 47.7815407,8.6075 47.2727333,9.097 C46.7639259,9.5854 46.5089704,10.2201 46.5089704,11 C46.5089704,11.7799 46.7639259,12.4146 47.2727333,12.903 C47.7815407,13.3925 48.3830593,13.6356 49.0806,13.6356 C49.8200815,13.6356 50.4370519,13.3903 50.9304074,12.8997 C51.2504815,12.5796 51.4359037,12.1341 51.4855704,11.5621 L49.0806,11.5621 L49.0806,10.7701 L52.2901704,10.7701 C52.3210741,10.9417 52.3365259,11.1078 52.3365259,11.2673" id="Fill-6" fill="#FFFFFF"></path>
                <path d="M52.3365259,11.2673 L52.2261556,11.2673 C52.2250519,12.1682 51.9612667,12.8678 51.4359037,13.3925 L51.4348,13.3936 L51.4336963,13.3947 C50.8310741,14.0228 50.0551704,14.3363 49.0806,14.3374 C48.1501778,14.3363 47.3720667,14.0195 46.7219852,13.3782 C46.0730074,12.7369 45.7518296,11.9526 45.7507259,11 C45.7518296,10.0474 46.0730074,9.2631 46.7219852,8.6218 C47.3720667,7.9805 48.1501778,7.6637 49.0806,7.6626 C49.5408444,7.6626 49.9790148,7.7517 50.3962148,7.9299 C50.8145185,8.1092 51.1456296,8.3446 51.3917556,8.6372 L51.475637,8.5668 L51.3972741,8.4887 L50.8156222,9.0695 L50.8939852,9.1465 L50.9778667,9.0761 C50.5198296,8.5283 49.8752667,8.2522 49.0806,8.2544 C48.3576741,8.2533 47.7219407,8.5107 47.1954741,9.0178 C46.6645926,9.526 46.3974963,10.1959 46.3986,11 C46.3974963,11.8041 46.6645926,12.474 47.1954741,12.9822 C47.7219407,13.4893 48.3576741,13.7467 49.0806,13.7467 C49.844363,13.7478 50.4955481,13.4893 51.0087704,12.9767 C51.3509185,12.6346 51.5451704,12.1616 51.5959407,11.572 L51.6058741,11.4521 L49.1909704,11.4521 L49.1909704,10.879 L52.2901704,10.879 L52.2901704,10.7701 L52.1809037,10.7888 C52.2107037,10.956 52.2261556,11.1144 52.2261556,11.2673 L52.4468963,11.2673 C52.4468963,11.1001 52.4303407,10.9285 52.3983333,10.7503 L52.3817778,10.6601 L48.9702296,10.6601 L48.9702296,11.6721 L51.4855704,11.6721 L51.4855704,11.5621 L51.3752,11.5533 C51.326637,12.1066 51.1500444,12.5235 50.8520444,12.8216 C50.3774519,13.2924 49.7958,13.5256 49.0806,13.5267 C48.4095481,13.5256 47.840037,13.2946 47.3488889,12.8249 C46.8621556,12.3552 46.6204444,11.7568 46.6193407,11 C46.6204444,10.2432 46.8621556,9.6448 47.3488889,9.1751 C47.840037,8.7054 48.4095481,8.4744 49.0806,8.4744 C49.8278074,8.4755 50.3906963,8.7219 50.809,9.218 L50.8862593,9.3093 L51.554,8.6438 L51.6257407,8.5734 L51.5606222,8.4953 C51.2891111,8.173 50.9270963,7.9178 50.4834074,7.7275 C50.0386148,7.5383 49.5695407,7.44259736 49.0806,7.44259736 C48.0994074,7.4415 47.2528667,7.7847 46.566363,8.4656 C45.8765481,9.1443 45.5288815,9.9979 45.5299826,11 C45.5288815,12.0021 45.8765481,12.8557 46.566363,13.5355 C47.2528667,14.2153 48.0994074,14.5585 49.0806,14.5574027 C50.1026296,14.5585 50.9502741,14.2197 51.5937333,13.5465 L51.513163,13.4706 L51.5915259,13.5487 C52.1632444,12.9789 52.4468963,12.21 52.4468963,11.2673 L52.3365259,11.2673" id="Fill-7" fill="#FFFFFF"></path>
                <polyline id="Fill-8" fill="#FFFFFF" points="57.4234963 8.5107 54.4070741 8.5107 54.4070741 10.604 57.1266 10.604 57.1266 11.396 54.4070741 11.396 54.4070741 13.4893 57.4234963 13.4893 57.4234963 14.3 53.5572222 14.3 53.5572222 7.7 57.4234963 7.7 57.4234963 8.5107"></polyline>
                <polyline id="Fill-9" fill="#FFFFFF" points="57.4234963 8.5107 57.4234963 8.4007 54.2967037 8.4007 54.2967037 10.714 57.0162296 10.714 57.0162296 11.286 54.2967037 11.286 54.2967037 13.5993 57.3131259 13.5993 57.3131259 14.19 53.6675926 14.19 53.6675926 7.81 57.3131259 7.81 57.3131259 8.5107 57.4234963 8.5107 57.4234963 8.4007 57.4234963 8.5107 57.5338667 8.5107 57.5338667 7.59 53.4468519 7.59 53.4468519 14.41 57.5338667 14.41 57.5338667 13.3793 54.5174444 13.3793 54.5174444 11.506 57.2369704 11.506 57.2369704 10.494 54.5174444 10.494 54.5174444 8.6207 57.5338667 8.6207 57.5338667 8.5107 57.4234963 8.5107"></polyline>
                <polyline id="Fill-10" fill="#FFFFFF" points="61.011637 14.3 60.1595778 14.3 60.1595778 8.5107 58.3108741 8.5107 58.3108741 7.7 62.8614444 7.7 62.8614444 8.5107 61.011637 8.5107 61.011637 14.3"></polyline>
                <polyline id="Fill-11" fill="#FFFFFF" points="61.011637 14.3 61.011637 14.19 60.2699481 14.19 60.2699481 8.4007 58.4201407 8.4007 58.4201407 7.81 62.7510741 7.81 62.7510741 8.4007 60.9012667 8.4007 60.9012667 14.3 61.011637 14.3 61.011637 14.19 61.011637 14.3 61.1220074 14.3 61.1220074 8.6207 62.9718148 8.6207 62.9718148 7.59 58.1994 7.59 58.1994 8.6207 60.0492074 8.6207 60.0492074 14.41 61.1220074 14.41 61.1220074 14.3 61.011637 14.3"></polyline>
                <polygon id="Fill-12" fill="#FFFFFF" points="66.1537926 14.3 67.0047481 14.3 67.0047481 7.7 66.1537926 7.7"></polygon>
                <polyline id="Fill-13" fill="#FFFFFF" points="66.1537926 14.3 66.264163 14.3 66.264163 7.81 66.8932741 7.81 66.8932741 14.19 66.1537926 14.19 66.1537926 14.3 66.264163 14.3 66.1537926 14.3 66.1537926 14.41 67.1151185 14.41 67.1151185 7.59 66.0434222 7.59 66.0434222 14.41 66.1537926 14.41 66.1537926 14.3"></polyline>
                <polyline id="Fill-14" fill="#FFFFFF" points="70.7783111 14.3 69.9273556 14.3 69.9273556 8.5107 68.0775481 8.5107 68.0775481 7.7 72.6281185 7.7 72.6281185 8.5107 70.7783111 8.5107 70.7783111 14.3"></polyline>
                <polyline id="Fill-15" fill="#FFFFFF" points="70.7783111 14.3 70.7783111 14.19 70.0377259 14.19 70.0377259 8.4007 68.1879185 8.4007 68.1879185 7.81 72.5177481 7.81 72.5177481 8.4007 70.6679407 8.4007 70.6679407 14.3 70.7783111 14.3 70.7783111 14.19 70.7783111 14.3 70.8886815 14.3 70.8886815 8.6207 72.7384889 8.6207 72.7384889 7.59 67.9671778 7.59 67.9671778 8.6207 69.8169852 8.6207 69.8169852 14.41 70.8886815 14.41 70.8886815 14.3 70.7783111 14.3"></polyline>
                <path d="M77.0153407,12.8942 C77.5064889,13.3892 78.1058,13.6356 78.8143778,13.6356 C79.5240593,13.6356 80.1244741,13.3892 80.6134148,12.8942 C81.1034593,12.3992 81.3495852,11.7678 81.3495852,11 C81.3495852,10.2322 81.1034593,9.6008 80.6134148,9.1058 C80.1244741,8.6108 79.5240593,8.3644 78.8143778,8.3644 C78.1058,8.3644 77.5064889,8.6108 77.0153407,9.1058 C76.5264,9.6008 76.2802741,10.2322 76.2802741,11 C76.2802741,11.7678 76.5264,12.3992 77.0153407,12.8942 Z M81.2425259,13.4475 C80.5924444,14.1141 79.7823259,14.4474 78.8143778,14.4474 C77.8464296,14.4474 77.0374148,14.1141 76.3873333,13.4475 C75.7361481,12.7809 75.4116593,11.9647 75.4116593,11 C75.4116593,10.0353 75.7361481,9.2191 76.3873333,8.5525 C77.0374148,7.8859 77.8464296,7.5526 78.8143778,7.5526 C79.7768074,7.5526 80.5847185,7.887 81.2381111,8.5569 C81.8915037,9.2268 82.2182,10.0408 82.2182,11 C82.2182,11.9647 81.8926074,12.7809 81.2425259,13.4475 L81.2425259,13.4475 Z" id="Fill-16" fill="#FFFFFF"></path>
                <path d="M77.0153407,12.8942 L76.9369778,12.9712 C77.4457852,13.486 78.0793111,13.7478 78.8143778,13.7467035 C79.5494444,13.7478 80.1840741,13.486 80.6917778,12.9712 C81.2038963,12.4575 81.4610593,11.7909 81.4599591,11 C81.4610593,10.2091 81.2038963,9.5436 80.6917778,9.0288 C80.1840741,8.514 79.5494444,8.2533 78.8143778,8.25439653 C78.0793111,8.2533 77.4457852,8.514 76.9369778,9.0288 C76.4270667,9.5436 76.1688,10.2091 76.1699002,11 C76.1688,11.7909 76.4270667,12.4575 76.9369778,12.9712 L77.0948074,12.8172 C76.6257333,12.3431 76.3917481,11.7447 76.3906444,11 C76.3917481,10.2553 76.6257333,9.6569 77.0948074,9.1828 L77.0937037,9.1828 C77.5671926,8.7076 78.1311852,8.4755 78.8143778,8.4744 C79.4986741,8.4755 80.0637704,8.7076 80.5350519,9.1828 C81.0041259,9.658 81.2381111,10.2553 81.2392148,11 C81.2381111,11.7447 81.0041259,12.342 80.5350519,12.8172 C80.0637704,13.2924 79.4986741,13.5256 78.8143778,13.5267 C78.1311852,13.5245 77.5671926,13.2924 77.0937037,12.8172 L77.0153407,12.8942 Z M81.2425259,13.4475 L81.164163,13.3705 C80.5317407,14.0173 79.7569407,14.3363 78.8143778,14.3374 C77.8718148,14.3363 77.0981185,14.0173 76.4668,13.3705 L76.4634889,13.3672 L76.4668,13.3705 C75.8354815,12.7226 75.5231333,11.9405 75.5220296,11 C75.5231333,10.0595 75.8354815,9.2774 76.4668,8.6295 C77.0981185,7.9827 77.8718148,7.6637 78.8143778,7.6626 C79.7514222,7.6637 80.5229111,7.9849 81.1597481,8.6339 C81.7932741,9.2851 82.1067259,10.0661 82.1078296,11 C82.1067259,11.9405 81.7943778,12.7226 81.164163,13.3705 L81.3219926,13.5234 C81.9919407,12.8392 82.3296741,11.9889 82.3285731,11 C82.3296741,10.0166 81.9897333,9.1685 81.3175778,8.481 C80.6454222,7.7902 79.8021926,7.4415 78.8143778,7.4425974 C77.8210444,7.4415 76.9767111,7.7891 76.3078667,8.4766 C75.6379185,9.1619 75.3001852,10.0111 75.3012862,11 C75.3001852,11.9889 75.6379185,12.8392 76.3078667,13.5234 L76.3111778,13.5267 L76.3078667,13.5234 C76.9767111,14.212 77.8210444,14.5585 78.8143778,14.5574026 C79.8077111,14.5585 80.6531481,14.212 81.3219926,13.5234 L81.2425259,13.4475 L81.2425259,13.4475 Z" id="Fill-17" fill="#FFFFFF"></path>
                <polyline id="Fill-18" fill="#FFFFFF" points="83.4124074 14.3 83.4124074 7.7 84.4487852 7.7 87.6671852 12.8337 87.7036074 12.8337 87.6671852 11.5621 87.6671852 7.7 88.5181407 7.7 88.5181407 14.3 87.6296593 14.3 84.263363 8.9166 84.225837 8.9166 84.263363 10.1893 84.263363 14.3 83.4124074 14.3"></polyline>
                <polyline id="Fill-19" fill="#FFFFFF" points="83.4124074 14.3 83.5227778 14.3 83.5227778 7.81 84.3869778 7.81 87.6053778 12.9448 87.8172889 12.9448 87.7775556 11.561 87.7775556 7.81 88.4077704 7.81 88.4077704 14.19 87.6914667 14.19 84.3240667 8.8066 84.1132593 8.8066 84.1529926 10.1904 84.1529926 14.19 83.4124074 14.19 83.4124074 14.3 83.5227778 14.3 83.4124074 14.3 83.4124074 14.41 84.3737333 14.41 84.3737333 10.1871 84.3362074 8.9144 84.225837 8.9166 84.225837 9.0266 84.263363 9.0266 84.263363 8.9166 84.1695481 8.9749 87.5689556 14.41 88.6285111 14.41 88.6285111 7.59 87.5568148 7.59 87.5568148 11.5643 87.593237 12.837 87.7036074 12.8337 87.7036074 12.7248 87.6671852 12.7248 87.6671852 12.8337 87.761 12.7765 84.5094889 7.59 83.302037 7.59 83.302037 14.41 83.4124074 14.41 83.4124074 14.3"></polyline>
                <path d="M118.025659,33 L120.08517,33 L120.08517,19.2489 L118.025659,19.2489 L118.025659,33 Z M136.575607,24.2022 L134.214785,30.1642 L134.144148,30.1642 L131.693926,24.2022 L129.475481,24.2022 L133.149711,32.5347 L131.054881,37.1701 L133.203793,37.1701 L138.865793,24.2022 L136.575607,24.2022 Z M124.896215,31.438 C124.220748,31.438 123.280393,31.1025 123.280393,30.2709 C123.280393,29.2094 124.452526,28.8024 125.463519,28.8024 C126.369659,28.8024 126.794585,28.9971 127.345333,29.2622 C127.185296,30.536 126.084904,31.438 124.896215,31.438 Z M125.144548,23.9019 C123.653444,23.9019 122.109363,24.5564 121.470319,26.0073 L123.298052,26.7674 C123.688763,26.0073 124.416104,25.7587 125.179867,25.7587 C126.244941,25.7587 127.327674,26.3956 127.345333,27.5286 L127.345333,27.6694 C126.972281,27.4571 126.174304,27.1392 125.197526,27.1392 C123.227415,27.1392 121.220881,28.2183 121.220881,30.2346 C121.220881,32.0749 122.836704,33.2607 124.646778,33.2607 C126.031926,33.2607 126.794585,32.6414 127.274696,31.9154 L127.345333,31.9154 L127.345333,32.9769 L129.333104,32.9769 L129.333104,27.7057 C129.333104,25.2637 127.50537,23.9019 125.144548,23.9019 Z M112.416637,25.8764 L109.487407,25.8764 L109.487407,21.1629 L112.416637,21.1629 C113.956304,21.1629 114.830437,22.4334 114.830437,23.5191 C114.830437,24.585 113.956304,25.8764 112.416637,25.8764 Z M112.363659,19.2489 L107.429,19.2489 L107.429,33 L109.487407,33 L109.487407,27.7904 L112.363659,27.7904 C114.646119,27.7904 116.889948,26.1426 116.889948,23.5191 C116.889948,20.8956 114.646119,19.2489 112.363659,19.2489 Z M85.4542593,31.4402 C84.0315852,31.4402 82.8406889,30.2533 82.8406889,28.6231 C82.8406889,26.9753 84.0315852,25.7697 85.4542593,25.7697 C86.8592741,25.7697 87.9607704,26.9753 87.9607704,28.6231 C87.9607704,30.2533 86.8592741,31.4402 85.4542593,31.4402 Z M87.8183926,24.9722 L87.7477556,24.9722 C87.2853037,24.4233 86.3968222,23.9272 85.276563,23.9272 C82.9289852,23.9272 80.7778667,25.982 80.7778667,28.6231 C80.7778667,31.2455 82.9289852,33.2838 85.276563,33.2838 C86.3968222,33.2838 87.2853037,32.7877 87.7477556,32.2201 L87.8183926,32.2201 L87.8183926,32.8933 C87.8183926,34.6841 86.8592741,35.6411 85.3118815,35.6411 C84.0492444,35.6411 83.2667185,34.7369 82.9466444,33.9746 L81.1509185,34.7193 C81.6663481,35.9601 83.0360444,37.4836 85.3118815,37.4836 C87.7300963,37.4836 89.7752593,36.0657 89.7752593,32.6106 L89.7752593,24.2099 L87.8183926,24.2099 L87.8183926,24.9722 Z M91.1979333,33 L93.2607556,33 L93.2607556,19.2478 L91.1979333,19.2478 L91.1979333,33 Z M96.3003556,28.4636 C96.2473778,26.6563 97.7053704,25.7345 98.7538889,25.7345 C99.572837,25.7345 100.265963,26.1415 100.496637,26.7267 L96.3003556,28.4636 Z M102.701837,26.9038 C102.311126,25.8588 101.119126,23.9272 98.6832519,23.9272 C96.265037,23.9272 94.2562963,25.8225 94.2562963,28.6055 C94.2562963,31.2279 96.2473778,33.2838 98.9139259,33.2838 C101.066148,33.2838 102.311126,31.9726 102.826556,31.2103 L101.226185,30.1466 C100.693096,30.9265 99.9635481,31.4402 98.9139259,31.4402 C97.8654074,31.4402 97.1182,30.9617 96.6380889,30.0234 L102.914852,27.4362 L102.701837,26.9038 Z M52.6952296,25.3627 L52.6952296,27.3471 L57.4599185,27.3471 C57.3175407,28.4636 56.9444889,29.2787 56.3760815,29.8463 C55.6818519,30.5371 54.5969111,31.2983 52.6952296,31.2983 C49.7615852,31.2983 47.4669852,28.9421 47.4669852,26.0183 C47.4669852,23.0934 49.7615852,20.7372 52.6952296,20.7372 C54.2779407,20.7372 55.4335185,21.3576 56.2866815,22.1551 L57.6916963,20.7548 C56.4996963,19.6207 54.9180889,18.7517 52.6952296,18.7517 C48.6766444,18.7517 45.2982074,22.0132 45.2982074,26.0183 C45.2982074,30.0234 48.6766444,33.2838 52.6952296,33.2838 C54.8640074,33.2838 56.4996963,32.5754 57.7799926,31.2455 C59.0956074,29.9343 59.5050815,28.0918 59.5050815,26.6024 C59.5050815,26.1415 59.469763,25.7169 59.3980222,25.3627 L52.6952296,25.3627 Z M64.923163,31.4402 C63.5004889,31.4402 62.2731704,30.2709 62.2731704,28.6055 C62.2731704,26.9214 63.5004889,25.7697 64.923163,25.7697 C66.3447333,25.7697 67.5720519,26.9214 67.5720519,28.6055 C67.5720519,30.2709 66.3447333,31.4402 64.923163,31.4402 Z M64.923163,23.9272 C62.3261481,23.9272 60.2103481,25.894 60.2103481,28.6055 C60.2103481,31.2983 62.3261481,33.2838 64.923163,33.2838 C67.5190741,33.2838 69.6348741,31.2983 69.6348741,28.6055 C69.6348741,25.894 67.5190741,23.9272 64.923163,23.9272 Z M75.2019556,31.4402 C73.7792815,31.4402 72.551963,30.2709 72.551963,28.6055 C72.551963,26.9214 73.7792815,25.7697 75.2019556,25.7697 C76.6246296,25.7697 77.8508444,26.9214 77.8508444,28.6055 C77.8508444,30.2709 76.6246296,31.4402 75.2019556,31.4402 Z M75.2019556,23.9272 C72.6060444,23.9272 70.4902444,25.894 70.4902444,28.6055 C70.4902444,31.2983 72.6060444,33.2838 75.2019556,33.2838 C77.7978667,33.2838 79.9136667,31.2983 79.9136667,28.6055 C79.9136667,25.894 77.7978667,23.9272 75.2019556,23.9272 L75.2019556,23.9272 Z" id="Fill-20" fill="#FFFFFF"></path>
                <g id="Group" stroke-width="1" transform="translate(11.007237, 7.855100)">
                    <path d="M0.592688889,27.7739 L0.509911111,27.6947 C0.189837037,27.3559 -9.80285811e-15,26.8312 -9.80285811e-15,26.1492 L-9.80285811e-15,26.3098 L-9.80285811e-15,1.9822 C-9.80285811e-15,1.98 -9.80285811e-15,1.9789 -9.80285811e-15,1.9767 C-9.80285811e-15,1.9789 -9.80285811e-15,1.9811 -9.80285811e-15,1.9822 L-9.80285811e-15,2.1439 C-9.80285811e-15,1.4058 0.220740741,0.8503 0.591585185,0.517 L14.2653704,14.146 L0.592688889,27.7739 M-9.69183581e-15,1.9756 C-9.69183581e-15,1.9151 0.0011037037,1.8557 0.00441481481,1.7974 C0.0011037037,1.8557 -9.69183581e-15,1.9151 -9.69183581e-15,1.9756" id="Clip-22" fill="url(#linearGradient-1)"></path>
                    <path d="M18.8236667,18.8507 L18.8236667,18.8507 L18.9274148,18.7924 L24.327837,15.7344 C24.842163,15.4429 25.1854148,15.0887 25.3564889,14.7147 C25.1854148,15.0887 24.8432667,15.4429 24.327837,15.7344 L18.9274148,18.7924 L18.8236667,18.8507 M18.8247704,18.6901 L14.2653704,14.146 L18.8247704,9.6019 L24.327837,12.7182 C25.0264815,13.1142 25.4194,13.6246 25.4845185,14.1449 C25.4845185,14.146 25.4845185,14.146 25.4845185,14.1471 C25.4194,14.6674 25.0264815,15.1778 24.327837,15.5738 L18.8247704,18.6901" id="Clip-25" fill="url(#linearGradient-2)"></path>
                    <path d="M1.56725926,28.292 C1.18537778,28.292 0.852059259,28.1688 0.591585185,27.9345 L0.592688889,27.9345 C0.852059259,28.1677 1.18648148,28.292 1.56836296,28.292 C1.60147407,28.292 1.63458519,28.292 1.6688,28.2898 C1.63458519,28.292 1.60037037,28.292 1.56725926,28.292 M1.56725926,28.1314 C1.18537778,28.1314 0.852059259,28.0071 0.592688889,27.7739 L14.2653704,14.146 L18.8247704,18.6901 L2.80451111,27.7618 C2.36082222,28.0126 1.94141481,28.1314 1.56725926,28.1314" id="Fill-27" fill="url(#linearGradient-3)"></path>
                    <path d="M14.2653704,14.146 L14.2653704,14.146 L0.591585185,0.517 C0.850955556,0.2838 1.18427407,0.1606 1.56615556,0.1606 C1.93920741,0.1606 2.35971852,0.2794 2.80451111,0.5302 L18.8247704,9.6019 L14.2653704,14.146 M18.9274148,9.4996 L2.80451111,0.3696 C2.36082222,0.1188 1.93920741,6.83897383e-15 1.56615556,6.83897383e-15 C1.56394815,6.83897383e-15 1.56284444,6.83897383e-15 1.56063704,6.83897383e-15 C1.56284444,6.83897383e-15 1.56505185,6.83897383e-15 1.56725926,6.83897383e-15 C1.94031111,6.83897383e-15 2.36082222,0.1177 2.80451111,0.3696 L18.9274148,9.4996" id="Clip-31" fill="url(#linearGradient-4)"></path>
                </g>
            </g>
        </g>
    </g>
</svg>