<?xml version="1.0" encoding="UTF-8"?>
<svg width="217px" height="64px" viewBox="0 0 217 64" version="1.1" xmlns="http://www.w3.org/2000/svg" xmlns:xlink="http://www.w3.org/1999/xlink">
    <!-- Generator: Sketch 61.2 (89653) - https://sketch.com -->
    <title>google_play_bage</title>
    <desc>Created with Sketch.</desc>
    <defs>
        <linearGradient x1="50%" y1="0%" x2="50%" y2="100%" id="linearGradient-1">
            <stop stop-color="#00C3FF" offset="0%"></stop>
            <stop stop-color="#00E3FF" offset="100%"></stop>
        </linearGradient>
        <linearGradient x1="50%" y1="0%" x2="50%" y2="100%" id="linearGradient-2">
            <stop stop-color="#FFC800" offset="0%"></stop>
            <stop stop-color="#FFC900" offset="100%"></stop>
        </linearGradient>
        <linearGradient x1="86.7245433%" y1="30.6461993%" x2="-50.4810997%" y2="137.168631%" id="linearGradient-3">
            <stop stop-color="#FF3944" offset="0%"></stop>
            <stop stop-color="#C31161" offset="100%"></stop>
        </linearGradient>
        <linearGradient x1="50%" y1="0%" x2="50%" y2="100%" id="linearGradient-4">
            <stop stop-color="#11D574" offset="0%"></stop>
            <stop stop-color="#00F076" offset="100%"></stop>
        </linearGradient>
    </defs>
    <g id="Home" stroke="none" stroke-width="1" fill="none" fill-rule="evenodd">
        <g id="Desktop" transform="translate(-404.000000, -1059.000000)">
            <g id="Store-buttons" transform="translate(0.000000, 751.000000)">
                <g id="buttons" transform="translate(172.000000, 308.000000)">
                    <g id="google_play_bage" transform="translate(232.000000, 0.000000)">
                        <path d="M13.8814587,0.00198622633 L202.321173,5.80070572e-16 C207.330488,5.80070572e-16 209.146986,0.519823422 210.978317,1.49594314 C212.809647,2.47206286 214.246886,3.90447887 215.226293,5.72966406 L215.429135,6.12171396 C216.277548,7.82971345 216.727273,9.72185967 216.727273,14.3577571 L216.727273,49.6422429 L216.719313,50.6645248 C216.650426,54.8934522 216.135741,56.5755211 215.226293,58.2703359 C214.246886,60.0955211 212.809647,61.5279371 210.978317,62.5040569 L210.584947,62.7062181 C208.871197,63.5517849 206.97268,64 202.321173,64 L14.4060997,64 L13.3803758,63.9920667 C9.13720954,63.9234115 7.44947712,63.4104537 5.74895586,62.5040569 C3.91762527,61.5279371 2.4803863,60.0955211 1.50097999,58.2703359 L1.29813808,57.878286 C0.449724236,56.1702866 -3.88015781e-16,54.2781403 -3.88015781e-16,49.6422429 L-3.88015781e-16,14.3577571 C-3.88015781e-16,9.36525218 0.52157367,7.55484925 1.50097999,5.72966406 C2.4803863,3.90447887 3.91762527,2.47206286 5.74895586,1.49594314 L6.14232579,1.29378191 C7.79016265,0.480736894 9.60882675,0.0350658825 13.8814587,0.00198622633 Z" id="Rectangle" fill="#000000"></path>
                        <path d="M76.1258559,16.3888 C76.1258559,17.7296 75.7261145,18.7984 74.928237,19.5936 C74.0227987,20.5408 72.8428391,21.0144 71.3899636,21.0144 C69.9996983,21.0144 68.8181333,20.5344 67.8452687,19.5728 C66.872404,18.6128 66.3859717,17.4208 66.3859717,16 C66.3859717,14.5776 66.872404,13.3872 67.8452687,12.4272 C68.8181333,11.4656 69.9996983,10.9856 71.3899636,10.9856 C72.0802801,10.9856 72.7400943,11.12 73.3678007,11.3872 C73.9939017,11.656 74.4979933,12.0128 74.8736539,12.4608 L74.0276148,13.304 C73.3886707,12.5456 72.5121293,12.1664 71.3899636,12.1664 C70.3753589,12.1664 69.5004229,12.52 68.7603394,13.232 C68.0202559,13.9424 67.6494114,14.8656 67.6494114,16 C67.6494114,17.1344 68.0202559,18.0576 68.7603394,18.768 C69.5004229,19.48 70.3753589,19.8336 71.3899636,19.8336 C72.4655731,19.8336 73.3629845,19.4768 74.0805926,18.7632 C74.5461549,18.2976 74.8158599,17.6496 74.8881024,16.8176 L71.3899636,16.8176 L71.3899636,15.6656 L76.0584296,15.6656 C76.1033805,15.9152 76.1258559,16.1568 76.1258559,16.3888" id="Fill-6" fill="#FFFFFF"></path>
                        <path d="M76.1258559,16.3888 L75.9653172,16.3888 C75.9637118,17.6992 75.5800242,18.7168 74.8158599,19.48 L74.8142545,19.4816 L74.8126492,19.4832 C73.9361077,20.3968 72.8075205,20.8528 71.3899636,20.8544 C70.0366222,20.8528 68.9048242,20.392 67.9592512,19.4592 C67.0152835,18.5264 66.5481158,17.3856 66.5465104,16 C66.5481158,14.6144 67.0152835,13.4736 67.9592512,12.5408 C68.9048242,11.608 70.0366222,11.1472 71.3899636,11.1456 C72.0594101,11.1456 72.6967488,11.2752 73.3035852,11.5344 C73.9120269,11.7952 74.3936431,12.1376 74.7516444,12.5632 L74.8736539,12.4608 L74.7596714,12.3472 L73.9136323,13.192 L74.0276148,13.304 L74.1496242,13.2016 C73.4833886,12.4048 72.5458424,12.0032 71.3899636,12.0064 C70.338435,12.0048 69.413732,12.3792 68.6479623,13.1168 C67.875771,13.856 67.4872673,14.8304 67.4888727,16 C67.4872673,17.1696 67.875771,18.144 68.6479623,18.8832 C69.413732,19.6208 70.338435,19.9952 71.3899636,19.9952 C72.5008916,19.9968 73.44807,19.6208 74.1945751,18.8752 C74.6922451,18.3776 74.9747933,17.6896 75.0486411,16.832 L75.0630896,16.6576 L71.5505024,16.6576 L71.5505024,15.824 L76.0584296,15.824 L76.0584296,15.6656 L75.8994963,15.6928 C75.9428418,15.936 75.9653172,16.1664 75.9653172,16.3888 L76.2863946,16.3888 C76.2863946,16.1456 76.2623138,15.896 76.2157576,15.6368 L76.1916768,15.5056 L71.2294249,15.5056 L71.2294249,16.9776 L74.8881024,16.9776 L74.8881024,16.8176 L74.7275636,16.8048 C74.6569266,17.6096 74.4000646,18.216 73.9666101,18.6496 C73.2762936,19.3344 72.4302545,19.6736 71.3899636,19.6752 C70.4138882,19.6736 69.5855084,19.3376 68.8711111,18.6544 C68.1631354,17.9712 67.8115556,17.1008 67.8099502,16 C67.8115556,14.8992 68.1631354,14.0288 68.8711111,13.3456 C69.5855084,12.6624 70.4138882,12.3264 71.3899636,12.3264 C72.4768108,12.328 73.2955582,12.6864 73.904,13.408 L74.0163771,13.5408 L74.9876364,12.5728 L75.0919865,12.4704 L74.9972687,12.3568 C74.6023434,11.888 74.0757764,11.5168 73.4304108,11.24 C72.7834397,10.9648 72.1011502,10.8255962 71.3899636,10.8255962 C69.9627744,10.824 68.7314424,11.3232 67.7328916,12.3136 C66.7295246,13.3008 66.2238276,14.5424 66.2254292,16 C66.2238276,17.4576 66.7295246,18.6992 67.7328916,19.688 C68.7314424,20.6768 69.9627744,21.176 71.3899636,21.1744039 C72.8765522,21.176 74.1094896,20.6832 75.0454303,19.704 L74.928237,19.5936 L75.0422195,19.7072 C75.8738101,18.8784 76.2863946,17.76 76.2863946,16.3888 L76.1258559,16.3888" id="Fill-7" fill="#FFFFFF"></path>
                        <polyline id="Fill-8" fill="#FFFFFF" points="83.5250855 12.3792 79.1375623 12.3792 79.1375623 15.424 83.0932364 15.424 83.0932364 16.576 79.1375623 16.576 79.1375623 19.6208 83.5250855 19.6208 83.5250855 20.8 77.9014141 20.8 77.9014141 11.2 83.5250855 11.2 83.5250855 12.3792"></polyline>
                        <polyline id="Fill-9" fill="#FFFFFF" points="83.5250855 12.3792 83.5250855 12.2192 78.9770236 12.2192 78.9770236 15.584 82.9326976 15.584 82.9326976 16.416 78.9770236 16.416 78.9770236 19.7808 83.3645468 19.7808 83.3645468 20.64 78.0619529 20.64 78.0619529 11.36 83.3645468 11.36 83.3645468 12.3792 83.5250855 12.3792 83.5250855 12.2192 83.5250855 12.3792 83.6856242 12.3792 83.6856242 11.04 77.7408754 11.04 77.7408754 20.96 83.6856242 20.96 83.6856242 19.4608 79.298101 19.4608 79.298101 16.736 83.2537751 16.736 83.2537751 15.264 79.298101 15.264 79.298101 12.5392 83.6856242 12.5392 83.6856242 12.3792 83.5250855 12.3792"></polyline>
                        <polyline id="Fill-10" fill="#FFFFFF" points="88.7441993 20.8 87.5048404 20.8 87.5048404 12.3792 84.8158168 12.3792 84.8158168 11.2 91.4348283 11.2 91.4348283 12.3792 88.7441993 12.3792 88.7441993 20.8"></polyline>
                        <polyline id="Fill-11" fill="#FFFFFF" points="88.7441993 20.8 88.7441993 20.64 87.6653791 20.64 87.6653791 12.2192 84.9747502 12.2192 84.9747502 11.36 91.2742896 11.36 91.2742896 12.2192 88.5836606 12.2192 88.5836606 20.8 88.7441993 20.8 88.7441993 20.64 88.7441993 20.8 88.904738 20.8 88.904738 12.5392 91.595367 12.5392 91.595367 11.04 84.6536727 11.04 84.6536727 12.5392 87.3443017 12.5392 87.3443017 20.96 88.904738 20.96 88.904738 20.8 88.7441993 20.8"></polyline>
                        <polygon id="Fill-12" fill="#FFFFFF" points="96.2236983 20.8 97.4614519 20.8 97.4614519 11.2 96.2236983 11.2"></polygon>
                        <polyline id="Fill-13" fill="#FFFFFF" points="96.2236983 20.8 96.384237 20.8 96.384237 11.36 97.2993077 11.36 97.2993077 20.64 96.2236983 20.64 96.2236983 20.8 96.384237 20.8 96.2236983 20.8 96.2236983 20.96 97.6219906 20.96 97.6219906 11.04 96.0631596 11.04 96.0631596 20.96 96.2236983 20.96 96.2236983 20.8"></polyline>
                        <polyline id="Fill-14" fill="#FFFFFF" points="102.950271 20.8 101.712517 20.8 101.712517 12.3792 99.0218882 12.3792 99.0218882 11.2 105.6409 11.2 105.6409 12.3792 102.950271 12.3792 102.950271 20.8"></polyline>
                        <polyline id="Fill-15" fill="#FFFFFF" points="102.950271 20.8 102.950271 20.64 101.873056 20.64 101.873056 12.2192 99.1824269 12.2192 99.1824269 11.36 105.480361 11.36 105.480361 12.2192 102.789732 12.2192 102.789732 20.8 102.950271 20.8 102.950271 20.64 102.950271 20.8 103.110809 20.8 103.110809 12.5392 105.801438 12.5392 105.801438 11.04 98.8613495 11.04 98.8613495 12.5392 101.551978 12.5392 101.551978 20.96 103.110809 20.96 103.110809 20.8 102.950271 20.8"></polyline>
                        <path d="M112.022314,18.7552 C112.736711,19.4752 113.608436,19.8336 114.639095,19.8336 C115.671359,19.8336 116.54469,19.4752 117.255876,18.7552 C117.968668,18.0352 118.326669,17.1168 118.326669,16 C118.326669,14.8832 117.968668,13.9648 117.255876,13.2448 C116.54469,12.5248 115.671359,12.1664 114.639095,12.1664 C113.608436,12.1664 112.736711,12.5248 112.022314,13.2448 C111.311127,13.9648 110.953126,14.8832 110.953126,16 C110.953126,17.1168 111.311127,18.0352 112.022314,18.7552 Z M118.170947,19.56 C117.225374,20.5296 116.04702,21.0144 114.639095,21.0144 C113.23117,21.0144 112.054422,20.5296 111.108848,19.56 C110.16167,18.5904 109.689686,17.4032 109.689686,16 C109.689686,14.5968 110.16167,13.4096 111.108848,12.44 C112.054422,11.4704 113.23117,10.9856 114.639095,10.9856 C116.038993,10.9856 117.214136,11.472 118.164525,12.4464 C119.114914,13.4208 119.590109,14.6048 119.590109,16 C119.590109,17.4032 119.11652,18.5904 118.170947,19.56 L118.170947,19.56 Z" id="Fill-16" fill="#FFFFFF"></path>
                        <path d="M112.022314,18.7552 L111.908331,18.8672 C112.648415,19.616 113.569907,19.9968 114.639095,19.995205 C115.708283,19.9968 116.63138,19.616 117.369859,18.8672 C118.114758,18.12 118.488813,17.1504 118.487213,16 C118.488813,14.8496 118.114758,13.8816 117.369859,13.1328 C116.63138,12.384 115.708283,12.0048 114.639095,12.006395 C113.569907,12.0048 112.648415,12.384 111.908331,13.1328 C111.166642,13.8816 110.790982,14.8496 110.792582,16 C110.790982,17.1504 111.166642,18.12 111.908331,18.8672 L112.137902,18.6432 C111.455612,17.9536 111.11527,17.0832 111.113665,16 C111.11527,14.9168 111.455612,14.0464 112.137902,13.3568 L112.136296,13.3568 C112.825007,12.6656 113.64536,12.328 114.639095,12.3264 C115.634435,12.328 116.456393,12.6656 117.141894,13.3568 C117.824183,14.048 118.164525,14.9168 118.166131,16 C118.164525,17.0832 117.824183,17.952 117.141894,18.6432 C116.456393,19.3344 115.634435,19.6736 114.639095,19.6752 C113.64536,19.672 112.825007,19.3344 112.136296,18.6432 L112.022314,18.7552 Z M118.170947,19.56 L118.056964,19.448 C117.137077,20.3888 116.010096,20.8528 114.639095,20.8544 C113.268094,20.8528 112.142718,20.3888 111.224436,19.448 L111.21962,19.4432 L111.224436,19.448 C110.306155,18.5056 109.85183,17.368 109.850225,16 C109.85183,14.632 110.306155,13.4944 111.224436,12.552 C112.142718,11.6112 113.268094,11.1472 114.639095,11.1456 C116.002069,11.1472 117.124234,11.6144 118.050543,12.5584 C118.972035,13.5056 119.427965,14.6416 119.42957,16 C119.427965,17.368 118.97364,18.5056 118.056964,19.448 L118.286535,19.6704 C119.261005,18.6752 119.752253,17.4384 119.750652,16 C119.752253,14.5696 119.257794,13.336 118.280113,12.336 C117.302432,11.3312 116.075916,10.824 114.639095,10.8255962 C113.194246,10.824 111.966125,11.3296 110.993261,12.3296 C110.018791,13.3264 109.527542,14.5616 109.529144,16 C109.527542,17.4384 110.018791,18.6752 110.993261,19.6704 L110.998077,19.6752 L110.993261,19.6704 C111.966125,20.672 113.194246,21.176 114.639095,21.1744038 C116.083943,21.176 117.31367,20.672 118.286535,19.6704 L118.170947,19.56 L118.170947,19.56 Z" id="Fill-17" fill="#FFFFFF"></path>
                        <polyline id="Fill-18" fill="#FFFFFF" points="121.327138 20.8 121.327138 11.2 122.834597 11.2 127.515906 18.6672 127.568884 18.6672 127.515906 16.8176 127.515906 11.2 128.753659 11.2 128.753659 20.8 127.461323 20.8 122.564892 12.9696 122.510308 12.9696 122.564892 14.8208 122.564892 20.8 121.327138 20.8"></polyline>
                        <polyline id="Fill-19" fill="#FFFFFF" points="121.327138 20.8 121.487677 20.8 121.487677 11.36 122.744695 11.36 127.426004 18.8288 127.734238 18.8288 127.676444 16.816 127.676444 11.36 128.593121 11.36 128.593121 20.64 127.551224 20.64 122.653188 12.8096 122.346559 12.8096 122.404353 14.8224 122.404353 20.64 121.327138 20.64 121.327138 20.8 121.487677 20.8 121.327138 20.8 121.327138 20.96 122.72543 20.96 122.72543 14.8176 122.670847 12.9664 122.510308 12.9696 122.510308 13.1296 122.564892 13.1296 122.564892 12.9696 122.428434 13.0544 127.373026 20.96 128.914198 20.96 128.914198 11.04 127.355367 11.04 127.355367 16.8208 127.408345 18.672 127.568884 18.6672 127.568884 18.5088 127.515906 18.5088 127.515906 18.6672 127.652364 18.584 122.922893 11.04 121.166599 11.04 121.166599 20.96 121.327138 20.96 121.327138 20.8"></polyline>
                        <path d="M171.673686,48 L174.669339,48 L174.669339,27.9984 L171.673686,27.9984 L171.673686,48 Z M198.655429,35.2032 L195.221506,43.8752 L195.118761,43.8752 L191.554801,35.2032 L188.327973,35.2032 L193.672307,47.3232 L190.625282,54.0656 L193.750971,54.0656 L201.986607,35.2032 L198.655429,35.2032 Z M181.667222,45.728 C180.684725,45.728 179.316935,45.24 179.316935,44.0304 C179.316935,42.4864 181.021856,41.8944 182.492391,41.8944 C183.810413,41.8944 184.428488,42.1776 185.229576,42.5632 C184.996795,44.416 183.396224,45.728 181.667222,45.728 Z M182.028434,34.7664 C179.859556,34.7664 177.613619,35.7184 176.6841,37.8288 L179.342621,38.9344 C179.910928,37.8288 180.968878,37.4672 182.079806,37.4672 C183.629005,37.4672 185.20389,38.3936 185.229576,40.0416 L185.229576,40.2464 C184.686955,39.9376 183.52626,39.4752 182.105492,39.4752 C179.239876,39.4752 176.321282,41.0448 176.321282,43.9776 C176.321282,46.6544 178.671569,48.3792 181.304404,48.3792 C183.319165,48.3792 184.428488,47.4784 185.126831,46.4224 L185.229576,46.4224 L185.229576,47.9664 L188.120878,47.9664 L188.120878,40.2992 C188.120878,36.7472 185.462357,34.7664 182.028434,34.7664 Z M163.515108,37.6384 L159.254411,37.6384 L159.254411,30.7824 L163.515108,30.7824 C165.754624,30.7824 167.02609,32.6304 167.02609,34.2096 C167.02609,35.76 165.754624,37.6384 163.515108,37.6384 Z M163.43805,27.9984 L156.260364,27.9984 L156.260364,48 L159.254411,48 L159.254411,40.4224 L163.43805,40.4224 C166.757991,40.4224 170.021743,38.0256 170.021743,34.2096 C170.021743,30.3936 166.757991,27.9984 163.43805,27.9984 Z M124.297104,45.7312 C122.22776,45.7312 120.495547,44.0048 120.495547,41.6336 C120.495547,39.2368 122.22776,37.4832 124.297104,37.4832 C126.340762,37.4832 127.942939,39.2368 127.942939,41.6336 C127.942939,44.0048 126.340762,45.7312 124.297104,45.7312 Z M127.735844,36.3232 L127.633099,36.3232 C126.960442,35.5248 125.668105,34.8032 124.038637,34.8032 C120.623978,34.8032 117.495079,37.792 117.495079,41.6336 C117.495079,45.448 120.623978,48.4128 124.038637,48.4128 C125.668105,48.4128 126.960442,47.6912 127.633099,46.8656 L127.735844,46.8656 L127.735844,47.8448 C127.735844,50.4496 126.340762,51.8416 124.090009,51.8416 C122.253446,51.8416 121.115227,50.5264 120.649665,49.4176 L118.0377,50.5008 C118.787415,52.3056 120.779701,54.5216 124.090009,54.5216 C127.607413,54.5216 130.582195,52.4592 130.582195,47.4336 L130.582195,35.2144 L127.735844,35.2144 L127.735844,36.3232 Z M132.651539,48 L135.652008,48 L135.652008,27.9968 L132.651539,27.9968 L132.651539,48 Z M140.073244,41.4016 C139.996186,38.7728 142.116902,37.432 143.64202,37.432 C144.833218,37.432 145.841401,38.024 146.176927,38.8752 L140.073244,41.4016 Z M149.38449,39.1328 C148.816183,37.6128 147.082365,34.8032 143.539275,34.8032 C140.021872,34.8032 137.100067,37.56 137.100067,41.608 C137.100067,45.4224 139.996186,48.4128 143.874801,48.4128 C147.005306,48.4128 148.816183,46.5056 149.565899,45.3968 L147.238088,43.8496 C146.462686,44.984 145.401525,45.7312 143.874801,45.7312 C142.349684,45.7312 141.262836,45.0352 140.564493,43.6704 L149.69433,39.9072 L149.38449,39.1328 Z M76.6476067,36.8912 L76.6476067,39.7776 L83.5780633,39.7776 C83.3709684,41.4016 82.8283475,42.5872 82.0015731,43.4128 C80.9917845,44.4176 79.4136889,45.5248 76.6476067,45.5248 C72.3804875,45.5248 69.0428875,42.0976 69.0428875,37.8448 C69.0428875,33.5904 72.3804875,30.1632 76.6476067,30.1632 C78.949732,30.1632 80.6305724,31.0656 81.8715367,32.2256 L83.9151946,30.1888 C82.1813764,28.5392 79.8808566,27.2752 76.6476067,27.2752 C70.8023919,27.2752 65.8883017,32.0192 65.8883017,37.8448 C65.8883017,43.6704 70.8023919,48.4128 76.6476067,48.4128 C79.8021926,48.4128 82.1813764,47.3824 84.0436256,45.448 C85.9572471,43.5408 86.5528458,40.8608 86.5528458,38.6944 C86.5528458,38.024 86.5014734,37.4064 86.3971232,36.8912 L76.6476067,36.8912 Z M94.4336916,45.7312 C92.3643475,45.7312 90.5791569,44.0304 90.5791569,41.608 C90.5791569,39.1584 92.3643475,37.4832 94.4336916,37.4832 C96.5014303,37.4832 98.2866209,39.1584 98.2866209,41.608 C98.2866209,44.0304 96.5014303,45.7312 94.4336916,45.7312 Z M94.4336916,34.8032 C90.6562155,34.8032 87.5786882,37.664 87.5786882,41.608 C87.5786882,45.5248 90.6562155,48.4128 94.4336916,48.4128 C98.2095623,48.4128 101.28709,45.5248 101.28709,41.608 C101.28709,37.664 98.2095623,34.8032 94.4336916,34.8032 Z M109.384663,45.7312 C107.315319,45.7312 105.530128,44.0304 105.530128,41.608 C105.530128,39.1584 107.315319,37.4832 109.384663,37.4832 C111.454007,37.4832 113.237592,39.1584 113.237592,41.608 C113.237592,44.0304 111.454007,45.7312 109.384663,45.7312 Z M109.384663,34.8032 C105.608792,34.8032 102.531265,37.664 102.531265,41.608 C102.531265,45.5248 105.608792,48.4128 109.384663,48.4128 C113.160533,48.4128 116.238061,45.5248 116.238061,41.608 C116.238061,37.664 113.160533,34.8032 109.384663,34.8032 L109.384663,34.8032 Z" id="Fill-20" fill="#FFFFFF"></path>
                        <g id="Group" stroke-width="1" transform="translate(16.010527, 11.425600)">
                            <path d="M0.862092929,40.3984 L0.741688889,40.2832 C0.276126599,39.7904 -1.42587027e-14,39.0272 -1.42587027e-14,38.0352 L-1.42587027e-14,38.2688 L-1.42587027e-14,2.8832 C-1.42587027e-14,2.88 -1.42587027e-14,2.8784 -1.42587027e-14,2.8752 C-1.42587027e-14,2.8784 -1.42587027e-14,2.8816 -1.42587027e-14,2.8832 L-1.42587027e-14,3.1184 C-1.42587027e-14,2.0448 0.321077441,1.2368 0.860487542,0.752 L20.7496296,20.576 L0.862092929,40.3984 M-1.40366581e-14,2.8736 C-1.40366581e-14,2.7856 0.00160538721,2.6992 0.00642154882,2.6144 C0.00160538721,2.6992 -1.40366581e-14,2.7856 -1.40366581e-14,2.8736" id="Clip-22" fill="url(#linearGradient-1)"></path>
                            <path d="M27.3798788,27.4192 L27.3798788,27.4192 L27.5307852,27.3344 L35.3859448,22.8864 C36.1340552,22.4624 36.6333306,21.9472 36.8821657,21.4032 C36.6333306,21.9472 36.1356606,22.4624 35.3859448,22.8864 L27.5307852,27.3344 L27.3798788,27.4192 M27.3814842,27.1856 L20.7496296,20.576 L27.3814842,13.9664 L35.3859448,18.4992 C36.4021549,19.0752 36.9736727,19.8176 37.0683906,20.5744 C37.0683906,20.576 37.0683906,20.576 37.0683906,20.5776 C36.9736727,21.3344 36.4021549,22.0768 35.3859448,22.6528 L27.3814842,27.1856" id="Clip-25" fill="url(#linearGradient-2)"></path>
                            <path d="M2.27964983,41.152 C1.72418586,41.152 1.23935892,40.9728 0.860487542,40.632 L0.862092929,40.632 C1.23935892,40.9712 1.72579125,41.152 2.28125522,41.152 C2.32941684,41.152 2.37757845,41.152 2.42734545,41.1488 C2.37757845,41.152 2.32781145,41.152 2.27964983,41.152 M2.27964983,40.9184 C1.72418586,40.9184 1.23935892,40.7376 0.862092929,40.3984 L20.7496296,20.576 L27.3814842,27.1856 L4.07928889,40.3808 C3.43392323,40.7456 2.82387609,40.9184 2.27964983,40.9184" id="Fill-27" fill="url(#linearGradient-3)"></path>
                            <path d="M20.7496296,20.576 L20.7496296,20.576 L0.860487542,0.752 C1.23775354,0.4128 1.72258047,0.2336 2.27804444,0.2336 C2.82066532,0.2336 3.43231785,0.4064 4.07928889,0.7712 L27.3814842,13.9664 L20.7496296,20.576 M27.5307852,13.8176 L4.07928889,0.5376 C3.43392323,0.1728 2.82066532,9.9475983e-15 2.27804444,9.9475983e-15 C2.27483367,9.9475983e-15 2.27322828,9.9475983e-15 2.27001751,9.9475983e-15 C2.27322828,9.9475983e-15 2.27643906,9.9475983e-15 2.27964983,9.9475983e-15 C2.82227071,9.9475983e-15 3.43392323,0.1712 4.07928889,0.5376 L27.5307852,13.8176" id="Clip-31" fill="url(#linearGradient-4)"></path>
                        </g>
                    </g>
                </g>
            </g>
        </g>
    </g>
</svg>