<?xml version="1.0" encoding="UTF-8"?>
<svg width="30px" height="30px" viewBox="0 0 30 30" version="1.1" xmlns="http://www.w3.org/2000/svg" xmlns:xlink="http://www.w3.org/1999/xlink">
    <!-- Generator: Sketch 54.1 (76490) - https://sketchapp.com -->
    <title>instagram</title>
    <desc>Created with Sketch.</desc>
    <g id="Landing-page" stroke="none" stroke-width="1" fill="none" fill-rule="evenodd">
        <g id="Desktop" transform="translate(-633.000000, -1150.000000)" fill="#202124">
            <g id="social" transform="translate(522.000000, 1150.000000)">
                <path d="M126,0 C121.92495,0 121.4163,0.01875 119.81625,0.09 C118.21875,0.165 117.13125,0.41625 116.175,0.7875 C115.18875,1.17 114.3513,1.68375 113.51745,2.517495 C112.68375,3.351255 112.1688,4.187505 111.7875,5.175 C111.41625,6.13125 111.1638,7.21875 111.09,8.81625 C111.015,10.416255 111,10.924995 111,15 C111,19.07505 111.01875,19.5837 111.09,21.18375 C111.165,22.78005 111.41625,23.86875 111.7875,24.825 C112.17,25.81005 112.68375,26.6487 113.51745,27.48255 C114.3513,28.31505 115.18755,28.8312 116.175,29.2125 C117.13245,29.58255 118.21995,29.8362 119.81625,29.91 C121.4163,29.985 121.92495,30 126,30 C130.0755,30 130.584,29.98125 132.1845,29.91 C133.7805,29.835 134.8695,29.58255 135.825,29.2125 C136.8105,28.83 137.649,28.31505 138.483,27.48255 C139.3155,26.6487 139.8315,25.8138 140.2125,24.825 C140.583,23.86875 140.8365,22.78005 140.91,21.18375 C140.985,19.5837 141,19.07505 141,15 C141,10.924995 140.9805,10.416255 140.91,8.81625 C140.835,7.219995 140.583,6.130005 140.2125,5.175 C139.83,4.18875 139.3155,3.351255 138.483,2.517495 C137.649,1.68375 136.8135,1.168755 135.825,0.7875 C134.8695,0.41625 133.7805,0.163755 132.1845,0.09 C130.584,0.015 130.0755,0 126,0 Z M126,2.7 C130.0035,2.7 130.482,2.719995 132.063,2.788755 C133.5255,2.8575 134.319,3.100005 134.847,3.3075 C135.549,3.578745 136.047,3.90375 136.5735,4.427505 C137.097,4.952505 137.4225,5.451255 137.694,6.15375 C137.898,6.681255 138.144,7.474995 138.21,8.937495 C138.282,10.519995 138.297,10.995 138.297,15 C138.297,19.005 138.279,19.48125 138.2055,21.06255 C138.129,22.52505 137.8845,23.3187 137.679,23.84625 C137.3985,24.5487 137.0805,25.04625 136.5555,25.5738 C136.032,26.09745 135.525,26.4225 134.8305,26.6937 C134.3055,26.89875 133.4985,27.1437 132.036,27.21 C130.4445,27.28125 129.975,27.29745 125.9625,27.29745 C121.9488,27.29745 121.48005,27.2787 119.8887,27.20505 C118.425,27.1287 117.61875,26.88495 117.09375,26.6787 C116.38245,26.3988 115.89375,26.08005 115.36995,25.55505 C114.84375,25.03125 114.50745,24.525 114.24495,23.83005 C114.0387,23.30505 113.7963,22.4988 113.71995,21.0363 C113.6637,19.4613 113.64375,18.975 113.64375,14.98125 C113.64375,10.986255 113.6637,10.498755 113.71995,8.905005 C113.7963,7.442505 114.0387,6.6375 114.24495,6.1125 C114.50745,5.4 114.84375,4.9125 115.36995,4.386255 C115.89375,3.8625 116.38245,3.525 117.09375,3.263745 C117.61875,3.05625 118.40745,2.8125 119.86995,2.7375 C121.4637,2.68125 121.93245,2.6625 125.94375,2.6625 L126,2.7 Z M126,7.2975 C121.74375,7.2975 118.2975,10.7475 118.2975,15 C118.2975,19.25625 121.7475,22.7025 126,22.7025 C130.2555,22.7025 133.7025,19.2525 133.7025,15 C133.7025,10.74375 130.2525,7.2975 126,7.2975 Z M126,19.99995 C123.23745,19.99995 121.00005,17.76255 121.00005,15.000005 C121.00005,12.23745 123.23745,10.000005 126,10.000005 C128.763,10.000005 130.9995,12.23745 130.9995,15 C130.9995,17.76255 128.763,19.99995 126,19.99995 Z M135.807,6.99375 C135.807,7.9875 135,8.79375 134.007,8.79375 C133.014,8.79375 132.207,7.986255 132.207,6.99375 C132.207,6.001245 133.0155,5.194995 134.007,5.194995 C134.9985,5.19375 135.807,6.001245 135.807,6.99375 Z" id="instagram"></path>
            </g>
        </g>
    </g>
</svg>