<?xml version="1.0" encoding="UTF-8"?>
<svg width="30px" height="30px" viewBox="0 0 30 30" version="1.1" xmlns="http://www.w3.org/2000/svg" xmlns:xlink="http://www.w3.org/1999/xlink">
    <!-- Generator: Sketch 54.1 (76490) - https://sketchapp.com -->
    <title>linkedin</title>
    <desc>Created with Sketch.</desc>
    <g id="Landing-page" stroke="none" stroke-width="1" fill="none" fill-rule="evenodd">
        <g id="Desktop" transform="translate(-687.000000, -1150.000000)" fill="#202124">
            <g id="social" transform="translate(522.000000, 1150.000000)">
                <path d="M190.5585,25.56495 L186.1155,25.56495 L186.1155,18.60375 C186.1155,16.9437 186.0825,14.80755 183.801,14.80755 C181.485,14.80755 181.131,16.6137 181.131,18.4812 L181.131,25.56495 L176.6895,25.56495 L176.6895,11.25 L180.957,11.25 L180.957,13.2012 L181.014,13.2012 C181.6095,12.0762 183.06,10.888755 185.226,10.888755 C189.7275,10.888755 190.56,13.8513 190.56,17.7075 L190.56,25.56495 L190.5585,25.56495 Z M171.6705,9.291255 C170.241,9.291255 169.092,8.13375 169.092,6.709995 C169.092,5.2875 170.2425,4.131255 171.6705,4.131255 C173.097,4.131255 174.252,5.2875 174.252,6.709995 C174.252,8.13375 173.0955,9.291255 171.6705,9.291255 Z M173.898,25.56495 L169.4445,25.56495 L169.4445,11.25 L173.898,11.25 L173.898,25.56495 Z M192.7815,0 L167.214,0 C165.99,0 165,0.9675 165,2.161245 L165,27.8388 C165,29.0337 165.99,30 167.214,30 L192.777,30 C193.9995,30 195,29.0337 195,27.8388 L195,2.161245 C195,0.9675 193.9995,0 192.777,0 L192.7815,0 Z" id="linkedin"></path>
            </g>
        </g>
    </g>
</svg>