<?xml version="1.0" encoding="UTF-8"?>
<svg width="30px" height="24px" viewBox="0 0 30 24" version="1.1" xmlns="http://www.w3.org/2000/svg" xmlns:xlink="http://www.w3.org/1999/xlink">
    <!-- Generator: Sketch 54.1 (76490) - https://sketchapp.com -->
    <title>medium</title>
    <desc>Created with Sketch.</desc>
    <g id="Landing-page" stroke="none" stroke-width="1" fill="none" fill-rule="evenodd">
        <g id="Desktop" transform="translate(-852.000000, -1153.000000)" fill="#202124">
            <g id="social" transform="translate(522.000000, 1150.000000)">
                <path d="M333.558,7.858755 C333.5955,7.489995 333.4545,7.126245 333.1785,6.878745 L330.378,3.503745 L330.378,3 L339.075,3 L345.798,17.7438 L351.708,3 L360,3 L360,3.503745 L357.6045,5.800005 C357.3975,5.957505 357.2955,6.216255 357.3375,6.4725 L357.3375,23.3475 C357.2955,23.6025 357.3975,23.86005 357.6045,24.01875 L359.9415,26.31495 L359.9415,26.8188 L348.1785,26.8188 L348.1785,26.31495 L350.5995,23.9625 C350.838,23.72505 350.838,23.655 350.838,23.29005 L350.838,9.651255 L344.1,26.7612 L343.191,26.7612 L335.3475,9.651255 L335.3475,21.1188 C335.283,21.6012 335.442,22.0863 335.781,22.43505 L338.931,26.26005 L338.931,26.76255 L330,26.76255 L330,26.2587 L333.15,22.4337 C333.4875,22.0863 333.6375,21.59625 333.558,21.1188 L333.558,7.858755 Z" id="medium"></path>
            </g>
        </g>
    </g>
</svg>