<?xml version="1.0" encoding="UTF-8"?>
<svg width="66px" height="66px" viewBox="0 0 66 66" version="1.1" xmlns="http://www.w3.org/2000/svg" xmlns:xlink="http://www.w3.org/1999/xlink">
    <!-- Generator: Sketch 54.1 (76490) - https://sketchapp.com -->
    <title>MEWlogo</title>
    <desc>Created with Sketch.</desc>
    <g id="Landing-page" stroke="none" stroke-width="1" fill="none" fill-rule="evenodd">
        <g id="Desktop" transform="translate(-122.000000, -94.000000)" fill="#07A6B3" fill-rule="nonzero">
            <g id="MEWlogo" transform="translate(122.000000, 94.000000)">
                <path d="M33,0 C14.7737908,0 0,14.7752288 0,33 C0,51.2247712 14.7752288,66 33,66 C51.2247712,66 66,51.2247712 66,33 C66,14.7752288 51.2269281,0 33,0 Z M33,53.7396732 C21.8439869,53.7396732 12.2790196,44.6959477 12.2790196,33.5370588 C12.2790196,30.9171895 12.7772549,27.893268 13.6852941,25.5962092 L22.5866667,29.3879739 C22.5579085,29.5123529 22.5212418,29.6755556 22.4802614,29.8588889 C22.2139214,30.7272279 22.0571724,31.6254552 22.0136601,32.5326797 C21.9944311,32.7124541 21.9877047,32.8933464 21.9935294,33.0740523 C21.9935294,33.1157516 21.999281,33.156732 22.0014379,33.1984314 C22.0414021,36.5137715 23.5833796,39.6319406 26.1937908,41.6761594 C28.804202,43.7203782 32.2011056,44.4698577 35.4293464,43.7138562 L40.4893464,52.3060784 C38.1069229,53.256355 35.5649477,53.7429344 33,53.7396732 L33,53.7396732 Z M52.124183,41.2083007 L29.5260131,31.633268 L44.0194118,31.57 C43.4988889,26.3130065 38.0959477,22.0395425 33.000719,22.0395425 C31.8452406,22.0385432 30.697665,22.2300083 29.605098,22.6060784 L24.5903922,14.0922222 C27.2295917,12.8830303 30.0991408,12.2590873 33.0021569,12.2632026 C44.1581699,12.2632026 53.6922222,21.4744444 53.6922222,32.6304575 C53.6900654,35.64 53.3018301,38.6423529 52.1220261,41.2083007 L52.124183,41.2083007 Z"></path>
            </g>
        </g>
    </g>
</svg>