<?xml version="1.0" encoding="UTF-8"?>
<svg width="120px" height="120px" viewBox="0 0 120 120" version="1.1" xmlns="http://www.w3.org/2000/svg" xmlns:xlink="http://www.w3.org/1999/xlink">
    <!-- Generator: Sketch 61.2 (89653) - https://sketch.com -->
    <title>appIcon120</title>
    <desc>Created with Sketch.</desc>
    <g id="Home" stroke="none" stroke-width="1" fill="none" fill-rule="evenodd">
        <g id="Desktop" transform="translate(-122.000000, -7363.000000)">
            <g id="Get-the-app" transform="translate(0.000000, 7273.000000)">
                <g id="appIcon120" transform="translate(122.000000, 90.000000)">
                    <path d="M33.3305076,-1.3465924e-15 L86.6694924,1.3465924e-15 C98.259236,-7.82408963e-16 102.461957,1.20673294 106.698994,3.47272515 C110.936031,5.73871735 114.261283,9.06396882 116.527275,13.3010059 C118.793267,17.5380429 120,21.740764 120,33.3305076 L120,86.6694924 C120,98.259236 118.793267,102.461957 116.527275,106.698994 C114.261283,110.936031 110.936031,114.261283 106.698994,116.527275 C102.461957,118.793267 98.259236,120 86.6694924,120 L33.3305076,120 C21.740764,120 17.5380429,118.793267 13.3010059,116.527275 C9.06396882,114.261283 5.73871735,110.936031 3.47272515,106.698994 C1.20673294,102.461957 5.21605976e-16,98.259236 -8.97728267e-16,86.6694924 L8.97728267e-16,33.3305076 C-5.21605976e-16,21.740764 1.20673294,17.5380429 3.47272515,13.3010059 C5.73871735,9.06396882 9.06396882,5.73871735 13.3010059,3.47272515 C17.5380429,1.20673294 21.740764,7.82408963e-16 33.3305076,-1.3465924e-15 Z" id="Rectangle" fill="#FFFFFF"></path>
                    <g id="Elements/App-Icon">
                        <g id="icon" transform="translate(2.000000, 2.000000)">
                            <path d="M68.5990931,103.404632 C88.1826114,113.257506 97.9870527,96.6649472 96.661806,83.870602 C95.377944,71.4758011 88.3669061,64.3052484 74.0177087,59.4696354 C59.6685114,54.6340224 63.510192,83.2292658 73.6913614,85.790613 C78.3103485,86.9526436 66.9072792,102.553445 68.5990931,103.404632 Z" id="Oval-Copy-4" stroke="#000000" stroke-width="2.36734694" fill="#FFFFFF" fill-rule="nonzero" transform="translate(80.694697, 82.656794) rotate(-24.000000) translate(-80.694697, -82.656794) "></path>
                            <path d="M23.203038,103.404632 C42.7865562,113.257506 52.5909975,96.6649472 51.2657508,83.870602 C49.9818891,71.4758011 42.9708509,64.3052484 28.6216536,59.4696354 C14.2724563,54.6340224 18.1141368,83.2292658 28.2953065,85.790613 C32.9142936,86.9526436 21.5112242,102.553445 23.203038,103.404632 Z" id="Oval-Copy-3" stroke="#000000" stroke-width="2.36734694" fill="#FFFFFF" fill-rule="nonzero" transform="translate(35.298642, 82.656794) scale(-1, 1) rotate(-24.000000) translate(-35.298642, -82.656794) "></path>
                            <path d="M61.0369617,9.46938776 C68.5222508,9.46938776 73.3830947,10.6723916 77.6022061,12.9313812 C81.8213173,15.1903709 85.1325003,18.5053464 87.3889057,22.7292899 C89.6210487,26.9078146 90.8209755,31.7150649 90.8469388,39.072678 L90.8469388,43.5436364 C90.8469388,51.0374983 89.6453113,55.9039096 87.3889057,60.1278531 C85.1325003,64.3517963 81.8213173,67.6667718 77.6022061,69.9257617 C73.3830947,72.1847514 68.5222508,73.3877551 61.0369617,73.3877551 L55.5548751,73.3877551 C48.0695859,73.3877551 43.2087421,72.1847514 38.9896306,69.9257617 C34.7705194,67.6667718 31.4593364,64.3517963 29.2029309,60.1278531 C26.9465255,55.9039096 25.744898,51.0374983 25.744898,43.5436364 L25.744898,39.3135064 C25.744898,31.8196446 26.9465255,26.9532333 29.2029309,22.7292899 C31.4593364,18.5053464 34.7705194,15.1903709 38.9896306,12.9313812 C43.1633751,10.6966818 47.9651259,9.4953809 55.3143218,9.46938776 L61.0369617,9.46938776 Z" id="Rectangle-Copy" stroke="#000000" stroke-width="2.36734694" fill="#FFFFFF" fill-rule="nonzero"></path>
                            <path d="M54.0368739,27.8163265 L61.9631261,27.8163265 C65.9787611,27.8163265 69.0898725,28.5567899 71.7010112,29.9472255 C74.3121499,31.3376607 76.361387,33.3780684 77.7578394,35.9779566 C79.1542915,38.5778448 79.8979592,41.6755514 79.8979592,45.6738844 L79.8979592,46.6526462 C79.8979592,50.6509792 79.1542915,53.7486858 77.7578394,56.348574 C76.361387,58.9484622 74.3121499,60.9888699 71.7010112,62.3793051 C69.0898725,63.7697406 65.9787611,64.5102041 61.9631261,64.5102041 L54.0368739,64.5102041 C50.0212389,64.5102041 46.9101275,63.7697406 44.2989888,62.3793051 C41.6878501,60.9888699 39.638613,58.9484622 38.2421606,56.348574 C36.8457085,53.7486858 36.1020408,50.6509792 36.1020408,46.6526462 L36.1020408,45.6738844 C36.1020408,41.6755514 36.8457085,38.5778448 38.2421606,35.9779566 C39.638613,33.3780684 41.6878501,31.3376607 44.2989888,29.9472255 C46.9101275,28.5567899 50.0212389,27.8163265 54.0368739,27.8163265 Z" id="Rectangle" stroke="#000000" stroke-width="2.36734694" fill="#FFFFFF" fill-rule="nonzero"></path>
                            <circle id="Oval" fill="#000000" fill-rule="nonzero" cx="44.0918367" cy="46.4591837" r="4.73469388"></circle>
                            <circle id="Oval-Copy" fill="#000000" fill-rule="nonzero" cx="71.9081633" cy="46.4591837" r="4.73469388"></circle>
                            <path d="M52.9693878,45.5714286 C52.9693878,48.1863278 55.2216695,50.3061224 58,50.3061224 C60.7783305,50.3061224 63.0306122,48.1863278 63.0306122,45.5714286" id="Path" stroke="#000000" stroke-width="2.36734694" stroke-linecap="round"></path>
                            <path d="M25.4176868,27.9026641 C26.8406405,28.1025022 28.0750429,28.6146778 29.0662686,29.366753 C30.0574942,30.1188283 30.805543,31.1108032 31.2557899,32.2702397 C31.7060365,33.4296763 31.8584809,34.7565749 31.6584978,36.1784972 L31.476394,37.4732934 C31.2764109,38.8952158 30.7638637,40.1287234 30.011243,41.1192305 C29.2586224,42.1097376 28.265928,42.8572443 27.1056503,43.3071648 C25.9453727,43.757085 24.6175119,43.909419 23.1945581,43.7095809 C21.7716044,43.5097428 20.537202,42.997567 19.5459764,42.245492 C18.5547507,41.4934166 17.8067019,40.5014417 17.3564552,39.3420052 C16.9062085,38.1825686 16.753764,36.85567 16.9537471,35.4337477 L17.1358508,34.1389515 C17.3358339,32.7170291 17.848381,31.4835215 18.6010018,30.4930144 C19.3536226,29.5025072 20.3463169,28.7550006 21.5065945,28.3050802 C22.6668722,27.8551599 23.994733,27.7028259 25.4176868,27.9026641 Z" id="Rectangle" stroke="#000000" stroke-width="2.36734694" fill="#FFFFFF" fill-rule="nonzero"></path>
                            <line x1="23.2468724" y1="32.8437688" x2="23.1866643" y2="37.162962" id="Path-3" stroke="#D8D8D8" stroke-width="3.25510204" stroke-linecap="round" stroke-linejoin="round" transform="translate(23.216768, 35.003365) rotate(8.000000) translate(-23.216768, -35.003365) "></line>
                            <path d="M90.8124918,27.9004291 C89.4200314,28.0943622 88.2134263,28.5896351 87.2452349,29.3171292 C86.2770436,30.0446235 85.5472663,31.0043388 85.1084614,32.1271573 C84.6696562,33.2499757 84.5218233,34.5358973 84.7175207,35.9158031 L84.9665552,37.6717981 C85.1622528,39.0517042 85.6620317,40.2474301 86.3961448,41.2068922 C87.1302579,42.1663539 88.0987049,42.8895515 89.2317391,43.3244003 C90.3647732,43.7592491 91.6623942,43.9057491 93.054855,43.7118157 C94.4473157,43.5178826 95.6539208,43.0226097 96.6221121,42.2951157 C97.5903032,41.5676214 98.3200805,40.6079061 98.7588857,39.4850876 C99.1976909,38.3622692 99.3455237,37.0763476 99.1498261,35.6964418 L98.9007918,33.9404468 C98.7050942,32.5605407 98.2053153,31.3648148 97.4712022,30.4053527 C96.7370891,29.445891 95.7686418,28.7226935 94.6356077,28.2878448 C93.5025735,27.852996 92.2049526,27.7064959 90.8124918,27.9004291 Z" id="Rectangle" stroke="#000000" stroke-width="2.36734694" fill="#FFFFFF" fill-rule="nonzero"></path>
                            <g id="logo" transform="translate(32.255102, 58.591837)" fill-rule="nonzero">
                                <path d="M25.580655,0 C11.4522174,0 0,11.526868 0,25.744898 C0,39.962928 11.453333,51.4897959 25.580655,51.4897959 C39.7079772,51.4897959 51.16131,39.962928 51.16131,25.744898 C51.16131,11.526868 39.7096458,0 25.580655,0 Z" id="Path" stroke="#000000" stroke-width="2.36734694" fill="#07A6B3"></path>
                                <path d="M25.580655,41.9249433 C16.9328294,41.9249433 9.51834455,34.8694716 9.51834455,26.1638819 C9.51834455,24.1199944 9.90455809,21.7608845 10.6084522,19.9688394 L17.5085425,22.9269854 C17.4862493,23.024015 17.4578251,23.1513379 17.426054,23.2943651 C17.219599,23.9717992 17.0980926,24.6725467 17.0643572,25.3803216 C17.0494538,25.5205741 17.0442381,25.6616943 17.0487577,25.8026714 C17.0487577,25.8352054 17.0532106,25.8671767 17.0548888,25.8997011 C17.0858685,28.4861575 18.281166,30.918793 20.3046768,32.5135938 C22.3281972,34.1083855 24.9613758,34.6930903 27.463818,34.1032936 L31.3861869,40.8065025 C29.5394003,41.54786 27.5689335,41.9274638 25.580655,41.9249433 Z" id="Path" fill="#FFFFFF"></path>
                                <path d="M40.4051774,32.1485886 L22.8877197,24.6786396 L34.1225928,24.6292857 C33.7190939,20.5280472 29.5308855,17.1941115 25.5812176,17.1941115 C24.685524,17.1933392 23.795952,17.3427072 22.9490211,17.6360942 L19.0617704,10.9940249 C21.107603,10.0506747 23.3319908,9.56390538 25.5823237,9.56708728 C34.2301494,9.56708728 41.6206704,16.753254 41.6206704,25.4566028 C41.6190017,27.8044898 41.3180536,30.1467701 40.4034993,32.1485886 L40.4051774,32.1485886 Z" id="Path" fill="#FFFFFF"></path>
                            </g>
                            <g id="hand" transform="translate(37.383915, 95.943703) rotate(-1.000000) translate(-37.383915, -95.943703) translate(27.883915, 84.943703)" fill="#FFFFFF" fill-rule="nonzero" stroke="#000000" stroke-width="2.36734694">
                                <path d="M2.49642257,16.0564812 L0.670687359,10.6382004 C-0.719178706,6.51345957 1.54691405,2.05927254 5.73214719,0.689495241 L5.82626625,0.659328139 L5.82626625,0.659328139 C10.0961729,-0.680484311 14.6654895,1.61250088 16.0777701,5.80376189 L17.9035053,11.2220427 C19.2933714,15.3467835 17.0272786,19.8009706 12.8420455,21.1707479 L12.7479264,21.200915 L12.7479264,21.200915 C8.47801977,22.5407274 3.90870315,20.2477422 2.49642257,16.0564812 Z" id="Rectangle-Copy-3"></path>
                                <line x1="12.1092443" y1="9.54323997" x2="12.1513308" y2="3.32969571" id="Line-Copy-2" stroke-linecap="round" transform="translate(12.130288, 6.436468) rotate(-108.000000) translate(-12.130288, -6.436468) "></line>
                                <line x1="14.307877" y1="14.6120534" x2="14.2684898" y2="8.39789246" id="Line-Copy-3" stroke-linecap="round" transform="translate(14.288183, 11.504973) rotate(-108.000000) translate(-14.288183, -11.504973) "></line>
                            </g>
                            <g id="hand" transform="translate(78.680251, 95.943703) scale(-1, 1) rotate(-1.000000) translate(-78.680251, -95.943703) translate(69.180251, 84.943703)" fill="#FFFFFF" fill-rule="nonzero" stroke="#000000" stroke-width="2.36734694">
                                <path d="M2.49642257,16.0564812 L0.670687359,10.6382004 C-0.719178706,6.51345957 1.54691405,2.05927254 5.73214719,0.689495241 L5.82626625,0.659328139 L5.82626625,0.659328139 C10.0961729,-0.680484311 14.6654895,1.61250088 16.0777701,5.80376189 L17.9035053,11.2220427 C19.2933714,15.3467835 17.0272786,19.8009706 12.8420455,21.1707479 L12.7479264,21.200915 L12.7479264,21.200915 C8.47801977,22.5407274 3.90870315,20.2477422 2.49642257,16.0564812 Z" id="Rectangle-Copy-3"></path>
                                <line x1="12.1092443" y1="9.54323997" x2="12.1513308" y2="3.32969571" id="Line-Copy-2" stroke-linecap="round" transform="translate(12.130288, 6.436468) rotate(-108.000000) translate(-12.130288, -6.436468) "></line>
                                <line x1="14.307877" y1="14.6120534" x2="14.2684898" y2="8.39789246" id="Line-Copy-3" stroke-linecap="round" transform="translate(14.288183, 11.504973) rotate(-108.000000) translate(-14.288183, -11.504973) "></line>
                            </g>
                            <line x1="93.1021653" y1="32.8437688" x2="93.0419572" y2="37.1629619" id="Path-3" stroke="#D8D8D8" stroke-width="3.25510204" stroke-linecap="round" stroke-linejoin="round" transform="translate(93.072061, 35.003365) scale(-1, 1) rotate(8.000000) translate(-93.072061, -35.003365) "></line>
                        </g>
                    </g>
                </g>
            </g>
        </g>
    </g>
</svg>