<?xml version="1.0" encoding="UTF-8"?>
<svg width="60px" height="60px" viewBox="0 0 60 60" version="1.1" xmlns="http://www.w3.org/2000/svg" xmlns:xlink="http://www.w3.org/1999/xlink">
    <!-- Generator: sketchtool 63.1 (101010) - https://sketch.com -->
    <title>71E573DB-AA40-49BB-89F9-C160152A6C02@1.00x</title>
    <desc>Created with sketchtool.</desc>
    <g id="Home" stroke="none" stroke-width="1" fill="none" fill-rule="evenodd">
        <g id="Desktop" transform="translate(-42.000000, -30.000000)">
            <g id="Menu">
                <g id="appIcon60" transform="translate(42.000000, 30.000000)">
                    <path d="M43.3347462,0.5 L16.6652538,0.5 C11.0119806,0.5 8.95493991,1.0709497 6.88630236,2.17726917 C4.8562069,3.2629761 3.2629761,4.8562069 2.17726917,6.88630236 C1.0709497,8.95493991 0.5,11.0119806 0.5,16.6652538 L0.5,43.3347462 C0.5,48.9880194 1.0709497,51.0450601 2.17726917,53.1136976 C3.2629761,55.1437931 4.8562069,56.7370239 6.88630236,57.8227308 C8.95493991,58.9290503 11.0119806,59.5 16.6652538,59.5 L43.3347462,59.5 C48.9880194,59.5 51.0450601,58.9290503 53.1136976,57.8227308 C55.1437931,56.7370239 56.7370239,55.1437931 57.8227308,53.1136976 C58.9290503,51.0450601 59.5,48.9880194 59.5,43.3347462 L59.5,16.6652538 C59.5,11.0119806 58.9290503,8.95493991 57.8227308,6.88630236 C56.7370239,4.8562069 55.1437931,3.2629761 53.1136976,2.17726917 C51.0450601,1.0709497 48.9880194,0.5 43.3347462,0.5 Z" id="Rectangle" stroke-opacity="0.1" stroke="#000000" fill="#FFFFFF"></path>
                    <g id="Elements/App-Icon">
                        <g id="icon" transform="translate(1.000000, 1.000000)">
                            <path d="M34.2995465,51.7023158 C44.0913057,56.6287531 48.9935264,48.3324736 48.330903,41.935301 C47.688972,35.7379005 44.183453,32.1526242 37.0088544,29.7348177 C29.8342557,27.3170112 31.755096,41.6146329 36.8456807,42.8953065 C39.1551743,43.4763218 33.4536396,51.2767226 34.2995465,51.7023158 Z" id="Oval-Copy-4" stroke="#000000" stroke-width="1.18367347" fill="#FFFFFF" fill-rule="nonzero" transform="translate(40.347349, 41.328397) rotate(-24.000000) translate(-40.347349, -41.328397) "></path>
                            <path d="M11.601519,51.7023158 C21.3932781,56.628753 26.2954988,48.3324736 25.6328754,41.935301 C24.9909446,35.7379005 21.4854254,32.1526242 14.3108268,29.7348177 C7.13622817,27.3170112 9.05706842,41.6146329 14.1476532,42.8953065 C16.4571468,43.4763218 10.7556121,51.2767226 11.601519,51.7023158 Z" id="Oval-Copy-3" stroke="#000000" stroke-width="1.18367347" fill="#FFFFFF" fill-rule="nonzero" transform="translate(17.649321, 41.328397) scale(-1, 1) rotate(-24.000000) translate(-17.649321, -41.328397) "></path>
                            <path d="M30.5184808,4.73469388 C34.2611254,4.73469388 36.6915473,5.33619578 38.8011031,6.46569062 C40.9106587,7.59518545 42.5662502,9.25267321 43.6944528,11.3646449 C44.8105244,13.4539073 45.4104877,15.8575325 45.4234694,19.536339 L45.4234694,21.7718182 C45.4234694,25.5187492 44.8226557,27.9519548 43.6944528,30.0639266 C42.5662502,32.1758982 40.9106587,33.8333859 38.8011031,34.9628809 C36.6915473,36.0923757 34.2611254,36.6938776 30.5184808,36.6938776 L27.7774375,36.6938776 C24.034793,36.6938776 21.604371,36.0923757 19.4948153,34.9628809 C17.3852597,33.8333859 15.7296682,32.1758982 14.6014655,30.0639266 C13.4732628,27.9519548 12.872449,25.5187492 12.872449,21.7718182 L12.872449,19.6567532 C12.872449,15.9098223 13.4732628,13.4766166 14.6014655,11.3646449 C15.7296682,9.25267321 17.3852597,7.59518545 19.4948153,6.46569062 C21.5816876,5.34834089 23.9825629,4.74769045 27.6571609,4.73469388 L30.5184808,4.73469388 Z" id="Rectangle-Copy" stroke="#000000" stroke-width="1.18367347" fill="#FFFFFF" fill-rule="nonzero"></path>
                            <path d="M27.018437,13.9081633 L30.981563,13.9081633 C32.9893806,13.9081633 34.5449363,14.278395 35.8505056,14.9736128 C37.156075,15.6688304 38.1806935,16.6890342 38.8789197,17.9889783 C39.5771457,19.2889224 39.9489796,20.8377757 39.9489796,22.8369422 L39.9489796,23.3263231 C39.9489796,25.3254896 39.5771457,26.8743429 38.8789197,28.174287 C38.1806935,29.4742311 37.156075,30.494435 35.8505056,31.1896525 C34.5449363,31.8848703 32.9893806,32.255102 30.981563,32.255102 L27.018437,32.255102 C25.0106194,32.255102 23.4550637,31.8848703 22.1494944,31.1896525 C20.843925,30.494435 19.8193065,29.4742311 19.1210803,28.174287 C18.4228543,26.8743429 18.0510204,25.3254896 18.0510204,23.3263231 L18.0510204,22.8369422 C18.0510204,20.8377757 18.4228543,19.2889224 19.1210803,17.9889783 C19.8193065,16.6890342 20.843925,15.6688304 22.1494944,14.9736128 C23.4550637,14.278395 25.0106194,13.9081633 27.018437,13.9081633 Z" id="Rectangle" stroke="#000000" stroke-width="1.18367347" fill="#FFFFFF" fill-rule="nonzero"></path>
                            <circle id="Oval" fill="#000000" fill-rule="nonzero" cx="22.0459184" cy="23.2295918" r="2.36734694"></circle>
                            <circle id="Oval-Copy" fill="#000000" fill-rule="nonzero" cx="35.9540816" cy="23.2295918" r="2.36734694"></circle>
                            <path d="M26.4846939,22.7857143 C26.4846939,24.0931639 27.6108347,25.1530612 29,25.1530612 C30.3891653,25.1530612 31.5153061,24.0931639 31.5153061,22.7857143" id="Path" stroke="#000000" stroke-width="1.18367347" stroke-linecap="round"></path>
                            <path d="M12.7088434,13.951332 C13.4203203,14.0512511 14.0375214,14.3073389 14.5331343,14.6833765 C15.0287471,15.0594141 15.4027715,15.5554016 15.6278949,16.1351199 C15.8530182,16.7148382 15.9292404,17.3782874 15.8292489,18.0892486 L15.738197,18.7366467 C15.6382055,19.4476079 15.3819319,20.0643617 15.0056215,20.5596153 C14.6293112,21.0548688 14.132964,21.4286221 13.5528252,21.6535824 C12.9726864,21.8785425 12.3087559,21.9547095 11.5972791,21.8547905 C10.8858022,21.7548714 10.268601,21.4987835 9.77298818,21.122746 C9.27737537,20.7467083 8.90335093,20.2507209 8.67822758,19.6710026 C8.45310424,19.0912843 8.37688199,18.427835 8.47687354,17.7168738 L8.5679254,17.0694758 C8.66791696,16.3585146 8.92419052,15.7417608 9.3005009,15.2465072 C9.67681128,14.7512536 10.1731585,14.3775003 10.7532973,14.1525401 C11.3334361,13.9275799 11.9973665,13.8514129 12.7088434,13.951332 Z" id="Rectangle" stroke="#000000" stroke-width="1.18367347" fill="#FFFFFF" fill-rule="nonzero"></path>
                            <line x1="11.6234362" y1="16.4218844" x2="11.5933321" y2="18.581481" id="Path-3" stroke="#D8D8D8" stroke-width="1.62755102" stroke-linecap="round" stroke-linejoin="round" transform="translate(11.608384, 17.501683) rotate(8.000000) translate(-11.608384, -17.501683) "></line>
                            <path d="M45.4062459,13.9502145 C44.7100157,14.0471811 44.1067131,14.2948175 43.6226175,14.6585646 C43.1385218,15.0223118 42.7736332,15.5021694 42.5542307,16.0635786 C42.3348281,16.6249879 42.2609117,17.2679486 42.3587603,17.9579016 L42.4832776,18.835899 C42.5811264,19.5258521 42.8310159,20.1237151 43.1980724,20.6034461 C43.565129,21.083177 44.0493525,21.4447757 44.6158695,21.6622001 C45.1823866,21.8796245 45.8311971,21.9528745 46.5274275,21.8559079 C47.2236579,21.7589413 47.8269604,21.5113048 48.3110561,21.1475578 C48.7951516,20.7838107 49.1600402,20.303953 49.3794428,19.7425438 C49.5988454,19.1811346 49.6727619,18.5381738 49.574913,17.8482209 L49.4503959,16.9702234 C49.3525471,16.2802703 49.1026577,15.6824074 48.7356011,15.2026764 C48.3685446,14.7229455 47.8843209,14.3613468 47.3178038,14.1439224 C46.7512868,13.926498 46.1024763,13.853248 45.4062459,13.9502145 Z" id="Rectangle" stroke="#000000" stroke-width="1.18367347" fill="#FFFFFF" fill-rule="nonzero"></path>
                            <g id="logo" transform="translate(16.127551, 29.295918)" fill-rule="nonzero">
                                <path d="M12.7903275,0 C5.7261087,0 0,5.76343402 0,12.872449 C0,19.981464 5.7266665,25.744898 12.7903275,25.744898 C19.8539886,25.744898 25.580655,19.981464 25.580655,12.872449 C25.580655,5.76343402 19.8548229,0 12.7903275,0 Z" id="Path" stroke="#000000" stroke-width="1.18367347" fill="#07A6B3"></path>
                                <path d="M12.7903275,20.9624716 C8.46641471,20.9624716 4.75917227,17.4347358 4.75917227,13.0819409 C4.75917227,12.0599972 4.95227904,10.8804423 5.30422609,9.98441971 L8.75427127,11.4634927 C8.74312467,11.5120075 8.72891254,11.5756689 8.71302698,11.6471825 C8.60979948,11.9858996 8.54904629,12.3362733 8.53217861,12.6901608 C8.5247269,12.760287 8.52211903,12.8308471 8.52437886,12.9013357 C8.52437886,12.9176027 8.52660532,12.9335883 8.52744441,12.9498505 C8.54293425,14.2430787 9.14058299,15.4593965 10.1523384,16.2567969 C11.1640986,17.0541928 12.4806879,17.3465452 13.731909,17.0516468 L15.6930934,20.4032512 C14.7697002,20.77393 13.7844668,20.9637319 12.7903275,20.9624716 Z" id="Path" fill="#FFFFFF"></path>
                                <path d="M20.2025887,16.0742943 L11.4438598,12.3393198 L17.0612964,12.3146429 C16.859547,10.2640236 14.7654427,8.59705576 12.7906088,8.59705576 C12.342762,8.59666958 11.897976,8.67135362 11.4745105,8.8180471 L9.53088518,5.49701247 C10.5538015,5.02533734 11.6659954,4.78195269 12.7911618,4.78354364 C17.1150747,4.78354364 20.8103352,8.37662698 20.8103352,12.7283014 C20.8095009,13.9022449 20.6590268,15.073385 20.2017496,16.0742943 L20.2025887,16.0742943 Z" id="Path" fill="#FFFFFF"></path>
                            </g>
                            <g id="hand" transform="translate(18.941920, 47.967488) rotate(-1.000000) translate(-18.941920, -47.967488) translate(13.941920, 42.467488)" fill="#FFFFFF" fill-rule="nonzero" stroke="#000000" stroke-width="1.18367347">
                                <path d="M1.24821129,8.02824061 L0.335343679,5.31910021 C-0.359589353,3.25672978 0.773457023,1.02963627 2.8660736,0.34474762 L2.91313312,0.329664069 L2.91313312,0.329664069 C5.04808646,-0.340242155 7.33274475,0.806250439 8.03888505,2.90188095 L8.95175265,5.61102135 C9.64668569,7.67339177 8.51363931,9.90048529 6.42102275,10.5853739 L6.37396321,10.6004575 L6.37396321,10.6004575 C4.23900988,11.2703637 1.95435158,10.1238711 1.24821129,8.02824061 Z" id="Rectangle-Copy-3"></path>
                                <line x1="6.05462214" y1="4.77161998" x2="6.07566539" y2="1.66484785" id="Line-Copy-2" stroke-linecap="round" transform="translate(6.065144, 3.218234) rotate(-108.000000) translate(-6.065144, -3.218234) "></line>
                                <line x1="7.15393852" y1="7.30602668" x2="7.13424492" y2="4.19894623" id="Line-Copy-3" stroke-linecap="round" transform="translate(7.144092, 5.752486) rotate(-108.000000) translate(-7.144092, -5.752486) "></line>
                            </g>
                            <g id="hand" transform="translate(39.090163, 47.967488) scale(-1, 1) rotate(-1.000000) translate(-39.090163, -47.967488) translate(34.090163, 42.467488)" fill="#FFFFFF" fill-rule="nonzero" stroke="#000000" stroke-width="1.18367347">
                                <path d="M1.24821129,8.02824061 L0.335343679,5.31910021 C-0.359589353,3.25672978 0.773457023,1.02963627 2.8660736,0.34474762 L2.91313312,0.329664069 L2.91313312,0.329664069 C5.04808646,-0.340242155 7.33274475,0.806250439 8.03888505,2.90188095 L8.95175265,5.61102135 C9.64668569,7.67339177 8.51363931,9.90048529 6.42102275,10.5853739 L6.37396321,10.6004575 L6.37396321,10.6004575 C4.23900988,11.2703637 1.95435158,10.1238711 1.24821129,8.02824061 Z" id="Rectangle-Copy-3"></path>
                                <line x1="6.05462214" y1="4.77161998" x2="6.07566539" y2="1.66484785" id="Line-Copy-2" stroke-linecap="round" transform="translate(6.065144, 3.218234) rotate(-108.000000) translate(-6.065144, -3.218234) "></line>
                                <line x1="7.15393852" y1="7.30602668" x2="7.13424492" y2="4.19894623" id="Line-Copy-3" stroke-linecap="round" transform="translate(7.144092, 5.752486) rotate(-108.000000) translate(-7.144092, -5.752486) "></line>
                            </g>
                            <line x1="46.5510827" y1="16.4218844" x2="46.5209786" y2="18.581481" id="Path-3" stroke="#D8D8D8" stroke-width="1.62755102" stroke-linecap="round" stroke-linejoin="round" transform="translate(46.536031, 17.501683) scale(-1, 1) rotate(8.000000) translate(-46.536031, -17.501683) "></line>
                        </g>
                    </g>
                </g>
            </g>
        </g>
    </g>
</svg>