<?xml version="1.0" encoding="UTF-8"?>
<svg width="240px" height="126px" viewBox="0 0 240 126" version="1.1" xmlns="http://www.w3.org/2000/svg" xmlns:xlink="http://www.w3.org/1999/xlink">
    <!-- Generator: sketchtool 63.1 (101010) - https://sketch.com -->
    <title>D9E80785-7027-4AC1-97CC-7CC226503D2F@1.00x</title>
    <desc>Created with sketchtool.</desc>
    <g id="Home" stroke="none" stroke-width="1" fill="none" fill-rule="evenodd">
        <g id="Desktop" transform="translate(-122.000000, -198.000000)" fill="#202124" fill-rule="nonzero">
            <path d="M142.184426,253 L142.184426,224.028169 L151.45082,244.401408 L159.54918,244.401408 L168.815574,224.028169 L168.815574,253 L184,253 L184,198 L167.491803,198 L155.5,223.873239 L143.586066,198 L127,198 L127,253 L142.184426,253 Z M233,253 L233,239.830986 L209.029644,239.830986 L209.029644,231.15493 L228.91502,231.15493 L228.91502,218.915493 L209.029644,218.915493 L209.029644,211.169014 L232.306324,211.169014 L232.306324,198 L194,198 L194,253 L233,253 Z M269.190564,253 L276.961147,233.323944 L284.809436,253 L297.39778,253 L319,198 L302.526364,198 L290.637373,235.725352 L286.674376,224.260563 L295.765957,198 L281.856614,198 L276.961147,214.964789 L272.143386,198 L258.234043,198 L267.170213,224.260563 L263.362627,235.725352 L251.39593,198 L235,198 L256.60222,253 L269.190564,253 Z M152.125967,323 L157.460773,305.15019 L162.874033,323 L179.113812,323 L193,282 L177.701657,282 L170.327072,305.539924 L164.443094,282 L150.556906,282 L144.672928,305.539924 L137.298343,282 L122,282 L135.886188,323 L152.125967,323 Z M207.424474,324 C212.859783,324 216.936265,322.031136 219.65392,318.093407 L219.65392,318.093407 L219.65392,323.212454 L234,323.212454 L234,298.641026 C234,292.760684 232.223072,288.350427 228.669216,285.410256 C225.11536,282.470085 220.045889,281 213.460803,281 C206.509879,281 200.316762,282.758852 194.881453,286.276557 L194.881453,286.276557 L199.193117,295.569597 C201.388145,294.099512 203.478649,292.983822 205.464627,292.222527 C207.450605,291.461233 209.619503,291.080586 211.971319,291.080586 C214.479924,291.080586 216.296048,291.553114 217.419694,292.498168 C218.54334,293.443223 219.105163,294.887057 219.105163,296.82967 L219.105163,296.82967 L219.105163,298.089744 C216.910134,297.039683 214.140217,296.514652 210.795411,296.514652 C208.182282,296.514652 205.791268,296.855922 203.622371,297.538462 C201.453474,298.221001 199.585086,299.192308 198.017208,300.452381 C196.449331,301.712454 195.22116,303.208791 194.332696,304.941392 C193.444232,306.673993 193,308.590354 193,310.690476 C193,312.580586 193.365838,314.339438 194.097514,315.967033 C194.829191,317.594628 195.835245,318.999084 197.115679,320.180403 C198.396112,321.361722 199.924793,322.293651 201.701721,322.97619 C203.478649,323.65873 205.386233,324 207.424474,324 Z M211.831169,314 C210.428571,314 209.272727,313.618182 208.363636,312.854545 C207.454545,312.090909 207,311.109091 207,309.909091 C207,308.490909 207.597403,307.318182 208.792208,306.390909 C209.987013,305.463636 211.493506,305 213.311688,305 C214.142857,305 215.077922,305.109091 216.116883,305.327273 C217.155844,305.545455 218.116883,305.818182 219,306.145455 L219,306.145455 L219,309.336364 C219,309.881818 218.818182,310.413636 218.454545,310.931818 C218.090909,311.45 217.623377,311.927273 217.051948,312.363636 C216.324675,312.854545 215.493506,313.25 214.558442,313.55 C213.623377,313.85 212.714286,314 211.831169,314 Z M257,323 L257,266 L242,266 L242,323 L257,323 Z M278,323 L278,266 L263,266 L263,323 L278,323 Z M306.5,324 C311.552083,324 315.809896,322.949939 319.273438,320.849817 C322.736979,318.749695 325.302083,316.045788 326.96875,312.738095 L326.96875,312.738095 L314.390625,309.115385 C313.921875,310.427961 312.971354,311.45177 311.539063,312.186813 C310.106771,312.921856 308.583333,313.289377 306.96875,313.289377 C305.25,313.289377 303.661458,312.803724 302.203125,311.832418 C300.744792,310.861111 299.9375,309.272894 299.78125,307.067766 L299.78125,307.067766 L328.609375,307.067766 C328.713542,306.437729 328.804688,305.715812 328.882813,304.902015 C328.960938,304.088217 329,303.287546 329,302.5 C329,299.664835 328.518229,296.947802 327.554688,294.348901 C326.591146,291.75 325.158854,289.466117 323.257813,287.497253 C321.356771,285.528388 319,283.953297 316.1875,282.771978 C313.375,281.590659 310.145833,281 306.5,281 C302.802083,281 299.559896,281.590659 296.773437,282.771978 C293.986979,283.953297 291.643229,285.541514 289.742188,287.53663 C287.841146,289.531746 286.408854,291.868132 285.445312,294.545788 C284.481771,297.223443 284,300.058608 284,303.051282 C284,305.833944 284.494792,308.485348 285.484375,311.005495 C286.473958,313.525641 287.919271,315.757021 289.820313,317.699634 C291.721354,319.642247 294.078125,321.177961 296.890625,322.306777 C299.703125,323.435592 302.90625,324 306.5,324 Z M313,298 L299,298 C299.268199,296.146341 300.019157,294.682927 301.252874,293.609756 C302.48659,292.536585 304.068966,292 306,292 C307.931034,292 309.51341,292.536585 310.747126,293.609756 C311.980843,294.682927 312.731801,296.146341 313,298 L313,298 Z M348.369347,324 C350.654104,324 352.977806,323.699668 355.340452,323.099003 C357.703099,322.498338 359.922948,321.754036 362,320.866097 L362,320.866097 L359.351759,309.11396 C358.417085,309.531814 357.482412,309.858262 356.547739,310.093305 C355.613065,310.328348 354.782245,310.445869 354.055276,310.445869 C353.068677,310.445869 352.289782,310.171652 351.718593,309.623219 C351.147404,309.074786 350.861809,308.121557 350.861809,306.763533 L350.861809,306.763533 L350.861809,293.131054 L358.884422,293.131054 L358.884422,281.92735 L350.861809,281.92735 L350.861809,269 L336.062814,269 L336.062814,281.92735 L331,281.92735 L331,293.131054 L336.062814,293.131054 L336.062814,312.012821 C336.062814,314.258784 336.387353,316.139126 337.036432,317.653846 C337.685511,319.168566 338.568258,320.396011 339.684673,321.336182 C340.801089,322.276353 342.112228,322.955366 343.61809,323.373219 C345.123953,323.791073 346.707705,324 348.369347,324 Z" id="MEWwallet"></path>
        </g>
    </g>
</svg>