<?xml version="1.0" encoding="UTF-8"?>
<svg width="115px" height="60px" viewBox="0 0 115 60" version="1.1" xmlns="http://www.w3.org/2000/svg" xmlns:xlink="http://www.w3.org/1999/xlink">
    <!-- Generator: Sketch 64 (93537) - https://sketch.com -->
    <title>MEWwallet</title>
    <desc>Created with Sketch.</desc>
    <g id="Comics-page" stroke="none" stroke-width="1" fill="none" fill-rule="evenodd">
        <g id="Desktop" transform="translate(-64.000000, -183.000000)" fill="#000000" fill-rule="nonzero">
            <path d="M73.6116315,209.190476 L73.6116315,195.394366 L78.0241998,205.095909 L81.8805621,205.095909 L86.2931304,195.394366 L86.2931304,209.190476 L93.5238095,209.190476 L93.5238095,183 L85.6627635,183 L79.952381,195.32059 L74.2790788,183 L66.3809524,183 L66.3809524,209.190476 L73.6116315,209.190476 Z M116.857143,209.190476 L116.857143,202.919517 L105.442688,202.919517 L105.442688,198.788062 L114.911914,198.788062 L114.911914,192.959759 L105.442688,192.959759 L105.442688,189.270959 L116.526821,189.270959 L116.526821,183 L98.2857143,183 L98.2857143,209.190476 L116.857143,209.190476 Z M134.090745,209.190476 L137.791022,199.820926 L141.528303,209.190476 L147.522752,209.190476 L157.809524,183 L149.964935,183 L144.303511,200.964453 L142.416369,195.50503 L146.745694,183 L140.122197,183 L137.791022,191.078471 L135.49685,183 L128.873354,183 L133.128673,195.50503 L131.315537,200.964453 L125.617109,183 L117.809524,183 L128.096295,209.190476 L134.090745,209.190476 Z M78.3456985,242.52381 L80.8860826,234.0239 L83.4638253,242.52381 L91.1970534,242.52381 L97.8095238,223 L90.5245988,223 L87.0128913,234.209488 L84.2109971,223 L77.5985267,223 L74.7966325,234.209488 L71.284925,223 L64,223 L70.6124704,242.52381 L78.3456985,242.52381 Z M104.678321,243 C107.266563,243 109.207745,242.062445 110.501867,240.187336 L110.501867,240.187336 L110.501867,242.624978 L117.333333,242.624978 L117.333333,230.924298 C117.333333,228.124135 116.487177,226.024013 114.794865,224.623932 C113.102552,223.22385 110.688519,222.52381 107.552763,222.52381 C104.242799,222.52381 101.293696,223.361358 98.7054539,225.036456 L98.7054539,225.036456 L100.758627,229.461713 C101.803879,228.761672 102.799357,228.230391 103.745061,227.86787 C104.690765,227.505349 105.723573,227.324089 106.843485,227.324089 C108.038059,227.324089 108.90288,227.549102 109.43795,227.999128 C109.973019,228.449154 110.240554,229.136694 110.240554,230.061748 L110.240554,230.061748 L110.240554,230.661783 C109.195302,230.161754 107.876294,229.911739 106.283529,229.911739 C105.039182,229.911739 103.900604,230.074249 102.867796,230.399267 C101.834987,230.724286 100.945279,231.186813 100.198671,231.786848 C99.4520623,232.386883 98.867219,233.099424 98.4441409,233.924472 C98.0210629,234.74952 97.8095238,235.662073 97.8095238,236.662132 C97.8095238,237.562184 97.9837324,238.399733 98.3321497,239.174778 C98.6805669,239.949823 99.1596407,240.618612 99.7693708,241.181144 C100.379101,241.743677 101.107044,242.187453 101.9532,242.512472 C102.799357,242.837491 103.70773,243 104.678321,243 Z M106.776747,238.238095 C106.108844,238.238095 105.558442,238.056277 105.125541,237.692641 C104.692641,237.329004 104.47619,236.861472 104.47619,236.290043 C104.47619,235.614719 104.760668,235.056277 105.329623,234.614719 C105.898578,234.17316 106.615955,233.952381 107.481756,233.952381 C107.877551,233.952381 108.32282,234.004329 108.817563,234.108225 C109.312307,234.212121 109.769944,234.341991 110.190476,234.497835 L110.190476,234.497835 L110.190476,236.017316 C110.190476,236.277056 110.103896,236.530303 109.930736,236.777056 C109.757576,237.02381 109.534941,237.251082 109.262832,237.458874 C108.916512,237.692641 108.520717,237.880952 108.075448,238.02381 C107.630179,238.166667 107.197279,238.238095 106.776747,238.238095 Z M128.285714,242.52381 L128.285714,215.380952 L121.142857,215.380952 L121.142857,242.52381 L128.285714,242.52381 Z M138.285714,242.52381 L138.285714,215.380952 L131.142857,215.380952 L131.142857,242.52381 L138.285714,242.52381 Z M151.857143,243 C154.262897,243 156.290427,242.499971 157.939732,241.499913 C159.589038,240.499855 160.810516,239.21228 161.604167,237.637188 L161.604167,237.637188 L155.614583,235.912088 C155.391369,236.537124 154.93874,237.024653 154.256696,237.374673 C153.574653,237.724693 152.849206,237.899703 152.080357,237.899703 C151.261905,237.899703 150.505456,237.66844 149.811012,237.205913 C149.116567,236.743386 148.732143,235.987092 148.657738,234.937031 L148.657738,234.937031 L162.385417,234.937031 C162.43502,234.637014 162.478423,234.293244 162.515625,233.905721 C162.552827,233.518199 162.571429,233.136927 162.571429,232.761905 C162.571429,231.411826 162.342014,230.118001 161.883185,228.880429 C161.424355,227.642857 160.742312,226.555294 159.837054,225.617739 C158.931796,224.680185 157.809524,223.930141 156.470238,223.367609 C155.130952,222.805076 153.593254,222.52381 151.857143,222.52381 C150.09623,222.52381 148.552331,222.805076 147.225446,223.367609 C145.898562,223.930141 144.78249,224.686435 143.877232,225.63649 C142.971974,226.586546 142.289931,227.69911 141.831101,228.974185 C141.372272,230.249259 141.142857,231.599337 141.142857,233.02442 C141.142857,234.349497 141.378472,235.61207 141.849702,236.81214 C142.320933,238.01221 143.009177,239.074772 143.914435,239.999826 C144.819692,240.924879 145.941964,241.656172 147.28125,242.193703 C148.620536,242.731234 150.145833,243 151.857143,243 Z M154.952381,230.619048 L148.285714,230.619048 C148.413428,229.736353 148.771027,229.039489 149.358511,228.528455 C149.945995,228.017422 150.699507,227.761905 151.619048,227.761905 C152.538588,227.761905 153.2921,228.017422 153.879584,228.528455 C154.467068,229.039489 154.824667,229.736353 154.952381,230.619048 L154.952381,230.619048 Z M171.794927,243 C172.882907,243 173.989431,242.856985 175.114501,242.570954 C176.239571,242.284923 177.296642,241.930493 178.285714,241.507665 L178.285714,241.507665 L177.024647,235.91141 C176.579564,236.110388 176.134482,236.265839 175.689399,236.377764 C175.244317,236.489689 174.848688,236.545652 174.502513,236.545652 C174.032703,236.545652 173.661801,236.415073 173.389806,236.153914 C173.117811,235.892755 172.981814,235.438837 172.981814,234.792158 L172.981814,234.792158 L172.981814,228.300502 L176.802106,228.300502 L176.802106,222.965405 L172.981814,222.965405 L172.981814,216.809524 L165.934673,216.809524 L165.934673,222.965405 L163.52381,222.965405 L163.52381,228.300502 L165.934673,228.300502 L165.934673,237.291819 C165.934673,238.361326 166.089216,239.256727 166.398301,239.978022 C166.707386,240.699317 167.127742,241.283815 167.659368,241.731515 C168.190995,242.179216 168.815347,242.502555 169.532424,242.701533 C170.249501,242.900511 171.003669,243 171.794927,243 Z" id="MEWwallet"></path>
        </g>
    </g>
</svg>