<?xml version="1.0" encoding="UTF-8"?>
<svg width="181px" height="95px" viewBox="0 0 181 95" version="1.1" xmlns="http://www.w3.org/2000/svg" xmlns:xlink="http://www.w3.org/1999/xlink">
    <!-- Generator: sketchtool 63.1 (101010) - https://sketch.com -->
    <title>3FE9230B-0953-4A81-A276-0D6FD6ACAAAA@1.00x</title>
    <desc>Created with sketchtool.</desc>
    <g id="Home" stroke="none" stroke-width="1" fill="none" fill-rule="evenodd">
        <g id="Mobile" transform="translate(-16.000000, -120.000000)" fill="#202124" fill-rule="nonzero">
            <path d="M31.454918,161 L31.454918,139.402817 L38.4453552,154.590141 L44.5546448,154.590141 L51.545082,139.402817 L51.545082,161 L63,161 L63,120 L50.5464481,120 L41.5,139.287324 L32.5122951,120 L20,120 L20,161 L31.454918,161 Z M100,161 L100,151.183099 L82.1758893,151.183099 L82.1758893,144.715493 L96.9624506,144.715493 L96.9624506,135.591549 L82.1758893,135.591549 L82.1758893,129.816901 L99.4841897,129.816901 L99.4841897,120 L71,120 L71,161 L100,161 Z M126.642923,161 L132.47086,146.332394 L138.357077,161 L147.798335,161 L164,120 L151.644773,120 L142.72803,148.122535 L139.755782,139.576056 L146.574468,120 L136.142461,120 L132.47086,132.646479 L128.857539,120 L118.425532,120 L125.12766,139.576056 L122.27197,148.122535 L113.296947,120 L101,120 L117.201665,161 L126.642923,161 Z M38.9127072,214 L42.9701657,200.503802 L47.0872928,214 L59.438674,214 L70,183 L58.3646409,183 L52.7558011,200.798479 L48.280663,183 L37.719337,183 L33.2441989,200.798479 L27.6353591,183 L16,183 L26.561326,214 L38.9127072,214 Z M80.9063098,215 C85.0159337,215 88.0981517,213.534799 90.1529637,210.604396 L90.1529637,210.604396 L90.1529637,214.413919 L101,214.413919 L101,196.128205 C101,191.752137 99.6564691,188.470085 96.9694073,186.282051 C94.2823454,184.094017 90.4493308,183 85.4703633,183 C80.2147865,183 75.5321861,184.308913 71.4225621,186.92674 L71.4225621,186.92674 L74.6826004,193.842491 C76.3422562,192.748474 77.9228808,191.918193 79.4244742,191.351648 C80.9260676,190.785104 82.5659656,190.501832 84.3441683,190.501832 C86.2409178,190.501832 87.6140854,190.85348 88.4636711,191.556777 C89.3132569,192.260073 89.7380497,193.334554 89.7380497,194.78022 L89.7380497,194.78022 L89.7380497,195.717949 C88.0783939,194.936508 85.9840663,194.545788 83.4550669,194.545788 C81.4792862,194.545788 79.6714468,194.799756 78.0315488,195.307692 C76.3916507,195.815629 74.9789675,196.538462 73.793499,197.47619 C72.6080306,198.413919 71.6794136,199.527473 71.0076482,200.81685 C70.3358827,202.106227 70,203.532357 70,205.095238 C70,206.501832 70.2766093,207.810745 70.8298279,209.021978 C71.3830465,210.233211 72.1437221,211.278388 73.1118547,212.157509 C74.0799873,213.03663 75.235819,213.730159 76.5793499,214.238095 C77.9228808,214.746032 79.3652008,215 80.9063098,215 Z M83.6233766,208 C82.5714286,208 81.7045455,207.70303 81.0227273,207.109091 C80.3409091,206.515152 80,205.751515 80,204.818182 C80,203.715152 80.4480519,202.80303 81.3441558,202.081818 C82.2402597,201.360606 83.3701299,201 84.7337662,201 C85.3571429,201 86.0584416,201.084848 86.8376623,201.254545 C87.6168831,201.424242 88.3376623,201.636364 89,201.890909 L89,201.890909 L89,204.372727 C89,204.79697 88.8636364,205.210606 88.5909091,205.613636 C88.3181818,206.016667 87.9675325,206.387879 87.538961,206.727273 C86.9935065,207.109091 86.3701299,207.416667 85.6688312,207.65 C84.9675325,207.883333 84.2857143,208 83.6233766,208 Z M118,214 L118,171 L107,171 L107,214 L118,214 Z M133,214 L133,171 L122,171 L122,214 L133,214 Z M155,215 C158.81713,215 162.034144,214.218559 164.651042,212.655678 C167.26794,211.092796 169.206019,209.080586 170.465278,206.619048 L170.465278,206.619048 L160.961806,203.923077 C160.607639,204.899878 159.889468,205.661783 158.807292,206.208791 C157.725116,206.7558 156.574074,207.029304 155.354167,207.029304 C154.055556,207.029304 152.855324,206.667888 151.753472,205.945055 C150.65162,205.222222 150.041667,204.040293 149.923611,202.399267 L149.923611,202.399267 L171.704861,202.399267 C171.783565,201.930403 171.852431,201.393162 171.911458,200.787546 C171.970486,200.181929 172,199.586081 172,199 C172,196.89011 171.635995,194.868132 170.907986,192.934066 C170.179977,191 169.097801,189.300366 167.661458,187.835165 C166.225116,186.369963 164.444444,185.197802 162.319444,184.318681 C160.194444,183.43956 157.75463,183 155,183 C152.206019,183 149.756366,183.43956 147.651042,184.318681 C145.545718,185.197802 143.774884,186.379731 142.338542,187.864469 C140.902199,189.349206 139.820023,191.087912 139.092014,193.080586 C138.364005,195.07326 138,197.18315 138,199.410256 C138,201.481074 138.373843,203.454212 139.121528,205.32967 C139.869213,207.205128 140.961227,208.86569 142.397569,210.311355 C143.833912,211.757021 145.614583,212.899878 147.739583,213.739927 C149.864583,214.579976 152.284722,215 155,215 Z M160,196 L149,196 C149.210728,194.455285 149.800766,193.235772 150.770115,192.341463 C151.739464,191.447154 152.982759,191 154.5,191 C156.017241,191 157.260536,191.447154 158.229885,192.341463 C159.199234,193.235772 159.789272,194.455285 160,196 L160,196 Z M186.886935,215 C188.582077,215 190.306114,214.776116 192.059045,214.328348 C193.811977,213.880579 195.458961,213.325736 197,212.663818 L197,212.663818 L195.035176,203.903134 C194.341709,204.214625 193.648241,204.457977 192.954774,204.633191 C192.261307,204.808405 191.644891,204.896011 191.105528,204.896011 C190.373534,204.896011 189.795645,204.691595 189.371859,204.282764 C188.948074,203.873932 188.736181,203.163343 188.736181,202.150997 L188.736181,202.150997 L188.736181,191.988604 L194.688442,191.988604 L194.688442,183.636752 L188.736181,183.636752 L188.736181,174 L177.756281,174 L177.756281,183.636752 L174,183.636752 L174,191.988604 L177.756281,191.988604 L177.756281,206.064103 C177.756281,207.738367 177.997069,209.140076 178.478643,210.269231 C178.960218,211.398386 179.615159,212.31339 180.443467,213.014245 C181.271776,213.7151 182.244556,214.221273 183.361809,214.532764 C184.479062,214.844255 185.654104,215 186.886935,215 Z" id="MEWwallet"></path>
        </g>
    </g>
</svg>