<?xml version="1.0" encoding="UTF-8"?>
<svg width="33px" height="28px" viewBox="0 0 33 28" version="1.1" xmlns="http://www.w3.org/2000/svg" xmlns:xlink="http://www.w3.org/1999/xlink">
    <!-- Generator: Sketch 54.1 (76490) - https://sketchapp.com -->
    <title>reddit</title>
    <desc>Created with Sketch.</desc>
    <g id="Landing-page" stroke="none" stroke-width="1" fill="none" fill-rule="evenodd">
        <g id="Desktop" transform="translate(-795.000000, -1150.000000)" fill="#202124">
            <g id="social" transform="translate(522.000000, 1150.000000)">
                <path d="M276.03,16.62165 C275.9475,17.00115 275.9055,17.3916 275.9055,17.78625 C275.9055,22.52025 281.958,26.37825 289.3995,26.37825 C296.838,26.37825 302.8905,22.52295 302.8905,17.78625 C302.8905,17.4096 302.85,17.0355 302.7765,16.674 L302.757,16.6299 C302.727,16.5543 302.7165,16.4787 302.7165,16.4031 C302.301,14.78745 301.1805,13.3218 299.5605,12.13665 C299.4975,12.1146 299.439,12.08295 299.3865,12.04035 C299.3505,12.0129 299.325,11.98263 299.295,11.952375 C296.8305,10.255695 293.3055,9.19149 289.401,9.19149 C285.5295,9.19149 282.039,10.23507 279.5745,11.90151 C279.555,11.92626 279.5355,11.946885 279.507,11.968875 C279.4545,12.01425 279.3915,12.0513 279.3285,12.072 C277.671,13.25715 276.5205,14.73525 276.0915,16.3659 C276.0915,16.4457 276.0735,16.52265 276.042,16.6011 L276.03,16.62165 Z M289.467,24.10275 C287.001,24.10275 285.264,23.56785 284.157,22.45695 C283.9185,22.2177 283.9185,21.8286 284.157,21.588 C284.3985,21.36105 284.7885,21.36105 285.03,21.588 C285.8955,22.45275 287.346,22.8846 289.467,22.8846 C291.588,22.8846 293.0295,22.4721 293.8935,21.6072 C294.12,21.38175 294.513,21.38175 294.759,21.6072 C294.9855,21.8547 294.9855,22.24665 294.759,22.494 C293.646,23.60505 291.9195,24.1413 289.449,24.1413 L289.467,24.10275 Z M284.5095,13.69035 C283.2525,13.69035 282.204,14.74215 282.204,15.99615 C282.204,17.2473 283.2525,18.26475 284.5095,18.26475 C285.7665,18.26475 286.779,17.2473 286.779,15.99615 C286.779,14.74215 285.7635,13.69035 284.5095,13.69035 Z M294.4545,13.69035 C293.1975,13.69035 292.1475,14.74215 292.1475,15.99615 C292.1475,17.2473 293.1975,18.26475 294.4545,18.26475 C295.7115,18.26475 296.724,17.2473 296.724,15.99615 C296.724,14.74215 295.7085,13.69035 294.4545,13.69035 Z M300.708,11.497275 C302.133,12.6426 303.183,14.001 303.717,15.49005 C304.3365,15.0282 304.7055,14.3022 304.7055,13.49775 C304.7055,12.12015 303.585,11.000925 302.2065,11.000925 C301.6575,11.000925 301.137,11.178285 300.708,11.50002 L300.708,11.497275 Z M276.7275,11.00367 C275.349,11.00367 274.2285,12.12555 274.2285,13.5033 C274.2285,14.24985 274.5585,14.9442 275.115,15.4131 C275.6655,13.9296 276.726,12.5904 278.157,11.45877 C277.7415,11.170035 277.2465,11.006415 276.729,11.006415 L276.729,11.00367 L276.7275,11.00367 Z M289.401,27.61155 C281.28,27.61155 274.6755,23.20485 274.6755,17.7918 C274.6755,17.41365 274.707,17.04375 274.77,16.6794 C273.6795,16.00155 273,14.8068 273,13.49775 C273,11.440905 274.6875,9.767595 276.747,9.767595 C277.674,9.767595 278.538,10.10583 279.2175,10.705305 C281.769,9.067755 285.2085,8.036535 288.996,7.966425 L291.4875,0.371235 L292.0425,0.501855 C292.0425,0.501855 292.065,0.501855 292.065,0.5046 L297.8715,1.869915 C298.344,0.772725 299.436,3.90798505e-14 300.711,3.90798505e-14 C302.4,3.90798505e-14 303.7785,1.380435 303.7785,3.071625 C303.7785,4.765545 302.3985,6.14325 300.711,6.14325 C299.022,6.14325 297.645,4.7628 297.645,3.077115 L292.35,1.823175 L290.3325,7.9788 C293.976,8.12316 297.2715,9.153 299.742,10.75755 C300.4215,10.119585 301.3155,9.768975 302.2635,9.768975 C304.323,9.768975 306,11.43678 306,13.4964 C306,14.85345 305.2575,16.0896 304.1055,16.74825 C304.1445,17.0988 304.1865,17.42745 304.1865,17.778 C304.1655,23.19255 297.579,27.59925 289.4475,27.59925 L289.401,27.61155 Z M300.6465,1.23057 C299.628,1.23057 298.803,2.05416 298.803,3.070245 C298.803,4.08495 299.628,4.912665 300.6465,4.912665 C301.653,4.912665 302.475,4.08771 302.475,3.078495 C302.475,2.07066 301.653,1.24707 300.6225,1.24707 L300.6465,1.23057 Z" id="reddit"></path>
            </g>
        </g>
    </g>
</svg>