<?xml version="1.0" encoding="UTF-8"?>
<svg width="53px" height="59px" viewBox="0 0 53 59" version="1.1" xmlns="http://www.w3.org/2000/svg" xmlns:xlink="http://www.w3.org/1999/xlink">
    <!-- Generator: Sketch 61.2 (89653) - https://sketch.com -->
    <title>Icon</title>
    <desc>Created with Sketch.</desc>
    <g id="Home" stroke="none" stroke-width="1" fill="none" fill-rule="evenodd" stroke-linejoin="round">
        <g id="Desktop" transform="translate(-486.000000, -7047.000000)" fill="#000000" stroke="#000000">
            <g id="Web" transform="translate(0.000000, 5707.000000)">
                <g id="Features" transform="translate(122.000000, 1014.000000)">
                    <g id="Group-5" transform="translate(0.000000, 140.000000)">
                        <g id="Feature" transform="translate(280.000000, 186.000000)">
                            <g id="icon_ens" transform="translate(50.000000, 0.000000)">
                                <g id="Unknown" transform="translate(35.000000, 1.000000)">
                                    <path d="M6.95293051,21.6371564 C7.48419874,22.7669133 8.79908763,25 8.79908763,25 L24,0 L9.16433454,10.3065539 C8.28033652,10.8932596 7.55507515,11.6874059 7.0525433,12.6189218 C5.6848456,15.4634465 5.64839508,18.7634172 6.95293051,21.6371564 Z" id="Path" stroke-width="2" fill-rule="nonzero"></path>
                                    <path d="M0.167699953,33.2332854 C0.503369158,38.1028268 2.90093105,42.5892042 6.74571783,45.5422358 L23,57 C23,57 12.8303844,42.1840403 4.25264905,27.4412293 C3.38424151,25.8836585 2.80044171,24.1807002 2.52920837,22.4139109 C2.40913811,21.6138516 2.40913811,20.8000592 2.52920837,20 C2.30555576,20.4189432 1.87140658,21.2767793 1.87140658,21.2767793 C1.00165517,23.0699934 0.409315147,24.987538 0.11507581,26.9624371 C-0.0542858437,29.0500543 -0.0366728271,31.1488734 0.167699953,33.2332854 Z" id="Path" stroke-width="2" fill-rule="nonzero"></path>
                                    <path d="M45.045608,35.3628436 C44.5143853,34.2330867 43.1996091,32 43.1996091,32 L28,57 L42.8343935,46.7000529 C43.7183158,46.1133472 44.4435149,45.3192009 44.9460037,44.387685 C46.3156404,41.5413151 46.3520931,38.2384515 45.045608,35.3628436 Z" id="Path" stroke-width="2" fill-rule="nonzero"></path>
                                    <path d="M50.8358547,23.7667146 C50.5001332,18.8971732 48.1021981,14.4107958 44.2568127,11.4577642 L28,0 C28,0 38.1646199,14.8159597 46.7502696,29.5587707 C47.616517,31.1167954 48.1981714,32.819731 48.4673996,34.5860891 C48.5874886,35.3861484 48.5874886,36.1999408 48.4673996,37 C48.691087,36.5810568 49.1253038,35.7232207 49.1253038,35.7232207 C49.9951906,33.9300066 50.5876229,32.012462 50.881908,30.0375629 C51.053483,27.9501459 51.0380692,25.851327 50.8358547,23.7667146 Z" id="Path" stroke-width="2" fill-rule="nonzero"></path>
                                </g>
                            </g>
                        </g>
                    </g>
                </g>
            </g>
        </g>
    </g>
</svg>