<?xml version="1.0" encoding="UTF-8"?>
<svg width="496px" height="52px" viewBox="0 0 496 52" version="1.1" xmlns="http://www.w3.org/2000/svg" xmlns:xlink="http://www.w3.org/1999/xlink">
    <!-- Generator: Sketch 61.2 (89653) - https://sketch.com -->
    <title>samsungBlockchain</title>
    <desc>Created with Sketch.</desc>
    <g id="Home" stroke="none" stroke-width="1" fill="none" fill-rule="evenodd">
        <g id="Desktop" transform="translate(-115.000000, -5021.000000)">
            <g id="Samsung" transform="translate(0.000000, 4547.000000)">
                <g id="samsungPartner" transform="translate(104.000000, 470.000000)">
                    <ellipse id="Oval" fill="#FFFFFF" fill-rule="evenodd" cx="32.465205" cy="31.2295082" rx="15.7407054" ry="15.9836066"></ellipse>
                    <g id="mew_full_logo" transform="translate(11.805529, 9.344262)" fill-rule="evenodd" stroke-width="1">
                        <g id="Group" transform="translate(-0.083794, 0.000000)">
                            <g id="MEWlogo" fill="#07A6B3" fill-rule="nonzero">
                                <path d="M20.6557377,0 C9.24738026,0 0,9.2482803 0,20.6557377 C0,32.0631951 9.2482803,41.3114754 20.6557377,41.3114754 C32.0631951,41.3114754 41.3114754,32.0631951 41.3114754,20.6557377 C41.3114754,9.2482803 32.0645452,0 20.6557377,0 Z M20.6557377,33.6373615 C13.6728383,33.6373615 7.68582449,27.9765992 7.68582449,20.9918997 C7.68582449,19.3520411 7.99768563,17.4592735 8.56605593,16.0214722 L14.1377049,18.394857 C14.1197043,18.4727097 14.0967535,18.5748634 14.0711025,18.6896175 C13.9043919,19.2331382 13.8062778,19.7953669 13.7790421,20.3632273 C13.767006,20.4757537 13.7627958,20.5889798 13.7664417,20.7020894 C13.7664417,20.7281903 13.7700418,20.7538412 13.7713918,20.7799421 C13.7964067,22.8551178 14.7615789,24.8068779 16.3955173,26.0864187 C18.0294558,27.3659595 20.1556846,27.8350823 22.176342,27.3618772 L25.3435551,32.7400193 C23.8523213,33.3348272 22.2612191,33.6393926 20.6557377,33.6373615 L20.6557377,33.6373615 Z M32.6261652,25.7935712 L18.48126,19.8002572 L27.553134,19.7606557 C27.2273224,16.4701382 23.8454516,13.7952427 20.6561877,13.7952427 C19.9329375,13.7946172 19.2146338,13.9144612 18.5307618,14.1498554 L15.3918997,8.82076503 C17.0438577,8.06389377 18.8399987,7.67334825 20.6570878,7.67591148 C27.6399871,7.67591148 33.6076503,13.4415301 33.6076503,20.4244294 C33.6063002,22.3081967 33.3632915,24.1874638 32.6248152,25.7935712 L32.6261652,25.7935712 Z"></path>
                            </g>
                            <path d="M58.6894482,34.4262295 L58.6894482,17.9404295 L64.6631263,29.9265758 L68.0766567,29.9265758 L74.0503348,17.9404295 L74.0503348,34.4262295 L80.4119141,34.4262295 L80.4119141,6.8852459 L73.5460633,6.8852459 L66.3698915,21.2763796 L59.2325098,6.8852459 L52.3278689,6.8852459 L52.3278689,34.4262295 L58.6894482,34.4262295 Z M105.189102,34.4262295 L105.189102,28.8404526 L92.1944124,28.8404526 L92.1944124,22.9831448 L103.055645,22.9831448 L103.055645,17.8240591 L92.1944124,17.8240591 L92.1944124,12.4710229 L104.839991,12.4710229 L104.839991,6.8852459 L85.8328331,6.8852459 L85.8328331,34.4262295 L105.189102,34.4262295 Z M122.673747,34.4262295 L127.018241,23.6425768 L131.401524,34.4262295 L136.71577,34.4262295 L147.732163,6.8852459 L140.788732,6.8852459 L133.884091,27.1336874 L131.091203,19.7247749 L135.707227,6.92403602 L129.811129,6.92403602 L127.018241,15.7293927 L124.225352,6.92403602 L118.368044,6.92403602 L122.906488,19.7247749 L120.19118,27.1336874 L113.247749,6.8852459 L106.343108,6.8852459 L117.320711,34.4262295 L122.673747,34.4262295 Z" id="MEW" fill="#FFFFFF"></path>
                        </g>
                    </g>
                    <g id="samsungBlockchain" transform="translate(190.364156, 0.000000)">
                        <g id="Group_1" stroke-width="1" fill-rule="evenodd" transform="translate(8.854147, 8.852459)">
                            <path d="M41.6577769,14.8731148 C41.1427607,10.9878689 39.7684004,7.47 37.3438398,4.89245902 L37.3438398,4.89245902 C34.7662993,2.46885246 31.2443165,1.0942623 27.362265,0.579836066 C25.297138,0.287705277 23.211681,0.163855011 21.1264862,0.209508197 C19.0411279,0.163852211 16.9555072,0.287702426 14.8902154,0.579836066 C11.0042288,1.0942623 7.48667302,2.46885246 4.90864061,4.89245902 L4.90864061,4.89245902 C2.48457197,7.47 1.10971973,10.9908197 0.595195424,14.8731148 C0.302677238,16.9378117 0.178965468,19.0229117 0.225288847,21.1077049 C0.178539172,23.1931269 0.30192214,25.2788885 0.59421163,27.3442623 C1.10873594,31.2295082 2.48358818,34.7463934 4.90765682,37.3239344 L4.90765682,37.3239344 C7.48568923,39.747541 11.0071802,41.1221311 14.8892316,41.6365574 C16.9544928,41.9289961 19.0401384,42.0528478 21.1255024,42.0068852 C23.2107029,42.052845 25.2961849,41.9289933 27.3612812,41.6365574 C31.2448084,41.1221311 34.7653155,39.747541 37.3428561,37.3239344 L37.3428561,37.3239344 C39.7674166,34.7463934 41.1417769,31.2255738 41.6567931,27.3442623 C41.9486899,25.279503 42.0723987,23.1944538 42.0266997,21.1096721 C42.0724052,19.0248904 41.9486964,16.9398406 41.6567931,14.875082" id="Path_1" fill="#1E4BC6" fill-rule="nonzero"></path>
                            <path d="M21.1309133,34.5840984 L9.45770448,27.8459016 L9.45770448,14.3704918 L21.1309133,7.63278689 L32.804122,14.3704918 L32.804122,27.8459016 L21.1309133,34.5840984 Z M11.6156568,26.6001639 L21.1309133,32.092623 L30.6451859,26.6001639 L30.6451859,15.6152459 L21.1309133,10.1222951 L11.6156568,15.6152459 L11.6156568,26.6001639 Z" id="Path_2" fill="#FFFFFF" fill-rule="nonzero"></path>
                            <path d="M23.7704328,9.01721311 C23.7704328,10.4584047 22.6018934,11.6267213 21.1604271,11.6267213 C19.7189607,11.6267213 18.5504214,10.4584047 18.5504214,9.01721311 C18.5504214,7.57602153 19.7189607,6.40770492 21.1604271,6.40770492 C22.6017809,6.40797644 23.7701612,7.57613401 23.7704328,9.01721311" id="Path_3" fill="#FFFFFF" fill-rule="nonzero"></path>
                            <path d="M23.7704328,33.1967213 C23.7701611,34.6378488 22.6015015,35.8059187 21.1600992,35.8057377 C19.7186969,35.8055566 18.5503309,34.6371932 18.5504214,33.1960656 C18.5505119,31.7549381 19.7190248,30.5867213 21.1604271,30.5867213 C21.8527289,30.5867213 22.5166686,30.8617183 23.0061538,31.3512024 C23.4956389,31.8406865 23.7705633,32.5045515 23.7704328,33.1967213" id="Path_4" fill="#FFFFFF" fill-rule="nonzero"></path>
                            <path d="M13.2492469,15.0831148 C13.2492469,16.1385623 12.6133394,17.0900837 11.6380471,17.493986 C10.6627548,17.8978883 9.54014484,17.6746298 8.79368844,16.9283157 C8.04723203,16.1820016 7.82393102,15.0596056 8.22791032,14.0844992 C8.63188961,13.1093928 9.58359241,12.4736066 10.6392412,12.4736066 C12.0807075,12.4736066 13.2492469,13.6419232 13.2492469,15.0831148" id="Path_5" fill="#FFFFFF" fill-rule="nonzero"></path>
                            <path d="M34.3344137,15.0831148 C34.3344137,16.1388307 33.6981858,17.0905382 32.7225311,17.494267 C31.7468764,17.8979958 30.6240352,17.674196 29.8778115,16.9272699 C29.1315878,16.1803438 28.9090159,15.0574641 29.3139253,14.0824529 C29.7188346,13.1074416 30.6714429,12.4724128 31.7273594,12.4736049 C33.1675605,12.4755058 34.3341436,13.6431869 34.3344137,15.0831148" id="Path_6" fill="#FFFFFF" fill-rule="nonzero"></path>
                            <path d="M13.2492471,27.1318033 C13.2489752,28.5729308 12.0803156,29.7410007 10.6389133,29.7408197 C9.19751101,29.7406386 8.02914498,28.5722751 8.02923551,27.1311476 C8.02932605,25.69002 9.19783886,24.5218032 10.6392412,24.5218032 C11.331583,24.5216727 11.9955986,24.7966279 12.485112,25.2861403 C12.9746255,25.7756527 13.2495079,26.4395935 13.2492471,27.1318033" id="Path_7" fill="#FFFFFF" fill-rule="nonzero"></path>
                            <path d="M34.3344138,27.1318033 C34.3342141,28.1874744 33.6978606,29.139031 32.7221902,29.5426047 C31.7465199,29.9461785 30.6237594,29.7222573 29.8776378,28.9752926 C29.1315161,28.2283279 28.9090343,27.1054869 29.3139724,26.1305361 C29.7189106,25.1555852 30.6714876,24.5206095 31.7273594,24.5218016 C33.1678651,24.5234319 34.3346861,25.6915713 34.3344138,27.1318033" id="Path_8" fill="#FFFFFF" fill-rule="nonzero"></path>
                            <path d="M23.7960139,19.5713115 C23.7977833,18.2780145 22.8533408,17.1778443 21.5744869,16.983483 C20.295633,16.7891218 19.0668697,17.5590065 18.6841809,18.7944114 C18.3014921,20.0298163 18.8799376,21.3593028 20.0448046,21.9216393 L20.0448046,25.2570492 L22.3198284,25.2570492 L22.3198284,21.9216393 C23.2218921,21.48603 23.7952203,20.5728923 23.7955195,19.5713115" id="Path_9" fill="#45D2F9"></path>
                        </g>
                        <path d="M69.1607245,25.9716393 C69.0945232,25.6912909 69.0889888,25.4000372 69.1444919,25.117377 C69.2691622,24.4135371 69.9242103,23.9312696 70.6334643,24.0211475 C71.0380665,23.9847737 71.4383373,24.1271713 71.7290204,24.4108951 C72.0197035,24.6946188 72.1717085,25.0912748 72.1450639,25.4965574 L72.1450639,26.5032787 L76.2032145,26.5032787 L76.2032145,25.3622951 C76.2032145,21.8242623 73.0122784,21.2601639 70.7121678,21.2601639 C67.8227645,21.2601639 65.4611668,22.2191803 65.0292812,24.8754098 C64.896195,25.6012867 64.9072262,26.3462491 65.0617464,27.0678689 C65.766143,30.3929508 71.5479009,31.354918 72.3910124,33.4588525 C72.5186506,33.8474852 72.529765,34.2649649 72.4229857,34.6598361 C72.2896816,35.2067213 71.9222345,35.7585246 70.8341582,35.7585246 C69.817899,35.7585246 69.210898,35.1683607 69.210898,34.2777049 L69.2049952,32.7127869 L64.8399009,32.7127869 L64.8399009,33.9560656 C64.8399009,37.5954098 67.696347,38.6862295 70.753979,38.6862295 C73.6930639,38.6862295 76.1068027,37.684918 76.5008122,34.9627869 C76.6422902,34.0803938 76.6364725,33.1806545 76.4835958,32.3001639 C75.7964156,28.8865574 69.626551,27.8754098 69.1607245,25.9716393 Z M122.068187,26.0114754 C122.009079,25.7346945 122.004401,25.4490592 122.054414,25.1704918 C122.179427,24.4736144 122.827253,23.9958255 123.530105,24.0821311 C123.930637,24.0468632 124.326509,24.188856 124.613274,24.4706459 C124.900039,24.7524358 125.048889,25.1457155 125.020553,25.5467213 L125.020553,26.5411475 L129.031481,26.5411475 L129.031481,25.407541 C129.031481,21.9029508 125.888751,21.352623 123.613727,21.352623 C120.747935,21.352623 118.407981,22.2968852 117.980522,24.9339344 C117.847562,25.6516353 117.860611,26.3887643 118.01889,27.1013115 C118.715908,30.3895082 124.441098,31.3431148 125.271912,33.422459 C125.391812,33.8094443 125.402197,34.2220651 125.301918,34.6145902 C125.177468,35.1555738 124.813464,35.7 123.734242,35.7 C122.721918,35.7 122.110982,35.1181967 122.110982,34.2413115 L122.110982,32.6803279 L117.794093,32.6803279 L117.794093,33.9211475 C117.794093,37.5167213 120.610696,38.6011475 123.644717,38.6011475 C126.550353,38.6011475 128.950318,37.6086885 129.334982,34.917541 C129.472776,34.0430955 129.463132,33.1517526 129.306452,32.2804918 C128.63452,28.9081967 122.531554,27.8940984 122.070646,26.0114754 L122.068187,26.0114754 Z M159.009655,34.8737705 L155.178761,21.7785246 L149.143184,21.7785246 L149.143184,37.8742623 L153.136896,37.8742623 L152.904721,24.3595082 L157.019439,37.8742623 L162.809068,37.8742623 L162.809068,21.7785246 L158.789777,21.7785246 L159.009655,34.8737705 Z M82.2560076,21.7785246 L79.2446139,38.0434426 L83.6392221,38.0434426 L85.9098189,22.9863934 L88.126307,38.0434426 L92.4904175,38.0434426 L89.4898456,21.7785246 L82.2560076,21.7785246 Z M106.828724,21.7785246 L104.774071,34.492623 L102.72286,21.7785246 L96.0881525,21.7785246 L95.7364461,38.0434426 L99.8024671,38.0434426 L99.9121602,22.9863934 L102.708103,38.0434426 L106.833643,38.0434426 L109.633521,22.9863934 L109.744198,38.0434426 L113.820549,38.0434426 L113.456545,21.7785246 L106.828724,21.7785246 Z M144.632488,21.7785246 L140.517769,21.7785246 L140.517769,33.8114754 C140.528021,34.0180689 140.515982,34.2251654 140.481861,34.4291803 C140.286807,35.1279089 139.650086,35.6111625 138.924515,35.6111625 C138.198943,35.6111625 137.562222,35.1279089 137.367169,34.4291803 C137.329154,34.2256189 137.315285,34.0182851 137.325849,33.8114754 L137.325849,21.7785246 L133.212606,21.7785246 L133.212606,33.4377049 C133.207687,33.7381967 133.231298,34.352459 133.249007,34.5132787 C133.532831,37.5516393 135.927878,38.5377049 138.918612,38.5377049 C141.909346,38.5377049 144.308328,37.5540984 144.597563,34.5132787 C144.631814,34.155845 144.643479,33.7966071 144.632488,33.4377049 L144.632488,21.7785246 Z M172.882135,28.9140984 L172.882135,31.2860656 L174.549666,31.2860656 L174.549666,33.6393443 C174.556985,33.846501 174.542642,34.0538554 174.506871,34.2580328 C174.440957,34.6967213 174.023828,35.4442623 172.840324,35.4442623 C171.65682,35.4442623 171.253956,34.6967213 171.183123,34.2580328 C171.152966,34.0532104 171.138659,33.8463672 171.140328,33.6393443 L171.140328,26.2057377 C171.134878,25.9476716 171.159641,25.689854 171.214112,25.437541 C171.442571,24.7352497 172.097253,24.2598318 172.835897,24.2598318 C173.574541,24.2598318 174.229223,24.7352497 174.457682,25.437541 C174.48938,25.64524 174.505821,25.8549815 174.506871,26.065082 L174.506871,26.967541 L178.604374,26.967541 L178.604374,26.4339344 C178.613747,26.0747854 178.603402,25.7153926 178.573384,25.357377 C178.264965,22.3081967 175.750879,21.3408197 172.867378,21.3408197 C169.983878,21.3408197 167.515539,22.315082 167.156946,25.357377 C167.12448,25.6357377 167.074799,26.1359016 167.074799,26.4339344 L167.074799,33.27 C167.075773,33.6284925 167.097453,33.9866297 167.139729,34.342623 C167.407321,37.3101639 169.978959,38.3616393 172.856065,38.3616393 C175.750879,38.3616393 178.3053,37.3101639 178.576827,34.342623 C178.626017,33.7986885 178.630444,33.5680328 178.636839,33.27 L178.636839,28.9140984 L172.882135,28.9140984 Z" id="Path_10" fill="#FFFFFF" fill-rule="nonzero"></path>
                        <path d="M217.814963,24.6659016 C219.701685,24.6514251 221.51954,25.3738408 222.881502,26.6793443 C223.533292,27.3070022 224.054823,28.0570615 224.416221,28.8865574 C225.156147,30.6160129 225.156147,32.5728396 224.416221,34.3022951 C224.054948,35.1318605 223.533401,35.8819427 222.881502,36.5095082 C221.519885,37.8155477 219.701802,38.5380538 217.814963,38.5229508 L217.814963,38.5254098 C216.856333,38.5318733 215.905746,38.3502469 215.017052,37.9908197 C213.31205,37.3120859 211.945276,35.9858885 211.215672,34.3022951 C210.475746,32.5728396 210.475746,30.6160129 211.215672,28.8865574 C211.945417,27.2037368 213.312276,25.8785185 215.017052,25.2009836 C215.905795,24.8416701 216.856327,24.6598872 217.814963,24.6659016 Z M235.389952,24.9816393 C236.053758,25.1807319 236.685682,25.4736965 237.26654,25.8516393 C237.825664,26.215488 238.32721,26.6609079 238.754528,27.1731148 C239.179941,27.6848509 239.529794,28.2549098 239.793415,28.8659016 L236.936477,29.9945902 C236.631768,29.2974709 236.12602,28.707059 235.483905,28.2988525 C234.810507,27.8716852 234.026414,27.6517569 233.229049,27.6663934 C232.144327,27.6563158 231.098423,28.0695162 230.313575,28.8181967 C229.943961,29.1721114 229.65068,29.5978912 229.451771,30.0693443 C229.245693,30.5560391 229.141243,31.079698 229.144827,31.6081967 C229.14271,32.1293994 229.247162,32.6455352 229.451771,33.124918 C229.65068,33.5963711 229.943961,34.0221509 230.313575,34.3760656 C230.693155,34.7369759 231.137838,35.0225271 231.623989,35.217541 C232.141421,35.4267893 232.695015,35.5320725 233.253152,35.527377 C234.072515,35.5505157 234.878236,35.3141815 235.55523,34.8521311 C236.181334,34.4151601 236.674899,33.8141461 236.981731,33.115082 L239.838669,34.2659016 C239.572083,34.8815596 239.22255,35.4578812 238.799783,35.9788525 C238.377854,36.5010588 237.880503,36.9575397 237.324092,37.3332787 C236.746658,37.7200552 236.113721,38.0167296 235.447012,38.2131148 C234.72008,38.4260367 233.965852,38.5312539 233.208389,38.5254098 C231.309716,38.5385204 229.480466,37.8123569 228.107908,36.5006557 C227.460027,35.8761558 226.941827,35.1299228 226.583028,34.3047541 C225.843102,32.5752986 225.843102,30.6184719 226.583028,28.8890164 C227.312772,27.2061958 228.679631,25.8809775 230.384408,25.2034426 C231.982049,24.5760754 233.743064,24.4980421 235.389952,24.9816393 Z M262.614978,24.9816393 C263.278736,25.1808581 263.910642,25.4738145 264.491565,25.8516393 C265.050596,26.2156113 265.552124,26.6610159 265.979554,27.1731148 C266.404977,27.684843 266.754831,28.2549035 267.01844,28.8659016 L264.16101,29.9945902 C263.856485,29.2975056 263.350903,28.7070877 262.70893,28.2988525 C262.035533,27.8716852 261.25144,27.6517569 260.454074,27.6663934 C259.369231,27.6564476 258.323222,28.06962 257.538109,28.8181967 C257.168644,29.1722376 256.875385,29.5979849 256.676305,30.0693443 C256.470227,30.5560391 256.365777,31.079698 256.369361,31.6081967 C256.367244,32.1293994 256.471696,32.6455352 256.676305,33.124918 C256.875385,33.5962774 257.168644,34.0220247 257.538109,34.3760656 C257.917872,34.736981 258.362717,35.0225288 258.849014,35.217541 C259.366432,35.4268389 259.920036,35.532124 260.478177,35.527377 C261.297532,35.5504482 262.103233,35.31412 262.780255,34.8521311 C263.406238,34.4150285 263.899772,33.8140523 264.206757,33.115082 L267.063695,34.2659016 C266.797105,34.8816641 266.447394,35.4580066 266.024316,35.9788525 C265.602656,36.5013106 265.105265,36.9578285 264.548625,37.3332787 C263.97142,37.7201438 263.33863,38.0168266 262.672038,38.2131148 C261.944786,38.4261181 261.190222,38.531336 260.432431,38.5254098 C258.533928,38.5383924 256.704877,37.8122381 255.332442,36.5006557 C254.684561,35.8761558 254.16636,35.1299228 253.807561,34.3047541 C253.068382,32.5751458 253.068382,30.6186247 253.807561,28.8890164 C254.537917,27.2064439 255.904799,25.8813747 257.609434,25.2034426 C259.207074,24.5760754 260.96809,24.4980421 262.614978,24.9816393 Z M289.282684,24.6688525 C290.149625,24.6599082 291.009225,24.828448 291.808576,25.1640984 C292.539236,25.4650938 293.192977,25.9262724 293.721563,26.5136066 L293.721563,24.6939344 L296.909056,24.6939344 L296.909056,38.5037705 L293.721563,38.5037705 L293.721563,36.5409836 C293.199453,37.1714708 292.536184,37.6701754 291.785457,37.9967213 C290.982936,38.3528774 290.113457,38.5331458 289.235462,38.5254098 C287.512779,38.5174461 285.854711,37.8687911 284.584084,36.7057377 C283.923674,36.0937156 283.393642,35.3546907 283.025754,34.5329508 C282.618974,33.6127798 282.417546,32.6150631 282.435478,31.6091803 C282.416288,30.5969633 282.613334,29.5923028 283.013457,28.6622951 C283.724386,27.0276068 285.071796,25.7538146 286.744004,25.1355738 C287.554957,24.8274984 288.415164,24.6693546 289.282684,24.6688525 Z M198.028896,21.2690164 C199.933521,21.2690164 201.409213,21.6788525 202.455969,22.4985246 C203.528876,23.3712444 204.113759,24.7085986 204.026105,26.0886885 C204.087276,27.4747544 203.354894,28.7750137 202.137712,29.4413115 C202.891151,29.7622741 203.534956,30.2954014 203.990688,30.9757377 C204.442327,31.7042454 204.668247,32.5500852 204.639992,33.4067213 C204.639992,35.1063934 204.085296,36.3811475 202.975905,37.2309836 C201.866513,38.0808197 200.359176,38.5057377 198.453895,38.5057377 L192.60032,38.5057377 L192.598353,21.2690164 L198.028896,21.2690164 Z M209.267268,21.0334426 L209.267268,38.5018033 L206.055672,38.5018033 L206.055672,21.0334426 L209.267268,21.0334426 Z M244.235245,21.0334426 L244.235245,31.3490164 L250.114398,24.6919672 L253.93939,24.6919672 L248.604766,30.664918 L254.129754,38.5018033 L250.564484,38.5018033 L246.432549,32.5509836 L244.236721,34.982459 L244.236721,38.4998361 L241.049228,38.4998361 L241.047752,21.0334426 L244.235245,21.0334426 Z M271.458303,21.0334426 L271.458303,26.6065574 C271.930964,26.0082926 272.532357,25.5241767 273.217819,25.1901639 C273.957764,24.8352942 274.770168,24.6574885 275.59073,24.6708197 C277.305811,24.6708197 278.647542,25.1806557 279.615924,26.2003279 C280.584305,27.22 281.068332,28.6411475 281.068004,30.4637705 L281.068004,38.5018033 L277.809678,38.5018033 L277.809678,30.8444262 C277.861731,29.9433456 277.584863,29.0540069 277.030513,28.3416393 C276.429496,27.7000639 275.570283,27.3650149 274.69351,27.4303279 C274.264501,27.4281689 273.839271,27.5105581 273.442124,27.6727869 C273.05229,27.8308019 272.701127,28.071017 272.412583,28.3770492 C272.106309,28.7094602 271.873061,29.1023197 271.727863,29.5303279 C271.556217,30.0352375 271.473013,30.5659771 271.481914,31.0991803 L271.481914,38.5018033 L268.27081,38.5018033 L268.271302,21.0334426 L271.458303,21.0334426 Z M301.940179,24.6919672 L301.940179,38.5018033 L298.729075,38.5018033 L298.729075,24.6919672 L301.940179,24.6919672 Z M311.075691,24.6683607 C312.791428,24.6683607 314.133323,25.1781967 315.101377,26.1978689 C316.06943,27.217541 316.553457,28.6386885 316.553457,30.4613115 L316.553457,38.5018033 L313.318742,38.5018033 L313.318742,30.8208197 C313.368428,29.9272865 313.091506,29.0461669 312.539577,28.3416393 C311.938325,27.7001056 311.078989,27.3650791 310.202082,27.4303279 C309.336403,27.4108909 308.501922,27.7537117 307.900004,28.3760656 C307.235504,29.1211515 306.89869,30.1021562 306.965399,31.0981967 L306.965399,38.5018033 L303.777907,38.5018033 L303.78135,24.6919672 L306.943756,24.6919672 L306.943756,26.5785246 C307.412057,25.9931353 308.004878,25.5193714 308.679169,25.1916393 C309.426164,24.8324564 310.246936,24.6532415 311.075691,24.6683607 Z M288.111969,27.8827869 C287.618791,28.0782743 287.166388,28.3639749 286.777945,28.7252459 C286.399113,29.0814771 286.097715,29.5118917 285.89253,29.9896721 C285.677789,30.4863511 285.569059,31.0223621 285.573289,31.5634426 C285.569704,32.1081156 285.678375,32.6476884 285.89253,33.1485246 C286.097589,33.6326971 286.398809,34.0702182 286.777945,34.4345902 C287.163552,34.8023239 287.616506,35.0922128 288.111969,35.2883607 C288.547734,35.4627725 289.008379,35.5649286 289.475772,35.5914136 L289.755353,35.5976417 L290.037379,35.5919949 C290.50707,35.5662528 290.970031,35.4637145 291.40768,35.2878689 C291.895288,35.0915657 292.337312,34.7971066 292.706288,34.4227869 C293.070124,34.0508468 293.362272,33.6150415 293.568092,33.1372131 C293.782429,32.6404243 293.890981,32.1044647 293.886841,31.5634426 C293.889516,31.0297106 293.780961,30.5012734 293.568092,30.0118033 C293.363836,29.5361842 293.071427,29.1034938 292.706288,28.7365574 C292.334677,28.3682549 291.89315,28.0779728 291.40768,27.8827869 C290.34806,27.4691548 289.17159,27.4691548 288.111969,27.8827869 Z M198.312229,31.1370488 L195.809457,31.1370488 L195.809457,35.5509836 L198.453895,35.5509836 C199.233535,35.6063469 200.009672,35.4030583 200.662021,34.972623 C201.161597,34.5788979 201.438761,33.9670893 201.405277,33.3319672 C201.444249,32.7191143 201.205888,32.1211589 200.755973,31.7031148 C200.323104,31.3254098 199.508522,31.1367213 198.312229,31.1370488 Z M217.814963,27.6644262 C217.26818,27.6606624 216.726157,27.7661705 216.220724,27.9747541 C214.749413,28.579213 213.792169,30.0158766 213.801021,31.6062295 C213.798966,32.1274322 213.903418,32.643568 214.108027,33.1229508 C214.303661,33.5899066 214.587594,34.0147242 214.944252,34.3740984 C215.309353,34.7359694 215.742521,35.0219632 216.218757,35.2155738 C216.724697,35.4249203 217.267418,35.5309357 217.814963,35.527377 L217.814963,35.5254098 C218.357644,35.5301104 218.89564,35.4247067 219.396412,35.2155738 C219.870816,35.0182306 220.303466,34.7326897 220.671409,34.3740984 C221.413098,33.6441548 221.830175,32.6467625 221.82892,31.6062295 C221.832179,31.0777545 221.727738,30.5541454 221.521899,30.067377 C221.32438,29.5979635 221.035249,29.1726262 220.671409,28.8162295 C220.303338,28.4577962 219.870721,28.1722765 219.396412,27.9747541 C218.895672,27.7654658 218.357677,27.659895 217.814963,27.6644262 Z M198.026929,24.2198361 L195.809457,24.2198361 L195.809457,28.1385246 L198.028896,28.1385246 C199.052042,28.1385246 199.768244,27.9498361 200.177502,27.572459 C200.588937,27.1895174 200.813071,26.6463488 200.79139,26.0847541 C200.835013,25.5342697 200.593704,24.9997812 200.151924,24.6683607 C199.502092,24.3159623 198.763778,24.1601257 198.026929,24.2198361 Z M301.809827,19.8644262 C302.17349,20.2581815 302.3649,20.7807859 302.341567,21.3162295 C302.300012,22.1226199 301.797608,22.8329551 301.051028,23.140887 C300.304448,23.4488189 299.447241,23.299264 298.849098,22.7567213 C298.490566,22.3649873 298.302771,21.8466593 298.327195,21.3162295 C298.304409,20.7786936 298.500522,20.2548789 298.870742,19.8644262 C299.710754,19.1247135 300.969814,19.1247135 301.809827,19.8644262 Z" id="Combined-Shape" fill="#FFFFFF" fill-rule="nonzero"></path>
                    </g>
                    <rect id="Rectangle" fill="#5F6368" fill-rule="evenodd" x="182.001907" y="4.91803279" width="1" height="50.1639344"></rect>
                </g>
            </g>
        </g>
    </g>
</svg>