<?xml version="1.0" encoding="UTF-8"?>
<svg width="56px" height="54px" viewBox="0 0 56 54" version="1.1" xmlns="http://www.w3.org/2000/svg" xmlns:xlink="http://www.w3.org/1999/xlink">
    <!-- Generator: Sketch 61.2 (89653) - https://sketch.com -->
    <title>Icon</title>
    <desc>Created with Sketch.</desc>
    <g id="Home" stroke="none" stroke-width="1" fill="none" fill-rule="evenodd">
        <g id="Desktop" transform="translate(-484.000000, -6865.000000)">
            <g id="Web" transform="translate(0.000000, 5707.000000)">
                <g id="Features" transform="translate(122.000000, 1014.000000)">
                    <g id="Group-5" transform="translate(0.000000, 140.000000)">
                        <g id="Feature" transform="translate(280.000000, 0.000000)">
                            <g id="icon_sign_message" transform="translate(50.000000, 0.000000)">
                                <g id="Group" transform="translate(34.000000, 6.000000)">
                                    <path d="M52,50 L37.546,42 L12.819426,42 C8.3618323,42 6.74540111,41.5358719 5.11577148,40.6643365 C3.48614185,39.792801 2.20719898,38.5138581 1.33566352,36.8842285 C0.464128056,35.2545989 2.00617683e-16,33.6381677 -3.45280103e-16,29.180574 L3.45280103e-16,12.819426 C-2.00617683e-16,8.3618323 0.464128056,6.74540111 1.33566352,5.11577148 C2.20719898,3.48614185 3.48614185,2.20719898 5.11577148,1.33566352 C6.74540111,0.464128056 8.3618323,3.00926524e-16 12.819426,-5.17920154e-16 L39.180574,5.17920154e-16 C43.6381677,-3.00926524e-16 45.2545989,0.464128056 46.8842285,1.33566352 C48.5138581,2.20719898 49.792801,3.48614185 50.6643365,5.11577148 C51.5358719,6.74540111 52,8.3618323 52,12.819426 L52,50 Z" id="Rectangle-2" stroke="#000000" stroke-width="4" stroke-linejoin="round"></path>
                                    <path d="M26,10 C29.3137085,10 32,12.6862915 32,16 C32,18.6121813 30.3307123,20.8344797 28.0006859,21.6583461 L28,30 C28,31.1045695 27.1045695,32 26,32 C24.8954305,32 24,31.1045695 24,30 L24.0003218,21.6587023 C21.669769,20.8351204 20,18.6125579 20,16 C20,12.6862915 22.6862915,10 26,10 Z" id="Combined-Shape" fill="#07A6B3"></path>
                                </g>
                            </g>
                        </g>
                    </g>
                </g>
            </g>
        </g>
    </g>
</svg>