<?xml version="1.0" encoding="UTF-8"?>
<svg width="48px" height="44px" viewBox="0 0 48 44" version="1.1" xmlns="http://www.w3.org/2000/svg" xmlns:xlink="http://www.w3.org/1999/xlink">
    <!-- Generator: Sketch 61.2 (89653) - https://sketch.com -->
    <title>Icon</title>
    <desc>Created with Sketch.</desc>
    <defs>
        <linearGradient x1="79.5969388%" y1="23.9501953%" x2="13.4553571%" y2="77.2772895%" id="linearGradient-1">
            <stop stop-color="#07A6B3" offset="0%"></stop>
            <stop stop-color="#202124" offset="100%"></stop>
        </linearGradient>
    </defs>
    <g id="Home" stroke="none" stroke-width="1" fill="none" fill-rule="evenodd">
        <g id="Desktop" transform="translate(-208.000000, -6869.000000)">
            <g id="Web" transform="translate(0.000000, 5707.000000)">
                <g id="Features" transform="translate(122.000000, 1014.000000)">
                    <g id="Group-5" transform="translate(0.000000, 140.000000)">
                        <g id="Feature">
                            <g id="icon_swap" transform="translate(50.000000, 0.000000)">
                                <g id="Group" transform="translate(36.000000, 8.000000)">
                                    <path d="M11.2891493,43.5308884 L11.3218742,43.5017727 C11.3517944,43.4763311 11.3832392,43.4471587 11.4163498,43.41404 L19.4143871,35.41404 C20.1953398,34.6328956 20.1951844,33.3665657 19.41404,32.5856129 C19.0232141,32.1948828 18.510934,31.9996836 17.9987569,32.0000004 L18,32 L2,32 C1.48990592,31.999302 0.976850538,32.1946264 0.585612987,32.5859599 C-0.195339791,33.3671043 -0.195184468,34.6334342 0.58595991,35.414387 L8.58792264,43.414387 C9.32795416,44.154237 10.5034431,44.1930371 11.2891493,43.5308884 Z" id="Combined-Shape" fill="#202124" fill-rule="nonzero"></path>
                                    <path d="M39.2891493,0.469111555 L39.3218742,0.498227259 C39.3517944,0.523668885 39.3832392,0.552841257 39.4163498,0.585959952 L47.4143871,8.58595995 C48.1953398,9.36710435 48.1951844,10.6334343 47.41404,11.4143871 C47.0232141,11.8051172 46.510934,12.0003164 45.9987569,11.9999996 L46,12 L30,12 C29.4899059,12.000698 28.9768505,11.8053736 28.585613,11.4140401 C27.8046602,10.6328957 27.8048155,9.36656576 28.5859599,8.58561299 L36.5879226,0.585612987 C37.3279542,-0.154237013 38.5034431,-0.193037083 39.2891493,0.469111555 Z" id="Combined-Shape" fill="#07A6B3"></path>
                                    <path d="M17.122699,14 C19.0348862,14 20.6036791,14.3713024 21.9073828,15.0685308 C23.2110865,15.7657592 24.2342408,16.7889135 24.9314692,18.0926172 C25.6286976,19.3963209 26,20.9651138 26,22.877301 L26,23 L22,23 L22,22.6319029 C22,21.5429061 21.8440014,20.8255226 21.5494799,20.2114293 L21.4657346,20.0463086 C21.1171204,19.3944567 20.6055433,18.8828796 19.9536914,18.5342654 C19.3561605,18.2147024 18.6797325,18.0320736 17.6560843,18.0038546 L17.3680971,18 L16.6319029,18 C15.4439064,18 14.6981604,18.1856512 14.0463086,18.5342654 C13.3944567,18.8828796 12.8828796,19.3944567 12.5342654,20.0463086 C12.2147024,20.6438395 12.0320736,21.3202675 12.0038546,22.3439157 L12,22.6319029 L12,40 L8,40 L8,22.877301 C8,20.9651138 8.37130244,19.3963209 9.06853082,18.0926172 C9.76575919,16.7889135 10.7889135,15.7657592 12.0926172,15.0685308 C13.3963209,14.3713024 14.9651138,14 16.877301,14 L17.122699,14 Z M40,5 L40,22.122699 C40,24.0348862 39.6286976,25.6036791 38.9314692,26.9073828 C38.2342408,28.2110865 37.2110865,29.2342408 35.9073828,29.9314692 C34.6036791,30.6286976 33.0348862,31 31.122699,31 L30.877301,31 C28.9651138,31 27.3963209,30.6286976 26.0926172,29.9314692 C24.7889135,29.2342408 23.7657592,28.2110865 23.0685308,26.9073828 C22.4811805,25.8091332 22.1251235,24.5227629 22.0274868,23.0014601 L26.0201285,23.0023798 C26.0767986,23.8373244 26.2521841,24.4262453 26.5342654,24.9536914 C26.8828796,25.6055433 27.3944567,26.1171204 28.0463086,26.4657346 C28.6438395,26.7852976 29.3202675,26.9679264 30.3439157,26.9961454 L30.6319029,27 L31.3680971,27 C32.5560936,27 33.3018396,26.8143488 33.9536914,26.4657346 C34.6055433,26.1171204 35.1171204,25.6055433 35.4657346,24.9536914 C35.7852976,24.3561605 35.9679264,23.6797325 35.9961454,22.6560843 L36,22.3680971 L35.9994868,5 L40,5 Z" id="Combined-Shape" fill="url(#linearGradient-1)" fill-rule="nonzero"></path>
                                </g>
                            </g>
                        </g>
                    </g>
                </g>
            </g>
        </g>
    </g>
</svg>