<?xml version="1.0" encoding="UTF-8"?>
<svg width="33px" height="28px" viewBox="0 0 33 28" version="1.1" xmlns="http://www.w3.org/2000/svg" xmlns:xlink="http://www.w3.org/1999/xlink">
    <!-- Generator: Sketch 54.1 (76490) - https://sketchapp.com -->
    <title>twitter</title>
    <desc>Created with Sketch.</desc>
    <g id="Landing-page" stroke="none" stroke-width="1" fill="none" fill-rule="evenodd">
        <g id="Desktop" transform="translate(-576.000000, -1151.000000)" fill="#202124">
            <g id="social" transform="translate(522.000000, 1150.000000)">
                <path d="M86.93535,4.71531 C85.71855,5.253735 84.41925,5.620515 83.0511,5.788005 C84.44535,4.942305 85.51785,3.60939 86.02515,2.019045 C84.7176,2.787225 83.26845,3.34641 81.7257,3.65784 C80.49375,2.330475 78.738,1.5 76.7883,1.5 C73.05255,1.5 70.0236,4.549215 70.0236,8.30571 C70.0236,8.845515 70.0854,9.36456 70.1982,9.861465 C64.5747,9.59433 59.5905,6.87591 56.25495,2.766465 C55.66785,3.765795 55.3392,4.92708 55.3392,6.192165 C55.3392,8.559 56.53545,10.639335 58.3476,11.861505 C57.23805,11.82552 56.19435,11.518245 55.28415,11.00889 L55.28415,11.093325 C55.28415,14.39445 57.612,17.1474 60.70965,17.7744 C60.1419,17.92815 59.54235,18.0111 58.9278,18.0111 C58.4961,18.0111 58.08225,17.9697 57.6684,17.89215 C58.536,20.5953 61.03005,22.5663 63.99855,22.62165 C61.6887,24.4473 58.76145,25.53525 55.60875,25.53525 C55.0725,25.53525 54.5376,25.50345 54,25.44255 C57.00975,27.372 60.55575,28.5 64.3905,28.5 C76.83915,28.5 83.6382,18.12465 83.6382,9.14172 C83.6382,8.852445 83.6382,8.560395 83.61765,8.269725 C84.939,7.31607 86.0925,6.110505 87,4.742985 L86.93535,4.71531 Z" id="twitter"></path>
            </g>
        </g>
    </g>
</svg>