<?xml version="1.0" encoding="UTF-8"?><svg width="272" height="232" viewBox="0 0 272 232" xmlns="http://www.w3.org/2000/svg" xmlns:xlink="http://www.w3.org/1999/xlink"><svg width="68" height="68" viewBox="-1 -1 68 68" id="svg--MEWlogo" y="164" xmlns="http://www.w3.org/2000/svg"><path d="M33 0C14.774 0 0 14.775 0 33s14.775 33 33 33 33-14.775 33-33S51.227 0 33 0zm0 53.74c-11.156 0-20.721-9.044-20.721-20.203 0-2.62.498-5.644 1.406-7.94l8.902 3.791c-.03.124-.066.288-.107.47a10.899 10.899 0 00-.466 2.675c-.02.18-.026.36-.02.541 0 .042.005.083.007.124A10.935 10.935 0 0035.43 43.714l5.06 8.592A20.146 20.146 0 0133 53.74zm19.124-12.532l-22.598-9.575 14.493-.063c-.52-5.257-5.923-9.53-11.018-9.53a10.405 10.405 0 00-3.396.566l-5.015-8.514a20.126 20.126 0 018.412-1.829c11.156 0 20.69 9.211 20.69 20.367-.002 3.01-.39 6.012-1.57 8.578h.002z" fill="#07A6B3" fill-rule="nonzero"/></svg><svg width="272" height="82" viewBox="-1 -1 272 82" id="svg--androidBetaButton" xmlns="http://www.w3.org/2000/svg"><defs><linearGradient x1="50%" y1="0%" x2="50%" y2="100%" id="ba"><stop stop-color="#00C3FF" offset="0%"/><stop stop-color="#00E3FF" offset="100%"/></linearGradient><linearGradient x1="50%" y1="0%" x2="50%" y2="100%" id="bb"><stop stop-color="#FFC800" offset="0%"/><stop stop-color="#FFC900" offset="100%"/></linearGradient><linearGradient x1="86.725%" y1="30.516%" x2="-50.481%" y2="137.757%" id="bc"><stop stop-color="#FF3944" offset="0%"/><stop stop-color="#C31161" offset="100%"/></linearGradient><linearGradient x1="50%" y1="0%" x2="50%" y2="100%" id="bd"><stop stop-color="#11D574" offset="0%"/><stop stop-color="#00F076" offset="100%"/></linearGradient></defs><g fill="none" fill-rule="evenodd"><path d="M17.947 1c-5.539 0-7.885.453-10.313 1.752a11.721 11.721 0 00-4.882 4.882C1.453 10.062 1 12.408 1 17.947v44.106c0 5.539.453 7.885 1.752 10.313a11.721 11.721 0 004.882 4.882C10.062 78.547 12.408 79 17.947 79h234.106c5.539 0 7.885-.453 10.313-1.752a11.721 11.721 0 004.882-4.882c1.299-2.428 1.752-4.774 1.752-10.313V17.947c0-5.539-.453-7.885-1.752-10.313a11.721 11.721 0 00-4.882-4.882C259.938 1.453 257.592 1 252.053 1H17.947z" stroke="#202124" stroke-width="2" fill="#FFF"/><path d="M89.157 28.272c1.859 0 3.36-.606 4.505-1.819a4.68 4.68 0 001.139-1.845 6.918 6.918 0 00.357-2.218 5.6 5.6 0 00-.085-.986H89.14v1.7h4.131a4.08 4.08 0 01-.349 1.224 3.276 3.276 0 01-.637.935 4.62 4.62 0 01-1.309.867c-.487.215-1.094.323-1.819.323-.793 0-1.53-.187-2.21-.561a4.248 4.248 0 01-1.632-1.598c-.408-.691-.612-1.485-.612-2.38 0-.895.204-1.689.612-2.38a4.248 4.248 0 011.632-1.598 4.48 4.48 0 012.193-.561c.669 0 1.278.119 1.828.357s1.022.578 1.419 1.02l1.326-1.326a5.444 5.444 0 00-1.989-1.377 6.64 6.64 0 00-2.567-.493 6.345 6.345 0 00-3.196.833 6.239 6.239 0 00-2.32 2.287c-.573.969-.859 2.048-.859 3.238s.286 2.27.859 3.238a6.239 6.239 0 002.32 2.287c.975.555 2.04.833 3.196.833zM105.05 28v-1.819h-5.491v-3.366h4.947v-1.802h-4.947v-3.366h5.49v-1.819h-7.394V28h7.395zm7.035 0V17.647h3.4v-1.819h-8.704v1.819h3.4V28h1.904zm14.598 0a4.25 4.25 0 001.913-.433 3.501 3.501 0 001.394-1.216 3.156 3.156 0 00.518-1.785c0-.669-.19-1.252-.57-1.751a3.13 3.13 0 00-1.487-1.071v-.102a2.861 2.861 0 001.182-1.003c.3-.442.45-.963.45-1.564 0-.6-.164-1.15-.493-1.649a3.427 3.427 0 00-1.317-1.173 3.857 3.857 0 00-1.794-.425h-4.573V28h4.777zm-.289-7.072h-2.584v-3.349h2.652c.522 0 .944.167 1.267.502.323.334.484.722.484 1.164 0 .442-.167.833-.501 1.173-.335.34-.774.51-1.318.51zm.29 5.304h-2.874v-3.604h2.805c.601 0 1.08.178 1.437.535.357.357.535.78.535 1.267 0 .476-.173.895-.518 1.258-.346.363-.808.544-1.386.544zM140.28 28v-1.819h-5.491v-3.366h4.947v-1.802h-4.947v-3.366h5.49v-1.819h-7.394V28h7.395zm7.035 0V17.647h3.4v-1.819h-8.704v1.819h3.4V28h1.904zm5.404 0l1.105-3.111h4.913L159.826 28h2.108l-4.573-12.172h-2.176L150.612 28h2.108zm5.372-4.879h-3.638l1.292-3.621.476-1.411h.102l.476 1.411 1.292 3.621zm15.431 5.151c1.179 0 2.25-.28 3.213-.841a6.068 6.068 0 002.27-2.304c.55-.975.824-2.046.824-3.213 0-1.167-.278-2.236-.833-3.205a6.233 6.233 0 00-2.27-2.303c-.957-.567-2.025-.85-3.204-.85-1.179 0-2.25.283-3.213.85a6.149 6.149 0 00-2.27 2.303c-.549.97-.824 2.038-.824 3.205 0 1.167.275 2.238.825 3.213a6.068 6.068 0 002.27 2.303c.962.561 2.033.842 3.212.842zm0-1.819a4.347 4.347 0 01-2.21-.578 4.243 4.243 0 01-1.59-1.607c-.39-.685-.586-1.47-.586-2.354 0-.884.196-1.669.587-2.355a4.243 4.243 0 011.59-1.606 4.347 4.347 0 012.21-.578c.804 0 1.54.193 2.21.578.668.385 1.195.92 1.58 1.607.385.685.578 1.47.578 2.354 0 .884-.193 1.669-.578 2.354a4.182 4.182 0 01-1.58 1.607 4.347 4.347 0 01-2.21.578zM184.197 28v-6.97l-.102-2.346h.102L189.909 28h1.989V15.828h-1.887v6.511l.102 2.346h-.102l-5.44-8.857h-2.261V28h1.887z" fill="#202124" fill-rule="nonzero"/><path d="M213.788 61.906h3.732V36.904h-3.732v25.002zm33.614-15.996l-4.278 10.84h-.128l-4.44-10.84h-4.02l6.658 15.15-3.796 8.428h3.894l10.26-23.578h-4.15zm-21.164 13.156c-1.224 0-2.928-.61-2.928-2.122 0-1.93 2.124-2.67 3.956-2.67 1.642 0 2.412.354 3.41.836-.29 2.316-2.284 3.956-4.438 3.956zm.45-13.702c-2.702 0-5.5 1.19-6.658 3.828l3.312 1.382c.708-1.382 2.026-1.834 3.41-1.834 1.93 0 3.892 1.158 3.924 3.218v.256c-.676-.386-2.122-.964-3.892-.964-3.57 0-7.206 1.962-7.206 5.628 0 3.346 2.928 5.502 6.208 5.502 2.51 0 3.892-1.126 4.762-2.446h.128v1.93h3.602V52.28c0-4.44-3.312-6.916-7.59-6.916zm-23.064 3.59h-5.308v-8.57h5.308c2.79 0 4.374 2.31 4.374 4.284 0 1.938-1.584 4.286-4.374 4.286zm-.096-12.05h-8.942v25.002h3.73v-9.472h5.212c4.136 0 8.202-2.996 8.202-7.766s-4.066-7.764-8.202-7.764zM154.766 59.07c-2.578 0-4.736-2.158-4.736-5.122 0-2.996 2.158-5.188 4.736-5.188 2.546 0 4.542 2.192 4.542 5.188 0 2.964-1.996 5.122-4.542 5.122zm4.284-11.76h-.128c-.838-.998-2.448-1.9-4.478-1.9-4.254 0-8.152 3.736-8.152 8.538 0 4.768 3.898 8.474 8.152 8.474 2.03 0 3.64-.902 4.478-1.934h.128v1.224c0 3.256-1.738 4.996-4.542 4.996-2.288 0-3.706-1.644-4.286-3.03l-3.254 1.354c.934 2.256 3.416 5.026 7.54 5.026 4.382 0 8.088-2.578 8.088-8.86V45.924h-3.546v1.386zm6.124 14.596h3.738V36.902h-3.738v25.004zm9.246-8.248c-.096-3.286 2.546-4.962 4.446-4.962 1.484 0 2.74.74 3.158 1.804l-7.604 3.158zm11.6-2.836c-.708-1.9-2.868-5.412-7.282-5.412-4.382 0-8.022 3.446-8.022 8.506 0 4.768 3.608 8.506 8.44 8.506 3.9 0 6.156-2.384 7.09-3.77l-2.9-1.934c-.966 1.418-2.288 2.352-4.19 2.352-1.9 0-3.254-.87-4.124-2.576l11.374-4.704-.386-.968zM95.404 48.02v3.608h8.634c-.258 2.03-.934 3.512-1.964 4.544-1.258 1.256-3.224 2.64-6.67 2.64-5.316 0-9.474-4.284-9.474-9.6 0-5.318 4.158-9.602 9.474-9.602 2.868 0 4.962 1.128 6.508 2.578l2.546-2.546C102.298 37.58 99.432 36 95.404 36 88.122 36 82 41.93 82 49.212s6.122 13.21 13.404 13.21c3.93 0 6.894-1.288 9.214-3.706 2.384-2.384 3.126-5.734 3.126-8.442 0-.838-.064-1.61-.194-2.254H95.404zm22.158 11.05c-2.578 0-4.802-2.126-4.802-5.154 0-3.062 2.224-5.156 4.802-5.156 2.576 0 4.8 2.094 4.8 5.156 0 3.028-2.224 5.154-4.8 5.154zm0-13.66c-4.706 0-8.54 3.576-8.54 8.506 0 4.896 3.834 8.506 8.54 8.506 4.704 0 8.538-3.61 8.538-8.506 0-4.93-3.834-8.506-8.538-8.506zm18.626 13.66c-2.578 0-4.802-2.126-4.802-5.154 0-3.062 2.224-5.156 4.802-5.156 2.578 0 4.8 2.094 4.8 5.156 0 3.028-2.222 5.154-4.8 5.154zm0-13.66c-4.704 0-8.538 3.576-8.538 8.506 0 4.896 3.834 8.506 8.538 8.506 4.704 0 8.538-3.61 8.538-8.506 0-4.93-3.834-8.506-8.538-8.506z" fill="#202124"/><path d="M1.074 50.498l-.15-.144c-.58-.616-.924-1.57-.924-2.81v.292V3.604v-.01.304C0 2.556.4 1.546 1.072.94L25.85 25.72 1.074 50.498M0 3.592" fill="url(#ba)" transform="translate(19.946 14.282)"/><path d="M34.11 34.274l.188-.106 9.786-5.56c.932-.53 1.554-1.174 1.864-1.854-.31.68-.93 1.324-1.864 1.854l-9.786 5.56-.188.106m.002-.292L25.85 25.72l8.262-8.262 9.972 5.666c1.266.72 1.978 1.648 2.096 2.594v.004c-.118.946-.83 1.874-2.096 2.594l-9.972 5.666" fill="url(#bb)" transform="translate(19.946 14.282)"/><path d="M2.84 51.44c-.692 0-1.296-.224-1.768-.65h.002c.47.424 1.076.65 1.768.65.06 0 .12 0 .182-.004-.062.004-.124.004-.184.004m0-.292c-.692 0-1.296-.226-1.766-.65L25.85 25.72l8.262 8.262-29.03 16.494c-.804.456-1.564.672-2.242.672" fill="url(#bc)" transform="translate(19.946 14.282)"/><path d="M25.85 25.72L1.072.94C1.542.516 2.146.292 2.838.292c.676 0 1.438.216 2.244.672l29.03 16.494-8.262 8.262m8.448-8.448L5.082.672C4.278.216 3.514 0 2.838 0h-.01.012c.676 0 1.438.214 2.242.672l29.216 16.6" fill="url(#bd)" transform="translate(19.946 14.282)"/></g></svg><svg width="222" height="82" viewBox="-1 -1 222 82" id="svg--betaButton" y="82" xmlns="http://www.w3.org/2000/svg"><g fill="none" fill-rule="evenodd"><path d="M202.053 79H17.947c-5.957 0-8.132-.585-10.313-1.752a11.735 11.735 0 01-4.882-4.882C1.585 70.185 1 68.01 1 62.053V17.947c0-5.957.585-8.132 1.752-10.313a11.735 11.735 0 014.882-4.882C9.815 1.585 11.99 1 17.947 1h184.106c5.957 0 8.132.585 10.313 1.752a11.735 11.735 0 014.882 4.882C218.415 9.815 219 11.99 219 17.947v44.106c0 5.957-.585 8.132-1.752 10.313a11.735 11.735 0 01-4.882 4.882C210.185 78.415 208.01 79 202.053 79z" stroke="#202124" stroke-width="2" fill="#FFF"/><path d="M37.936 27.746c1.78 0 5.165-2.457 8.658-2.09a10.536 10.536 0 018.3 4.487 10.292 10.292 0 00-4.9 8.636 9.946 9.946 0 006.07 9.15 22.799 22.799 0 01-3.157 6.43c-1.86 2.783-3.81 5.502-6.906 5.552-3.008.07-4.019-1.77-7.469-1.77-3.482 0-4.56 1.72-7.444 1.84-2.948.109-5.201-2.97-7.129-5.727-3.853-5.629-6.853-15.864-2.83-22.828a11.055 11.055 0 019.302-5.673c2.95-.06 5.69 1.993 7.505 1.993zm8.694-13.052c.202 2.63-.63 5.233-2.318 7.26a8.525 8.525 0 01-6.732 3.182 9.643 9.643 0 012.38-6.99 10.31 10.31 0 016.67-3.452z" fill="#202124"/><path d="M81.705 38.44c4.7 0 7.702-2.918 7.702-7.471V28.77h-7.312v2.405h4.236l-.012.366c-.049 2.49-1.88 4.163-4.566 4.163-3.137 0-5.102-2.49-5.102-6.543 0-3.992 1.929-6.482 5.005-6.482 2.258 0 3.833 1.123 4.468 3.162h3.137c-.562-3.59-3.54-5.896-7.605-5.896-5.017 0-8.228 3.6-8.228 9.24 0 5.701 3.174 9.253 8.277 9.253zm16.524-.171c3.15 0 5.384-1.514 5.933-3.919h-2.869c-.44 1.001-1.477 1.563-2.978 1.563-1.99 0-3.272-1.416-3.345-3.675v-.158h9.326v-.965c0-4.187-2.282-6.714-6.091-6.714-3.87 0-6.274 2.698-6.274 6.983 0 4.272 2.368 6.885 6.298 6.885zm3.04-8.204h-6.287c.135-2.002 1.404-3.308 3.21-3.308 1.82 0 3.016 1.282 3.077 3.308zm11.166 7.996c.586 0 1.147-.049 1.587-.134v-2.32c-.366.037-.598.061-1.026.061-1.27 0-1.83-.598-1.83-1.928V27.1h2.856v-2.357h-2.857v-3.357h-3.015v3.357h-2.112V27.1h2.112v7.361c0 2.576 1.22 3.601 4.285 3.601zm18.401.159c3.37 0 5.481-2.65 5.481-6.885 0-4.26-2.1-6.897-5.481-6.897-1.831 0-3.37.891-4.065 2.344h-.207v-7.288h-3.028V38h2.918v-2.112h.207c.757 1.465 2.307 2.332 4.175 2.332zm-.952-2.515c-2.075 0-3.37-1.672-3.37-4.37 0-2.698 1.307-4.37 3.37-4.37s3.32 1.648 3.32 4.37c0 2.722-1.245 4.37-3.32 4.37zm14.962 2.564c3.15 0 5.383-1.514 5.933-3.919h-2.869c-.44 1.001-1.477 1.563-2.978 1.563-1.99 0-3.272-1.416-3.345-3.675v-.158h9.326v-.965c0-4.187-2.283-6.714-6.091-6.714-3.87 0-6.275 2.698-6.275 6.983 0 4.272 2.369 6.885 6.3 6.885zm3.04-8.204h-6.287c.134-2.002 1.404-3.308 3.21-3.308 1.82 0 3.016 1.282 3.077 3.308zm11.166 7.996c.586 0 1.147-.049 1.587-.134v-2.32c-.367.037-.599.061-1.026.061-1.27 0-1.83-.598-1.83-1.928V27.1h2.856v-2.357h-2.857v-3.357h-3.015v3.357h-2.112V27.1h2.112v7.361c0 2.576 1.22 3.601 4.285 3.601zm8.138.159c1.746 0 3.21-.757 3.955-2.051h.208V38h2.917v-9.119c0-2.82-1.928-4.48-5.359-4.48-3.173 0-5.383 1.49-5.627 3.821h2.856c.281-.915 1.233-1.416 2.625-1.416 1.636 0 2.515.745 2.515 2.075v1.148l-3.443.207c-3.247.183-5.066 1.587-5.066 3.98 0 2.441 1.844 4.004 4.42 4.004zm.891-2.332c-1.342 0-2.307-.671-2.307-1.819 0-1.11.794-1.733 2.49-1.843l3.016-.207v1.086c0 1.587-1.368 2.783-3.199 2.783zM73.846 52.581a.881.881 0 00.879-.879.881.881 0 00-.88-.879.881.881 0 00-.878.88c0 .483.395.878.879.878zm.63 9.419v-7.896h-1.26V62h1.26zm6.912.249c3.017 0 4.848-2.16 4.848-5.537 0-3.391-1.846-5.53-4.848-5.53-2.989 0-4.85 2.131-4.85 5.53 0 3.384 1.817 5.537 4.85 5.537zm0-1.216c-2.198 0-3.494-1.699-3.494-4.321 0-2.644 1.34-4.314 3.494-4.314 2.16 0 3.493 1.67 3.493 4.314 0 2.622-1.325 4.321-3.493 4.321zm10.464 1.216c2.417 0 3.947-1.238 3.947-3.179 0-1.552-.878-2.402-3.068-2.951l-1.106-.293c-1.458-.374-2.036-.85-2.036-1.678 0-1.069.93-1.772 2.336-1.772 1.318 0 2.212.645 2.395 1.728h1.326c-.11-1.706-1.634-2.922-3.677-2.922-2.234 0-3.735 1.216-3.735 3.01 0 1.502.827 2.366 2.739 2.85l1.355.351c1.457.366 2.117.938 2.117 1.838 0 1.048-1.048 1.817-2.469 1.817-1.501 0-2.556-.703-2.717-1.81h-1.333c.14 1.825 1.685 3.011 3.926 3.011zM105.72 62V51.431h-1.311l-2.813 2.022v1.391l2.688-1.948h.117V62h1.319zm6.904 0V51.431h-1.31l-2.813 2.022v1.391l2.688-1.948h.117V62h1.318zm7.337-.483v-3.091h2.944v-1.187h-2.944v-3.09h-1.187v3.09h-2.944v1.187h2.944v3.09h1.187zm10.77.483v-4.893c0-1.113.871-1.919 2.072-1.919.25 0 .704.044.806.074v-1.26a5.41 5.41 0 00-.63-.037c-1.047 0-1.955.542-2.19 1.311h-.117v-1.172h-1.201V62h1.26zm7.307.14c1.729 0 2.96-.836 3.325-2.183h-1.26c-.329.695-1.017 1.069-2.036 1.069-1.34 0-2.211-.989-2.277-2.549v-.059h5.676v-.483c0-2.454-1.297-3.97-3.428-3.97-2.168 0-3.56 1.612-3.56 4.095 0 2.497 1.37 4.08 3.56 4.08zm2.102-4.74h-4.35c.095-1.399.974-2.321 2.233-2.321 1.253 0 2.088.922 2.117 2.321zm9.981 7.237V54.104h-1.216v1.319h-.117c-.469-.886-1.45-1.458-2.527-1.458-2 0-3.303 1.612-3.303 4.087 0 2.49 1.289 4.087 3.303 4.087 1.113 0 1.963-.461 2.468-1.326h.118v3.824h1.274zm-3.574-3.633c-1.436 0-2.285-1.099-2.285-2.952 0-1.845.857-2.951 2.292-2.951 1.428 0 2.33 1.142 2.33 2.951 0 1.817-.894 2.952-2.337 2.952zm8.48 1.135c1.208 0 2.05-.498 2.445-1.377h.118V62h1.2v-7.896h-1.259v4.673c0 1.385-.762 2.212-2.153 2.212-1.26 0-1.787-.659-1.787-2.08v-4.805h-1.26v5.113c0 1.867.923 2.922 2.695 2.922zm6.706-9.558a.881.881 0 00.879-.879.881.881 0 00-.879-.879.881.881 0 00-.879.88c0 .483.396.878.879.878zm.63 9.419v-7.896h-1.26V62h1.26zm3.572 0v-4.893c0-1.113.872-1.919 2.073-1.919.249 0 .703.044.805.074v-1.26a5.41 5.41 0 00-.63-.037c-1.047 0-1.955.542-2.19 1.311h-.117v-1.172h-1.2V62h1.259zm7.307.14c1.729 0 2.96-.836 3.326-2.183h-1.26c-.33.695-1.018 1.069-2.036 1.069-1.34 0-2.212-.989-2.278-2.549v-.059h5.676v-.483c0-2.454-1.296-3.97-3.428-3.97-2.168 0-3.56 1.612-3.56 4.095 0 2.497 1.37 4.08 3.56 4.08zm2.102-4.74h-4.35c.095-1.399.974-2.321 2.234-2.321 1.252 0 2.087.922 2.116 2.321zm6.136 4.74c1.091 0 2.029-.52 2.527-1.4h.117V62h1.201V50.97h-1.26v4.38h-.11c-.446-.865-1.376-1.385-2.475-1.385-2.007 0-3.318 1.612-3.318 4.087 0 2.483 1.297 4.087 3.318 4.087zm.293-1.136c-1.443 0-2.307-1.106-2.307-2.952 0-1.838.871-2.951 2.307-2.951 1.428 0 2.322 1.142 2.322 2.951 0 1.824-.886 2.952-2.322 2.952z" fill="#202124" fill-rule="nonzero"/></g></svg><svg width="32" height="32" viewBox="-1 -1 32 32" id="svg--facebook" x="68" y="164" xmlns="http://www.w3.org/2000/svg"><path d="M28.345 0H1.655C.741 0 0 .741 0 1.655v26.69C0 29.26.741 30 1.655 30h14.368V18.383H12.11v-4.527h3.912v-3.344c0-3.873 2.367-5.98 5.823-5.98 1.656 0 3.08.12 3.495.175v4.05H22.94c-1.875 0-2.24.902-2.24 2.214v2.889h4.48l-.581 4.538H20.7V30h7.644C29.26 30 30 29.26 30 28.345V1.655C30 .741 29.26 0 28.345 0z" fill="#202124" fill-rule="evenodd"/></svg><svg width="32" height="32" viewBox="-1 -1 32 32" id="svg--github" x="100" y="164" xmlns="http://www.w3.org/2000/svg"><path d="M15 0C6.713 0 0 6.716 0 15c0 6.629 4.298 12.25 10.257 14.231.75.142 1.024-.322 1.024-.721 0-.356-.012-1.3-.019-2.55-4.172.905-5.052-2.012-5.052-2.012-.682-1.732-1.67-2.194-1.67-2.194-1.357-.93.107-.912.107-.912 1.506.106 2.296 1.546 2.296 1.546 1.338 2.293 3.512 1.63 4.37 1.247.135-.97.52-1.631.95-2.006-3.332-.375-6.833-1.665-6.833-7.413 0-1.637.582-2.975 1.544-4.025-.169-.378-.676-1.904.132-3.97 0 0 1.255-.402 4.125 1.538a14.38 14.38 0 013.75-.506 14.38 14.38 0 013.75.506c2.85-1.94 4.105-1.538 4.105-1.538.807 2.066.3 3.592.15 3.97.957 1.05 1.538 2.388 1.538 4.025 0 5.763-3.506 7.031-6.844 7.4.526.45 1.013 1.37 1.013 2.775 0 2.008-.02 3.62-.02 4.108 0 .394.263.862 1.033.712C25.707 27.244 30 21.62 30 15c0-8.284-6.715-15-15-15z" fill="#202124" fill-rule="evenodd"/></svg><svg width="32" height="32" viewBox="-1 -1 32 32" id="svg--instagram" x="132" y="164" xmlns="http://www.w3.org/2000/svg"><path d="M15 0c-4.075 0-4.584.019-6.184.09C7.22.165 6.131.416 5.175.788a7.347 7.347 0 00-2.658 1.73 7.32 7.32 0 00-1.73 2.657C.417 6.131.164 7.219.09 8.816.015 10.416 0 10.925 0 15s.019 4.584.09 6.184c.075 1.596.326 2.685.697 3.641a7.357 7.357 0 001.73 2.658 7.337 7.337 0 002.658 1.73c.957.37 2.045.623 3.641.697 1.6.075 2.109.09 6.184.09 4.076 0 4.584-.019 6.185-.09 1.595-.075 2.684-.327 3.64-.698a7.372 7.372 0 002.658-1.73 7.32 7.32 0 001.73-2.657c.37-.956.623-2.045.697-3.641.075-1.6.09-2.109.09-6.184s-.02-4.584-.09-6.184c-.075-1.596-.327-2.686-.697-3.641a7.36 7.36 0 00-1.73-2.658 7.314 7.314 0 00-2.658-1.73c-.956-.37-2.045-.623-3.64-.697C19.584.015 19.075 0 15 0zm0 2.7c4.004 0 4.482.02 6.063.089 1.462.068 2.256.311 2.784.518a4.65 4.65 0 011.726 1.12 4.641 4.641 0 011.121 1.727c.204.527.45 1.321.516 2.783.072 1.583.087 2.058.087 6.063s-.018 4.481-.091 6.063c-.077 1.462-.321 2.256-.527 2.783-.28.703-.598 1.2-1.124 1.728a4.682 4.682 0 01-1.724 1.12c-.526.205-1.332.45-2.795.516-1.591.071-2.061.087-6.073.087-4.014 0-4.483-.018-6.074-.092-1.464-.076-2.27-.32-2.795-.526-.712-.28-1.2-.599-1.724-1.124a4.556 4.556 0 01-1.125-1.725c-.206-.525-.449-1.331-.525-2.794-.056-1.575-.076-2.061-.076-6.055 0-3.995.02-4.482.076-6.076.076-1.462.319-2.267.525-2.792.262-.713.599-1.2 1.125-1.727.524-.524 1.012-.861 1.724-1.122.525-.208 1.313-.451 2.776-.526 1.594-.057 2.062-.075 6.074-.075L15 2.7zm0 4.598A7.702 7.702 0 007.297 15 7.702 7.702 0 1015 7.298zM15 20c-2.763 0-5-2.237-5-5s2.237-5 5-5 5 2.237 5 5-2.237 5-5 5zm9.807-13.006a1.8 1.8 0 01-3.6 0 1.8 1.8 0 013.6 0z" fill="#202124" fill-rule="evenodd"/></svg><svg width="32" height="32" viewBox="-1 -1 32 32" id="svg--linkedin" x="164" y="164" xmlns="http://www.w3.org/2000/svg"><path d="M25.559 25.565h-4.444v-6.961c0-1.66-.032-3.796-2.314-3.796-2.316 0-2.67 1.806-2.67 3.673v7.084H11.69V11.25h4.267v1.951h.057c.595-1.125 2.046-2.312 4.212-2.312 4.501 0 5.334 2.962 5.334 6.819v7.857h-.001zM6.67 9.29A2.578 2.578 0 014.092 6.71 2.58 2.58 0 116.67 9.291zm2.227 16.274H4.445V11.25h4.453v14.315zM27.781 0H2.214C.99 0 0 .968 0 2.161V27.84C0 29.034.99 30 2.214 30h25.563C29 30 30 29.034 30 27.839V2.16C30 .967 29 0 27.777 0h.004z" fill="#202124" fill-rule="evenodd"/></svg><svg width="32" height="26" viewBox="-1 -1 32 26" id="svg--medium" x="196" y="164" xmlns="http://www.w3.org/2000/svg"><path d="M3.558 4.859a1.158 1.158 0 00-.38-.98L.378.504V0h8.697l6.723 14.744L21.708 0H30v.504L27.604 2.8a.702.702 0 00-.267.673v16.875a.702.702 0 00.267.67l2.338 2.297v.504H18.178v-.504l2.421-2.353c.239-.237.239-.307.239-.672V6.651L14.1 23.761h-.909L5.348 6.651V18.12c-.065.482.094.967.433 1.316l3.15 3.825v.503H0v-.504l3.15-3.825c.338-.348.487-.838.408-1.315V4.859z" fill="#202124" fill-rule="evenodd"/></svg><svg width="35" height="30" viewBox="-1 -1 35 30" id="svg--reddit" x="222" y="82" xmlns="http://www.w3.org/2000/svg"><path d="M3.03 16.622c-.083.38-.124.77-.124 1.164 0 4.734 6.052 8.592 13.493 8.592 7.439 0 13.491-3.855 13.491-8.592 0-.376-.04-.75-.114-1.112l-.019-.044a.604.604 0 01-.04-.227c-.416-1.616-1.537-3.081-3.157-4.266a.576.576 0 01-.173-.097c-.036-.027-.062-.057-.092-.088-2.465-1.696-5.99-2.76-9.894-2.76-3.872 0-7.362 1.043-9.826 2.71a.537.537 0 01-.246.17C4.67 13.257 3.52 14.735 3.09 16.366c0 .08-.017.157-.049.235l-.012.02zm13.437 7.48c-2.466 0-4.203-.534-5.31-1.645a.617.617 0 010-.869.645.645 0 01.873 0c.866.865 2.316 1.297 4.437 1.297 2.121 0 3.562-.413 4.427-1.278.226-.225.619-.225.865 0a.664.664 0 010 .887c-1.113 1.111-2.84 1.647-5.31 1.647l.018-.038zM11.51 13.69c-1.258 0-2.306 1.052-2.306 2.306 0 1.251 1.048 2.269 2.306 2.269a2.268 2.268 0 002.269-2.269c0-1.254-1.015-2.306-2.27-2.306zm9.944 0c-1.257 0-2.307 1.052-2.307 2.306 0 1.251 1.05 2.269 2.307 2.269a2.268 2.268 0 002.27-2.269c0-1.254-1.015-2.306-2.27-2.306zm6.254-2.193c1.425 1.146 2.475 2.504 3.009 3.993.62-.462.988-1.188.988-1.992a2.5 2.5 0 00-3.997-1.998v-.003zm-23.98-.493a2.502 2.502 0 00-2.5 2.5c0 .746.33 1.44.887 1.91.55-1.484 1.611-2.824 3.042-3.955a2.501 2.501 0 00-1.428-.453v-.002h-.001zM16.4 27.612c-8.121 0-14.726-4.407-14.726-9.82 0-.378.032-.748.095-1.113A3.743 3.743 0 010 13.498c0-2.057 1.688-3.73 3.747-3.73.927 0 1.791.338 2.47.937 2.552-1.637 5.992-2.668 9.779-2.739L18.488.371l.555.13s.022 0 .022.004l5.807 1.365A3.092 3.092 0 0127.71 0a3.076 3.076 0 013.068 3.072 3.075 3.075 0 01-3.068 3.071 3.074 3.074 0 01-3.066-3.066L19.35 1.823 17.332 7.98c3.644.144 6.94 1.174 9.41 2.779a3.663 3.663 0 012.522-.989A3.734 3.734 0 0133 13.496a3.758 3.758 0 01-1.894 3.252c.038.35.08.68.08 1.03-.02 5.415-6.607 9.821-14.739 9.821l-.046.013zM27.647 1.23a1.841 1.841 0 100 3.682 1.836 1.836 0 001.828-1.835 1.84 1.84 0 00-1.852-1.83l.024-.017z" fill="#202124" fill-rule="evenodd"/></svg><svg width="35" height="30" viewBox="-1 -1 35 30" id="svg--twitter" x="222" y="112" xmlns="http://www.w3.org/2000/svg"><path d="M32.935 3.715a13.679 13.679 0 01-3.884 1.073 6.854 6.854 0 002.974-3.769 13.916 13.916 0 01-4.3 1.639A6.716 6.716 0 0022.789.5c-3.735 0-6.764 3.05-6.764 6.806 0 .54.061 1.059.174 1.555C10.575 8.594 5.59 5.876 2.255 1.766c-.587 1-.916 2.161-.916 3.426a6.823 6.823 0 003.009 5.67 6.71 6.71 0 01-3.064-.853v.084c0 3.301 2.328 6.054 5.426 6.681a6.82 6.82 0 01-3.042.118c.868 2.703 3.362 4.674 6.33 4.73a13.51 13.51 0 01-8.39 2.913c-.536 0-1.07-.032-1.608-.092A19.15 19.15 0 0010.39 27.5c12.45 0 19.248-10.375 19.248-19.358 0-.29 0-.582-.02-.872A13.712 13.712 0 0033 3.743l-.065-.028z" fill="#202124" fill-rule="evenodd"/></svg></svg>