<?xml version="1.0" encoding="UTF-8"?><svg width="62" height="62" viewBox="0 0 62 62" xmlns="http://www.w3.org/2000/svg" xmlns:xlink="http://www.w3.org/1999/xlink"><svg width="62" height="62" viewBox="-1 -1 62 62" id="svg--MEWlogo" xmlns="http://www.w3.org/2000/svg"><g fill="none" fill-rule="evenodd"><path d="M43.335.5h-26.67c-5.653 0-7.71.57-9.779 1.677a11.32 11.32 0 00-4.709 4.71C1.071 8.954.5 11.011.5 16.664v26.67c0 5.653.57 7.71 1.677 9.779a11.32 11.32 0 004.71 4.709c2.068 1.106 4.125 1.677 9.778 1.677h26.67c5.653 0 7.71-.57 9.779-1.677a11.32 11.32 0 004.709-4.71c1.106-2.068 1.677-4.125 1.677-9.778v-26.67c0-5.653-.57-7.71-1.677-9.779a11.32 11.32 0 00-4.71-4.709C51.046 1.071 48.989.5 43.336.5z" stroke-opacity=".1" stroke="#000" fill="#FFF"/><g transform="translate(1 1)"><path d="M39.042 53.265c10.949.518 12.053-9.055 8.846-14.63-3.108-5.4-7.768-7.25-15.306-6.54-7.538.71.032 12.99 5.204 12.09 2.346-.41.31 9.036 1.256 9.08z" stroke="#000" stroke-width="1.184" fill="#FFF" fill-rule="nonzero"/><path d="M18.955 53.265c-10.95.518-12.053-9.055-8.846-14.63 3.107-5.4 7.768-7.25 15.306-6.54 7.537.71-.033 12.99-5.204 12.09-2.346-.41-.31 9.036-1.256 9.08z" stroke="#000" stroke-width="1.184" fill="#FFF" fill-rule="nonzero"/><path d="M30.518 4.735c3.743 0 6.174.601 8.283 1.73a11.77 11.77 0 014.893 4.9c1.117 2.089 1.716 4.493 1.73 8.171v2.236c0 3.747-.601 6.18-1.73 8.292a11.77 11.77 0 01-4.893 4.899c-2.11 1.13-4.54 1.73-8.283 1.73h-2.74c-3.743 0-6.174-.6-8.283-1.73a11.77 11.77 0 01-4.894-4.9c-1.128-2.111-1.729-4.544-1.729-8.291v-2.115c0-3.747.601-6.18 1.73-8.292a11.77 11.77 0 014.893-4.9c2.087-1.117 4.488-1.717 8.162-1.73h2.861z" stroke="#000" stroke-width="1.184" fill="#FFF" fill-rule="nonzero"/><path d="M27.018 13.908h3.964c2.007 0 3.563.37 4.869 1.066a7.264 7.264 0 013.028 3.015c.698 1.3 1.07 2.849 1.07 4.848v.49c0 1.998-.372 3.547-1.07 4.847a7.264 7.264 0 01-3.028 3.016c-1.306.695-2.862 1.065-4.87 1.065h-3.963c-2.007 0-3.563-.37-4.869-1.065a7.264 7.264 0 01-3.028-3.016c-.698-1.3-1.07-2.849-1.07-4.848v-.49c0-1.998.372-3.547 1.07-4.847a7.264 7.264 0 013.028-3.015c1.306-.696 2.862-1.066 4.87-1.066z" stroke="#000" stroke-width="1.184" fill="#FFF" fill-rule="nonzero"/><circle fill="#000" fill-rule="nonzero" cx="22.046" cy="23.23" r="2.367"/><circle fill="#000" fill-rule="nonzero" cx="35.954" cy="23.23" r="2.367"/><path d="M26.485 22.786c0 1.307 1.126 2.367 2.515 2.367 1.39 0 2.515-1.06 2.515-2.367" stroke="#000" stroke-width="1.184" stroke-linecap="round"/><path d="M12.709 13.951c.711.1 1.329.356 1.824.732.496.376.87.872 1.095 1.452.225.58.301 1.243.201 1.954l-.09.648c-.1.71-.357 1.327-.733 1.823a3.32 3.32 0 01-1.453 1.094c-.58.225-1.244.3-1.956.2-.711-.1-1.328-.355-1.824-.731a3.318 3.318 0 01-1.095-1.452c-.225-.58-.301-1.243-.201-1.954l.09-.648c.1-.71.357-1.327.734-1.822a3.32 3.32 0 011.452-1.094c.58-.225 1.244-.302 1.956-.202z" stroke="#000" stroke-width="1.184" fill="#FFF" fill-rule="nonzero"/><path stroke="#D8D8D8" stroke-width="1.628" stroke-linecap="round" stroke-linejoin="round" d="M11.773 16.435l-.33 2.133"/><path d="M45.406 13.95c-.696.097-1.3.345-1.783.709a3.206 3.206 0 00-1.069 1.405c-.22.561-.293 1.204-.195 1.894l.124.878c.098.69.348 1.288.715 1.767.367.48.851.842 1.418 1.06.566.217 1.215.29 1.911.193.697-.097 1.3-.345 1.784-.708a3.206 3.206 0 001.068-1.405c.22-.562.294-1.205.196-1.895l-.125-.878c-.097-.69-.347-1.288-.714-1.767a3.23 3.23 0 00-1.418-1.06c-.567-.217-1.216-.29-1.912-.193z" stroke="#000" stroke-width="1.184" fill="#FFF" fill-rule="nonzero"/><g fill-rule="nonzero"><path d="M28.918 29.296c-7.064 0-12.79 5.763-12.79 12.872 0 7.11 5.726 12.873 12.79 12.873 7.064 0 12.79-5.764 12.79-12.873 0-7.109-5.726-12.872-12.79-12.872z" stroke="#000" stroke-width="1.184" fill="#07A6B3"/><path d="M28.918 50.258c-4.324 0-8.031-3.527-8.031-7.88 0-1.022.193-2.202.545-3.098l3.45 1.48a28.24 28.24 0 00-.041.183c-.104.339-.164.69-.181 1.043-.008.07-.01.14-.008.211 0 .017.002.033.003.049a4.275 4.275 0 001.625 3.307 4.218 4.218 0 003.58.795l1.96 3.351c-.923.37-1.908.56-2.902.56zM36.33 45.37l-8.759-3.735 5.618-.024c-.202-2.051-2.296-3.718-4.27-3.718a4.01 4.01 0 00-1.317.221l-1.944-3.321a7.759 7.759 0 013.26-.714c4.325 0 8.02 3.594 8.02 7.945 0 1.174-.151 2.345-.609 3.346h.001z" fill="#FFF"/></g><g fill="#FFF" fill-rule="nonzero" stroke="#000" stroke-width="1.184"><path d="M15.235 50.56l-.96-2.692c-.731-2.05.363-4.296 2.443-5.018l.047-.016h0c2.123-.707 4.427.4 5.17 2.483l.96 2.693c.73 2.05-.363 4.296-2.444 5.017l-.046.016h0c-2.123.707-4.428-.4-5.17-2.482z"/><path stroke-linecap="round" d="M21.44 45.171l-2.945.992M22.556 47.667l-2.931 1.03"/></g><g fill="#FFF" fill-rule="nonzero" stroke="#000" stroke-width="1.184"><path d="M42.797 50.56l.96-2.692c.731-2.05-.363-4.296-2.443-5.018l-.047-.016h0c-2.123-.707-4.427.4-5.17 2.483l-.96 2.693c-.73 2.05.363 4.296 2.444 5.017l.046.016h0c2.123.707 4.428-.4 5.17-2.482z"/><path stroke-linecap="round" d="M36.593 45.171l2.944.992M35.476 47.667l2.932 1.03"/></g><path stroke="#D8D8D8" stroke-width="1.628" stroke-linecap="round" stroke-linejoin="round" d="M46.37 16.435l.331 2.133"/></g></g></svg></svg>