<?xml version="1.0" encoding="UTF-8"?><svg width="1059" height="780" viewBox="0 0 1059 780" xmlns="http://www.w3.org/2000/svg" xmlns:xlink="http://www.w3.org/1999/xlink"><svg width="62" height="62" viewBox="-1 -1 62 62" id="svg--MEWlogo" x="912" y="252" xmlns="http://www.w3.org/2000/svg"><g fill="none" fill-rule="evenodd"><path d="M43.335.5h-26.67c-5.653 0-7.71.57-9.779 1.677a11.32 11.32 0 00-4.709 4.71C1.071 8.954.5 11.011.5 16.664v26.67c0 5.653.57 7.71 1.677 9.779a11.32 11.32 0 004.71 4.709c2.068 1.106 4.125 1.677 9.778 1.677h26.67c5.653 0 7.71-.57 9.779-1.677a11.32 11.32 0 004.709-4.71c1.106-2.068 1.677-4.125 1.677-9.778v-26.67c0-5.653-.57-7.71-1.677-9.779a11.32 11.32 0 00-4.71-4.709C51.046 1.071 48.989.5 43.336.5z" stroke-opacity=".1" stroke="#000" fill="#FFF"/><g transform="translate(1 1)"><path d="M39.042 53.265c10.949.518 12.053-9.055 8.846-14.63-3.108-5.4-7.768-7.25-15.306-6.54-7.538.71.032 12.99 5.204 12.09 2.346-.41.31 9.036 1.256 9.08z" stroke="#000" stroke-width="1.184" fill="#FFF" fill-rule="nonzero"/><path d="M18.955 53.265c-10.95.518-12.053-9.055-8.846-14.63 3.107-5.4 7.768-7.25 15.306-6.54 7.537.71-.033 12.99-5.204 12.09-2.346-.41-.31 9.036-1.256 9.08z" stroke="#000" stroke-width="1.184" fill="#FFF" fill-rule="nonzero"/><path d="M30.518 4.735c3.743 0 6.174.601 8.283 1.73a11.77 11.77 0 014.893 4.9c1.117 2.089 1.716 4.493 1.73 8.171v2.236c0 3.747-.601 6.18-1.73 8.292a11.77 11.77 0 01-4.893 4.899c-2.11 1.13-4.54 1.73-8.283 1.73h-2.74c-3.743 0-6.174-.6-8.283-1.73a11.77 11.77 0 01-4.894-4.9c-1.128-2.111-1.729-4.544-1.729-8.291v-2.115c0-3.747.601-6.18 1.73-8.292a11.77 11.77 0 014.893-4.9c2.087-1.117 4.488-1.717 8.162-1.73h2.861z" stroke="#000" stroke-width="1.184" fill="#FFF" fill-rule="nonzero"/><path d="M27.018 13.908h3.964c2.007 0 3.563.37 4.869 1.066a7.264 7.264 0 013.028 3.015c.698 1.3 1.07 2.849 1.07 4.848v.49c0 1.998-.372 3.547-1.07 4.847a7.264 7.264 0 01-3.028 3.016c-1.306.695-2.862 1.065-4.87 1.065h-3.963c-2.007 0-3.563-.37-4.869-1.065a7.264 7.264 0 01-3.028-3.016c-.698-1.3-1.07-2.849-1.07-4.848v-.49c0-1.998.372-3.547 1.07-4.847a7.264 7.264 0 013.028-3.015c1.306-.696 2.862-1.066 4.87-1.066z" stroke="#000" stroke-width="1.184" fill="#FFF" fill-rule="nonzero"/><circle fill="#000" fill-rule="nonzero" cx="22.046" cy="23.23" r="2.367"/><circle fill="#000" fill-rule="nonzero" cx="35.954" cy="23.23" r="2.367"/><path d="M26.485 22.786c0 1.307 1.126 2.367 2.515 2.367 1.39 0 2.515-1.06 2.515-2.367" stroke="#000" stroke-width="1.184" stroke-linecap="round"/><path d="M12.709 13.951c.711.1 1.329.356 1.824.732.496.376.87.872 1.095 1.452.225.58.301 1.243.201 1.954l-.09.648c-.1.71-.357 1.327-.733 1.823a3.32 3.32 0 01-1.453 1.094c-.58.225-1.244.3-1.956.2-.711-.1-1.328-.355-1.824-.731a3.318 3.318 0 01-1.095-1.452c-.225-.58-.301-1.243-.201-1.954l.09-.648c.1-.71.357-1.327.734-1.822a3.32 3.32 0 011.452-1.094c.58-.225 1.244-.302 1.956-.202z" stroke="#000" stroke-width="1.184" fill="#FFF" fill-rule="nonzero"/><path stroke="#D8D8D8" stroke-width="1.628" stroke-linecap="round" stroke-linejoin="round" d="M11.773 16.435l-.33 2.133"/><path d="M45.406 13.95c-.696.097-1.3.345-1.783.709a3.206 3.206 0 00-1.069 1.405c-.22.561-.293 1.204-.195 1.894l.124.878c.098.69.348 1.288.715 1.767.367.48.851.842 1.418 1.06.566.217 1.215.29 1.911.193.697-.097 1.3-.345 1.784-.708a3.206 3.206 0 001.068-1.405c.22-.562.294-1.205.196-1.895l-.125-.878c-.097-.69-.347-1.288-.714-1.767a3.23 3.23 0 00-1.418-1.06c-.567-.217-1.216-.29-1.912-.193z" stroke="#000" stroke-width="1.184" fill="#FFF" fill-rule="nonzero"/><g fill-rule="nonzero"><path d="M28.918 29.296c-7.064 0-12.79 5.763-12.79 12.872 0 7.11 5.726 12.873 12.79 12.873 7.064 0 12.79-5.764 12.79-12.873 0-7.109-5.726-12.872-12.79-12.872z" stroke="#000" stroke-width="1.184" fill="#07A6B3"/><path d="M28.918 50.258c-4.324 0-8.031-3.527-8.031-7.88 0-1.022.193-2.202.545-3.098l3.45 1.48a28.24 28.24 0 00-.041.183c-.104.339-.164.69-.181 1.043-.008.07-.01.14-.008.211 0 .017.002.033.003.049a4.275 4.275 0 001.625 3.307 4.218 4.218 0 003.58.795l1.96 3.351c-.923.37-1.908.56-2.902.56zM36.33 45.37l-8.759-3.735 5.618-.024c-.202-2.051-2.296-3.718-4.27-3.718a4.01 4.01 0 00-1.317.221l-1.944-3.321a7.759 7.759 0 013.26-.714c4.325 0 8.02 3.594 8.02 7.945 0 1.174-.151 2.345-.609 3.346h.001z" fill="#FFF"/></g><g fill="#FFF" fill-rule="nonzero" stroke="#000" stroke-width="1.184"><path d="M15.235 50.56l-.96-2.692c-.731-2.05.363-4.296 2.443-5.018l.047-.016h0c2.123-.707 4.427.4 5.17 2.483l.96 2.693c.73 2.05-.363 4.296-2.444 5.017l-.046.016h0c-2.123.707-4.428-.4-5.17-2.482z"/><path stroke-linecap="round" d="M21.44 45.171l-2.945.992M22.556 47.667l-2.931 1.03"/></g><g fill="#FFF" fill-rule="nonzero" stroke="#000" stroke-width="1.184"><path d="M42.797 50.56l.96-2.692c.731-2.05-.363-4.296-2.443-5.018l-.047-.016h0c-2.123-.707-4.427.4-5.17 2.483l-.96 2.693c-.73 2.05.363 4.296 2.444 5.017l.046.016h0c2.123.707 4.428-.4 5.17-2.482z"/><path stroke-linecap="round" d="M36.593 45.171l2.944.992M35.476 47.667l2.932 1.03"/></g><path stroke="#D8D8D8" stroke-width="1.628" stroke-linecap="round" stroke-linejoin="round" d="M46.37 16.435l.331 2.133"/></g></g></svg><svg width="242" height="128" viewBox="-1 -1 242 128" id="svg--MEWwallet" y="652" xmlns="http://www.w3.org/2000/svg"><path d="M20.184 55V26.028l9.267 20.373h8.098l9.267-20.373V55H62V0H45.492L33.5 25.873 21.586 0H5v55h15.184zM111 55V41.831H87.03v-8.676h19.885v-12.24H87.03V13.17h23.276V0H72v55h39zm36.19 0l7.771-19.676L162.81 55h12.589L197 0h-16.474l-11.889 37.725-3.963-11.464L173.766 0h-13.91l-4.895 16.965L150.143 0h-13.909l8.936 26.26-3.807 11.465L129.396 0H113l21.602 55h12.589zM30.127 125l5.335-17.85L40.874 125h16.24L71 84H55.702l-7.375 23.54L42.443 84H28.557l-5.884 23.54L15.298 84H0l13.886 41h16.24zm55.298 1c5.436 0 9.512-1.969 12.23-5.907v5.12H112V100.64c0-5.88-1.777-10.29-5.33-13.23C103.114 84.47 98.045 83 91.46 83c-6.95 0-13.143 1.759-18.579 5.277l4.312 9.293c2.195-1.47 4.286-2.586 6.272-3.347 1.986-.762 4.155-1.142 6.506-1.142 2.509 0 4.325.472 5.449 1.417 1.123.945 1.685 2.39 1.685 4.332v1.26c-2.195-1.05-4.965-1.575-8.31-1.575-2.613 0-5.004.34-7.173 1.023-2.169.683-4.037 1.654-5.605 2.914-1.568 1.26-2.796 2.757-3.684 4.49-.889 1.732-1.333 3.648-1.333 5.748 0 1.89.366 3.65 1.098 5.277a12.815 12.815 0 003.018 4.213c1.28 1.182 2.809 2.114 4.586 2.796 1.777.683 3.684 1.024 5.722 1.024zm4.407-10c-1.402 0-2.558-.382-3.467-1.145-.91-.764-1.364-1.746-1.364-2.946 0-1.418.597-2.59 1.792-3.518 1.195-.927 2.702-1.391 4.52-1.391.83 0 1.766.11 2.805.327 1.039.218 2 .491 2.883.818v3.191c0 .546-.182 1.078-.545 1.596a6.542 6.542 0 01-1.403 1.432 9.755 9.755 0 01-2.494 1.186c-.935.3-1.844.45-2.727.45zM135 125V68h-15v57h15zm21 0V68h-15v57h15zm28.5 1c5.052 0 9.31-1.05 12.773-3.15 3.464-2.1 6.03-4.804 7.696-8.112l-12.578-3.623c-.47 1.313-1.42 2.337-2.852 3.072a9.871 9.871 0 01-4.57 1.102c-1.719 0-3.308-.485-4.766-1.457-1.458-.97-2.266-2.56-2.422-4.764h28.828a32.4 32.4 0 00.274-2.166A25.13 25.13 0 00207 104.5c0-2.835-.482-5.552-1.445-8.151a19.523 19.523 0 00-4.297-6.852c-1.901-1.969-4.258-3.544-7.07-4.725C191.375 83.591 188.145 83 184.5 83c-3.698 0-6.94.59-9.727 1.772-2.786 1.181-5.13 2.77-7.03 4.765-1.902 1.995-3.334 4.331-4.298 7.009-.963 2.677-1.445 5.513-1.445 8.505 0 2.783.495 5.434 1.484 7.954a19.854 19.854 0 004.336 6.695c1.901 1.942 4.258 3.478 7.07 4.607 2.813 1.129 6.016 1.693 9.61 1.693zm6.5-26h-14c.268-1.854 1.02-3.317 2.253-4.39C180.487 94.537 182.069 94 184 94s3.513.537 4.747 1.61 1.985 2.536 2.253 4.39zm35.37 26c2.284 0 4.608-.3 6.97-.901a45.335 45.335 0 006.66-2.233l-2.648-11.752c-.935.418-1.87.744-2.804.98-.935.234-1.766.352-2.493.352-.986 0-1.765-.274-2.336-.823-.572-.548-.857-1.501-.857-2.86V95.132h8.022V83.927h-8.022V71h-14.8v12.927H209v11.204h5.063v18.882c0 2.246.324 4.126.973 5.64.65 1.516 1.532 2.743 2.649 3.683 1.116.94 2.427 1.62 3.933 2.037 1.506.418 3.09.627 4.751.627z" fill="#202124" fill-rule="nonzero"/></svg><svg width="194" height="66" viewBox="-1 -1 194 66" id="svg--app_store_badge" x="437" y="652" xmlns="http://www.w3.org/2000/svg"><g fill="none" fill-rule="evenodd"><path d="M176.216 0H15.256c-.587 0-1.167 0-1.752.003-.49.003-.976.013-1.47.02a21.144 21.144 0 00-3.207.283C7.77.486 6.743.824 5.786 1.31a10.3 10.3 0 00-2.59 1.886c-.764.758-1.4 1.634-1.885 2.594a10.562 10.562 0 00-1 3.045 20.789 20.789 0 00-.287 3.204c-.015.49-.016.982-.024 1.473v36.983c.008.497.01.978.024 1.475.013 1.073.109 2.144.287 3.203a10.54 10.54 0 001 3.047 9.932 9.932 0 001.885 2.583 10.04 10.04 0 002.59 1.886c.957.486 1.983.827 3.041 1.009 1.06.174 2.132.269 3.207.283.494.01.98.017 1.47.017.585.003 1.165.003 1.751.003h160.96c.576 0 1.16 0 1.735-.003.488 0 .988-.006 1.475-.017a21.246 21.246 0 003.2-.283 10.887 10.887 0 003.053-1.01 10.044 10.044 0 002.588-1.885c.762-.757 1.4-1.628 1.89-2.583.483-.96.817-1.987.99-3.047a21.61 21.61 0 00.298-3.203c.006-.497.006-.978.006-1.475.013-.582.013-1.16.013-1.75V15.258c0-.586 0-1.167-.013-1.747 0-.49 0-.983-.006-1.473a21.611 21.611 0 00-.297-3.204 10.588 10.588 0 00-.99-3.045 10.346 10.346 0 00-4.479-4.48 10.828 10.828 0 00-3.053-1.003 20.87 20.87 0 00-3.2-.283c-.487-.008-.987-.017-1.475-.02C177.375 0 176.79 0 176.216 0z" fill-rule="nonzero" fill="#000"/><path d="M30.354 23.993c1.37 0 3.974-1.89 6.66-1.607a8.105 8.105 0 016.387 3.452 7.918 7.918 0 00-3.77 6.643 7.651 7.651 0 004.67 7.039 17.54 17.54 0 01-2.43 4.948c-1.43 2.14-2.93 4.232-5.312 4.27-2.314.054-3.092-1.361-5.746-1.361-2.679 0-3.508 1.323-5.727 1.415-2.268.084-4.001-2.285-5.484-4.405-2.964-4.331-5.272-12.205-2.178-17.562a8.504 8.504 0 017.157-4.365c2.27-.046 4.378 1.533 5.773 1.533zm6.689-10.04a7.796 7.796 0 01-1.783 5.584 6.558 6.558 0 01-5.18 2.449 7.418 7.418 0 011.83-5.378 7.932 7.932 0 015.133-2.656zM82.156 34.156c3.676 0 6.1 2.906 6.1 7.396 0 4.501-2.41 7.393-6.046 7.393a4.91 4.91 0 01-4.558-2.534h-.068v7.175H74.61V34.308h2.878v2.41h.055a5.139 5.139 0 014.613-2.562zm15.943 0c3.677 0 6.1 2.906 6.1 7.396 0 4.501-2.41 7.393-6.045 7.393a4.91 4.91 0 01-4.558-2.534h-.069v7.175h-2.973V34.308h2.878v2.41h.055a5.139 5.139 0 014.612-2.562zm21.347-5.562c4.199 0 7.077 2.354 7.174 5.782h-3.002c-.18-1.982-1.819-3.18-4.214-3.18-2.395 0-4.034 1.212-4.034 2.974 0 1.405 1.046 2.231 3.607 2.864l2.19.538c4.076.964 5.77 2.601 5.77 5.508 0 3.717-2.961 6.045-7.67 6.045-4.407 0-7.382-2.274-7.574-5.867h3.044c.22 1.97 2.134 3.264 4.75 3.264 2.506 0 4.31-1.294 4.31-3.07 0-1.543-1.088-2.466-3.663-3.099l-2.575-.62c-3.649-.882-5.343-2.588-5.343-5.357 0-3.428 2.988-5.782 7.23-5.782zm25.128 5.536c4.2 0 6.872 2.864 6.872 7.422 0 4.57-2.658 7.421-6.872 7.421-4.212 0-6.87-2.851-6.87-7.421 0-4.558 2.684-7.422 6.87-7.422zm24.078 0c4.008 0 6.529 2.753 6.529 7.145v1.019h-10.232v.18a3.773 3.773 0 003.897 4.103 3.277 3.277 0 003.345-2.038h2.824c-.4 2.63-2.961 4.434-6.238 4.434-4.214 0-6.83-2.823-6.83-7.353 0-4.543 2.63-7.49 6.705-7.49zm-35.298-3.25v3.428h2.755v2.354h-2.755v7.986c0 1.241.552 1.82 1.762 1.82.327-.007.654-.03.979-.07v2.341a8.166 8.166 0 01-1.652.138c-2.933 0-4.077-1.102-4.077-3.911v-8.304h-2.106v-2.354h2.106V30.88h2.988zM65.59 28.925l7.173 19.869h-3.262l-1.817-5.37H60.11l-1.819 5.37h-3.207l7.173-19.869h3.333zm94.697 5.231c.342-.001.684.036 1.019.111v2.781a4.157 4.157 0 00-1.336-.18 2.996 2.996 0 00-3.099 3.334v8.592h-2.973V34.308h2.836v2.465h.068a3.455 3.455 0 013.485-2.617zm-15.713 2.424c-2.41 0-3.84 1.86-3.84 4.972 0 3.139 1.43 4.97 3.84 4.97s3.842-1.831 3.842-4.97c0-3.127-1.432-4.972-3.842-4.972zm-63.203.11c-2.272 0-3.8 1.97-3.8 4.862 0 2.918 1.528 4.873 3.8 4.873 2.313 0 3.828-1.914 3.828-4.873 0-2.933-1.515-4.861-3.828-4.861zm15.944 0c-2.272 0-3.8 1.97-3.8 4.862 0 2.918 1.528 4.873 3.8 4.873 2.312 0 3.828-1.914 3.828-4.873 0-2.933-1.516-4.861-3.828-4.861zm-33.377-4.46h-.082l-2.961 8.715h6.003l-2.96-8.715zm104.714 4.31a3.667 3.667 0 00-3.689 3.676h7.243a3.484 3.484 0 00-3.554-3.677zM164.49 16.173c2.005 0 3.214 1.37 3.214 3.632v.496h-5.088v.08a1.904 1.904 0 001.92 2.063 1.727 1.727 0 001.713-.873h1.369a2.925 2.925 0 01-3.122 2.084 3.272 3.272 0 01-3.328-3.718 3.323 3.323 0 013.322-3.764zm-92.604.513a3.413 3.413 0 011.598 3.225 3.414 3.414 0 11-6.795 0 3.413 3.413 0 015.197-3.225zm31.26 0a3.414 3.414 0 011.599 3.225 3.414 3.414 0 11-6.797 0 3.414 3.414 0 015.198-3.225zm28.82 0a3.413 3.413 0 011.597 3.225 3.414 3.414 0 11-6.795 0 3.413 3.413 0 015.197-3.225zm-22.503-.513c1.807 0 2.825.899 2.825 2.42v4.923h-1.368v-1.012h-.113a2.424 2.424 0 01-2.164 1.131 2.176 2.176 0 01-2.402-2.156c0-1.297.966-2.045 2.68-2.15l1.952-.113v-.622c0-.761-.503-1.19-1.475-1.19-.794 0-1.344.29-1.502.8h-1.376c.145-1.238 1.309-2.031 2.943-2.031zm11.422-2.674v10.017h-1.362v-1.138h-.113a2.5 2.5 0 01-2.262 1.257c-1.833 0-2.99-1.442-2.99-3.724 0-2.277 1.17-3.719 2.99-3.719.919-.042 1.78.45 2.21 1.264h.105V13.5h1.422zm28.74 1.019v1.827h1.56v1.197h-1.56v3.705c0 .755.31 1.085 1.018 1.085.181 0 .362-.012.542-.033v1.185c-.255.045-.514.07-.773.072-1.581 0-2.211-.556-2.211-1.945v-4.069h-1.144v-1.198h1.144v-1.826h1.423zm-85.734.76a4.223 4.223 0 011.123 3.435c0 3.05-1.648 4.804-4.492 4.804h-3.449V13.97h3.449a4.223 4.223 0 013.369 1.308zm12.062 1.034l1.29 5.497h.107l1.481-5.497h1.364l1.482 5.497h.112l1.284-5.497h1.422l-1.978 7.204h-1.475l-1.489-5.306h-.112l-1.483 5.306h-1.461l-1.986-7.204h1.442zm15.729.601c.485.521.707 1.235.602 1.94v4.663h-1.421V19.21c0-1.157-.504-1.733-1.555-1.733a1.653 1.653 0 00-1.72 1.826v4.214h-1.422v-7.204h1.368v1.144h.107a2.157 2.157 0 012.15-1.283 2.343 2.343 0 011.89.74zm4.29-3.414v10.017H94.55V13.5h1.422zm45.015 3.414c.485.521.707 1.235.603 1.94v4.663h-1.422V19.21c0-1.157-.503-1.733-1.555-1.733a1.653 1.653 0 00-1.72 1.826v4.214h-1.422v-7.204h1.369v1.144h.106a2.157 2.157 0 012.15-1.283 2.343 2.343 0 011.891.74zm13.55-3.414v3.97h.112a2.217 2.217 0 012.197-1.29 2.373 2.373 0 012.481 2.686v4.651h-1.423v-4.3c0-1.151-.536-1.734-1.54-1.734a1.683 1.683 0 00-1.815 1.827v4.207h-1.422V13.5h1.41zm-43.664 6.762l-1.76.112c-.992.067-1.442.404-1.442 1.04 0 .648.563 1.025 1.336 1.025a1.698 1.698 0 001.866-1.575v-.602zm19.295-2.825c-1.236 0-1.931.913-1.931 2.475 0 1.574.695 2.48 1.931 2.48 1.231 0 1.933-.912 1.933-2.48 0-1.562-.702-2.475-1.933-2.475zm-28.82 0c-1.235 0-1.93.913-1.93 2.475 0 1.574.695 2.48 1.93 2.48 1.232 0 1.933-.912 1.933-2.48 0-1.562-.701-2.475-1.933-2.475zm-31.259 0c-1.236 0-1.931.913-1.931 2.475 0 1.574.695 2.48 1.931 2.48 1.231 0 1.933-.912 1.933-2.48 0-1.562-.702-2.475-1.933-2.475zm47.462.034c-1.197 0-1.925.925-1.925 2.44 0 1.53.72 2.449 1.925 2.449 1.198 0 1.939-.933 1.939-2.442 0-1.501-.749-2.447-1.94-2.447zm-57.195-2.151h-1.8v6.847h1.8a3.001 3.001 0 003.149-3.433 3.01 3.01 0 00-3.149-3.414zm104.126 2.064a1.843 1.843 0 00-1.866 1.866h3.64a1.738 1.738 0 00-1.774-1.866z" fill="#FFF" fill-rule="nonzero"/></g></svg><svg width="130" height="152" viewBox="-1 -1 130 152" id="svg--cosmonaut" x="782" xmlns="http://www.w3.org/2000/svg"><g fill="none" fill-rule="evenodd"><path d="M40.889 78.029c-1.935 5.168-1.66 11.119 3.311 21.187-11.524 7.908-7.061 14.404-2.075 22.208-22.435 12.44-24.659 12.478-24.659 12.478C3.751 101.27 25.185 78.949 40.89 78.029z" fill="#FFF"/><path d="M34.601 79.848c.548 2.292-.675 1.451-.18 3.664-13.036 5.878-19.265 26.115-15.847 31.98-6.285 5.454-1.342 15.758-1.342 15.758C4.679 108.138 20.237 81.063 34.6 79.848z" fill="#D8D8D8"/><path d="M40.889 78.029c-1.935 5.168-1.66 11.119 3.311 21.187-11.524 7.908-7.061 14.404-2.075 22.208-22.435 12.44-24.659 12.478-24.659 12.478C3.751 101.27 25.185 78.949 40.89 78.029z" stroke="#000" stroke-width="4.125" stroke-linejoin="round"/><path d="M88.807 78.029c1.934 5.168 1.66 11.119-3.312 21.187 11.524 7.908 7.062 14.404 2.076 22.208 22.434 12.44 24.658 12.478 24.658 12.478 13.716-32.632-7.718-54.953-23.422-55.873z" fill="#FFF"/><path d="M88.807 78.029c1.934 5.168 1.66 11.119-3.312 21.187 11.524 7.908 7.062 14.404 2.076 22.208 22.434 12.44 24.658 12.478 24.658 12.478 13.716-32.632-7.718-54.953-23.422-55.873z" stroke="#000" stroke-width="4.125" stroke-linejoin="round"/><path d="M61.624 4.521h6.178c10.194 0 17.515 1.775 23.748 5.109 6.23 3.33 11.123 8.223 14.453 14.452 3.334 6.234 5.109 13.555 5.109 23.75v3.964c0 10.195-1.775 17.516-5.109 23.75-3.33 6.229-8.223 11.122-14.453 14.452-6.233 3.334-13.554 5.108-23.748 5.108H61.98c-10.194 0-17.515-1.774-23.749-5.108-6.23-3.33-11.122-8.223-14.452-14.453-3.334-6.233-5.109-13.554-5.109-23.749v-3.965c0-10.194 1.775-17.515 5.109-23.749 3.33-6.23 8.223-11.122 14.452-14.452 6.16-3.293 13.384-5.068 23.393-5.109z" stroke="#000" stroke-width="8.25"/><path d="M61.624 4.521h6.178c10.194 0 17.515 1.775 23.748 5.109 6.23 3.33 11.123 8.223 14.453 14.452 3.334 6.234 5.109 13.555 5.109 23.75v3.964c0 10.195-1.775 17.516-5.109 23.75-3.33 6.229-8.223 11.122-14.453 14.452-6.233 3.334-13.554 5.108-23.748 5.108H61.98c-10.194 0-17.515-1.774-23.749-5.108-6.23-3.33-11.122-8.223-14.452-14.453-3.334-6.233-5.109-13.554-5.109-23.749v-3.965c0-10.194 1.775-17.515 5.109-23.749 3.33-6.23 8.223-11.122 14.452-14.452 6.16-3.293 13.384-5.068 23.393-5.109z" fill="#FFF"/><path d="M47.32 93.494c-3.347-.847-6.325-2.018-9.089-3.496-6.23-3.33-11.122-8.223-14.452-14.453-3.334-6.233-5.109-13.554-5.109-23.749v-3.965c0-10.194 1.775-17.515 5.109-23.749 3.33-6.23 8.223-11.122 14.452-14.452a39.658 39.658 0 018.9-3.448c-29.83 18.796-24.261 78.196.19 87.312z" fill="#D8D8D8"/><path d="M88.094 15.288c3.98 2.149 7.347 5.019 10.024 8.538" fill="#FFF"/><path d="M88.094 15.288c3.98 2.149 7.347 5.019 10.024 8.538" stroke="#000" stroke-width="4.125" stroke-linecap="round"/><path d="M19.688 26.666c2.057.872 3.69 2.101 4.856 3.579a9.713 9.713 0 012.05 5.078c.189 1.872-.134 3.891-1.007 5.948l-1.25 2.944c-.873 2.06-2.102 3.69-3.58 4.856a9.687 9.687 0 01-5.078 2.053c-1.871.19-3.887-.134-5.948-1.006-2.056-.876-3.69-2.101-4.852-3.579a9.7 9.7 0 01-2.053-5.079c-.19-1.87.134-3.89 1.006-5.947l1.251-2.948c.873-2.057 2.102-3.69 3.58-4.852a9.687 9.687 0 015.078-2.053c1.871-.19 3.887.134 5.947 1.006z" fill="#D8D8D8"/><path d="M19.688 26.666c2.057.872 3.69 2.101 4.856 3.579a9.713 9.713 0 012.05 5.078c.189 1.872-.134 3.891-1.007 5.948l-1.25 2.944c-.873 2.06-2.102 3.69-3.58 4.856a9.687 9.687 0 01-5.078 2.053c-1.871.19-3.887-.134-5.948-1.006-2.056-.876-3.69-2.101-4.852-3.579a9.7 9.7 0 01-2.053-5.079c-.19-1.87.134-3.89 1.006-5.947l1.251-2.948c.873-2.057 2.102-3.69 3.58-4.852a9.687 9.687 0 015.078-2.053c1.871-.19 3.887.134 5.947 1.006z" stroke="#000" stroke-width="4.125"/><path stroke="#FFF" stroke-width="4.125" stroke-linecap="round" stroke-linejoin="round" d="M14.647 32.953l-3.937 9.275"/><path d="M108.368 26.666c-2.057.872-3.69 2.101-4.852 3.579a9.687 9.687 0 00-2.053 5.078c-.19 1.872.133 3.891 1.006 5.948l1.251 2.944c.872 2.06 2.101 3.69 3.579 4.856a9.687 9.687 0 005.079 2.053c1.87.19 3.887-.134 5.947-1.006 2.057-.876 3.69-2.101 4.856-3.579a9.725 9.725 0 002.05-5.079c.189-1.87-.134-3.89-1.007-5.947l-1.251-2.948c-.872-2.057-2.101-3.69-3.579-4.852a9.687 9.687 0 00-5.079-2.053c-1.87-.19-3.887.134-5.947 1.006z" fill="#FFF"/><path d="M108.368 26.666c-2.057.872-3.69 2.101-4.852 3.579a9.687 9.687 0 00-2.053 5.078c-.19 1.872.133 3.891 1.006 5.948l1.251 2.944c.872 2.06 2.101 3.69 3.579 4.856a9.687 9.687 0 005.079 2.053c1.87.19 3.887-.134 5.947-1.006 2.057-.876 3.69-2.101 4.856-3.579a9.725 9.725 0 002.05-5.079c.189-1.87-.134-3.89-1.007-5.947l-1.251-2.948c-.872-2.057-2.101-3.69-3.579-4.852a9.687 9.687 0 00-5.079-2.053c-1.87-.19-3.887.134-5.947 1.006z" stroke="#000" stroke-width="4.125"/><path stroke="#D8D8D8" stroke-width="4.125" stroke-linecap="round" stroke-linejoin="round" d="M112.996 32.289l3.937 9.275"/><path d="M59.567 27.91h11.019c5.584 0 9.909 1.032 13.54 2.974a20.275 20.275 0 018.42 8.42c1.941 3.63 2.973 7.956 2.973 13.54v1.365c0 5.584-1.032 9.909-2.974 13.54a20.275 20.275 0 01-8.42 8.42c-3.63 1.941-7.955 2.974-13.54 2.974H59.568c-5.583 0-9.908-1.033-13.54-2.974a20.275 20.275 0 01-8.42-8.42c-1.94-3.631-2.973-7.956-2.973-13.54v-1.366c0-5.583 1.032-9.909 2.974-13.54a20.275 20.275 0 018.42-8.42c3.63-1.94 7.956-2.973 13.54-2.973z" fill="#FFF"/><path d="M59.567 27.91h11.019c5.584 0 9.909 1.032 13.54 2.974a20.275 20.275 0 018.42 8.42c1.941 3.63 2.973 7.956 2.973 13.54v1.365c0 5.584-1.032 9.909-2.974 13.54a20.275 20.275 0 01-8.42 8.42c-3.63 1.941-7.955 2.974-13.54 2.974H59.568c-5.583 0-9.908-1.033-13.54-2.974a20.275 20.275 0 01-8.42-8.42c-1.94-3.631-2.973-7.956-2.973-13.54v-1.366c0-5.583 1.032-9.909 2.974-13.54a20.275 20.275 0 018.42-8.42c3.63-1.94 7.956-2.973 13.54-2.973z" stroke="#000" stroke-width="4.125"/><path d="M46.514 58.724a6.31 6.31 0 006.311-6.311 6.31 6.31 0 00-6.31-6.312 6.31 6.31 0 00-6.312 6.312 6.31 6.31 0 006.311 6.31z" fill="#000"/><path d="M44.658 53.526a1.857 1.857 0 10-.002-3.714 1.857 1.857 0 00.002 3.714z" fill="#FFF"/><path stroke="#000" stroke-width="3.75" stroke-linecap="round" d="M42.43 44.059l7.054-2.413"/><path d="M83.268 58.724a6.31 6.31 0 01-6.311-6.311 6.31 6.31 0 016.31-6.312 6.31 6.31 0 016.312 6.312 6.31 6.31 0 01-6.311 6.31z" fill="#000"/><path d="M81.783 53.526a1.857 1.857 0 11.001-3.714 1.857 1.857 0 01-.001 3.714z" fill="#FFF"/><path stroke="#000" stroke-width="3.75" stroke-linecap="round" d="M87.352 44.059l-7.054-2.413"/><path d="M58.765 50.463s-.027 4.682 6.311 4.827c5.732.13 6.312-4.827 6.312-4.827l-.023-.092c.045 2.358-2.739 4.98-6.265 4.919-3.485-.06-6.126-1.633-6.357-4.92l.022.093z" fill="#000"/><path d="M58.765 50.463s-.027 4.682 6.311 4.827c5.732.13 6.312-4.827 6.312-4.827l-.023-.092c.045 2.358-2.739 4.98-6.265 4.919-3.485-.06-6.126-1.633-6.357-4.92l.022.093z" stroke="#000" stroke-width="3.375" stroke-linecap="round" stroke-linejoin="round"/><g stroke="#000" stroke-width="4.125"><path d="M64.873 145.403c19.918.228 36.26-15.906 36.49-36.048.231-20.142-15.736-36.647-35.654-36.875-19.919-.229-36.26 15.905-36.49 36.048-.232 20.142 15.735 36.647 35.654 36.875z"/></g><g stroke="#000" stroke-width="4.125"><path d="M65.448 147.267c21.12 0 38.239-17.204 38.239-38.424 0-21.221-17.119-38.425-38.24-38.425-21.12 0-38.238 17.204-38.238 38.425 0 21.22 17.118 38.424 38.239 38.424z"/></g><path d="M65.713 72.477c-20.276 0-36.71 16.463-36.71 36.768s16.438 36.768 36.71 36.768c20.276 0 36.711-16.463 36.711-36.768s-16.431-36.768-36.71-36.768z" fill="#0098A6"/><g fill="#FFF"><path d="M86.99 118.39L61.85 107.722l16.124-.072c-.578-5.857-6.59-10.62-12.258-10.62-1.285 0-2.563.215-3.777.632l-5.58-9.484a22.34 22.34 0 019.357-2.039c12.412 0 23.017 10.263 23.017 22.693 0 3.352-.432 6.697-1.745 9.556h.003zM65.715 132.352c-12.411 0-23.053-10.077-23.053-22.507 0-2.92.554-6.29 1.564-8.85l9.902 4.224c-.032.139-.071.32-.118.524a12.11 12.11 0 00-.517 2.981c-.022.2-.029.403-.025.603 0 .047.007.093.01.14a12.187 12.187 0 004.663 9.445 12.159 12.159 0 0010.277 2.27l5.63 9.574a22.437 22.437 0 01-8.333 1.596z"/></g><g><path d="M17.476 134.75l-2.513-7.57c-1.916-5.766 1.207-11.988 6.968-13.904l.13-.04c5.88-1.872 12.174 1.332 14.119 7.187l2.513 7.57c1.912 5.765-1.206 11.987-6.972 13.903l-.126.04c-5.88 1.872-12.173-1.332-14.119-7.187z" fill="#FFF"/><path d="M17.476 134.75l-2.513-7.57c-1.916-5.766 1.207-11.988 6.968-13.904l.13-.04c5.88-1.872 12.174 1.332 14.119 7.187l2.513 7.57c1.912 5.765-1.206 11.987-6.972 13.903l-.126.04c-5.88 1.872-12.173-1.332-14.119-7.187z" stroke="#000" stroke-width="4.125"/></g><g stroke="#000" stroke-linecap="round" stroke-width="4.125"><path d="M34.516 121.508l-9.761 2.395"/></g><g stroke="#000" stroke-linecap="round" stroke-width="4.125"><path d="M36.922 128.96L27.374 132"/></g><g><path d="M112.22 134.75l2.514-7.57c1.912-5.766-1.207-11.988-6.972-13.904l-.126-.04c-5.881-1.872-12.174 1.332-14.12 7.187l-2.512 7.57c-1.916 5.765 1.206 11.987 6.968 13.903l.13.04c5.88 1.872 12.173-1.332 14.119-7.187z" fill="#FFF"/><path d="M112.22 134.75l2.514-7.57c1.912-5.766-1.207-11.988-6.972-13.904l-.126-.04c-5.881-1.872-12.174 1.332-14.12 7.187l-2.512 7.57c-1.916 5.765 1.206 11.987 6.968 13.903l.13.04c5.88 1.872 12.173-1.332 14.119-7.187z" stroke="#000" stroke-width="4.125"/></g><g stroke="#000" stroke-linecap="round" stroke-width="4.125"><path d="M95.179 121.508l9.762 2.395"/></g><g stroke="#000" stroke-linecap="round" stroke-width="4.125"><path d="M92.773 128.96l9.548 3.04"/></g></g></svg><svg width="147" height="150" viewBox="-1 -1 147 150" id="svg--cosmonaut_two" x="912" xmlns="http://www.w3.org/2000/svg"><g fill="none" fill-rule="evenodd"><path fill="none" d="M-3.25-13.25h166.125v163.5H-3.25z"/><path d="M63.554 67.278l14.956-.004.693.004c10.286.071 15.985 1.57 21.143 4.326 5.266 2.822 9.403 6.955 12.226 12.226l.185.344c2.704 5.18 4.145 10.996 4.158 21.488l.008 30.046c-14.28 6.3-28.56 9.45-42.84 9.45-14.28 0-28.56-3.15-42.84-9.45l-.017-36.09c-.02-17.682 14.163-32.055 31.777-32.349l.534-.004c.008 0 .012 0 .017.013z" fill="#FFF"/><path d="M63.554 67.278l14.956-.004.693.004c10.286.071 15.985 1.57 21.143 4.326 5.266 2.822 9.403 6.955 12.226 12.226l.185.344c2.704 5.18 4.145 10.996 4.158 21.488l.008 30.046c-14.28 6.3-28.56 9.45-42.84 9.45-14.28 0-28.56-3.15-42.84-9.45l-.017-36.09c-.02-17.682 14.163-32.055 31.777-32.349l.534-.004c.008 0 .012 0 .017.013z" stroke="#000" stroke-width="4.125" stroke-linejoin="round"/><path d="M32.482 93.9l-.081 41.393c-13.193 1.798-19.902-.854-24.814-5.41.787-8.569 1.552-17.103 4.649-23.676C16.249 97.69 24.124 93.564 32.482 93.9z" fill="#FFF"/><path d="M32.482 93.9s-16.233 4.539-16.54 40.808c-3.466-1.043-6.1-2.733-8.355-4.825.787-8.569 1.552-17.103 4.649-23.676C16.249 97.69 24.124 93.564 32.482 93.9z" fill="#D8D8D8"/><path d="M32.482 93.9l-.081 41.393c-13.193 1.798-19.902-.854-24.814-5.41.787-8.569 1.552-17.103 4.649-23.676C16.249 97.69 24.124 93.564 32.482 93.9z" stroke="#000" stroke-width="4.125"/><path d="M116.629 93.9l.082 41.393c13.192 1.798 19.901-.854 24.814-5.41-.788-8.569-1.553-17.103-4.65-23.676-4.013-8.518-11.888-12.643-20.246-12.307z" fill="#FFF"/><path d="M116.629 93.9l.082 41.393c13.192 1.798 19.901-.854 24.814-5.41-.788-8.569-1.553-17.103-4.65-23.676-4.013-8.518-11.888-12.643-20.246-12.307z" stroke="#000" stroke-width="4.125"/><path d="M69.315 4.97h8.262c11.89 0 19.82 1.949 26.661 5.611 6.846 3.658 12.218 9.03 15.876 15.876 3.663 6.842 5.611 14.772 5.611 26.662V59.3c0 11.89-1.948 19.82-5.61 26.662-3.659 6.846-9.03 12.218-15.877 15.876-6.842 3.662-14.771 5.611-26.661 5.611h-7.863c-11.89 0-19.82-1.949-26.661-5.611-6.846-3.658-12.218-9.03-15.876-15.876l-.244-.462c-3.503-6.741-5.368-14.578-5.368-26.2V53.12c0-11.89 1.95-19.82 5.612-26.662 3.658-6.846 9.03-12.218 15.876-15.876 6.766-3.62 14.595-5.569 26.262-5.611z" fill="#FFF"/><path d="M69.315 4.97h8.262c11.89 0 19.82 1.949 26.661 5.611 6.846 3.658 12.218 9.03 15.876 15.876 3.663 6.842 5.611 14.772 5.611 26.662V59.3c0 11.89-1.948 19.82-5.61 26.662-3.659 6.846-9.03 12.218-15.877 15.876-6.842 3.662-14.771 5.611-26.661 5.611h-7.863c-11.89 0-19.82-1.949-26.661-5.611-6.846-3.658-12.218-9.03-15.876-15.876l-.244-.462c-3.503-6.741-5.368-14.578-5.368-26.2V53.12c0-11.89 1.95-19.82 5.612-26.662 3.658-6.846 9.03-12.218 15.876-15.876 6.766-3.62 14.595-5.569 26.262-5.611z" stroke="#000" stroke-width="4.125"/><path d="M69.315 4.97h8.262c11.89 0 19.82 1.949 26.661 5.611 6.846 3.658 12.218 9.03 15.876 15.876 3.663 6.842 5.611 14.772 5.611 26.662V59.3c0 11.89-1.948 19.82-5.61 26.662-3.659 6.846-9.03 12.218-15.877 15.876-6.842 3.662-14.771 5.611-26.661 5.611h-7.863c-11.89 0-19.82-1.949-26.661-5.611-6.846-3.658-12.218-9.03-15.876-15.876l-.244-.462c-3.503-6.741-5.368-14.578-5.368-26.2V53.12c0-11.89 1.95-19.82 5.612-26.662 3.658-6.846 9.03-12.218 15.876-15.876 6.766-3.62 14.595-5.569 26.262-5.611z" stroke="#000" stroke-width="8.25"/><path d="M69.315 4.97h8.262c11.89 0 19.82 1.949 26.661 5.611 6.846 3.658 12.218 9.03 15.876 15.876 3.663 6.842 5.611 14.772 5.611 26.662V59.3c0 11.89-1.948 19.82-5.61 26.662-3.659 6.846-9.03 12.218-15.877 15.876-6.842 3.662-14.771 5.611-26.661 5.611h-7.863c-11.89 0-19.82-1.949-26.661-5.611-6.846-3.658-12.218-9.03-15.876-15.876l-.244-.462c-3.503-6.741-5.368-14.578-5.368-26.2V53.12c0-11.89 1.95-19.82 5.612-26.662 3.658-6.846 9.03-12.218 15.876-15.876 6.766-3.62 14.595-5.569 26.262-5.611z" fill="#FFF"/><path d="M80.718 32.27H67.413c-6.737 0-11.958 1.273-16.343 3.658-4.38 2.386-7.82 5.893-10.164 10.353-2.301 4.385-3.544 9.593-3.59 16.284v2.045c0 6.867 1.247 12.184 3.59 16.649 2.344 4.46 5.784 7.967 10.164 10.353 4.305 2.343 9.421 3.612 15.986 3.658H80.718c6.737 0 11.958-1.273 16.342-3.658 4.381-2.386 7.82-5.893 10.164-10.353 2.302-4.385 3.545-9.593 3.591-16.284v-.365-1.68c0-6.867-1.247-12.184-3.59-16.649-2.344-4.46-5.784-7.967-10.165-10.353-4.305-2.343-9.42-3.612-15.985-3.658h-.357z" stroke="#000" stroke-width="8.25"/><path d="M80.718 32.27H67.413c-6.737 0-11.958 1.273-16.343 3.658-4.38 2.386-7.82 5.893-10.164 10.353-2.301 4.385-3.544 9.593-3.59 16.284v2.045c0 6.867 1.247 12.184 3.59 16.649 2.344 4.46 5.784 7.967 10.164 10.353 4.305 2.343 9.421 3.612 15.986 3.658H80.718c6.737 0 11.958-1.273 16.342-3.658 4.381-2.386 7.82-5.893 10.164-10.353 2.302-4.385 3.545-9.593 3.591-16.284v-.365-1.68c0-6.867-1.247-12.184-3.59-16.649-2.344-4.46-5.784-7.967-10.165-10.353-4.305-2.343-9.42-3.612-15.985-3.658h-.357z" fill="#FFF"/><path d="M50.894 105.085a42.59 42.59 0 01-7.841-3.246c-6.846-3.658-12.218-9.03-15.876-15.876l-.244-.462c-3.503-6.741-5.368-14.578-5.368-26.2V53.12c0-11.89 1.95-19.82 5.612-26.662 3.658-6.846 9.03-12.218 15.876-15.876a42.961 42.961 0 019.64-3.75c-25.944 7.608-30.82 80.733-1.8 98.254z" fill="#D8D8D8"/><g><path d="M99.895 17.15c4.503 2.432 8.312 5.678 11.34 9.66" fill="#FFF"/><path d="M99.895 17.15c4.503 2.432 8.312 5.678 11.34 9.66" stroke="#000" stroke-width="4.125" stroke-linecap="round"/></g><g><path d="M15.326 36.947c2.585-.18 4.957.26 6.99 1.216a12.021 12.021 0 014.953 4.306c1.23 1.88 1.997 4.168 2.178 6.753l.164 2.355c.181 2.585-.26 4.956-1.216 6.99a12.021 12.021 0 01-4.306 4.953c-1.88 1.23-4.167 1.996-6.752 2.177-2.586.18-4.957-.26-6.99-1.216a12.021 12.021 0 01-4.954-4.306c-1.23-1.88-1.996-4.168-2.177-6.753l-.165-2.354c-.18-2.585.26-4.957 1.217-6.99a12.021 12.021 0 014.306-4.954c1.88-1.23 4.167-1.996 6.752-2.177z" fill="#D8D8D8"/><path d="M15.326 36.947c2.585-.18 4.957.26 6.99 1.216a12.021 12.021 0 014.953 4.306c1.23 1.88 1.997 4.168 2.178 6.753l.164 2.355c.181 2.585-.26 4.956-1.216 6.99a12.021 12.021 0 01-4.306 4.953c-1.88 1.23-4.167 1.996-6.752 2.177-2.586.18-4.957-.26-6.99-1.216a12.021 12.021 0 01-4.954-4.306c-1.23-1.88-1.996-4.168-2.177-6.753l-.165-2.354c-.18-2.585.26-4.957 1.217-6.99a12.021 12.021 0 014.306-4.954c1.88-1.23 4.167-1.996 6.752-2.177z" stroke="#000" stroke-width="4.125"/></g><g><path d="M52.435 73.76c3.478 0 6.3-2.822 6.3-6.3 0-3.477-2.822-6.3-6.3-6.3a6.302 6.302 0 00-6.3 6.3c0 3.478 2.823 6.3 6.3 6.3z" fill="#000"/><path stroke="#000" stroke-width="3.75" stroke-linecap="round" d="M48.514 54.75l8.682 3.16"/><path d="M93.595 73.76c3.478 0 6.3-2.822 6.3-6.3 0-3.477-2.822-6.3-6.3-6.3a6.302 6.302 0 00-6.3 6.3c0 3.478 2.823 6.3 6.3 6.3z" fill="#000"/><path stroke="#000" stroke-width="3.75" stroke-linecap="round" d="M89.674 57.91l8.682-3.16M68.395 67.46c0 2.785 2.352 5.04 5.25 5.04s5.25-2.255 5.25-5.04"/></g><path stroke="#FFF" stroke-width="4.125" stroke-linecap="round" stroke-linejoin="round" d="M15.042 45.821l.795 11.371"/><g><path d="M130.326 37.006c-2.51-.176-4.805.249-6.772 1.172a11.613 11.613 0 00-4.797 4.17c-1.188 1.82-1.928 4.033-2.104 6.543l-.223 3.193c-.175 2.51.25 4.804 1.173 6.772a11.613 11.613 0 004.17 4.796c1.82 1.188 4.033 1.928 6.542 2.104 2.51.175 4.805-.25 6.772-1.173a11.613 11.613 0 004.797-4.17c1.188-1.82 1.928-4.033 2.104-6.542l.223-3.193c.176-2.51-.25-4.804-1.173-6.772a11.613 11.613 0 00-4.17-4.796c-1.82-1.189-4.033-1.929-6.542-2.104z" fill="#FFF"/><path d="M130.326 37.006c-2.51-.176-4.805.249-6.772 1.172a11.613 11.613 0 00-4.797 4.17c-1.188 1.82-1.928 4.033-2.104 6.543l-.223 3.193c-.175 2.51.25 4.804 1.173 6.772a11.613 11.613 0 004.17 4.796c1.82 1.188 4.033 1.928 6.542 2.104 2.51.175 4.805-.25 6.772-1.173a11.613 11.613 0 004.797-4.17c1.188-1.82 1.928-4.033 2.104-6.542l.223-3.193c.176-2.51-.25-4.804-1.173-6.772a11.613 11.613 0 00-4.17-4.796c-1.82-1.189-4.033-1.929-6.542-2.104z" stroke="#000" stroke-width="4.125"/></g><g><path fill="#FFF" d="M131.528 45.637l-.795 11.371"/><path stroke="#BABABA" stroke-width="4.5" stroke-linecap="round" stroke-linejoin="round" d="M131.528 45.637l-.795 11.371"/></g></g></svg><svg width="195" height="66" viewBox="-1 -1 195 66" id="svg--galaxy_store_bage" x="242" y="652" xmlns="http://www.w3.org/2000/svg"><g fill="none" fill-rule="evenodd"><path d="M13.025.002L179.965 0c4.438 0 6.047.52 7.67 1.496 1.622.976 2.895 2.408 3.763 4.234l.18.392c.75 1.708 1.15 3.6 1.15 8.236v35.284l-.008 1.023c-.06 4.228-.517 5.91-1.322 7.605-.868 1.826-2.141 3.258-3.764 4.234l-.348.202c-1.518.846-3.2 1.294-7.321 1.294H13.49l-.909-.008c-3.759-.069-5.254-.582-6.76-1.488-1.623-.976-2.896-2.408-3.764-4.234l-.18-.392c-.751-1.708-1.15-3.6-1.15-8.236V14.358c0-4.993.462-6.803 1.33-8.628.868-1.826 2.14-3.258 3.763-4.234l.349-.202C7.629.48 9.239.035 13.025.002z" fill="#000"/><path d="M54.716 25.321c-.552-4.16-2.023-7.93-4.62-10.69v-.001c-2.761-2.595-6.532-4.067-10.691-4.62-3.973-.525-6.679-.396-6.679-.396s-2.705-.13-6.678.397c-4.16.551-7.928 2.024-10.69 4.62-2.596 2.761-4.07 6.53-4.62 10.69-.526 3.974-.397 6.68-.397 6.68s-.129 2.705.396 6.677c.551 4.161 2.025 7.93 4.62 10.691 2.763 2.596 6.53 4.068 10.69 4.62 3.974.526 6.68.397 6.68.397s2.705.13 6.678-.396c4.16-.553 7.93-2.025 10.691-4.62 2.597-2.762 4.068-6.531 4.62-10.692.526-3.972.397-6.677.397-6.677s.129-2.707-.397-6.68"/><path d="M32.727 19.2c3.605 0 6.537 2.971 6.537 6.623v.186h5.463L43.28 39.91c-.29 2.78-2.604 4.89-5.363 4.89H27.538c-2.759 0-5.073-2.11-5.362-4.89l-1.449-13.901h5.463v-.186c0-3.652 2.933-6.623 6.537-6.623zm0 2.89c-2.031 0-3.683 1.675-3.683 3.733v.186h7.367v-.186c0-2.058-1.652-3.732-3.684-3.732zM101.105 28.41v.872h.586v.865c.002.077-.002.16-.015.227-.023.161-.17.436-.586.436-.413 0-.557-.275-.583-.436a1.552 1.552 0 01-.014-.227v-2.73c0-.098.006-.203.026-.283.028-.145.152-.433.568-.433.438 0 .547.303.572.433.016.086.017.23.017.23v.332h1.44V27.5s.007-.204-.01-.395c-.11-1.121-.993-1.476-2.007-1.476-1.015 0-1.88.358-2.007 1.476a4.353 4.353 0 00-.028.395v2.512c0 .11.003.193.022.393.095 1.09.998 1.477 2.01 1.477 1.017 0 1.915-.387 2.01-1.477.018-.2.02-.284.021-.393V28.41h-2.022zm-9.93-2.62H89.73v4.42c.002.077 0 .163-.013.226a.522.522 0 01-.55.435.52.52 0 01-.545-.435 1.012 1.012 0 01-.015-.226v-4.42h-1.445v4.283c-.002.11.007.336.013.394.1 1.116.941 1.478 1.993 1.478 1.053 0 1.894-.362 1.996-1.478.008-.058.018-.284.012-.394V25.79zm-13.289 0l-.72 4.67-.722-4.67h-2.332l-.124 5.974h1.429l.039-5.53.983 5.53h1.45l.984-5.53.04 5.53h1.432l-.128-5.973h-2.33zm-8.637 0l-1.059 5.974h1.545l.798-5.53.779 5.53h1.534l-1.055-5.973h-2.542zm26.98 4.81l-1.346-4.81H92.76v5.912h1.404l-.081-4.964 1.446 4.964h2.036v-5.911H96.15l.078 4.809zm-12.985-3.255a.82.82 0 01-.004-.309c.04-.191.163-.4.518-.4.33 0 .523.215.523.538v.366h1.41v-.417c0-1.287-1.104-1.49-1.904-1.49-1.007 0-1.83.348-1.98 1.316-.04.264-.05.498.014.796.245 1.208 2.257 1.558 2.549 2.322.052.145.037.33.01.438-.043.198-.171.399-.55.399-.357 0-.57-.214-.57-.536l-.001-.574h-1.517v.456c0 1.32.99 1.719 2.056 1.719 1.021 0 1.865-.365 2-1.353.065-.51.016-.843-.01-.968-.236-1.24-2.381-1.612-2.544-2.303m-18.597-.015a.768.768 0 01-.005-.314c.039-.19.162-.402.523-.402.334 0 .531.217.531.543v.37h1.427v-.42c0-1.3-1.122-1.507-1.93-1.507-1.016 0-1.847.352-1.998 1.327-.042.268-.049.504.011.806.248 1.221 2.28 1.574 2.576 2.347a.804.804 0 01.01.441c-.046.201-.175.404-.557.404-.358 0-.572-.217-.572-.544l-.002-.575h-1.534v.457c0 1.336 1.004 1.737 2.079 1.737 1.033 0 1.882-.368 2.02-1.368a3.13 3.13 0 00-.006-.978c-.241-1.253-2.41-1.624-2.573-2.324M119.303 40.17l2.92 7.294 2.756-7.294h2.543L121.273 56h-2.453l2.202-5.536-4.297-10.294h2.578zm-36.877-.223c1.379 0 2.615.593 3.366 1.52V40.17h2.418v10.831h-2.418v-1.407c-.77 1-2.023 1.63-3.401 1.63-2.525 0-5.157-2.093-5.157-5.63 0-3.591 2.542-5.647 5.192-5.647zm16.917 0c1.379 0 2.615.593 3.366 1.52V40.17h2.418v10.831h-2.418v-1.407c-.77 1-2.023 1.63-3.401 1.63-2.525 0-5.157-2.093-5.157-5.63 0-3.591 2.543-5.647 5.192-5.647zm54.654 0c3.009 0 5.426 2.5 5.426 5.647 0 3.13-2.417 5.63-5.426 5.63-3.026 0-5.425-2.5-5.425-5.63 0-3.147 2.4-5.647 5.425-5.647zm18.94 0c3.116 0 5.39 2.37 5.39 5.574v.944h-8.523c.323 1.519 1.505 2.555 3.223 2.555 1.343 0 2.4-.759 2.9-1.907l1.989 1.185c-.914 1.74-2.561 2.925-4.889 2.925-3.294 0-5.532-2.481-5.532-5.61 0-3.166 2.381-5.665 5.443-5.665zM69.807 37.3c2.704 0 4.834 1.425 5.945 3.463l-2.149 1.333c-.806-1.537-2.06-2.352-3.778-2.352-2.435 0-4.28 2.037-4.28 4.5 0 2.498 1.827 4.498 4.37 4.498 1.951 0 3.312-1.148 3.778-2.925H69.52V43.41h6.785v1c0 3.647-2.488 6.776-6.391 6.776-4.083 0-6.787-3.203-6.787-6.943 0-3.851 2.812-6.943 6.679-6.943zm67.293 0c2.112 0 3.33.834 4.387 1.963l-2.006 1.574c-.555-.852-1.325-1.297-2.364-1.297-1.181 0-1.826.667-1.826 1.537 0 1.074 1.253 1.426 2.668 1.907 1.773.593 3.778 1.408 3.778 4 0 2.128-1.647 4.202-4.512 4.202-2.364 0-3.922-1.037-5.104-2.426l2.221-1.814c.663 1.166 1.683 1.833 2.865 1.833 1.289 0 1.988-.87 1.988-1.814 0-1.148-1.325-1.5-2.722-1.944-1.755-.574-3.706-1.278-3.706-3.851 0-2.166 1.826-3.87 4.333-3.87zm-44.362 0V51h-2.435V37.3h2.435zm16.076 2.87l2.382 3.444 2.363-3.444h2.865l-3.76 5.35 4.01 5.481h-2.954l-2.56-3.61L108.67 51h-2.954l3.939-5.518-3.796-5.313h2.954zm37.164-3.37v3.37h2.13v2.24h-2.13v4.055c0 1.888.252 2.184 2.13 2.184v2.352h-.34c-3.24 0-4.225-1.074-4.225-4.518V42.41h-1.79v-2.24h1.79v-1.648l2.435-1.722zm16.9 3.37v1.61c.483-1.073 1.36-1.61 2.685-1.61.752 0 1.378.185 1.845.463l-.914 2.37c-.358-.24-.77-.426-1.45-.426-1.397 0-2.149.777-2.149 2.647v5.777h-2.417V40.17h2.4zm-80.092 2.055c-1.79 0-3.17 1.462-3.17 3.332 0 1.889 1.38 3.37 3.17 3.37s3.133-1.5 3.133-3.37c0-1.832-1.343-3.332-3.133-3.332zm16.917 0c-1.79 0-3.17 1.462-3.17 3.332 0 1.889 1.38 3.37 3.17 3.37s3.133-1.5 3.133-3.37c0-1.832-1.343-3.332-3.133-3.332zm54.295.074c-1.736 0-3.043 1.481-3.043 3.295 0 1.797 1.307 3.277 3.043 3.277 1.702 0 3.044-1.48 3.044-3.277 0-1.814-1.342-3.295-3.044-3.295zm18.94-.148c-1.45 0-2.578.907-3.007 2.222h5.945c-.36-1.444-1.434-2.222-2.937-2.222zM63.903 19.214l.593-1.444h2.966l.593 1.444h.776l-2.419-5.774h-.866l-2.419 5.774h.776zm3.285-2.062H64.77l1.186-2.928h.046l1.186 2.928zm4.335 2.062l1.87-4.29h-.73l-1.505 3.506h-.046l-1.506-3.505h-.73l1.871 4.289h.776zm4.38.082c.347 0 .652-.058.917-.173.265-.116.476-.278.634-.487h.046l.091.578h.548v-4.29h-.548l-.091.578h-.046a1.558 1.558 0 00-.634-.487 2.275 2.275 0 00-.917-.173c-.298 0-.572.048-.821.144-.25.097-.466.24-.648.43-.183.19-.326.421-.43.696a2.71 2.71 0 00-.154.957c0 .363.051.682.155.957.103.275.246.507.429.697.182.19.398.332.648.429.25.096.523.144.821.144zm.091-.577c-.432 0-.783-.136-1.054-.409-.27-.272-.406-.686-.406-1.24 0-.556.135-.97.406-1.242.27-.272.622-.409 1.054-.409.432 0 .783.137 1.054.409.27.272.406.686.406 1.241s-.135.97-.406 1.241c-.27.273-.622.409-1.054.409zm3.769-4.413a.476.476 0 00.338-.128.408.408 0 000-.61.476.476 0 00-.338-.128.488.488 0 00-.347.128.408.408 0 00-.137.31.39.39 0 00.142.304.502.502 0 00.342.124zm.338 4.908v-4.29h-.685v4.29h.685zm2.007 0V13.44h-.684v5.774h.684zm3.149.082c.346 0 .652-.058.917-.173.264-.116.476-.278.634-.487h.046l.09.578h.548v-4.29h-.547l-.091.578h-.046a1.558 1.558 0 00-.634-.487 2.275 2.275 0 00-.917-.173c-.299 0-.572.048-.822.144-.25.097-.465.24-.648.43-.182.19-.325.421-.429.696a2.71 2.71 0 00-.155.957c0 .363.052.682.155.957.104.275.247.507.43.697.182.19.398.332.647.429.25.096.523.144.822.144zm.09-.577c-.431 0-.782-.136-1.053-.409-.27-.272-.406-.686-.406-1.24 0-.556.135-.97.406-1.242.27-.272.622-.409 1.054-.409.432 0 .783.137 1.054.409.27.272.406.686.406 1.241s-.135.97-.406 1.241c-.27.273-.622.409-1.054.409zm5.704.577c.298 0 .572-.048.822-.144.249-.097.465-.24.647-.43.183-.189.326-.421.43-.696a2.71 2.71 0 00.154-.957 2.71 2.71 0 00-.155-.957 2.012 2.012 0 00-.429-.697 1.773 1.773 0 00-.647-.429 2.264 2.264 0 00-.822-.144 2.16 2.16 0 00-.894.17c-.25.112-.453.262-.611.449H89.5V13.44h-.684v5.774h.547l.091-.578h.046c.158.21.37.371.634.487.265.115.57.173.917.173zm-.091-.577c-.438 0-.79-.14-1.059-.421-.267-.28-.401-.69-.401-1.229 0-.539.134-.948.401-1.229.268-.28.621-.42 1.059-.42.438 0 .79.14 1.059.42.267.28.401.69.401 1.23 0 .538-.134.948-.401 1.228-.268.28-.621.42-1.059.42zm3.924.495V13.44H94.2v5.774h.684zm3.285.082c.456 0 .858-.1 1.205-.301.346-.2.599-.499.757-.895h-.73c-.274.412-.684.619-1.232.619-.414 0-.762-.124-1.045-.372-.283-.247-.436-.618-.46-1.113h3.558a2.64 2.64 0 00.019-.115l.009-.062.009-.07c.006-.05.009-.105.009-.165 0-.215-.043-.439-.128-.673a1.914 1.914 0 00-.397-.643 2.087 2.087 0 00-.67-.478 2.244 2.244 0 00-.95-.186c-.31 0-.596.048-.857.144a1.872 1.872 0 00-1.127 1.126 2.64 2.64 0 00-.16.957c0 .363.055.682.164.957.11.275.26.507.452.697.192.19.421.332.689.429a2.6 2.6 0 00.885.144zm1.415-2.598h-2.92c.048-.412.206-.729.474-.949.268-.22.596-.33.986-.33.389 0 .717.11.985.33.268.22.426.537.475.949zm5.703 2.598c.316 0 .61-.048.88-.144.271-.097.503-.24.694-.43.192-.189.342-.421.452-.696.11-.275.164-.594.164-.957s-.055-.682-.164-.957a2.015 2.015 0 00-.452-.697 1.852 1.852 0 00-.693-.429 2.611 2.611 0 00-.881-.144 2.6 2.6 0 00-.885.144c-.268.097-.497.24-.69.43-.19.19-.341.421-.45.696-.11.275-.165.594-.165.957s.055.682.164.957c.11.275.26.507.452.697.192.19.421.332.689.429a2.6 2.6 0 00.885.144zm0-.577c-.219 0-.42-.036-.602-.108a1.307 1.307 0 01-.475-.317 1.492 1.492 0 01-.315-.516 2.02 2.02 0 01-.114-.709c0-.27.038-.506.114-.71.076-.203.181-.375.315-.515s.292-.246.475-.317c.182-.072.383-.108.602-.108.219 0 .42.036.602.108.183.071.341.177.475.317.134.14.239.312.315.516.076.203.114.44.114.71 0 .269-.038.505-.114.708a1.492 1.492 0 01-.315.516c-.134.14-.292.246-.475.317a1.638 1.638 0 01-.602.108zm3.924.495v-2.64c0-.154.032-.3.096-.441a1.11 1.11 0 01.269-.367c.116-.105.251-.188.406-.252a1.33 1.33 0 01.507-.095c.346 0 .63.1.853.297.222.198.333.484.333.858v2.64h.684v-2.64c0-.27-.045-.511-.137-.726a1.559 1.559 0 00-.378-.544 1.689 1.689 0 00-.566-.342 2 2 0 00-.698-.12c-.25 0-.5.048-.753.144a1.251 1.251 0 00-.616.516h-.046l-.09-.577h-.548v4.289h.684z" fill="#FFF" fill-rule="nonzero"/></g></svg><svg width="219" height="66" viewBox="-1 -1 219 66" id="svg--google_play_bage" x="542" y="576" xmlns="http://www.w3.org/2000/svg"><defs><linearGradient x1="50%" y1="0%" x2="50%" y2="100%" id="ga"><stop stop-color="#00C3FF" offset="0%"/><stop stop-color="#00E3FF" offset="100%"/></linearGradient><linearGradient x1="50%" y1="0%" x2="50%" y2="100%" id="gb"><stop stop-color="#FFC800" offset="0%"/><stop stop-color="#FFC900" offset="100%"/></linearGradient><linearGradient x1="86.725%" y1="30.646%" x2="-50.481%" y2="137.169%" id="gc"><stop stop-color="#FF3944" offset="0%"/><stop stop-color="#C31161" offset="100%"/></linearGradient><linearGradient x1="50%" y1="0%" x2="50%" y2="100%" id="gd"><stop stop-color="#11D574" offset="0%"/><stop stop-color="#00F076" offset="100%"/></linearGradient></defs><g fill="none" fill-rule="evenodd"><path d="M13.881.002L202.321 0c5.01 0 6.826.52 8.657 1.496a10.194 10.194 0 014.248 4.234l.203.392c.849 1.708 1.298 3.6 1.298 8.236v35.284l-.008 1.023c-.069 4.228-.583 5.91-1.493 7.605a10.194 10.194 0 01-4.248 4.234l-.393.202c-1.714.846-3.612 1.294-8.264 1.294H14.406l-1.026-.008c-4.243-.069-5.93-.582-7.631-1.488a10.194 10.194 0 01-4.248-4.234l-.203-.392C.45 56.17 0 54.278 0 49.642V14.358C0 9.365.522 7.555 1.501 5.73a10.194 10.194 0 014.248-4.234l.393-.202C7.79.48 9.61.035 13.882.002z" fill="#000"/><path d="M76.126 16.389c0 1.34-.4 2.41-1.198 3.205-.905.947-2.085 1.42-3.538 1.42-1.39 0-2.572-.48-3.545-1.441-.973-.96-1.459-2.152-1.459-3.573 0-1.422.486-2.613 1.46-3.573.972-.961 2.154-1.441 3.544-1.441a5 5 0 011.978.401c.626.269 1.13.626 1.506 1.074l-.846.843c-.64-.758-1.516-1.138-2.638-1.138-1.015 0-1.89.354-2.63 1.066-.74.71-1.11 1.634-1.11 2.768s.37 2.058 1.11 2.768c.74.712 1.615 1.066 2.63 1.066 1.076 0 1.973-.357 2.69-1.07.466-.466.736-1.114.808-1.946H71.39v-1.152h4.668c.045.25.068.49.068.723" fill="#FFF"/><path d="M76.126 16.389h-.16c-.002 1.31-.386 2.328-1.15 3.091l-.002.002-.001.001c-.877.914-2.005 1.37-3.423 1.371-1.353-.001-2.485-.462-3.43-1.395-.945-.933-1.412-2.073-1.413-3.459.001-1.386.468-2.526 1.412-3.46.946-.932 2.078-1.393 3.431-1.394.67 0 1.307.13 1.914.388.608.261 1.09.604 1.448 1.03l.122-.103-.114-.114-.846.845.114.112.122-.102c-.667-.797-1.604-1.199-2.76-1.196-1.052-.001-1.976.373-2.742 1.11-.772.74-1.16 1.714-1.16 2.884s.388 2.144 1.16 2.883a3.838 3.838 0 002.742 1.112c1.11.002 2.058-.374 2.805-1.12.497-.497.78-1.185.854-2.043l.014-.174h-3.512v-.834h4.507v-.158l-.159.027c.044.243.066.473.066.696h.321c0-.243-.024-.493-.07-.752l-.024-.131h-4.963v1.472h3.66v-.16l-.161-.013c-.071.805-.328 1.411-.761 1.845-.69.684-1.537 1.024-2.577 1.025-.976-.001-1.804-.337-2.519-1.02-.708-.684-1.06-1.554-1.061-2.655.002-1.1.353-1.971 1.061-2.654.715-.684 1.543-1.02 2.519-1.02 1.087.002 1.906.36 2.514 1.082l.112.133.972-.968.104-.103-.095-.113c-.395-.469-.921-.84-1.567-1.117a5.169 5.169 0 00-2.04-.414c-1.427-.002-2.659.497-3.657 1.488-1.003.987-1.51 2.228-1.508 3.686-.001 1.458.505 2.7 1.508 3.688.998.989 2.23 1.488 3.657 1.486 1.487.002 2.72-.49 3.655-1.47l-.117-.11.114.113c.832-.829 1.244-1.947 1.244-3.318h-.16M83.525 12.38h-4.387v3.044h3.955v1.152h-3.955v3.045h4.387V20.8h-5.624v-9.6h5.624v1.18" fill="#FFF"/><path fill="#FFF" d="M83.525 12.38v-.16h-4.548v3.364h3.956v.832h-3.956v3.365h4.388v.859h-5.303v-9.28h5.303v1.02h.16v-.16.16h.16v-1.34h-5.944v9.92h5.945v-1.5h-4.388v-2.724h3.956v-1.472h-3.956v-2.725h4.388v-.16h-.16M88.744 20.8h-1.24v-8.42h-2.688V11.2h6.619v1.18h-2.69v8.42"/><path fill="#FFF" d="M88.744 20.8v-.16h-1.079v-8.42h-2.69v-.86h6.3v.86h-2.691v8.58h.16v-.16.16h.16v-8.26h2.691v-1.5h-6.941v1.5h2.69v8.42h1.56v-.16h-.16M96.224 20.8h1.237v-9.6h-1.237z"/><path fill="#FFF" d="M96.224 20.8h.16v-9.44h.915v9.28h-1.075v.16h.16-.16v.16h1.398v-9.92h-1.559v9.92h.16v-.16M102.95 20.8h-1.237v-8.42h-2.691V11.2h6.619v1.18h-2.69v8.42"/><path fill="#FFF" d="M102.95 20.8v-.16h-1.077v-8.42h-2.69v-.86h6.297v.86h-2.69v8.58h.16v-.16.16h.16v-8.26h2.691v-1.5h-6.94v1.5h2.691v8.42h1.559v-.16h-.16M112.022 18.755c.715.72 1.586 1.079 2.617 1.079 1.032 0 1.906-.359 2.617-1.079.713-.72 1.07-1.638 1.07-2.755s-.357-2.035-1.07-2.755c-.711-.72-1.585-1.079-2.617-1.079-1.03 0-1.902.359-2.617 1.079-.71.72-1.069 1.638-1.069 2.755s.358 2.035 1.07 2.755zm6.149.805c-.946.97-2.124 1.454-3.532 1.454s-2.585-.484-3.53-1.454c-.947-.97-1.42-2.157-1.42-3.56s.473-2.59 1.42-3.56c.945-.97 2.122-1.454 3.53-1.454 1.4 0 2.575.486 3.526 1.46.95.975 1.425 2.159 1.425 3.554 0 1.403-.473 2.59-1.42 3.56z"/><path d="M112.022 18.755l-.114.112c.74.749 1.662 1.13 2.731 1.128 1.07.002 1.992-.379 2.73-1.128.746-.747 1.12-1.717 1.118-2.867.002-1.15-.372-2.118-1.117-2.867-.739-.749-1.662-1.128-2.73-1.127-1.07-.001-1.992.378-2.732 1.127-.741.749-1.117 1.717-1.115 2.867-.002 1.15.374 2.12 1.115 2.867l.23-.224c-.682-.69-1.023-1.56-1.024-2.643.001-1.083.342-1.954 1.024-2.643h-.002c.689-.691 1.51-1.029 2.503-1.03.995.001 1.817.339 2.503 1.03.682.691 1.023 1.56 1.024 2.643-.001 1.083-.342 1.952-1.024 2.643-.686.691-1.508 1.03-2.503 1.032-.994-.003-1.814-.34-2.503-1.032l-.114.112zm6.149.805l-.114-.112c-.92.94-2.047 1.405-3.418 1.406-1.37-.001-2.496-.465-3.415-1.406l-.004-.005.004.005c-.918-.942-1.372-2.08-1.374-3.448.002-1.368.456-2.506 1.374-3.448.919-.94 2.044-1.405 3.415-1.406 1.363.001 2.485.468 3.412 1.412.921.948 1.377 2.084 1.379 3.442-.002 1.368-.456 2.506-1.373 3.448l.23.222c.974-.995 1.465-2.232 1.464-3.67.001-1.43-.493-2.664-1.47-3.664-.979-1.005-2.205-1.512-3.642-1.51-1.445-.002-2.673.504-3.646 1.504-.974.996-1.465 2.232-1.464 3.67-.001 1.438.49 2.675 1.464 3.67l.005.005-.005-.005c.973 1.002 2.201 1.506 3.646 1.504 1.445.002 2.675-.502 3.648-1.504l-.116-.11zM121.327 20.8v-9.6h1.508l4.68 7.467h.054l-.053-1.85V11.2h1.238v9.6h-1.293l-4.896-7.83h-.055l.055 1.85v5.98h-1.238" fill="#FFF"/><path fill="#FFF" d="M121.327 20.8h.16v-9.44h1.258l4.681 7.469h.308l-.058-2.013V11.36h.917v9.28h-1.042l-4.898-7.83h-.306l.057 2.012v5.818h-1.077v.16h.16-.16v.16h1.398v-6.142l-.054-1.852-.16.004v.16h.054v-.16l-.137.084 4.945 7.906h1.541v-9.92h-1.559v5.78l.053 1.852.16-.005v-.158h-.052v.158l.136-.083-4.73-7.544h-1.755v9.92h.16v-.16M171.674 48h2.995V27.998h-2.995V48zm26.981-12.797l-3.433 8.672h-.103l-3.564-8.672h-3.227l5.344 12.12-3.047 6.743h3.126l8.236-18.863h-3.332zm-16.988 10.525c-.982 0-2.35-.488-2.35-1.698 0-1.544 1.705-2.136 3.175-2.136 1.318 0 1.936.284 2.738.67a3.627 3.627 0 01-3.563 3.164zm.361-10.962c-2.168 0-4.414.952-5.344 3.063l2.659 1.105c.568-1.105 1.626-1.467 2.737-1.467 1.549 0 3.124.927 3.15 2.575v.204c-.543-.308-1.704-.77-3.125-.77-2.865 0-5.784 1.569-5.784 4.502 0 2.676 2.35 4.401 4.983 4.401 2.015 0 3.124-.9 3.823-1.957h.103v1.544h2.89V40.3c0-3.552-2.658-5.533-6.092-5.533zm-18.513 2.872h-4.26v-6.856h4.26c2.24 0 3.511 1.848 3.511 3.428 0 1.55-1.271 3.428-3.51 3.428zm-.077-9.64h-7.178V48h2.994v-7.578h4.184c3.32 0 6.584-2.396 6.584-6.212s-3.264-6.212-6.584-6.212zm-39.14 17.733c-2.07 0-3.802-1.726-3.802-4.097 0-2.397 1.732-4.15 3.801-4.15 2.044 0 3.646 1.753 3.646 4.15 0 2.37-1.602 4.097-3.646 4.097zm3.438-9.408h-.103c-.673-.798-1.965-1.52-3.594-1.52-3.415 0-6.544 2.989-6.544 6.83 0 3.815 3.129 6.78 6.544 6.78 1.63 0 2.921-.722 3.594-1.547h.103v.979c0 2.605-1.395 3.997-3.646 3.997-1.837 0-2.975-1.316-3.44-2.424l-2.612 1.083c.75 1.805 2.742 4.02 6.052 4.02 3.517 0 6.492-2.062 6.492-7.087v-12.22h-2.846v1.11zM132.652 48h3V27.997h-3V48zm7.421-6.598c-.077-2.63 2.044-3.97 3.569-3.97 1.191 0 2.2.592 2.535 1.443l-6.104 2.527zm9.311-2.27c-.568-1.52-2.302-4.329-5.845-4.329-3.517 0-6.439 2.757-6.439 6.805 0 3.814 2.896 6.805 6.775 6.805 3.13 0 4.941-1.907 5.69-3.016l-2.327-1.547c-.775 1.134-1.836 1.881-3.363 1.881-1.525 0-2.612-.696-3.31-2.06l9.13-3.764-.31-.774zm-72.736-2.24v2.886h6.93c-.207 1.624-.75 2.81-1.576 3.635-1.01 1.005-2.588 2.112-5.354 2.112-4.268 0-7.605-3.427-7.605-7.68 0-4.255 3.337-7.682 7.605-7.682 2.302 0 3.983.903 5.224 2.063l2.043-2.037c-1.734-1.65-4.034-2.914-7.267-2.914-5.846 0-10.76 4.744-10.76 10.57 0 5.825 4.914 10.568 10.76 10.568 3.154 0 5.533-1.03 7.396-2.965 1.913-1.907 2.509-4.587 2.509-6.754 0-.67-.052-1.288-.156-1.803h-9.75zm17.786 8.84c-2.07 0-3.855-1.702-3.855-4.124 0-2.45 1.785-4.125 3.855-4.125 2.067 0 3.853 1.675 3.853 4.125 0 2.422-1.786 4.123-3.853 4.123zm0-10.929c-3.778 0-6.855 2.861-6.855 6.805 0 3.917 3.077 6.805 6.855 6.805 3.776 0 6.853-2.888 6.853-6.805 0-3.944-3.077-6.805-6.853-6.805zm14.95 10.928c-2.069 0-3.854-1.7-3.854-4.123 0-2.45 1.785-4.125 3.855-4.125 2.069 0 3.853 1.675 3.853 4.125 0 2.422-1.784 4.123-3.853 4.123zm0-10.928c-3.775 0-6.853 2.861-6.853 6.805 0 3.917 3.078 6.805 6.854 6.805 3.776 0 6.853-2.888 6.853-6.805 0-3.944-3.077-6.805-6.853-6.805z"/><path d="M.862 40.398l-.12-.115C.276 39.79 0 39.027 0 38.035v.234V2.883v-.008.243C0 2.045.321 1.237.86.752l19.89 19.824L.862 40.398M0 2.874" fill="url(#ga)" transform="translate(16.01 11.426)"/><path d="M27.38 27.42l.15-.086 7.856-4.448c.748-.424 1.247-.939 1.496-1.483-.249.544-.746 1.06-1.496 1.483l-7.855 4.448-.151.085m.001-.233l-6.631-6.61 6.631-6.61 8.005 4.533c1.016.576 1.588 1.319 1.682 2.075v.004c-.094.756-.666 1.499-1.682 2.075l-8.005 4.533" fill="url(#gb)" transform="translate(16.01 11.426)"/><path d="M2.28 41.152c-.556 0-1.04-.18-1.42-.52h.002c.377.34.864.52 1.42.52.047 0 .096 0 .145-.003-.05.003-.1.003-.147.003m0-.234c-.556 0-1.04-.18-1.418-.52L20.75 20.576l6.631 6.61L4.08 40.38c-.645.365-1.255.537-1.8.537" fill="url(#gc)" transform="translate(16.01 11.426)"/><path d="M20.75 20.576L.86.752c.378-.34.863-.518 1.418-.518.543 0 1.154.172 1.801.537l23.302 13.195-6.631 6.61m6.78-6.758L4.08.538C3.433.173 2.82 0 2.277 0H2.27h.01c.542 0 1.154.171 1.8.538l23.45 13.28" fill="url(#gd)" transform="translate(16.01 11.426)"/></g></svg><svg width="102" height="102" viewBox="-1 -1 102 102" id="svg--playButton" x="912" y="150" xmlns="http://www.w3.org/2000/svg"><g fill="none" fill-rule="evenodd"><circle fill="#EBEBEB" cx="50" cy="50" r="50"/><path fill-opacity=".78" fill="#252525" d="M37 31l34 19-34 19z"/></g></svg><svg width="542" height="76" viewBox="-1 -1 542 76" id="svg--samsung" y="576" xmlns="http://www.w3.org/2000/svg"><g fill="none" fill-rule="evenodd"><path d="M72.965 25.968c-.903-6.816-3.316-12.994-7.57-17.518h-.001C60.87 4.196 54.694 1.784 47.878.88 41.368.019 36.935.23 36.935.23S32.502.019 25.993.88C19.176 1.785 13 4.197 8.476 8.45 4.221 12.974 1.809 19.152.906 25.968.044 32.477.256 36.91.256 36.91s-.212 4.433.65 10.943c.903 6.815 3.315 12.992 7.57 17.516v.001c4.524 4.253 10.7 6.667 17.517 7.57 6.509.863 10.942.649 10.942.649s4.433.214 10.943-.65c6.816-.902 12.993-3.316 17.516-7.569 4.255-4.525 6.668-10.702 7.57-17.517.863-6.51.65-10.943.65-10.943s.213-4.433-.65-10.942" fill="#1E4BC6" fill-rule="nonzero"/><path d="M20.246 46.55l16.698 9.64 16.697-9.64V27.27l-16.697-9.64-16.698 9.64v19.28zm16.698 14.013L16.459 48.737V25.083l20.485-11.827 20.485 11.827v23.654L36.944 60.563z" fill="#FFF" fill-rule="nonzero"/><path d="M41.576 15.69a4.58 4.58 0 11-9.161 0 4.58 4.58 0 019.161 0M41.576 58.13a4.58 4.58 0 11-9.161 0 4.58 4.58 0 019.161 0M23.114 26.337a4.58 4.58 0 11-9.161.001 4.58 4.58 0 019.16 0M60.115 26.337a4.58 4.58 0 11-9.161 0 4.58 4.58 0 019.161 0M23.113 47.484a4.58 4.58 0 11-9.16 0 4.58 4.58 0 119.16 0M60.115 47.484a4.58 4.58 0 11-9.16-.001 4.58 4.58 0 019.16.001" fill="#FFF" fill-rule="nonzero"/><path d="M41.62 34.214a4.587 4.587 0 10-9.173 0 4.582 4.582 0 002.591 4.125v5.855h3.992v-5.855a4.583 4.583 0 002.59-4.125" fill="#45D2F9"/><path d="M287.7 35.074v4.164h2.927v4.13c.009.37-.011.767-.074 1.087-.117.77-.85 2.082-2.925 2.082-2.065 0-2.784-1.312-2.909-2.082a7.066 7.066 0 01-.075-1.086V30.32c0-.462.031-.966.129-1.348.142-.696.759-2.067 2.838-2.067 2.185 0 2.73 1.445 2.855 2.067.082.41.087 1.101.087 1.101v1.584h7.19v-.937s.031-.977-.056-1.89c-.54-5.354-4.952-7.048-10.011-7.048-5.069 0-9.392 1.71-10.023 7.049-.056.488-.143 1.366-.143 1.89v12.001c0 .523.017.928.114 1.883.47 5.208 4.983 7.054 10.031 7.054 5.08 0 9.562-1.846 10.039-7.054.085-.955.094-1.36.105-1.883v-7.649h-10.098zM238.128 22.55h-7.22v21.12c.013.368 0 .781-.062 1.084-.151.709-.751 2.074-2.744 2.074-1.966 0-2.582-1.365-2.722-2.074-.073-.303-.081-.716-.073-1.084V22.55h-7.218v20.464c-.008.528.033 1.606.064 1.888.498 5.332 4.701 7.063 9.949 7.063 5.258 0 9.458-1.731 9.966-7.063a15 15 0 00.06-1.888V22.55zm-66.337 0l-3.602 22.316-3.599-22.316h-11.647l-.617 28.548h7.135l.193-26.428 4.909 26.428h7.238l4.914-26.428.195 26.428h7.153l-.639-28.548H171.79zm-43.12 0l-5.288 28.548h7.711l3.986-26.428 3.888 26.428h7.658L141.36 22.55h-12.69zm134.69 22.984l-6.723-22.984h-10.593V50.8h7.007l-.406-23.72 7.22 23.72h10.16V22.55h-7.053l.389 22.984zM198.538 29.98a3.815 3.815 0 01-.025-1.476c.205-.913.819-1.91 2.588-1.91 1.648 0 2.615 1.028 2.615 2.57v1.746h7.037v-1.99c0-6.151-5.513-7.117-9.506-7.117-5.029 0-9.135 1.657-9.885 6.286-.199 1.259-.248 2.377.067 3.804 1.223 5.771 11.27 7.445 12.729 11.094.257.692.184 1.573.051 2.093-.218.95-.857 1.905-2.75 1.905-1.778 0-2.846-1.022-2.846-2.56l-.002-2.74h-7.576v2.177c0 6.31 4.942 8.215 10.266 8.215 5.1 0 9.31-1.742 9.986-6.466.323-2.44.078-4.029-.05-4.627-1.181-5.92-11.888-7.7-12.699-11.004m-92.842-.07c-.14-.575-.106-1.183-.03-1.5.196-.91.813-1.923 2.613-1.923 1.67 0 2.653 1.037 2.653 2.593v1.767h7.121V28.84c0-6.21-5.6-7.2-9.636-7.2-5.07 0-9.213 1.684-9.972 6.346-.207 1.28-.242 2.406.057 3.848 1.237 5.836 11.383 7.524 12.858 11.217.277.686.193 1.569.056 2.108-.235.96-.879 1.928-2.788 1.928-1.783 0-2.85-1.038-2.85-2.6l-.01-2.745h-7.66v2.182c0 6.382 5.012 8.302 10.378 8.302 5.157 0 9.393-1.758 10.084-6.535.344-2.463.087-4.066-.03-4.673-1.205-5.992-12.032-7.767-12.844-11.108M366.55 27.623c1.74 0 3.37.313 4.888.939 1.52.624 2.852 1.49 3.999 2.595a12.073 12.073 0 012.693 3.874c.649 1.477.974 3.068.974 4.772 0 1.678-.325 3.255-.974 4.733a12.063 12.063 0 01-2.693 3.874 12.635 12.635 0 01-3.999 2.596c-1.519.625-3.148.938-4.889.938-1.74 0-3.376-.313-4.909-.938a12.328 12.328 0 01-3.999-2.596 12.21 12.21 0 01-2.672-3.874 11.636 11.636 0 01-.974-4.733c0-1.704.325-3.295.974-4.772a12.22 12.22 0 012.672-3.874 12.298 12.298 0 014-2.595c1.532-.626 3.168-.94 4.908-.94zm27.013 0c1.352 0 2.63.183 3.832.55 1.202.366 2.3.875 3.294 1.525a11.778 11.778 0 012.61 2.32 12.198 12.198 0 011.824 2.972l-5.014 1.98a6.716 6.716 0 00-2.548-2.975c-1.146-.74-2.465-1.11-3.957-1.11a7.31 7.31 0 00-5.117 2.021 6.584 6.584 0 00-1.512 2.196 6.81 6.81 0 00-.539 2.7c0 .934.18 1.821.539 2.663.36.842.863 1.574 1.512 2.195a7.271 7.271 0 002.3 1.478 7.461 7.461 0 002.86.544c1.573 0 2.92-.396 4.038-1.185a7.305 7.305 0 002.508-3.05l5.012 2.02a12.918 12.918 0 01-1.823 3.007 11.83 11.83 0 01-2.59 2.377 12.018 12.018 0 01-3.292 1.545c-1.217.366-2.528.548-3.937.548-1.768 0-3.418-.319-4.95-.958-1.534-.64-2.867-1.505-4-2.596a11.983 11.983 0 01-2.672-3.854 11.635 11.635 0 01-.974-4.732c0-1.705.325-3.296.974-4.774a12.22 12.22 0 012.672-3.874 12.326 12.326 0 014-2.594c1.532-.625 3.182-.94 4.95-.94zm47.772 0c1.353 0 2.63.183 3.832.55 1.202.366 2.3.875 3.294 1.525a11.778 11.778 0 012.61 2.32 12.198 12.198 0 011.825 2.972l-5.015 1.98a6.716 6.716 0 00-2.548-2.975c-1.146-.74-2.465-1.11-3.957-1.11a7.31 7.31 0 00-5.117 2.021 6.584 6.584 0 00-1.512 2.196 6.81 6.81 0 00-.539 2.7c0 .934.18 1.821.54 2.663.358.842.862 1.574 1.511 2.195a7.271 7.271 0 002.3 1.478 7.461 7.461 0 002.86.544c1.573 0 2.92-.396 4.038-1.185a7.305 7.305 0 002.508-3.05l5.013 2.02a12.918 12.918 0 01-1.823 3.007 11.83 11.83 0 01-2.59 2.377 12.018 12.018 0 01-3.293 1.545c-1.217.366-2.528.548-3.937.548-1.768 0-3.418-.319-4.95-.958-1.534-.64-2.867-1.505-4-2.596a11.983 11.983 0 01-2.672-3.854 11.635 11.635 0 01-.974-4.732c0-1.705.325-3.296.974-4.774a12.22 12.22 0 012.672-3.874 12.326 12.326 0 014-2.594c1.532-.625 3.182-.94 4.95-.94zm50.63 0c1.602 0 3.079.29 4.433.869 1.354.579 2.473 1.369 3.356 2.368v-3.196h5.594v24.238h-5.594v-3.444c-.883 1.082-2.016 1.934-3.397 2.555-1.382.62-2.873.93-4.475.93-1.464 0-2.907-.271-4.33-.818a11.954 11.954 0 01-3.832-2.376c-1.133-1.039-2.044-2.31-2.735-3.814-.69-1.504-1.035-3.215-1.035-5.131 0-1.944.338-3.667 1.015-5.173.676-1.504 1.574-2.775 2.693-3.813a11.608 11.608 0 013.853-2.376 12.558 12.558 0 014.454-.82zm-160.136-5.966c3.342 0 5.931.719 7.768 2.154 1.837 1.437 2.756 3.536 2.756 6.298 0 2.625-1.105 4.585-3.315 5.883 1.409.636 2.493 1.533 3.252 2.694.76 1.16 1.14 2.582 1.14 4.266 0 2.984-.974 5.22-2.921 6.713-1.947 1.491-4.593 2.238-7.935 2.238H322.3V21.657h9.53zm19.722-.414v30.66h-5.635v-30.66h5.635zm61.36 0v18.106l10.318-11.685h6.712l-9.364 10.483 9.695 13.756h-6.256l-7.25-10.441-3.855 4.266v6.175h-5.592v-30.66h5.592zm47.772 0v9.777a8.908 8.908 0 013.088-2.486c1.228-.607 2.617-.911 4.164-.911 3.01 0 5.365.894 7.063 2.684 1.7 1.79 2.55 4.284 2.55 7.483v14.113h-5.718v-13.44c0-1.863-.456-3.327-1.368-4.394-.911-1.065-2.279-1.598-4.102-1.598-.773 0-1.505.141-2.196.424a5.144 5.144 0 00-1.802 1.236c-.512.54-.911 1.214-1.201 2.023-.29.81-.435 1.727-.435 2.753v12.996h-5.635v-30.66h5.592zm69.524 6.38c3.01 0 5.365.894 7.064 2.684 1.699 1.79 2.548 4.283 2.548 7.482v14.113h-5.676v-13.48c0-1.835-.456-3.286-1.367-4.352-.912-1.065-2.28-1.6-4.102-1.6-1.603 0-2.949.554-4.04 1.66-1.092 1.107-1.637 2.7-1.637 4.777v12.995h-5.593V27.664h5.552v3.311c.8-1.01 1.816-1.822 3.045-2.434 1.23-.612 2.631-.918 4.206-.918zm-16.034.04v24.239h-5.635V27.664h5.635zm-21.38 5.056a7.597 7.597 0 00-2.879.545 7.482 7.482 0 00-2.34 1.478 6.671 6.671 0 00-1.555 2.22 6.84 6.84 0 00-.559 2.761c0 .987.187 1.915.56 2.783.372.869.891 1.62 1.553 2.257a7.278 7.278 0 002.341 1.498 7.597 7.597 0 002.88.545c1.05 0 2.016-.181 2.9-.545a6.711 6.711 0 002.279-1.518 7.43 7.43 0 001.512-2.257c.374-.855.56-1.776.56-2.763 0-.959-.186-1.867-.56-2.723a7.203 7.203 0 00-1.512-2.238 6.867 6.867 0 00-2.279-1.498c-.884-.363-1.85-.545-2.9-.545zm-160.467 6.257h-4.392v7.748h4.64c1.712 0 3.004-.339 3.874-1.015.87-.677 1.306-1.638 1.306-2.88 0-1.244-.38-2.196-1.14-2.86-.76-.662-2.189-.993-4.288-.993zm34.223-6.091c-.994 0-1.925.182-2.796.544a6.863 6.863 0 00-2.238 1.476 6.92 6.92 0 00-2.01 4.897c0 .933.18 1.822.54 2.662.359.843.849 1.575 1.47 2.196a6.838 6.838 0 002.238 1.478 7.201 7.201 0 002.796.544c.995 0 1.92-.181 2.776-.544a7.15 7.15 0 002.238-1.478 6.727 6.727 0 001.491-2.196c.359-.84.539-1.729.539-2.662a6.83 6.83 0 00-.539-2.7 6.754 6.754 0 00-1.491-2.197 7.178 7.178 0 00-2.238-1.476 7.061 7.061 0 00-2.776-.544zm-34.72-6.05h-3.895v6.878h3.895c1.795 0 3.052-.33 3.77-.994.718-.663 1.077-1.533 1.077-2.61 0-1.132-.373-1.961-1.118-2.486-.746-.525-1.99-.787-3.73-.787zm179.526-8.618c1.105 0 1.969.326 2.59.974.622.65.932 1.498.932 2.548s-.31 1.892-.933 2.528c-.62.635-1.484.952-2.59.952-1.132 0-2.002-.317-2.609-.952-.607-.636-.912-1.478-.912-2.528s.318-1.898.954-2.548c.634-.648 1.49-.974 2.568-.974z" fill="#FFF"/></g></svg><svg width="782" height="576" viewBox="-1 -1 782 576" id="svg--system" xmlns="http://www.w3.org/2000/svg"><g stroke="#000" fill="none" fill-rule="evenodd"><g><path stroke-width="5" fill="#FFF" d="M302.5 409.5h175v95h-175z"/><rect stroke-width="5" fill="#FFF" x="286.5" y="504.5" width="207" height="16" rx="8"/><path d="M30.767 2.5c-9.377 0-13.277.753-17.31 2.91C9.98 7.27 7.269 9.981 5.41 13.457 3.253 17.49 2.5 21.39 2.5 30.767v377.466c0 9.377.753 13.277 2.91 17.31 1.859 3.476 4.571 6.188 8.047 8.047 4.033 2.157 7.933 2.91 17.31 2.91h718.466c9.377 0 13.277-.753 17.31-2.91 3.476-1.859 6.188-4.571 8.047-8.047 2.157-4.033 2.91-7.933 2.91-17.31V30.767c0-9.377-.753-13.277-2.91-17.31-1.859-3.476-4.571-6.188-8.047-8.047-4.033-2.157-7.933-2.91-17.31-2.91H30.767z" stroke-width="5" fill="#FFF"/><path d="M26.256 18.5c-2.874 0-3.914.2-4.984.773a4.77 4.77 0 00-1.999 1.999c-.572 1.07-.773 2.11-.773 4.984v386.488c0 2.874.2 3.914.773 4.984a4.77 4.77 0 001.999 1.999c1.07.572 2.11.773 4.984.773h727.488c2.874 0 3.914-.2 4.984-.773a4.77 4.77 0 001.999-1.999c.572-1.07.773-2.11.773-4.984V26.256c0-2.874-.2-3.914-.773-4.984a4.77 4.77 0 00-1.999-1.999c-1.07-.572-2.11-.773-4.984-.773H26.256z" stroke-width="5" fill="#F2F4F7"/><path d="M278.974 111.5c-2.619 0-3.636.196-4.686.758a4.86 4.86 0 00-2.03 2.03c-.562 1.05-.758 2.067-.758 4.686v202.052c0 2.619.196 3.636.758 4.686a4.86 4.86 0 002.03 2.03c1.05.562 2.067.758 4.686.758h222.052c2.619 0 3.636-.196 4.686-.758a4.86 4.86 0 002.03-2.03c.562-1.05.758-2.067.758-4.686V118.974c0-2.619-.196-3.636-.758-4.686a4.86 4.86 0 00-2.03-2.03c-1.05-.562-2.067-.758-4.686-.758H278.974z" stroke-width="3" fill="#FFF"/></g><g fill="#FFF"><path d="M481.639 216.5c-7.75 0-10.936.615-14.228 2.376a15.674 15.674 0 00-6.535 6.535c-1.76 3.292-2.376 6.477-2.376 14.228V548.36c0 7.75.615 10.936 2.376 14.228a15.674 15.674 0 006.535 6.535c3.292 1.76 6.477 2.376 14.228 2.376H610.36c7.75 0 10.936-.615 14.228-2.376a15.674 15.674 0 006.535-6.535c1.76-3.292 2.376-6.477 2.376-14.228V239.64c0-7.75-.615-10.936-2.376-14.228a15.674 15.674 0 00-6.535-6.535c-3.292-1.76-6.477-2.376-14.228-2.376H481.64z" stroke-width="5"/><path d="M479.383 223.5c-4.65 0-6.561.37-8.537 1.426a9.404 9.404 0 00-3.92 3.92c-1.057 1.976-1.426 3.887-1.426 8.537v313.234c0 4.65.37 6.561 1.426 8.537a9.404 9.404 0 003.92 3.92c1.976 1.057 3.887 1.426 8.537 1.426h133.234c4.65 0 6.561-.37 8.537-1.426a9.404 9.404 0 003.92-3.92c1.057-1.976 1.426-3.887 1.426-8.537V237.383c0-4.65-.37-6.561-1.426-8.537a9.404 9.404 0 00-3.92-3.92c-1.976-1.057-3.887-1.426-8.537-1.426H479.383z" stroke-width="3"/></g></g></svg></svg>