<?xml version="1.0" encoding="UTF-8"?><svg width="364" height="212" viewBox="0 0 364 212" xmlns="http://www.w3.org/2000/svg" xmlns:xlink="http://www.w3.org/1999/xlink"><svg width="62" height="62" viewBox="-1 -1 62 62" id="svg--MEWlogo" x="242" y="42" xmlns="http://www.w3.org/2000/svg"><g fill="none" fill-rule="evenodd"><path d="M43.335.5h-26.67c-5.653 0-7.71.57-9.779 1.677a11.32 11.32 0 00-4.709 4.71C1.071 8.954.5 11.011.5 16.664v26.67c0 5.653.57 7.71 1.677 9.779a11.32 11.32 0 004.71 4.709c2.068 1.106 4.125 1.677 9.778 1.677h26.67c5.653 0 7.71-.57 9.779-1.677a11.32 11.32 0 004.709-4.71c1.106-2.068 1.677-4.125 1.677-9.778v-26.67c0-5.653-.57-7.71-1.677-9.779a11.32 11.32 0 00-4.71-4.709C51.046 1.071 48.989.5 43.336.5z" stroke-opacity=".1" stroke="#000" fill="#FFF"/><g transform="translate(1 1)"><path d="M39.042 53.265c10.949.518 12.053-9.055 8.846-14.63-3.108-5.4-7.768-7.25-15.306-6.54-7.538.71.032 12.99 5.204 12.09 2.346-.41.31 9.036 1.256 9.08z" stroke="#000" stroke-width="1.184" fill="#FFF" fill-rule="nonzero"/><path d="M18.955 53.265c-10.95.518-12.053-9.055-8.846-14.63 3.107-5.4 7.768-7.25 15.306-6.54 7.537.71-.033 12.99-5.204 12.09-2.346-.41-.31 9.036-1.256 9.08z" stroke="#000" stroke-width="1.184" fill="#FFF" fill-rule="nonzero"/><path d="M30.518 4.735c3.743 0 6.174.601 8.283 1.73a11.77 11.77 0 014.893 4.9c1.117 2.089 1.716 4.493 1.73 8.171v2.236c0 3.747-.601 6.18-1.73 8.292a11.77 11.77 0 01-4.893 4.899c-2.11 1.13-4.54 1.73-8.283 1.73h-2.74c-3.743 0-6.174-.6-8.283-1.73a11.77 11.77 0 01-4.894-4.9c-1.128-2.111-1.729-4.544-1.729-8.291v-2.115c0-3.747.601-6.18 1.73-8.292a11.77 11.77 0 014.893-4.9c2.087-1.117 4.488-1.717 8.162-1.73h2.861z" stroke="#000" stroke-width="1.184" fill="#FFF" fill-rule="nonzero"/><path d="M27.018 13.908h3.964c2.007 0 3.563.37 4.869 1.066a7.264 7.264 0 013.028 3.015c.698 1.3 1.07 2.849 1.07 4.848v.49c0 1.998-.372 3.547-1.07 4.847a7.264 7.264 0 01-3.028 3.016c-1.306.695-2.862 1.065-4.87 1.065h-3.963c-2.007 0-3.563-.37-4.869-1.065a7.264 7.264 0 01-3.028-3.016c-.698-1.3-1.07-2.849-1.07-4.848v-.49c0-1.998.372-3.547 1.07-4.847a7.264 7.264 0 013.028-3.015c1.306-.696 2.862-1.066 4.87-1.066z" stroke="#000" stroke-width="1.184" fill="#FFF" fill-rule="nonzero"/><circle fill="#000" fill-rule="nonzero" cx="22.046" cy="23.23" r="2.367"/><circle fill="#000" fill-rule="nonzero" cx="35.954" cy="23.23" r="2.367"/><path d="M26.485 22.786c0 1.307 1.126 2.367 2.515 2.367 1.39 0 2.515-1.06 2.515-2.367" stroke="#000" stroke-width="1.184" stroke-linecap="round"/><path d="M12.709 13.951c.711.1 1.329.356 1.824.732.496.376.87.872 1.095 1.452.225.58.301 1.243.201 1.954l-.09.648c-.1.71-.357 1.327-.733 1.823a3.32 3.32 0 01-1.453 1.094c-.58.225-1.244.3-1.956.2-.711-.1-1.328-.355-1.824-.731a3.318 3.318 0 01-1.095-1.452c-.225-.58-.301-1.243-.201-1.954l.09-.648c.1-.71.357-1.327.734-1.822a3.32 3.32 0 011.452-1.094c.58-.225 1.244-.302 1.956-.202z" stroke="#000" stroke-width="1.184" fill="#FFF" fill-rule="nonzero"/><path stroke="#D8D8D8" stroke-width="1.628" stroke-linecap="round" stroke-linejoin="round" d="M11.773 16.435l-.33 2.133"/><path d="M45.406 13.95c-.696.097-1.3.345-1.783.709a3.206 3.206 0 00-1.069 1.405c-.22.561-.293 1.204-.195 1.894l.124.878c.098.69.348 1.288.715 1.767.367.48.851.842 1.418 1.06.566.217 1.215.29 1.911.193.697-.097 1.3-.345 1.784-.708a3.206 3.206 0 001.068-1.405c.22-.562.294-1.205.196-1.895l-.125-.878c-.097-.69-.347-1.288-.714-1.767a3.23 3.23 0 00-1.418-1.06c-.567-.217-1.216-.29-1.912-.193z" stroke="#000" stroke-width="1.184" fill="#FFF" fill-rule="nonzero"/><g fill-rule="nonzero"><path d="M28.918 29.296c-7.064 0-12.79 5.763-12.79 12.872 0 7.11 5.726 12.873 12.79 12.873 7.064 0 12.79-5.764 12.79-12.873 0-7.109-5.726-12.872-12.79-12.872z" stroke="#000" stroke-width="1.184" fill="#07A6B3"/><path d="M28.918 50.258c-4.324 0-8.031-3.527-8.031-7.88 0-1.022.193-2.202.545-3.098l3.45 1.48a28.24 28.24 0 00-.041.183c-.104.339-.164.69-.181 1.043-.008.07-.01.14-.008.211 0 .017.002.033.003.049a4.275 4.275 0 001.625 3.307 4.218 4.218 0 003.58.795l1.96 3.351c-.923.37-1.908.56-2.902.56zM36.33 45.37l-8.759-3.735 5.618-.024c-.202-2.051-2.296-3.718-4.27-3.718a4.01 4.01 0 00-1.317.221l-1.944-3.321a7.759 7.759 0 013.26-.714c4.325 0 8.02 3.594 8.02 7.945 0 1.174-.151 2.345-.609 3.346h.001z" fill="#FFF"/></g><g fill="#FFF" fill-rule="nonzero" stroke="#000" stroke-width="1.184"><path d="M15.235 50.56l-.96-2.692c-.731-2.05.363-4.296 2.443-5.018l.047-.016h0c2.123-.707 4.427.4 5.17 2.483l.96 2.693c.73 2.05-.363 4.296-2.444 5.017l-.046.016h0c-2.123.707-4.428-.4-5.17-2.482z"/><path stroke-linecap="round" d="M21.44 45.171l-2.945.992M22.556 47.667l-2.931 1.03"/></g><g fill="#FFF" fill-rule="nonzero" stroke="#000" stroke-width="1.184"><path d="M42.797 50.56l.96-2.692c.731-2.05-.363-4.296-2.443-5.018l-.047-.016h0c-2.123-.707-4.427.4-5.17 2.483l-.96 2.693c-.73 2.05.363 4.296 2.444 5.017l.046.016h0c2.123.707 4.428-.4 5.17-2.482z"/><path stroke-linecap="round" d="M36.593 45.171l2.944.992M35.476 47.667l2.932 1.03"/></g><path stroke="#D8D8D8" stroke-width="1.628" stroke-linecap="round" stroke-linejoin="round" d="M46.37 16.435l.331 2.133"/></g></g></svg><svg width="242" height="128" viewBox="-1 -1 242 128" id="svg--MEWwallet" xmlns="http://www.w3.org/2000/svg"><path d="M20.184 55V26.028l9.267 20.373h8.098l9.267-20.373V55H62V0H45.492L33.5 25.873 21.586 0H5v55h15.184zM111 55V41.831H87.03v-8.676h19.885v-12.24H87.03V13.17h23.276V0H72v55h39zm36.19 0l7.771-19.676L162.81 55h12.589L197 0h-16.474l-11.889 37.725-3.963-11.464L173.766 0h-13.91l-4.895 16.965L150.143 0h-13.909l8.936 26.26-3.807 11.465L129.396 0H113l21.602 55h12.589zM30.127 125l5.335-17.85L40.874 125h16.24L71 84H55.702l-7.375 23.54L42.443 84H28.557l-5.884 23.54L15.298 84H0l13.886 41h16.24zm55.298 1c5.436 0 9.512-1.969 12.23-5.907v5.12H112V100.64c0-5.88-1.777-10.29-5.33-13.23C103.114 84.47 98.045 83 91.46 83c-6.95 0-13.143 1.759-18.579 5.277l4.312 9.293c2.195-1.47 4.286-2.586 6.272-3.347 1.986-.762 4.155-1.142 6.506-1.142 2.509 0 4.325.472 5.449 1.417 1.123.945 1.685 2.39 1.685 4.332v1.26c-2.195-1.05-4.965-1.575-8.31-1.575-2.613 0-5.004.34-7.173 1.023-2.169.683-4.037 1.654-5.605 2.914-1.568 1.26-2.796 2.757-3.684 4.49-.889 1.732-1.333 3.648-1.333 5.748 0 1.89.366 3.65 1.098 5.277a12.815 12.815 0 003.018 4.213c1.28 1.182 2.809 2.114 4.586 2.796 1.777.683 3.684 1.024 5.722 1.024zm4.407-10c-1.402 0-2.558-.382-3.467-1.145-.91-.764-1.364-1.746-1.364-2.946 0-1.418.597-2.59 1.792-3.518 1.195-.927 2.702-1.391 4.52-1.391.83 0 1.766.11 2.805.327 1.039.218 2 .491 2.883.818v3.191c0 .546-.182 1.078-.545 1.596a6.542 6.542 0 01-1.403 1.432 9.755 9.755 0 01-2.494 1.186c-.935.3-1.844.45-2.727.45zM135 125V68h-15v57h15zm21 0V68h-15v57h15zm28.5 1c5.052 0 9.31-1.05 12.773-3.15 3.464-2.1 6.03-4.804 7.696-8.112l-12.578-3.623c-.47 1.313-1.42 2.337-2.852 3.072a9.871 9.871 0 01-4.57 1.102c-1.719 0-3.308-.485-4.766-1.457-1.458-.97-2.266-2.56-2.422-4.764h28.828a32.4 32.4 0 00.274-2.166A25.13 25.13 0 00207 104.5c0-2.835-.482-5.552-1.445-8.151a19.523 19.523 0 00-4.297-6.852c-1.901-1.969-4.258-3.544-7.07-4.725C191.375 83.591 188.145 83 184.5 83c-3.698 0-6.94.59-9.727 1.772-2.786 1.181-5.13 2.77-7.03 4.765-1.902 1.995-3.334 4.331-4.298 7.009-.963 2.677-1.445 5.513-1.445 8.505 0 2.783.495 5.434 1.484 7.954a19.854 19.854 0 004.336 6.695c1.901 1.942 4.258 3.478 7.07 4.607 2.813 1.129 6.016 1.693 9.61 1.693zm6.5-26h-14c.268-1.854 1.02-3.317 2.253-4.39C180.487 94.537 182.069 94 184 94s3.513.537 4.747 1.61 1.985 2.536 2.253 4.39zm35.37 26c2.284 0 4.608-.3 6.97-.901a45.335 45.335 0 006.66-2.233l-2.648-11.752c-.935.418-1.87.744-2.804.98-.935.234-1.766.352-2.493.352-.986 0-1.765-.274-2.336-.823-.572-.548-.857-1.501-.857-2.86V95.132h8.022V83.927h-8.022V71h-14.8v12.927H209v11.204h5.063v18.882c0 2.246.324 4.126.973 5.64.65 1.516 1.532 2.743 2.649 3.683 1.116.94 2.427 1.62 3.933 2.037 1.506.418 3.09.627 4.751.627z" fill="#202124" fill-rule="nonzero"/></svg><svg width="122" height="42" viewBox="-1 -1 122 42" id="svg--app_store_badge" y="170" xmlns="http://www.w3.org/2000/svg"><g fill-rule="nonzero" fill="none"><path d="M110.135 0H9.535c-.367 0-.73 0-1.095.002-.306.002-.61.008-.919.013C6.85.023 6.18.082 5.517.19a6.665 6.665 0 00-1.9.627A6.438 6.438 0 00.193 5.521a12.993 12.993 0 00-.179 2.002c-.01.307-.01.615-.015.921V31.56c.005.31.006.61.015.921.008.671.068 1.34.18 2.002.11.663.32 1.306.624 1.905.303.598.701 1.143 1.179 1.614.473.477 1.02.875 1.618 1.179a6.7 6.7 0 001.901.63c.663.11 1.333.168 2.004.177.31.007.613.011.919.011.366.002.728.002 1.095.002h100.6c.36 0 .724 0 1.084-.002.304 0 .617-.004.922-.01.67-.01 1.338-.068 2-.178a6.804 6.804 0 001.908-.63A6.277 6.277 0 00117.666 38a6.395 6.395 0 001.182-1.614c.302-.6.51-1.242.619-1.905.111-.661.173-1.33.185-2.002.004-.31.004-.61.004-.921.008-.364.008-.725.008-1.094V9.536c0-.366 0-.73-.008-1.092 0-.306 0-.614-.004-.92a13.507 13.507 0 00-.185-2.003 6.618 6.618 0 00-.62-1.903 6.466 6.466 0 00-2.798-2.8 6.768 6.768 0 00-1.908-.627c-.661-.11-1.33-.169-2-.176-.305-.005-.618-.011-.922-.013-.36-.002-.725-.002-1.084-.002z" fill="#000"/><path d="M22.855 13.974l.28.017c1.595.05 3.075.85 3.99 2.158A4.949 4.949 0 0024.77 20.3a4.782 4.782 0 002.92 4.399 10.962 10.962 0 01-1.52 3.092c-.894 1.338-1.831 2.645-3.32 2.67-1.446.033-1.932-.852-3.59-.852-1.675 0-2.193.827-3.58.885-1.418.052-2.5-1.428-3.428-2.753-1.852-2.707-3.295-7.628-1.361-10.977a5.315 5.315 0 014.473-2.727c1.419-.03 2.736.958 3.608.958.856 0 2.484-1.181 4.163-1.005zm.297-5.254a4.872 4.872 0 01-1.115 3.49 4.099 4.099 0 01-3.237 1.531 4.636 4.636 0 011.144-3.361 4.957 4.957 0 013.208-1.66zM51.347 21.348c2.298 0 3.813 1.816 3.813 4.622 0 2.813-1.506 4.62-3.779 4.62a3.07 3.07 0 01-2.848-1.583h-.043v4.484H46.63V21.442h1.8v1.506h.033a3.212 3.212 0 012.883-1.6zm9.965 0c2.298 0 3.813 1.816 3.813 4.622 0 2.813-1.506 4.62-3.779 4.62a3.07 3.07 0 01-2.848-1.583h-.043v4.484h-1.859V21.442h1.799v1.506h.034a3.212 3.212 0 012.883-1.6zm13.342-3.477c2.624 0 4.423 1.472 4.483 3.614h-1.876c-.112-1.239-1.136-1.987-2.634-1.987-1.497 0-2.521.757-2.521 1.858 0 .878.654 1.395 2.255 1.79l1.368.336c2.548.603 3.606 1.626 3.606 3.443 0 2.323-1.85 3.778-4.793 3.778-2.754 0-4.614-1.42-4.734-3.667h1.902c.138 1.232 1.334 2.04 2.97 2.04 1.566 0 2.693-.808 2.693-1.919 0-.964-.68-1.54-2.29-1.936l-1.609-.388c-2.28-.55-3.339-1.617-3.339-3.348 0-2.142 1.867-3.614 4.519-3.614zm15.705 3.46c2.625 0 4.295 1.79 4.295 4.639 0 2.856-1.661 4.638-4.295 4.638-2.633 0-4.294-1.782-4.294-4.638 0-2.849 1.678-4.639 4.294-4.639zm15.049 0c2.505 0 4.08 1.72 4.08 4.466v.637h-6.395v.112a2.358 2.358 0 002.436 2.564 2.048 2.048 0 002.09-1.273h1.765c-.25 1.643-1.85 2.771-3.898 2.771-2.634 0-4.269-1.764-4.269-4.595 0-2.84 1.644-4.682 4.19-4.682zM83.346 19.3v2.142h1.722v1.472h-1.722v4.991c0 .776.345 1.137 1.102 1.137.204-.004.408-.018.611-.043v1.463c-.34.063-.686.092-1.032.086-1.833 0-2.548-.689-2.548-2.445v-5.189h-1.316v-1.472h1.316V19.3h1.867zm-42.352-1.222l4.483 12.418h-2.039l-1.136-3.356H37.57l-1.137 3.356h-2.005l4.484-12.418h2.083zm59.185 3.27c.214-.001.428.022.637.069v1.738a2.598 2.598 0 00-.835-.112 1.873 1.873 0 00-1.937 2.083v5.37h-1.858v-9.054h1.773v1.541h.043a2.16 2.16 0 012.177-1.635zm-9.82 1.514c-1.506 0-2.4 1.162-2.4 3.108 0 1.962.894 3.106 2.4 3.106 1.506 0 2.401-1.144 2.401-3.106 0-1.954-.895-3.108-2.401-3.108zm-39.502.07c-1.42 0-2.375 1.23-2.375 3.038 0 1.824.955 3.046 2.375 3.046 1.445 0 2.393-1.197 2.393-3.046 0-1.833-.948-3.038-2.393-3.038zm9.965 0c-1.42 0-2.375 1.23-2.375 3.038 0 1.824.955 3.046 2.375 3.046 1.445 0 2.392-1.197 2.392-3.046 0-1.833-.947-3.038-2.392-3.038zm-20.86-2.788h-.052l-1.85 5.447h3.751l-1.85-5.447zm65.446 2.693a2.292 2.292 0 00-2.306 2.298h4.526a2.177 2.177 0 00-2.22-2.298zM102.806 10.108c1.253 0 2.009.856 2.009 2.27v.31h-3.18v.05a1.19 1.19 0 001.2 1.29 1.08 1.08 0 001.07-.546h.856a1.828 1.828 0 01-1.95 1.303 2.045 2.045 0 01-2.081-2.325 2.077 2.077 0 012.076-2.352zm-57.877.32a2.133 2.133 0 01.999 2.016 2.134 2.134 0 11-4.247 0 2.133 2.133 0 013.248-2.015zm19.537 0a2.133 2.133 0 011 2.016 2.134 2.134 0 11-4.248 0 2.133 2.133 0 013.248-2.015zm18.012 0a2.133 2.133 0 011 2.016 2.134 2.134 0 11-4.248 0 2.133 2.133 0 013.248-2.015zm-14.063-.32c1.128 0 1.765.562 1.765 1.513v3.077h-.855v-.633h-.07c-.291.462-.808.732-1.353.707a1.36 1.36 0 01-1.501-1.348c0-.81.603-1.278 1.675-1.344l1.22-.07v-.389c0-.475-.315-.744-.922-.744-.497 0-.84.182-.939.5h-.86c.09-.773.818-1.27 1.84-1.27zm7.138-1.671v6.26h-.851v-.71h-.07a1.563 1.563 0 01-1.415.785c-1.145 0-1.869-.901-1.869-2.328 0-1.423.732-2.324 1.87-2.324a1.484 1.484 0 011.38.79h.067V8.437h.888zm17.962.637v1.141h.976v.749h-.976v2.315c0 .472.195.679.637.679.113 0 .226-.008.339-.021v.74c-.16.029-.322.044-.484.046-.988 0-1.381-.348-1.381-1.216v-2.543h-.715v-.749h.715V9.074h.89zm-53.583.475a2.64 2.64 0 01.702 2.147c0 1.906-1.03 3.002-2.808 3.002h-2.155V8.73h2.155a2.64 2.64 0 012.106.818zm7.539.646l.806 3.436h.067l.926-3.436h.852l.926 3.436h.07l.803-3.436h.889l-1.237 4.503h-.922l-.93-3.317h-.07l-.927 3.317h-.913l-1.242-4.503h.902zm8.648-.087a1.465 1.465 0 011.559 1.675v2.915h-.889v-2.692c0-.724-.314-1.084-.972-1.084a1.033 1.033 0 00-1.075 1.141v2.635h-.888v-4.503h.855v.715h.066c.231-.527.771-.849 1.344-.802zm3.863-1.671v6.26h-.888v-6.26h.888zm26.953 1.67a1.465 1.465 0 011.559 1.676v2.915h-.889v-2.692c0-.724-.314-1.084-.972-1.084a1.033 1.033 0 00-1.075 1.141v2.635h-.889v-4.503h.856v.715h.066c.231-.527.77-.849 1.344-.802zm9.65-1.67v2.481h.07a1.386 1.386 0 011.374-.806 1.483 1.483 0 011.55 1.679v2.907h-.889V12.01c0-.72-.335-1.084-.963-1.084a1.052 1.052 0 00-1.134 1.142v2.63h-.888V8.437h.88zm-27.29 4.226l-1.1.07c-.62.042-.9.253-.9.65 0 .405.351.64.834.64a1.061 1.061 0 001.166-.983v-.377zm-25.49-1.766c-.772 0-1.206.571-1.206 1.547 0 .984.434 1.55 1.207 1.55.77 0 1.208-.57 1.208-1.55 0-.976-.439-1.547-1.208-1.547zm19.538 0c-.773 0-1.207.571-1.207 1.547 0 .984.434 1.55 1.207 1.55.77 0 1.208-.57 1.208-1.55 0-.976-.439-1.547-1.208-1.547zm18.012 0c-.772 0-1.207.571-1.207 1.547 0 .984.435 1.55 1.207 1.55.77 0 1.208-.57 1.208-1.55 0-.976-.438-1.547-1.208-1.547zm-7.886.021c-.748 0-1.203.58-1.203 1.526 0 .955.45 1.53 1.203 1.53.75 0 1.212-.583 1.212-1.526 0-.938-.468-1.53-1.212-1.53zM37.723 9.574h-1.125v4.28h1.125a1.876 1.876 0 001.967-2.146 1.881 1.881 0 00-1.967-2.134zm65.078 1.29a1.152 1.152 0 00-1.166 1.167h2.275a1.086 1.086 0 00-1.109-1.167z" fill="#FFF"/></g></svg><svg width="122" height="42" viewBox="-1 -1 122 42" id="svg--galaxy_store_bage" x="242" xmlns="http://www.w3.org/2000/svg"><g fill="none" fill-rule="evenodd"><path d="M7.686.001L112.023 0c2.774 0 3.78.325 4.794.935 1.014.61 1.81 1.505 2.352 2.646l.112.245c.47 1.068.719 2.25.719 5.148v22.052l-.004.64c-.039 2.642-.324 3.694-.827 4.753-.542 1.14-1.338 2.036-2.352 2.646l-.218.126c-.949.529-2 .809-4.576.809H7.977l-.568-.005c-2.35-.043-3.284-.363-4.226-.93-1.014-.61-1.81-1.505-2.352-2.646l-.112-.245C.249 35.106 0 33.924 0 31.026V8.974c0-3.12.289-4.252.831-5.393.542-1.14 1.338-2.036 2.352-2.646l.218-.126C4.313.3 5.321.022 7.686 0z" fill="#000"/><path d="M33.743 15.826c-.345-2.6-1.264-4.956-2.887-6.682-1.726-1.622-4.083-2.542-6.683-2.887C21.69 5.928 20 6.009 20 6.009s-1.69-.081-4.174.248c-2.6.344-4.955 1.265-6.68 2.887C7.52 10.87 6.6 13.227 6.255 15.827 5.928 18.31 6.01 20 6.01 20s-.081 1.691.247 4.174c.344 2.6 1.265 4.956 2.888 6.682 1.726 1.622 4.081 2.542 6.681 2.888 2.484.328 4.174.247 4.174.247s1.691.081 4.174-.247c2.6-.346 4.957-1.266 6.683-2.888 1.622-1.726 2.542-4.082 2.887-6.682.329-2.483.248-4.174.248-4.174s.08-1.691-.248-4.174"/><path d="M20 12c2.253 0 4.086 1.857 4.086 4.14v.116H27.5l-.905 8.688C26.414 26.68 24.968 28 23.243 28h-6.486c-1.725 0-3.17-1.319-3.352-3.056l-.905-8.688h3.414v-.116c0-2.283 1.833-4.14 4.086-4.14zm0 1.807c-1.27 0-2.302 1.046-2.302 2.333v.116h4.604v-.116c0-1.287-1.032-2.333-2.302-2.333zM62.736 17.757v.544h.366v.54a.672.672 0 01-.01.143c-.014.1-.105.272-.365.272-.259 0-.349-.172-.364-.272a.97.97 0 01-.01-.142v-1.707c0-.06.004-.126.017-.176.017-.091.095-.27.355-.27.273 0 .342.189.357.27.01.053.01.144.01.144v.207h.901v-.122s.004-.128-.007-.248c-.068-.7-.62-.922-1.253-.922-.635 0-1.176.224-1.255.922a2.72 2.72 0 00-.017.248v1.57c0 .068.002.12.013.245.06.682.624.923 1.257.923.635 0 1.197-.241 1.256-.923.01-.125.012-.177.013-.246v-1h-1.264zm-6.206-1.638h-.904v2.762a.677.677 0 01-.008.142.326.326 0 01-.343.271.325.325 0 01-.341-.271.632.632 0 01-.01-.142v-2.762h-.903v2.676c-.001.07.004.21.008.247.062.698.588.924 1.246.924s1.184-.226 1.247-.924c.005-.037.012-.178.008-.247V16.12zm-8.306 0l-.45 2.919-.45-2.919h-1.459l-.077 3.734h.893l.024-3.457.615 3.457h.906l.615-3.457.025 3.457h.895l-.08-3.734h-1.457zm-5.398 0l-.662 3.734h.966l.498-3.457.487 3.457h.96l-.66-3.734h-1.589zm16.863 3.006l-.842-3.006h-1.326v3.695h.877l-.051-3.103.904 3.103h1.272v-3.695h-.883l.049 3.006zm-8.116-2.035a.513.513 0 01-.003-.192c.026-.12.102-.25.324-.25.207 0 .327.134.327.336v.228h.881v-.26c0-.804-.69-.93-1.19-.93-.63 0-1.143.216-1.237.821-.025.165-.031.311.008.498.153.754 1.411.974 1.594 1.45.032.091.023.207.006.275-.027.124-.107.249-.344.249-.223 0-.356-.134-.356-.335v-.359h-.95v.285c0 .825.62 1.075 1.286 1.075.639 0 1.166-.228 1.25-.846.04-.319.01-.527-.006-.605-.148-.774-1.488-1.007-1.59-1.44m-11.623-.009a.48.48 0 01-.004-.196c.025-.119.102-.252.327-.252.21 0 .332.136.332.34v.23h.892v-.261c0-.813-.701-.942-1.206-.942-.635 0-1.154.22-1.249.83-.026.167-.03.314.007.503.155.763 1.425.984 1.61 1.467.035.09.024.205.007.276-.03.125-.11.252-.349.252-.223 0-.357-.136-.357-.34l-.001-.36H39v.286c0 .835.628 1.086 1.3 1.086.645 0 1.175-.23 1.262-.855.043-.322.01-.531-.004-.61-.15-.784-1.506-1.016-1.608-1.454M74.11 25.106l1.824 4.56 1.724-4.56h1.588L75.341 35h-1.533l1.376-3.46-2.685-6.434h1.611zm-23.048-.139c.862 0 1.634.37 2.104.95v-.81h1.51v6.769h-1.51v-.88c-.481.625-1.265 1.019-2.126 1.019-1.578 0-3.223-1.308-3.223-3.519 0-2.244 1.589-3.529 3.245-3.529zm10.573 0c.862 0 1.634.37 2.104.95v-.81h1.51v6.769h-1.51v-.88c-.481.625-1.265 1.019-2.126 1.019-1.578 0-3.223-1.308-3.223-3.519 0-2.244 1.589-3.529 3.245-3.529zm34.159 0c1.88 0 3.39 1.562 3.39 3.53 0 1.955-1.51 3.518-3.39 3.518-1.891 0-3.39-1.563-3.39-3.519 0-1.967 1.499-3.529 3.39-3.529zm11.838 0c1.947 0 3.368 1.481 3.368 3.483v.59h-5.327c.202.95.94 1.598 2.015 1.598.839 0 1.499-.475 1.812-1.192l1.243.74c-.571 1.088-1.6 1.829-3.055 1.829-2.06 0-3.458-1.551-3.458-3.507 0-1.979 1.488-3.54 3.402-3.54zm-64.458-1.654c1.69 0 3.022.89 3.716 2.164l-1.343.833c-.504-.96-1.287-1.47-2.361-1.47-1.522 0-2.675 1.273-2.675 2.812 0 1.562 1.141 2.812 2.73 2.812 1.22 0 2.07-.718 2.362-1.828h-2.608V27.13h4.241v.625c0 2.28-1.555 4.235-3.995 4.235-2.551 0-4.241-2.001-4.241-4.34 0-2.406 1.757-4.338 4.174-4.338zm42.058 0c1.32 0 2.082.52 2.742 1.226l-1.254.984c-.346-.533-.828-.81-1.477-.81-.738 0-1.141.416-1.141.96 0 .672.783.891 1.667 1.192 1.108.37 2.361.88 2.361 2.5 0 1.33-1.029 2.626-2.82 2.626-1.477 0-2.45-.648-3.19-1.516l1.389-1.134c.414.73 1.052 1.146 1.79 1.146.806 0 1.242-.544 1.242-1.134 0-.717-.828-.937-1.7-1.215l-.277-.092c-1.015-.348-2.04-.84-2.04-2.315 0-1.354 1.142-2.418 2.708-2.418zm-27.726 0v8.562h-1.522v-8.563h1.522zm10.048 1.793l1.488 2.152 1.477-2.152h1.79l-2.35 3.344 2.507 3.426H70.62l-1.6-2.257-1.556 2.257h-1.846l2.462-3.449-2.373-3.32h1.847zM90.78 23v2.106h1.332v1.4H90.78v2.534c0 1.18.157 1.366 1.332 1.366v1.47H91.9c-2.025 0-2.64-.672-2.64-2.824v-2.545h-1.12v-1.4h1.12v-1.03L90.78 23zm10.562 2.106v1.007c.303-.671.851-1.007 1.679-1.007.47 0 .861.116 1.153.29l-.571 1.48a1.502 1.502 0 00-.907-.266c-.873 0-1.343.486-1.343 1.655v3.61h-1.51v-6.769h1.5zM51.286 26.39c-1.12 0-1.98.915-1.98 2.083 0 1.18.86 2.106 1.98 2.106 1.119 0 1.958-.937 1.958-2.106 0-1.145-.839-2.083-1.958-2.083zm10.573 0c-1.119 0-1.98.915-1.98 2.083 0 1.18.861 2.106 1.98 2.106 1.12 0 1.958-.937 1.958-2.106 0-1.145-.839-2.083-1.958-2.083zm33.935.047c-1.085 0-1.902.926-1.902 2.06 0 1.122.817 2.048 1.902 2.048 1.063 0 1.902-.926 1.902-2.049 0-1.133-.839-2.06-1.902-2.06zm11.838-.093c-.907 0-1.612.567-1.88 1.389h3.715c-.224-.903-.896-1.389-1.835-1.389zM39.485 12.008l.37-.902h1.854l.37.902h.486L41.053 8.4h-.542L39 12.008h.485zm2.053-1.288h-1.511l.741-1.83h.029l.741 1.83zm2.71 1.288l1.168-2.68h-.456l-.941 2.19h-.028l-.942-2.19h-.456l1.17 2.68h.484zm2.737.052c.217 0 .408-.036.573-.108a.974.974 0 00.396-.304h.029l.057.36h.342v-2.68h-.342l-.057.36h-.029a.974.974 0 00-.396-.303 1.422 1.422 0 00-.573-.109c-.187 0-.358.03-.514.09-.155.06-.29.15-.404.269a1.258 1.258 0 00-.269.435 1.693 1.693 0 00-.096.598c0 .227.032.426.096.598.065.172.154.317.269.436.114.118.249.208.404.268.156.06.327.09.514.09zm.057-.36a.889.889 0 01-.659-.256c-.17-.17-.254-.429-.254-.776 0-.347.085-.606.254-.776a.889.889 0 01.659-.255c.27 0 .49.085.659.255.169.17.253.43.253.776 0 .347-.084.606-.253.776a.889.889 0 01-.66.255zm2.355-2.759a.297.297 0 00.211-.08.255.255 0 000-.381.297.297 0 00-.21-.08.305.305 0 00-.217.08.255.255 0 00-.086.193c0 .076.03.14.088.19.06.052.13.078.214.078zm.211 3.067v-2.68h-.427v2.68h.427zm1.255 0V8.4h-.428v3.608h.428zm1.968.052c.217 0 .408-.036.573-.108a.974.974 0 00.396-.304h.029l.057.36h.342v-2.68h-.342l-.057.36H53.8a.974.974 0 00-.396-.303 1.422 1.422 0 00-.573-.109c-.186 0-.358.03-.513.09-.156.06-.291.15-.405.269a1.258 1.258 0 00-.268.435 1.693 1.693 0 00-.097.598c0 .227.032.426.097.598.064.172.153.317.268.436.114.118.249.208.405.268.155.06.327.09.513.09zm.057-.36a.889.889 0 01-.659-.256c-.17-.17-.254-.429-.254-.776 0-.347.085-.606.254-.776a.889.889 0 01.659-.255c.27 0 .49.085.659.255.169.17.253.43.253.776 0 .347-.084.606-.253.776a.889.889 0 01-.66.255zm3.564.36c.187 0 .358-.03.514-.09.156-.06.29-.15.405-.268.114-.119.203-.264.268-.436.064-.172.097-.371.097-.598 0-.227-.033-.426-.097-.598a1.258 1.258 0 00-.268-.435 1.108 1.108 0 00-.405-.268 1.415 1.415 0 00-.514-.09 1.35 1.35 0 00-.558.105c-.156.07-.284.164-.383.281h-.028V8.4h-.428v3.608h.342l.057-.36h.029c.099.13.23.232.396.304.166.072.357.108.573.108zm-.057-.36c-.273 0-.494-.088-.661-.264-.167-.175-.251-.431-.251-.768s.084-.593.25-.768c.168-.175.389-.263.662-.263.274 0 .495.088.662.263.167.175.251.431.251.768s-.084.593-.25.768c-.168.176-.389.263-.663.263zm2.453.308V8.4h-.428v3.608h.428zm2.053.052c.285 0 .536-.063.753-.188.217-.126.375-.312.473-.56h-.456c-.171.258-.428.387-.77.387a.957.957 0 01-.653-.232c-.177-.154-.273-.386-.288-.696h2.224a1.65 1.65 0 00.012-.072l.006-.039.005-.043a.85.85 0 00.006-.103 1.226 1.226 0 00-.328-.823 1.304 1.304 0 00-.42-.299 1.403 1.403 0 00-.592-.116c-.194 0-.373.03-.536.09a1.17 1.17 0 00-.705.704 1.65 1.65 0 00-.1.598c0 .227.035.426.103.598.068.172.163.317.282.436.12.118.264.208.43.268.168.06.353.09.554.09zm.884-1.624H59.96c.03-.258.13-.455.297-.593a.938.938 0 01.616-.206c.243 0 .448.069.616.206.167.138.266.335.296.593zm3.565 1.624c.198 0 .381-.03.55-.09.17-.06.314-.15.434-.268a1.26 1.26 0 00.282-.436c.068-.172.103-.371.103-.598 0-.227-.035-.426-.103-.598a1.26 1.26 0 00-.282-.435 1.158 1.158 0 00-.434-.268c-.169-.06-.352-.09-.55-.09-.202 0-.386.03-.553.09-.168.06-.311.149-.431.268a1.26 1.26 0 00-.282.435 1.609 1.609 0 00-.103.598c0 .227.034.426.103.598.068.172.162.317.282.436.12.118.263.208.43.268.168.06.352.09.554.09zm0-.36c-.137 0-.263-.023-.377-.068a.817.817 0 01-.296-.198.933.933 0 01-.197-.323 1.263 1.263 0 01-.071-.443c0-.168.024-.316.071-.443a.933.933 0 01.197-.322.817.817 0 01.296-.199c.114-.044.24-.067.377-.067s.262.023.376.067c.114.045.213.111.297.199.083.087.15.195.197.322.047.127.07.275.07.443 0 .169-.023.316-.07.443a.933.933 0 01-.197.323.817.817 0 01-.297.198c-.114.045-.24.067-.376.067zm2.452.308v-1.65a.694.694 0 01.228-.505.857.857 0 01.57-.216c.218 0 .395.062.534.186.139.123.208.302.208.536v1.65h.428v-1.65c0-.169-.029-.32-.086-.454a.974.974 0 00-.236-.34 1.055 1.055 0 00-.354-.214 1.25 1.25 0 00-.436-.075c-.156 0-.313.03-.47.09a.782.782 0 00-.386.323h-.028l-.057-.361h-.342v2.68h.427z" fill="#FFF" fill-rule="nonzero"/></g></svg><svg width="137" height="42" viewBox="-1 -1 137 42" id="svg--google_play_bage" y="128" xmlns="http://www.w3.org/2000/svg"><defs><linearGradient x1="50%" y1="0%" x2="50%" y2="100%" id="ea"><stop stop-color="#00C3FF" offset="0%"/><stop stop-color="#00E3FF" offset="100%"/></linearGradient><linearGradient x1="50%" y1="0%" x2="50%" y2="100%" id="eb"><stop stop-color="#FFC800" offset="0%"/><stop stop-color="#FFC900" offset="100%"/></linearGradient><linearGradient x1="86.725%" y1="30.516%" x2="-50.481%" y2="137.757%" id="ec"><stop stop-color="#FF3944" offset="0%"/><stop stop-color="#C31161" offset="100%"/></linearGradient><linearGradient x1="50%" y1="0%" x2="50%" y2="100%" id="ed"><stop stop-color="#11D574" offset="0%"/><stop stop-color="#00F076" offset="100%"/></linearGradient></defs><g fill="none" fill-rule="evenodd"><path d="M8.647.001L126.027 0c3.12 0 4.251.325 5.392.935a6.36 6.36 0 012.646 2.646l.126.245c.529 1.068.809 2.25.809 5.148v22.052l-.005.64c-.043 2.642-.363 3.694-.93 4.753a6.36 6.36 0 01-2.646 2.646l-.245.126c-1.068.529-2.25.809-5.148.809H8.974l-.64-.005c-2.642-.043-3.694-.363-4.753-.93a6.36 6.36 0 01-2.646-2.646l-.126-.245C.28 35.106 0 33.924 0 31.026V8.974c0-3.12.325-4.252.935-5.393A6.36 6.36 0 013.581.935l.245-.126C4.853.3 5.986.022 8.646 0z" fill="#000"/><path d="M47.419 10.243c0 .838-.249 1.506-.746 2.003-.564.592-1.299.888-2.204.888-.866 0-1.602-.3-2.208-.901-.606-.6-.909-1.345-.909-2.233 0-.889.303-1.633.909-2.233.606-.601 1.342-.901 2.208-.901.43 0 .841.084 1.232.251.39.168.704.391.938.671l-.527.527c-.398-.474-.944-.711-1.643-.711-.632 0-1.177.221-1.638.666-.461.444-.692 1.021-.692 1.73 0 .709.231 1.286.692 1.73a2.276 2.276 0 001.638.666c.67 0 1.229-.223 1.676-.669.29-.291.458-.696.503-1.216h-2.179v-.72h2.908c.028.156.042.307.042.452" fill="#FFF"/><path d="M47.419 10.243h-.1c-.001.819-.24 1.455-.716 1.932l-.001.001-.001.001c-.546.571-1.249.856-2.132.857-.843-.001-1.548-.289-2.137-.872-.588-.583-.879-1.296-.88-2.162.001-.866.292-1.579.88-2.162.589-.583 1.294-.871 2.137-.872.417 0 .814.081 1.192.243.379.163.679.377.902.643l.076-.064-.071-.071-.527.528.071.07.076-.064c-.415-.498-.999-.749-1.719-.747a2.382 2.382 0 00-1.708.694c-.481.462-.723 1.071-.722 1.802-.001.731.241 1.34.722 1.802a2.387 2.387 0 001.708.695c.692.001 1.282-.234 1.747-.7.31-.311.486-.741.532-1.277l.009-.109h-2.188V9.89h2.808v-.099l-.099.017c.027.152.041.296.041.435h.2c0-.152-.015-.308-.044-.47l-.015-.082h-3.091v.92h2.279v-.1l-.1-.008c-.044.503-.204.882-.474 1.153-.43.428-.957.64-1.605.641a2.182 2.182 0 01-1.569-.638c-.441-.427-.66-.971-.661-1.659.001-.688.22-1.232.661-1.659a2.177 2.177 0 011.569-.637c.677.001 1.187.225 1.566.676l.07.083.605-.605.065-.064-.059-.071a2.58 2.58 0 00-.976-.698 3.21 3.21 0 00-1.271-.259c-.889-.001-1.656.311-2.278.93-.625.617-.94 1.393-.939 2.304-.001.911.314 1.687.939 2.305.622.618 1.389.93 2.278.929.926.001 1.694-.307 2.277-.919l-.073-.069.071.071c.518-.518.775-1.217.775-2.074h-.1M52.028 7.737h-2.733V9.64h2.464v.72h-2.464v1.903h2.733V13h-3.503V7h3.503v.737" fill="#FFF"/><path fill="#FFF" d="M52.028 7.737v-.1h-2.833V9.74h2.464v.52h-2.464v2.103h2.733v.537h-3.303V7.1h3.303v.637h.1v-.1.1h.1V6.9h-3.703v6.2h3.703v-.937h-2.733V10.46h2.464v-.92h-2.464V7.837h2.733v-.1h-.1M55.279 13h-.772V7.737h-1.675V7h4.123v.737h-1.676V13"/><path fill="#FFF" d="M55.279 13v-.1h-.672V7.637h-1.676V7.1h3.924v.537h-1.676V13h.1v-.1.1h.1V7.837h1.676V6.9h-4.324v.937h1.676V13.1h.972V13h-.1M59.938 13h.771V7h-.771z"/><path fill="#FFF" d="M59.938 13h.1V7.1h.57v5.8h-.67v.1h.1-.1v.1h.871V6.9h-.971v6.2h.1V13M64.128 13h-.771V7.737h-1.676V7h4.123v.737h-1.676V13"/><path fill="#FFF" d="M64.128 13v-.1h-.671V7.637h-1.676V7.1h3.923v.537h-1.676V13h.1v-.1.1h.1V7.837h1.676V6.9h-4.323v.937h1.676V13.1h.971V13h-.1M69.779 11.722c.445.45.988.674 1.63.674.643 0 1.187-.224 1.63-.674.444-.45.667-1.024.667-1.722s-.223-1.272-.667-1.722a2.199 2.199 0 00-1.63-.674c-.642 0-1.185.224-1.63.674-.443.45-.666 1.024-.666 1.722s.223 1.272.666 1.722zm3.83.503c-.589.606-1.323.909-2.2.909-.877 0-1.61-.303-2.199-.909-.59-.606-.884-1.348-.884-2.225s.294-1.619.884-2.225c.589-.606 1.322-.909 2.199-.909.872 0 1.604.304 2.196.913.592.609.888 1.349.888 2.221 0 .877-.295 1.619-.884 2.225z"/><path d="M69.779 11.722l-.071.07a2.304 2.304 0 001.701.705 2.303 2.303 0 001.701-.705c.464-.467.697-1.073.696-1.792.001-.719-.232-1.324-.696-1.792a2.302 2.302 0 00-1.701-.704 2.303 2.303 0 00-1.701.704c-.462.468-.696 1.073-.695 1.792-.001.719.233 1.325.695 1.792l.143-.14c-.425-.431-.637-.975-.638-1.652.001-.677.213-1.221.638-1.652h-.001c.429-.432.94-.643 1.559-.644.62.001 1.132.212 1.559.644.425.432.637.975.638 1.652-.001.677-.213 1.22-.638 1.652a2.098 2.098 0 01-1.559.645 2.107 2.107 0 01-1.559-.645l-.071.07zm3.83.503l-.071-.07c-.573.588-1.275.878-2.129.879-.854-.001-1.555-.291-2.127-.879l-.003-.003.003.003c-.572-.589-.855-1.3-.856-2.155.001-.855.284-1.566.856-2.155.572-.588 1.273-.878 2.127-.879.849.001 1.548.293 2.125.883.574.592.858 1.302.859 2.151-.001.855-.284 1.566-.855 2.155l.143.139c.607-.622.913-1.395.912-2.294.001-.894-.307-1.665-.916-2.29-.609-.628-1.373-.945-2.268-.944-.9-.001-1.665.315-2.271.94-.607.623-.913 1.395-.912 2.294-.001.899.305 1.672.912 2.294l.003.003-.003-.003c.606.626 1.371.941 2.271.94.9.001 1.666-.314 2.272-.94l-.072-.069zM75.575 13V7h.939l2.916 4.667h.033l-.033-1.156V7h.771v6h-.805l-3.05-4.894h-.034l.034 1.157V13h-.771" fill="#FFF"/><path fill="#FFF" d="M75.575 13h.1V7.1h.783l2.916 4.668h.192l-.036-1.258V7.1h.571v5.8h-.649l-3.051-4.894h-.191l.036 1.258V12.9h-.671v.1h.1-.1v.1h.871V9.261l-.034-1.157-.1.002v.1h.034v-.1l-.085.053 3.08 4.941h.96V6.9h-.971v3.613l.033 1.157.1-.003v-.099h-.033v.099l.085-.052L76.569 6.9h-1.094v6.2h.1V13M106.936 30h1.866V17.499h-1.866V30zm16.807-7.998l-2.139 5.42h-.064l-2.22-5.42h-2.01l3.329 7.575-1.898 4.214h1.947l5.13-11.789h-2.075zm-10.582 6.578c-.612 0-1.464-.305-1.464-1.061 0-.965 1.062-1.335 1.978-1.335.821 0 1.206.177 1.705.418a2.262 2.262 0 01-2.219 1.978zm.225-6.851c-1.351 0-2.75.595-3.329 1.914l1.656.691c.354-.691 1.013-.917 1.705-.917.965 0 1.946.579 1.962 1.609v.128c-.338-.193-1.061-.482-1.946-.482-1.785 0-3.603.981-3.603 2.814 0 1.673 1.464 2.751 3.104 2.751 1.255 0 1.946-.563 2.381-1.223h.064v.965h1.801v-4.792c0-2.22-1.656-3.458-3.795-3.458zm-11.532 1.795H99.2v-4.285h2.654c1.395 0 2.187 1.155 2.187 2.142 0 .969-.792 2.143-2.187 2.143zm-.048-6.025h-4.471V30H99.2v-4.736h2.606c2.068 0 4.101-1.498 4.101-3.883s-2.033-3.882-4.101-3.882zM77.425 28.582c-1.289 0-2.368-1.079-2.368-2.561 0-1.498 1.079-2.594 2.368-2.594 1.273 0 2.271 1.096 2.271 2.594 0 1.482-.998 2.561-2.271 2.561zm2.142-5.88h-.064c-.419-.499-1.224-.95-2.239-.95-2.127 0-4.076 1.868-4.076 4.269 0 2.384 1.949 4.237 4.076 4.237 1.015 0 1.82-.451 2.239-.967h.064v.612c0 1.628-.869 2.498-2.271 2.498-1.144 0-1.853-.822-2.143-1.515l-1.627.677c.467 1.128 1.708 2.513 3.77 2.513 2.191 0 4.044-1.289 4.044-4.43v-7.637h-1.773v.693zM82.629 30h1.869V17.498h-1.869V30zm4.623-4.124c-.048-1.643 1.273-2.481 2.223-2.481.742 0 1.37.37 1.579.902l-3.802 1.579zm5.8-1.418c-.354-.95-1.434-2.706-3.641-2.706-2.191 0-4.011 1.723-4.011 4.253 0 2.384 1.804 4.253 4.22 4.253 1.95 0 3.078-1.192 3.545-1.885l-1.45-.967c-.483.709-1.144 1.176-2.095 1.176-.95 0-1.627-.435-2.062-1.288l5.687-2.352-.193-.484zm-45.308-1.401v1.804h4.317c-.129 1.015-.467 1.756-.982 2.272-.629.628-1.612 1.32-3.335 1.32-2.658 0-4.737-2.142-4.737-4.8 0-2.659 2.079-4.801 4.737-4.801 1.434 0 2.481.564 3.254 1.289l1.273-1.273c-1.08-1.031-2.513-1.821-4.527-1.821-3.641 0-6.702 2.965-6.702 6.606s3.061 6.605 6.702 6.605c1.965 0 3.447-.644 4.607-1.853 1.192-1.192 1.563-2.867 1.563-4.221 0-.419-.032-.805-.097-1.127h-6.073zm11.079 5.525c-1.289 0-2.401-1.063-2.401-2.577 0-1.531 1.112-2.578 2.401-2.578 1.288 0 2.4 1.047 2.4 2.578 0 1.514-1.112 2.577-2.4 2.577zm0-6.83c-2.353 0-4.27 1.788-4.27 4.253 0 2.448 1.917 4.253 4.27 4.253 2.352 0 4.269-1.805 4.269-4.253 0-2.465-1.917-4.253-4.269-4.253zm9.313 6.83c-1.289 0-2.401-1.063-2.401-2.577 0-1.531 1.112-2.578 2.401-2.578 1.289 0 2.4 1.047 2.4 2.578 0 1.514-1.111 2.577-2.4 2.577zm0-6.83c-2.352 0-4.269 1.788-4.269 4.253 0 2.448 1.917 4.253 4.269 4.253 2.352 0 4.269-1.805 4.269-4.253 0-2.465-1.917-4.253-4.269-4.253z"/><path d="M.537 25.249l-.075-.072C.172 24.869 0 24.392 0 23.772v.146V1.802v-.005.152C0 1.278.2.773.536.47l12.389 12.39L.537 25.249M0 1.796" fill="url(#ea)" transform="translate(9.973 7.141)"/><path d="M17.055 17.137l.094-.053 4.893-2.78c.466-.265.777-.587.932-.927-.155.34-.465.662-.932.927l-4.893 2.78-.094.053m.001-.146l-4.131-4.131 4.131-4.131 4.986 2.833c.633.36.989.824 1.048 1.297v.002c-.059.473-.415.937-1.048 1.297l-4.986 2.833" fill="url(#eb)" transform="translate(9.973 7.141)"/><path d="M1.42 25.72c-.346 0-.648-.112-.884-.325h.001c.235.212.538.325.884.325.03 0 .06 0 .091-.002-.031.002-.062.002-.092.002m0-.146c-.346 0-.648-.113-.883-.325L12.925 12.86l4.131 4.131-14.515 8.247c-.402.228-.782.336-1.121.336" fill="url(#ec)" transform="translate(9.973 7.141)"/><path d="M12.925 12.86L.536.47c.235-.212.537-.324.883-.324.338 0 .719.108 1.122.336l14.515 8.247-4.131 4.131m4.224-4.224L2.541.336C2.139.108 1.757 0 1.419 0h-.005.006c.338 0 .719.107 1.121.336l14.608 8.3" fill="url(#ed)" transform="translate(9.973 7.141)"/></g></svg></svg>