<?xml version="1.0" encoding="UTF-8"?><svg width="302" height="206" viewBox="0 0 302 206" xmlns="http://www.w3.org/2000/svg" xmlns:xlink="http://www.w3.org/1999/xlink"><svg width="76" height="76" viewBox="-5 -5 76 76" id="svg--MEWlogo" y="90" xmlns="http://www.w3.org/2000/svg"><path d="M33 0C14.774 0 0 14.775 0 33s14.775 33 33 33 33-14.775 33-33S51.227 0 33 0zm0 53.74c-11.156 0-20.721-9.044-20.721-20.203 0-2.62.498-5.644 1.406-7.94l8.902 3.791c-.03.124-.066.288-.107.47a10.899 10.899 0 00-.466 2.675c-.02.18-.026.36-.02.541 0 .042.005.083.007.124A10.935 10.935 0 0035.43 43.714l5.06 8.592A20.146 20.146 0 0133 53.74zm19.124-12.532l-22.598-9.575 14.493-.063c-.52-5.257-5.923-9.53-11.018-9.53a10.405 10.405 0 00-3.396.566l-5.015-8.514a20.126 20.126 0 018.412-1.829c11.156 0 20.69 9.211 20.69 20.367-.002 3.01-.39 6.012-1.57 8.578h.002z" fill="#07A6B3" fill-rule="nonzero"/></svg><svg width="302" height="90" viewBox="-5 -5 302 90" id="svg--betaButton" xmlns="http://www.w3.org/2000/svg"><g fill="none" fill-rule="evenodd"><path d="M17.947 1c-5.539 0-7.885.453-10.313 1.752a11.721 11.721 0 00-4.882 4.882C1.453 10.062 1 12.408 1 17.947v44.106c0 5.539.453 7.885 1.752 10.313a11.721 11.721 0 004.882 4.882C10.062 78.547 12.408 79 17.947 79h256.106c5.539 0 7.885-.453 10.313-1.752a11.721 11.721 0 004.882-4.882c1.299-2.428 1.752-4.774 1.752-10.313V17.947c0-5.539-.453-7.885-1.752-10.313a11.721 11.721 0 00-4.882-4.882C281.938 1.453 279.592 1 274.053 1H17.947z" stroke="#202124" stroke-width="2" fill="#FFF"/><path d="M49.993 38.779a9.946 9.946 0 006.072 9.15 22.799 22.799 0 01-3.158 6.43c-1.86 2.783-3.81 5.502-6.906 5.552-3.008.07-4.019-1.77-7.469-1.77-3.482 0-4.56 1.72-7.444 1.84-2.948.109-5.201-2.97-7.129-5.727-3.853-5.629-6.853-15.864-2.83-22.828a11.055 11.055 0 019.302-5.673c2.95-.06 5.69 1.993 7.505 1.993 1.78 0 5.165-2.457 8.658-2.09a10.536 10.536 0 018.3 4.487 10.292 10.292 0 00-4.9 8.636zm-5.68-16.825a8.525 8.525 0 01-6.733 3.182 9.643 9.643 0 012.38-6.99 10.31 10.31 0 016.67-3.452c.202 2.63-.63 5.233-2.318 7.26z" fill="#202124"/><path d="M89.407 30.969V28.77h-7.312v2.405h4.236l-.012.366c-.049 2.49-1.88 4.163-4.566 4.163-3.137 0-5.102-2.49-5.102-6.543 0-3.992 1.929-6.482 5.005-6.482 2.258 0 3.833 1.123 4.468 3.162h3.137c-.562-3.59-3.54-5.896-7.605-5.896-5.017 0-8.228 3.6-8.228 9.24 0 5.701 3.174 9.253 8.277 9.253 4.7 0 7.702-2.917 7.702-7.47zm11.886 3.381c-.44 1.001-1.477 1.563-2.978 1.563-1.99 0-3.272-1.416-3.345-3.675v-.158h9.326v-.965c0-4.187-2.282-6.714-6.091-6.714-3.87 0-6.274 2.698-6.274 6.983 0 4.272 2.368 6.885 6.298 6.885 3.15 0 5.384-1.514 5.933-3.919h-2.869zm-3.1-7.593c1.819 0 3.015 1.282 3.076 3.308h-6.287c.135-2.002 1.404-3.308 3.21-3.308zm9.957-5.37v3.356h-2.112V27.1h2.112v7.361c0 2.576 1.22 3.601 4.285 3.601.586 0 1.147-.049 1.587-.134v-2.32l-.396.038a7.486 7.486 0 01-.63.023c-1.27 0-1.83-.598-1.83-1.928V27.1h2.856v-2.357h-2.857v-3.357h-3.015zm22.54 3.051c-1.832 0-3.382.916-4.15 2.43h-.208v-2.21h-2.918V42.43h3.028v-6.457h.207c.684 1.416 2.16 2.246 4.077 2.246 3.37 0 5.469-2.65 5.469-6.885 0-4.273-2.124-6.897-5.505-6.897zm-.953 11.267c-2.063 0-3.344-1.672-3.357-4.37.013-2.698 1.307-4.37 3.37-4.37 2.075 0 3.332 1.636 3.332 4.37s-1.245 4.37-3.345 4.37zM139.084 38h3.028v-7.751c0-1.88 1.367-3.101 3.332-3.101l.304.008c.483.023 1.057.093 1.247.163V24.56c-.281-.073-.818-.122-1.258-.122-1.72 0-3.161.977-3.528 2.295h-.207v-2.075h-2.918V38zm11.777-15.576a1.803 1.803 0 001.819-1.795c0-.988-.818-1.794-1.82-1.794-.988 0-1.806.806-1.806 1.794a1.8 1.8 0 001.807 1.795zM149.359 38h3.015V24.658h-3.015V38zm18.258-13.342h-3.198l-3.064 10.376h-.207l-3.089-10.376h-3.247L159.561 38h3.332l4.724-13.342zm5.624 13.562c1.746 0 3.21-.757 3.955-2.051h.208V38h2.917v-9.119c0-2.82-1.928-4.48-5.358-4.48-3.174 0-5.384 1.49-5.628 3.821h2.857c.28-.915 1.233-1.416 2.624-1.416 1.636 0 2.515.745 2.515 2.075v1.148l-3.443.207c-3.247.183-5.066 1.587-5.066 3.98 0 2.441 1.844 4.004 4.42 4.004zm.892-2.332c-1.343 0-2.308-.671-2.308-1.819 0-1.11.794-1.733 2.49-1.843l3.016-.207v1.086c0 1.587-1.367 2.783-3.198 2.783zm10.64-14.502v3.357h-2.111V27.1h2.112v7.361c0 2.576 1.22 3.601 4.284 3.601.586 0 1.148-.049 1.587-.134v-2.32l-.396.038a7.486 7.486 0 01-.63.023c-1.269 0-1.83-.598-1.83-1.928V27.1h2.856v-2.357h-2.856v-3.357h-3.015zm17.331 12.964c-.44 1.001-1.477 1.563-2.979 1.563-1.99 0-3.271-1.416-3.344-3.675v-.158h9.326v-.965c0-4.187-2.283-6.714-6.091-6.714-3.87 0-6.275 2.698-6.275 6.983 0 4.272 2.368 6.885 6.299 6.885 3.15 0 5.383-1.514 5.933-3.919h-2.869zm-3.1-7.593c1.818 0 3.015 1.282 3.076 3.308h-6.287c.134-2.002 1.404-3.308 3.21-3.308zm22.93 11.463c3.369 0 5.48-2.65 5.48-6.885 0-4.26-2.1-6.897-5.48-6.897-1.832 0-3.37.891-4.066 2.344h-.207v-7.288h-3.027V38h2.917v-2.112h.208c.756 1.465 2.307 2.332 4.174 2.332zm-.953-11.255c2.063 0 3.32 1.648 3.32 4.37 0 2.722-1.245 4.37-3.32 4.37-2.075 0-3.369-1.672-3.369-4.37 0-2.698 1.306-4.37 3.37-4.37zm18.027 7.385c-.44 1.001-1.478 1.563-2.979 1.563-1.99 0-3.271-1.416-3.345-3.675v-.158h9.326v-.965c0-4.187-2.282-6.714-6.09-6.714-3.87 0-6.275 2.698-6.275 6.983 0 4.272 2.368 6.885 6.299 6.885 3.149 0 5.383-1.514 5.932-3.919h-2.868zm-3.101-7.593c1.819 0 3.015 1.282 3.076 3.308h-6.287c.135-2.002 1.404-3.308 3.21-3.308zm9.957-5.37v3.356h-2.111V27.1h2.111v7.361c0 2.576 1.221 3.601 4.285 3.601.586 0 1.147-.049 1.587-.134v-2.32l-.396.038a7.486 7.486 0 01-.63.023c-1.269 0-1.83-.598-1.83-1.928V27.1h2.856v-2.357h-2.857v-3.357h-3.015zm12.424 16.833c1.745 0 3.21-.757 3.955-2.051h.207V38h2.918v-9.119c0-2.82-1.929-4.48-5.36-4.48-3.173 0-5.383 1.49-5.627 3.821h2.857c.28-.915 1.233-1.416 2.624-1.416 1.636 0 2.515.745 2.515 2.075v1.148l-3.442.207c-3.248.183-5.066 1.587-5.066 3.98 0 2.441 1.843 4.004 4.419 4.004zm.89-2.332c-1.342 0-2.306-.671-2.306-1.819 0-1.11.793-1.733 2.49-1.843l3.015-.207v1.086c0 1.587-1.367 2.783-3.198 2.783zM73.846 52.581a.881.881 0 00.879-.879.881.881 0 00-.88-.879.881.881 0 00-.878.88c0 .483.395.878.879.878zM73.216 62h1.26v-7.896h-1.26V62zm8.172-10.818c-2.989 0-4.85 2.131-4.85 5.53 0 3.384 1.817 5.537 4.85 5.537 3.017 0 4.848-2.16 4.848-5.537 0-3.391-1.846-5.53-4.848-5.53zm0 1.216c2.16 0 3.493 1.67 3.493 4.314 0 2.622-1.325 4.321-3.493 4.321-2.198 0-3.494-1.699-3.494-4.321 0-2.644 1.34-4.314 3.494-4.314zm6.538 6.84c.14 1.825 1.685 3.011 3.926 3.011 2.417 0 3.947-1.238 3.947-3.179 0-1.495-.815-2.338-2.83-2.89l-1.344-.354c-1.458-.374-2.036-.85-2.036-1.678 0-1.069.93-1.772 2.336-1.772 1.318 0 2.212.645 2.395 1.728h1.326c-.11-1.706-1.634-2.922-3.677-2.922-2.234 0-3.735 1.216-3.735 3.01 0 1.502.827 2.366 2.739 2.85l1.355.351c1.457.366 2.117.938 2.117 1.838 0 1.048-1.048 1.817-2.469 1.817-1.501 0-2.556-.703-2.717-1.81h-1.333zM104.401 62h1.319V51.431h-1.311l-2.813 2.022v1.391l2.688-1.948h.117V62zm6.905 0h1.318V51.431h-1.31l-2.813 2.022v1.391l2.688-1.948h.117V62zm8.655-3.574h2.944v-1.187h-2.944v-3.09h-1.187v3.09h-2.944v1.187h2.944v3.09h1.187v-3.09zm9.51 3.574h1.26v-4.893c0-1.113.871-1.919 2.072-1.919l.217.008c.238.014.512.044.59.066v-1.26a5.41 5.41 0 00-.63-.037c-1.048 0-1.956.542-2.19 1.311h-.118v-1.172h-1.201V62zm10.633-2.043c-.33.695-1.018 1.069-2.037 1.069-1.34 0-2.211-.989-2.277-2.549v-.059h5.676v-.483c0-2.454-1.297-3.97-3.428-3.97-2.168 0-3.56 1.612-3.56 4.095 0 2.497 1.37 4.08 3.56 4.08 1.729 0 2.96-.836 3.325-2.183h-1.26zm-2.08-4.878c1.252 0 2.087.922 2.116 2.321h-4.35c.095-1.399.974-2.321 2.233-2.321zm8.237-1.114c-2 0-3.303 1.612-3.303 4.087 0 2.49 1.289 4.087 3.303 4.087 1.113 0 1.963-.461 2.468-1.326h.118v3.824h1.274V54.104h-1.216v1.319h-.117c-.469-.886-1.45-1.458-2.527-1.458zm.286 7.039c-1.436 0-2.285-1.099-2.285-2.952 0-1.845.857-2.951 2.292-2.951 1.428 0 2.33 1.142 2.33 2.951 0 1.817-.894 2.952-2.337 2.952zm12.244-6.9h-1.26v4.673c0 1.385-.762 2.212-2.153 2.212-1.26 0-1.787-.659-1.787-2.08v-4.805h-1.26v5.113c0 1.867.923 2.922 2.695 2.922 1.209 0 2.05-.498 2.446-1.377h.118V62h1.2v-7.896zm2.942-1.523a.881.881 0 00.879-.879.881.881 0 00-.879-.879.881.881 0 00-.879.88c0 .483.396.878.879.878zm-.63 9.419h1.26v-7.896h-1.26V62zm3.572 0h1.26v-4.893c0-1.113.872-1.919 2.073-1.919l.216.008c.238.014.512.044.59.066v-1.26a5.41 5.41 0 00-.63-.037c-1.048 0-1.956.542-2.19 1.311h-.118v-1.172h-1.2V62zm10.633-2.043c-.33.695-1.018 1.069-2.036 1.069-1.34 0-2.212-.989-2.278-2.549v-.059h5.676v-.483c0-2.454-1.296-3.97-3.428-3.97-2.168 0-3.56 1.612-3.56 4.095 0 2.497 1.37 4.08 3.56 4.08 1.729 0 2.96-.836 3.326-2.183h-1.26zm-2.08-4.878c1.252 0 2.087.922 2.116 2.321h-4.35c.095-1.399.974-2.321 2.234-2.321zm8.252 7.06c1.091 0 2.029-.52 2.527-1.399h.117V62h1.201V50.97h-1.26v4.38h-.11c-.446-.865-1.376-1.385-2.475-1.385-2.007 0-3.318 1.612-3.318 4.087 0 2.483 1.297 4.087 3.318 4.087zm.293-7.038c1.428 0 2.322 1.142 2.322 2.951 0 1.824-.886 2.952-2.322 2.952-1.443 0-2.307-1.106-2.307-2.952 0-1.838.871-2.951 2.307-2.951z" fill="#202124" fill-rule="nonzero"/></g></svg><svg width="40" height="40" viewBox="-5 -5 40 40" id="svg--facebook" y="166" xmlns="http://www.w3.org/2000/svg"><path d="M28.345 0H1.655C.741 0 0 .741 0 1.655v26.69C0 29.26.741 30 1.655 30h14.368V18.383H12.11v-4.527h3.912v-3.344c0-3.873 2.367-5.98 5.823-5.98 1.656 0 3.08.12 3.495.175v4.05H22.94c-1.875 0-2.24.902-2.24 2.214v2.889h4.48l-.581 4.538H20.7V30h7.644C29.26 30 30 29.26 30 28.345V1.655C30 .741 29.26 0 28.345 0z" fill="#202124" fill-rule="evenodd"/></svg><svg width="40" height="40" viewBox="-5 -5 40 40" id="svg--github" x="40" y="166" xmlns="http://www.w3.org/2000/svg"><path d="M15 0C6.713 0 0 6.716 0 15c0 6.629 4.298 12.25 10.257 14.231.75.142 1.024-.322 1.024-.721 0-.356-.012-1.3-.019-2.55-4.172.905-5.052-2.012-5.052-2.012-.682-1.732-1.67-2.194-1.67-2.194-1.357-.93.107-.912.107-.912 1.506.106 2.296 1.546 2.296 1.546 1.338 2.293 3.512 1.63 4.37 1.247.135-.97.52-1.631.95-2.006-3.332-.375-6.833-1.665-6.833-7.413 0-1.637.582-2.975 1.544-4.025-.169-.378-.676-1.904.132-3.97 0 0 1.255-.402 4.125 1.538a14.38 14.38 0 013.75-.506 14.38 14.38 0 013.75.506c2.85-1.94 4.105-1.538 4.105-1.538.807 2.066.3 3.592.15 3.97.957 1.05 1.538 2.388 1.538 4.025 0 5.763-3.506 7.031-6.844 7.4.526.45 1.013 1.37 1.013 2.775 0 2.008-.02 3.62-.02 4.108 0 .394.263.862 1.033.712C25.707 27.244 30 21.62 30 15c0-8.284-6.715-15-15-15z" fill="#202124" fill-rule="evenodd"/></svg><svg width="40" height="40" viewBox="-5 -5 40 40" id="svg--instagram" x="80" y="166" xmlns="http://www.w3.org/2000/svg"><path d="M15 0c-4.075 0-4.584.019-6.184.09C7.22.165 6.131.416 5.175.788a7.347 7.347 0 00-2.658 1.73 7.32 7.32 0 00-1.73 2.657C.417 6.131.164 7.219.09 8.816.015 10.416 0 10.925 0 15s.019 4.584.09 6.184c.075 1.596.326 2.685.697 3.641a7.357 7.357 0 001.73 2.658 7.337 7.337 0 002.658 1.73c.957.37 2.045.623 3.641.697 1.6.075 2.109.09 6.184.09 4.076 0 4.584-.019 6.185-.09 1.595-.075 2.684-.327 3.64-.698a7.372 7.372 0 002.658-1.73 7.32 7.32 0 001.73-2.657c.37-.956.623-2.045.697-3.641.075-1.6.09-2.109.09-6.184s-.02-4.584-.09-6.184c-.075-1.596-.327-2.686-.697-3.641a7.36 7.36 0 00-1.73-2.658 7.314 7.314 0 00-2.658-1.73c-.956-.37-2.045-.623-3.64-.697C19.584.015 19.075 0 15 0zm0 2.7c4.004 0 4.482.02 6.063.089 1.462.068 2.256.311 2.784.518a4.65 4.65 0 011.726 1.12 4.641 4.641 0 011.121 1.727c.204.527.45 1.321.516 2.783.072 1.583.087 2.058.087 6.063s-.018 4.481-.091 6.063c-.077 1.462-.321 2.256-.527 2.783-.28.703-.598 1.2-1.124 1.728a4.682 4.682 0 01-1.724 1.12c-.526.205-1.332.45-2.795.516-1.591.071-2.061.087-6.073.087-4.014 0-4.483-.018-6.074-.092-1.464-.076-2.27-.32-2.795-.526-.712-.28-1.2-.599-1.724-1.124a4.556 4.556 0 01-1.125-1.725c-.206-.525-.449-1.331-.525-2.794-.056-1.575-.076-2.061-.076-6.055 0-3.995.02-4.482.076-6.076.076-1.462.319-2.267.525-2.792.262-.713.599-1.2 1.125-1.727.524-.524 1.012-.861 1.724-1.122.525-.208 1.313-.451 2.776-.526 1.594-.057 2.062-.075 6.074-.075L15 2.7zm0 4.598A7.702 7.702 0 007.297 15 7.702 7.702 0 1015 7.298zM15 20c-2.763 0-5-2.237-5-5s2.237-5 5-5 5 2.237 5 5-2.237 5-5 5zm9.807-13.006a1.8 1.8 0 01-3.6 0 1.8 1.8 0 013.6 0z" fill="#202124" fill-rule="evenodd"/></svg><svg width="40" height="40" viewBox="-5 -5 40 40" id="svg--linkedin" x="120" y="166" xmlns="http://www.w3.org/2000/svg"><path d="M25.559 25.565h-4.444v-6.961c0-1.66-.032-3.796-2.314-3.796-2.316 0-2.67 1.806-2.67 3.673v7.084H11.69V11.25h4.267v1.951h.057c.595-1.125 2.046-2.312 4.212-2.312 4.501 0 5.334 2.962 5.334 6.819v7.857h-.001zM6.67 9.29A2.578 2.578 0 014.092 6.71 2.58 2.58 0 116.67 9.291zm2.227 16.274H4.445V11.25h4.453v14.315zM27.781 0H2.214C.99 0 0 .968 0 2.161V27.84C0 29.034.99 30 2.214 30h25.563C29 30 30 29.034 30 27.839V2.16C30 .967 29 0 27.777 0h.004z" fill="#202124" fill-rule="evenodd"/></svg><svg width="40" height="34" viewBox="-5 -5 40 34" id="svg--medium" x="162" y="90" xmlns="http://www.w3.org/2000/svg"><path d="M3.558 4.859a1.158 1.158 0 00-.38-.98L.378.504V0h8.697l6.723 14.744L21.708 0H30v.504L27.604 2.8a.702.702 0 00-.267.673v16.875a.702.702 0 00.267.67l2.338 2.297v.504H18.178v-.504l2.421-2.353c.239-.237.239-.307.239-.672V6.651L14.1 23.761h-.909L5.348 6.651V18.12c-.065.482.094.967.433 1.316l3.15 3.825v.503H0v-.504l3.15-3.825c.338-.348.487-.838.408-1.315V4.859z" fill="#202124" fill-rule="evenodd"/></svg><svg width="43" height="38" viewBox="-5 -5 43 38" id="svg--reddit" x="76" y="90" xmlns="http://www.w3.org/2000/svg"><path d="M3.03 16.622c-.083.38-.124.77-.124 1.164 0 4.734 6.052 8.592 13.493 8.592 7.439 0 13.491-3.855 13.491-8.592 0-.376-.04-.75-.114-1.112l-.019-.044a.604.604 0 01-.04-.227c-.416-1.616-1.537-3.081-3.157-4.266a.576.576 0 01-.173-.097c-.036-.027-.062-.057-.092-.088-2.465-1.696-5.99-2.76-9.894-2.76-3.872 0-7.362 1.043-9.826 2.71a.537.537 0 01-.246.17C4.67 13.257 3.52 14.735 3.09 16.366c0 .08-.017.157-.049.235l-.012.02zm13.437 7.48c-2.466 0-4.203-.534-5.31-1.645a.617.617 0 010-.869.645.645 0 01.873 0c.866.865 2.316 1.297 4.437 1.297 2.121 0 3.562-.413 4.427-1.278.226-.225.619-.225.865 0a.664.664 0 010 .887c-1.113 1.111-2.84 1.647-5.31 1.647l.018-.038zM11.51 13.69c-1.258 0-2.306 1.052-2.306 2.306 0 1.251 1.048 2.269 2.306 2.269a2.268 2.268 0 002.269-2.269c0-1.254-1.015-2.306-2.27-2.306zm9.944 0c-1.257 0-2.307 1.052-2.307 2.306 0 1.251 1.05 2.269 2.307 2.269a2.268 2.268 0 002.27-2.269c0-1.254-1.015-2.306-2.27-2.306zm6.254-2.193c1.425 1.146 2.475 2.504 3.009 3.993.62-.462.988-1.188.988-1.992a2.5 2.5 0 00-3.997-1.998v-.003zm-23.98-.493a2.502 2.502 0 00-2.5 2.5c0 .746.33 1.44.887 1.91.55-1.484 1.611-2.824 3.042-3.955a2.501 2.501 0 00-1.428-.453v-.002h-.001zM16.4 27.612c-8.121 0-14.726-4.407-14.726-9.82 0-.378.032-.748.095-1.113A3.743 3.743 0 010 13.498c0-2.057 1.688-3.73 3.747-3.73.927 0 1.791.338 2.47.937 2.552-1.637 5.992-2.668 9.779-2.739L18.488.371l.555.13s.022 0 .022.004l5.807 1.365A3.092 3.092 0 0127.71 0a3.076 3.076 0 013.068 3.072 3.075 3.075 0 01-3.068 3.071 3.074 3.074 0 01-3.066-3.066L19.35 1.823 17.332 7.98c3.644.144 6.94 1.174 9.41 2.779a3.663 3.663 0 012.522-.989A3.734 3.734 0 0133 13.496a3.758 3.758 0 01-1.894 3.252c.038.35.08.68.08 1.03-.02 5.415-6.607 9.821-14.739 9.821l-.046.013zM27.647 1.23a1.841 1.841 0 100 3.682 1.836 1.836 0 001.828-1.835 1.84 1.84 0 00-1.852-1.83l.024-.017z" fill="#202124" fill-rule="evenodd"/></svg><svg width="43" height="38" viewBox="-5 -5 43 38" id="svg--twitter" x="119" y="90" xmlns="http://www.w3.org/2000/svg"><path d="M32.935 3.715a13.679 13.679 0 01-3.884 1.073 6.854 6.854 0 002.974-3.769 13.916 13.916 0 01-4.3 1.639A6.716 6.716 0 0022.789.5c-3.735 0-6.764 3.05-6.764 6.806 0 .54.061 1.059.174 1.555C10.575 8.594 5.59 5.876 2.255 1.766c-.587 1-.916 2.161-.916 3.426a6.823 6.823 0 003.009 5.67 6.71 6.71 0 01-3.064-.853v.084c0 3.301 2.328 6.054 5.426 6.681a6.82 6.82 0 01-3.042.118c.868 2.703 3.362 4.674 6.33 4.73a13.51 13.51 0 01-8.39 2.913c-.536 0-1.07-.032-1.608-.092A19.15 19.15 0 0010.39 27.5c12.45 0 19.248-10.375 19.248-19.358 0-.29 0-.582-.02-.872A13.712 13.712 0 0033 3.743l-.065-.028z" fill="#202124" fill-rule="evenodd"/></svg></svg>